G04 #@! TF.GenerationSoftware,KiCad,Pcbnew,(5.1.6)-1*
G04 #@! TF.CreationDate,2021-05-12T21:13:22-05:00*
G04 #@! TF.ProjectId,scuznet,7363757a-6e65-4742-9e6b-696361645f70,rev?*
G04 #@! TF.SameCoordinates,Original*
G04 #@! TF.FileFunction,Legend,Bot*
G04 #@! TF.FilePolarity,Positive*
%FSLAX46Y46*%
G04 Gerber Fmt 4.6, Leading zero omitted, Abs format (unit mm)*
G04 Created by KiCad (PCBNEW (5.1.6)-1) date 2021-05-12 21:13:22*
%MOMM*%
%LPD*%
G01*
G04 APERTURE LIST*
%ADD10C,0.762000*%
%ADD11C,0.010000*%
%ADD12C,4.500000*%
%ADD13C,1.900000*%
%ADD14C,4.900000*%
%ADD15O,2.100000X2.100000*%
%ADD16R,2.100000X2.100000*%
%ADD17O,3.900000X3.900000*%
%ADD18R,2.305000X2.400000*%
%ADD19O,2.305000X2.400000*%
%ADD20C,1.200000*%
%ADD21C,2.200000*%
%ADD22C,2.400000*%
%ADD23C,3.600000*%
%ADD24R,2.051000X2.051000*%
%ADD25C,2.051000*%
%ADD26C,3.000000*%
%ADD27C,3.650000*%
%ADD28O,2.000000X2.000000*%
%ADD29R,2.000000X2.000000*%
%ADD30C,2.000000*%
G04 APERTURE END LIST*
D10*
X91632314Y-84727142D02*
X91292135Y-84908571D01*
X90566421Y-84908571D01*
X90180885Y-84727142D01*
X89954100Y-84364285D01*
X89931421Y-84182857D01*
X90067492Y-83820000D01*
X90407671Y-83638571D01*
X90951957Y-83638571D01*
X91292135Y-83457142D01*
X91428207Y-83094285D01*
X91405528Y-82912857D01*
X91178742Y-82550000D01*
X90793207Y-82368571D01*
X90248921Y-82368571D01*
X89908742Y-82550000D01*
X86733742Y-84727142D02*
X87119278Y-84908571D01*
X87844992Y-84908571D01*
X88185171Y-84727142D01*
X88343921Y-84545714D01*
X88479992Y-84182857D01*
X88343921Y-83094285D01*
X88117135Y-82731428D01*
X87913028Y-82550000D01*
X87527492Y-82368571D01*
X86801778Y-82368571D01*
X86461600Y-82550000D01*
X83173207Y-82368571D02*
X83490707Y-84908571D01*
X84806064Y-82368571D02*
X85055528Y-84364285D01*
X84919457Y-84727142D01*
X84579278Y-84908571D01*
X84034992Y-84908571D01*
X83649457Y-84727142D01*
X83445350Y-84545714D01*
X81721778Y-82368571D02*
X79726064Y-82368571D01*
X82039278Y-84908571D01*
X80043564Y-84908571D01*
X78637492Y-82368571D02*
X76641778Y-82368571D01*
X78954992Y-84908571D01*
X76959278Y-84908571D01*
X75553207Y-82368571D02*
X74963564Y-84908571D01*
X73738921Y-82368571D02*
X74963564Y-84908571D01*
X75439814Y-85815714D01*
X75643921Y-85997142D01*
X76029457Y-86178571D01*
X86711064Y-88845571D02*
X85259635Y-88845571D01*
X86008028Y-87575571D02*
X86416242Y-90841285D01*
X86280171Y-91204142D01*
X85939992Y-91385571D01*
X85577135Y-91385571D01*
X84307135Y-91385571D02*
X83830885Y-87575571D01*
X82674278Y-91385571D02*
X82424814Y-89389857D01*
X82560885Y-89027000D01*
X82901064Y-88845571D01*
X83445350Y-88845571D01*
X83830885Y-89027000D01*
X84034992Y-89208428D01*
X79385885Y-91204142D02*
X79771421Y-91385571D01*
X80497135Y-91385571D01*
X80837314Y-91204142D01*
X80973385Y-90841285D01*
X80791957Y-89389857D01*
X80565171Y-89027000D01*
X80179635Y-88845571D01*
X79453921Y-88845571D01*
X79113742Y-89027000D01*
X78977671Y-89389857D01*
X79023028Y-89752714D01*
X80882671Y-90115571D01*
X89092314Y-97681142D02*
X88752135Y-97862571D01*
X88026421Y-97862571D01*
X87640885Y-97681142D01*
X87414100Y-97318285D01*
X87391421Y-97136857D01*
X87527492Y-96774000D01*
X87867671Y-96592571D01*
X88411957Y-96592571D01*
X88752135Y-96411142D01*
X88888207Y-96048285D01*
X88865528Y-95866857D01*
X88638742Y-95504000D01*
X88253207Y-95322571D01*
X87708921Y-95322571D01*
X87368742Y-95504000D01*
X85531778Y-95322571D02*
X85849278Y-97862571D01*
X85577135Y-95685428D02*
X85373028Y-95504000D01*
X84987492Y-95322571D01*
X84443207Y-95322571D01*
X84103028Y-95504000D01*
X83966957Y-95866857D01*
X84216421Y-97862571D01*
X80769278Y-97862571D02*
X80519814Y-95866857D01*
X80655885Y-95504000D01*
X80996064Y-95322571D01*
X81721778Y-95322571D01*
X82107314Y-95504000D01*
X80746600Y-97681142D02*
X81132135Y-97862571D01*
X82039278Y-97862571D01*
X82379457Y-97681142D01*
X82515528Y-97318285D01*
X82470171Y-96955428D01*
X82243385Y-96592571D01*
X81857850Y-96411142D01*
X80950707Y-96411142D01*
X80565171Y-96229714D01*
X78954992Y-97862571D02*
X78637492Y-95322571D01*
X78478742Y-94052571D02*
X78682850Y-94234000D01*
X78524100Y-94415428D01*
X78319992Y-94234000D01*
X78478742Y-94052571D01*
X78524100Y-94415428D01*
X76596421Y-97862571D02*
X76936600Y-97681142D01*
X77072671Y-97318285D01*
X76664457Y-94052571D01*
D11*
G36*
X140368139Y-86443539D02*
G01*
X140151545Y-86492819D01*
X139946368Y-86585060D01*
X139757900Y-86717714D01*
X139591427Y-86888234D01*
X139452239Y-87094070D01*
X139419719Y-87155982D01*
X139321541Y-87404720D01*
X139267027Y-87660309D01*
X139254430Y-87916908D01*
X139282003Y-88168679D01*
X139347999Y-88409781D01*
X139450672Y-88634376D01*
X139588273Y-88836622D01*
X139759057Y-89010681D01*
X139961275Y-89150713D01*
X140026630Y-89184646D01*
X140113253Y-89223743D01*
X140188390Y-89248733D01*
X140269547Y-89263318D01*
X140374229Y-89271202D01*
X140449300Y-89274059D01*
X140583362Y-89275861D01*
X140684313Y-89270087D01*
X140769526Y-89254792D01*
X140854447Y-89228716D01*
X141076835Y-89126476D01*
X141267436Y-88986975D01*
X141428980Y-88807682D01*
X141564195Y-88586066D01*
X141578496Y-88557100D01*
X141649296Y-88394821D01*
X141695672Y-88244838D01*
X141721733Y-88088225D01*
X141731586Y-87906056D01*
X141732000Y-87849986D01*
X141710879Y-87569945D01*
X141646729Y-87315591D01*
X141538373Y-87083815D01*
X141384633Y-86871507D01*
X141344377Y-86826862D01*
X141204770Y-86691919D01*
X141067899Y-86593177D01*
X140917130Y-86519877D01*
X140814428Y-86484053D01*
X140590863Y-86439767D01*
X140368139Y-86443539D01*
G37*
X140368139Y-86443539D02*
X140151545Y-86492819D01*
X139946368Y-86585060D01*
X139757900Y-86717714D01*
X139591427Y-86888234D01*
X139452239Y-87094070D01*
X139419719Y-87155982D01*
X139321541Y-87404720D01*
X139267027Y-87660309D01*
X139254430Y-87916908D01*
X139282003Y-88168679D01*
X139347999Y-88409781D01*
X139450672Y-88634376D01*
X139588273Y-88836622D01*
X139759057Y-89010681D01*
X139961275Y-89150713D01*
X140026630Y-89184646D01*
X140113253Y-89223743D01*
X140188390Y-89248733D01*
X140269547Y-89263318D01*
X140374229Y-89271202D01*
X140449300Y-89274059D01*
X140583362Y-89275861D01*
X140684313Y-89270087D01*
X140769526Y-89254792D01*
X140854447Y-89228716D01*
X141076835Y-89126476D01*
X141267436Y-88986975D01*
X141428980Y-88807682D01*
X141564195Y-88586066D01*
X141578496Y-88557100D01*
X141649296Y-88394821D01*
X141695672Y-88244838D01*
X141721733Y-88088225D01*
X141731586Y-87906056D01*
X141732000Y-87849986D01*
X141710879Y-87569945D01*
X141646729Y-87315591D01*
X141538373Y-87083815D01*
X141384633Y-86871507D01*
X141344377Y-86826862D01*
X141204770Y-86691919D01*
X141067899Y-86593177D01*
X140917130Y-86519877D01*
X140814428Y-86484053D01*
X140590863Y-86439767D01*
X140368139Y-86443539D01*
G36*
X151076683Y-85994100D02*
G01*
X150844747Y-86085026D01*
X150628741Y-86220945D01*
X150513103Y-86319986D01*
X150325591Y-86532669D01*
X150178910Y-86771176D01*
X150073939Y-87029954D01*
X150011559Y-87303447D01*
X149992650Y-87586103D01*
X150018092Y-87872366D01*
X150088766Y-88156681D01*
X150184732Y-88392000D01*
X150250316Y-88510773D01*
X150330329Y-88621628D01*
X150436508Y-88740138D01*
X150481490Y-88785775D01*
X150671705Y-88953877D01*
X150861716Y-89075668D01*
X151060146Y-89154867D01*
X151275618Y-89195191D01*
X151447500Y-89202227D01*
X151562595Y-89197049D01*
X151674499Y-89185274D01*
X151760276Y-89169368D01*
X151765000Y-89168082D01*
X151972501Y-89094931D01*
X152153204Y-88996473D01*
X152322717Y-88863256D01*
X152412991Y-88775703D01*
X152583981Y-88566504D01*
X152715218Y-88335470D01*
X152807477Y-88088301D01*
X152861533Y-87830697D01*
X152878160Y-87568359D01*
X152858134Y-87306986D01*
X152802229Y-87052279D01*
X152711221Y-86809938D01*
X152585884Y-86585662D01*
X152426993Y-86385153D01*
X152235324Y-86214110D01*
X152048830Y-86096995D01*
X151810622Y-85999613D01*
X151565365Y-85950559D01*
X151318804Y-85948999D01*
X151076683Y-85994100D01*
G37*
X151076683Y-85994100D02*
X150844747Y-86085026D01*
X150628741Y-86220945D01*
X150513103Y-86319986D01*
X150325591Y-86532669D01*
X150178910Y-86771176D01*
X150073939Y-87029954D01*
X150011559Y-87303447D01*
X149992650Y-87586103D01*
X150018092Y-87872366D01*
X150088766Y-88156681D01*
X150184732Y-88392000D01*
X150250316Y-88510773D01*
X150330329Y-88621628D01*
X150436508Y-88740138D01*
X150481490Y-88785775D01*
X150671705Y-88953877D01*
X150861716Y-89075668D01*
X151060146Y-89154867D01*
X151275618Y-89195191D01*
X151447500Y-89202227D01*
X151562595Y-89197049D01*
X151674499Y-89185274D01*
X151760276Y-89169368D01*
X151765000Y-89168082D01*
X151972501Y-89094931D01*
X152153204Y-88996473D01*
X152322717Y-88863256D01*
X152412991Y-88775703D01*
X152583981Y-88566504D01*
X152715218Y-88335470D01*
X152807477Y-88088301D01*
X152861533Y-87830697D01*
X152878160Y-87568359D01*
X152858134Y-87306986D01*
X152802229Y-87052279D01*
X152711221Y-86809938D01*
X152585884Y-86585662D01*
X152426993Y-86385153D01*
X152235324Y-86214110D01*
X152048830Y-86096995D01*
X151810622Y-85999613D01*
X151565365Y-85950559D01*
X151318804Y-85948999D01*
X151076683Y-85994100D01*
G36*
X114894093Y-92171802D02*
G01*
X114311098Y-92221948D01*
X113701488Y-92310731D01*
X113066193Y-92438040D01*
X112406144Y-92603765D01*
X111722268Y-92807797D01*
X111015496Y-93050025D01*
X110286758Y-93330339D01*
X110236000Y-93350956D01*
X110094222Y-93409257D01*
X109917299Y-93482874D01*
X109708362Y-93570463D01*
X109470541Y-93670677D01*
X109206966Y-93782170D01*
X108920767Y-93903597D01*
X108615073Y-94033610D01*
X108293015Y-94170864D01*
X107957723Y-94314014D01*
X107612326Y-94461713D01*
X107259955Y-94612615D01*
X106903740Y-94765375D01*
X106546809Y-94918645D01*
X106192295Y-95071081D01*
X105843325Y-95221337D01*
X105503031Y-95368065D01*
X105174542Y-95509921D01*
X104860989Y-95645559D01*
X104565500Y-95773632D01*
X104291207Y-95892794D01*
X104041239Y-96001700D01*
X103818726Y-96099003D01*
X103626797Y-96183358D01*
X103468584Y-96253418D01*
X103347216Y-96307838D01*
X103265822Y-96345271D01*
X103227533Y-96364372D01*
X103225600Y-96365649D01*
X103118902Y-96476614D01*
X103053147Y-96607208D01*
X103027533Y-96748116D01*
X103041257Y-96890020D01*
X103093518Y-97023603D01*
X103183512Y-97139549D01*
X103299446Y-97222899D01*
X103334870Y-97241999D01*
X103367199Y-97258605D01*
X103399264Y-97271733D01*
X103433898Y-97280397D01*
X103473931Y-97283611D01*
X103522194Y-97280390D01*
X103581520Y-97269747D01*
X103654739Y-97250696D01*
X103744683Y-97222253D01*
X103854183Y-97183431D01*
X103986071Y-97133244D01*
X104143178Y-97070707D01*
X104328336Y-96994834D01*
X104544375Y-96904640D01*
X104794128Y-96799137D01*
X105080425Y-96677342D01*
X105406099Y-96538267D01*
X105773980Y-96380928D01*
X106019600Y-96275870D01*
X106592928Y-96030695D01*
X107121718Y-95804607D01*
X107608141Y-95596713D01*
X108054365Y-95406119D01*
X108462560Y-95231934D01*
X108834895Y-95073263D01*
X109173539Y-94929216D01*
X109480661Y-94798898D01*
X109758431Y-94681417D01*
X110009018Y-94575880D01*
X110234591Y-94481395D01*
X110437319Y-94397068D01*
X110619372Y-94322008D01*
X110782918Y-94255320D01*
X110930127Y-94196113D01*
X111063169Y-94143493D01*
X111184212Y-94096568D01*
X111295426Y-94054445D01*
X111398980Y-94016231D01*
X111497042Y-93981034D01*
X111591784Y-93947960D01*
X111685372Y-93916118D01*
X111779978Y-93884613D01*
X111877770Y-93852554D01*
X111980917Y-93819047D01*
X112019313Y-93806610D01*
X112607734Y-93628576D01*
X113177149Y-93481344D01*
X113725760Y-93364887D01*
X114251769Y-93279178D01*
X114753376Y-93224187D01*
X115228783Y-93199888D01*
X115676191Y-93206253D01*
X116093803Y-93243255D01*
X116479820Y-93310865D01*
X116832442Y-93409056D01*
X117149872Y-93537800D01*
X117430311Y-93697070D01*
X117671960Y-93886838D01*
X117679326Y-93893688D01*
X117823000Y-94015053D01*
X117951288Y-94093112D01*
X118071284Y-94130113D01*
X118190079Y-94128307D01*
X118307666Y-94092952D01*
X118439367Y-94013547D01*
X118542033Y-93902905D01*
X118611239Y-93771001D01*
X118642557Y-93627807D01*
X118631563Y-93483298D01*
X118608970Y-93414034D01*
X118538023Y-93294110D01*
X118425135Y-93164350D01*
X118276974Y-93029680D01*
X118100210Y-92895023D01*
X117901509Y-92765303D01*
X117687541Y-92645446D01*
X117464973Y-92540374D01*
X117377320Y-92504483D01*
X116941340Y-92359792D01*
X116474098Y-92254288D01*
X115976523Y-92187862D01*
X115449545Y-92160404D01*
X114894093Y-92171802D01*
G37*
X114894093Y-92171802D02*
X114311098Y-92221948D01*
X113701488Y-92310731D01*
X113066193Y-92438040D01*
X112406144Y-92603765D01*
X111722268Y-92807797D01*
X111015496Y-93050025D01*
X110286758Y-93330339D01*
X110236000Y-93350956D01*
X110094222Y-93409257D01*
X109917299Y-93482874D01*
X109708362Y-93570463D01*
X109470541Y-93670677D01*
X109206966Y-93782170D01*
X108920767Y-93903597D01*
X108615073Y-94033610D01*
X108293015Y-94170864D01*
X107957723Y-94314014D01*
X107612326Y-94461713D01*
X107259955Y-94612615D01*
X106903740Y-94765375D01*
X106546809Y-94918645D01*
X106192295Y-95071081D01*
X105843325Y-95221337D01*
X105503031Y-95368065D01*
X105174542Y-95509921D01*
X104860989Y-95645559D01*
X104565500Y-95773632D01*
X104291207Y-95892794D01*
X104041239Y-96001700D01*
X103818726Y-96099003D01*
X103626797Y-96183358D01*
X103468584Y-96253418D01*
X103347216Y-96307838D01*
X103265822Y-96345271D01*
X103227533Y-96364372D01*
X103225600Y-96365649D01*
X103118902Y-96476614D01*
X103053147Y-96607208D01*
X103027533Y-96748116D01*
X103041257Y-96890020D01*
X103093518Y-97023603D01*
X103183512Y-97139549D01*
X103299446Y-97222899D01*
X103334870Y-97241999D01*
X103367199Y-97258605D01*
X103399264Y-97271733D01*
X103433898Y-97280397D01*
X103473931Y-97283611D01*
X103522194Y-97280390D01*
X103581520Y-97269747D01*
X103654739Y-97250696D01*
X103744683Y-97222253D01*
X103854183Y-97183431D01*
X103986071Y-97133244D01*
X104143178Y-97070707D01*
X104328336Y-96994834D01*
X104544375Y-96904640D01*
X104794128Y-96799137D01*
X105080425Y-96677342D01*
X105406099Y-96538267D01*
X105773980Y-96380928D01*
X106019600Y-96275870D01*
X106592928Y-96030695D01*
X107121718Y-95804607D01*
X107608141Y-95596713D01*
X108054365Y-95406119D01*
X108462560Y-95231934D01*
X108834895Y-95073263D01*
X109173539Y-94929216D01*
X109480661Y-94798898D01*
X109758431Y-94681417D01*
X110009018Y-94575880D01*
X110234591Y-94481395D01*
X110437319Y-94397068D01*
X110619372Y-94322008D01*
X110782918Y-94255320D01*
X110930127Y-94196113D01*
X111063169Y-94143493D01*
X111184212Y-94096568D01*
X111295426Y-94054445D01*
X111398980Y-94016231D01*
X111497042Y-93981034D01*
X111591784Y-93947960D01*
X111685372Y-93916118D01*
X111779978Y-93884613D01*
X111877770Y-93852554D01*
X111980917Y-93819047D01*
X112019313Y-93806610D01*
X112607734Y-93628576D01*
X113177149Y-93481344D01*
X113725760Y-93364887D01*
X114251769Y-93279178D01*
X114753376Y-93224187D01*
X115228783Y-93199888D01*
X115676191Y-93206253D01*
X116093803Y-93243255D01*
X116479820Y-93310865D01*
X116832442Y-93409056D01*
X117149872Y-93537800D01*
X117430311Y-93697070D01*
X117671960Y-93886838D01*
X117679326Y-93893688D01*
X117823000Y-94015053D01*
X117951288Y-94093112D01*
X118071284Y-94130113D01*
X118190079Y-94128307D01*
X118307666Y-94092952D01*
X118439367Y-94013547D01*
X118542033Y-93902905D01*
X118611239Y-93771001D01*
X118642557Y-93627807D01*
X118631563Y-93483298D01*
X118608970Y-93414034D01*
X118538023Y-93294110D01*
X118425135Y-93164350D01*
X118276974Y-93029680D01*
X118100210Y-92895023D01*
X117901509Y-92765303D01*
X117687541Y-92645446D01*
X117464973Y-92540374D01*
X117377320Y-92504483D01*
X116941340Y-92359792D01*
X116474098Y-92254288D01*
X115976523Y-92187862D01*
X115449545Y-92160404D01*
X114894093Y-92171802D01*
G36*
X120022525Y-96838775D02*
G01*
X119297949Y-96873914D01*
X118808500Y-96915370D01*
X118524848Y-96946431D01*
X118197189Y-96987810D01*
X117831060Y-97038584D01*
X117431993Y-97097831D01*
X117005526Y-97164628D01*
X116557191Y-97238053D01*
X116092525Y-97317183D01*
X115617063Y-97401096D01*
X115136338Y-97488870D01*
X114655886Y-97579582D01*
X114181241Y-97672311D01*
X113779300Y-97753502D01*
X113236470Y-97867760D01*
X112696527Y-97986873D01*
X112163973Y-98109648D01*
X111643309Y-98234892D01*
X111139036Y-98361414D01*
X110655657Y-98488021D01*
X110197672Y-98613520D01*
X109769582Y-98736719D01*
X109375890Y-98856425D01*
X109021095Y-98971446D01*
X108709700Y-99080590D01*
X108567927Y-99134042D01*
X108390658Y-99221016D01*
X108259870Y-99327044D01*
X108174385Y-99453595D01*
X108133024Y-99602141D01*
X108128500Y-99682300D01*
X108153042Y-99813772D01*
X108218895Y-99936979D01*
X108316575Y-100043035D01*
X108436597Y-100123053D01*
X108569477Y-100168148D01*
X108654035Y-100174674D01*
X108704235Y-100165794D01*
X108794591Y-100142376D01*
X108917336Y-100106736D01*
X109064703Y-100061192D01*
X109228926Y-100008058D01*
X109359700Y-99964207D01*
X109900758Y-99788378D01*
X110490134Y-99612669D01*
X111125347Y-99437649D01*
X111803918Y-99263888D01*
X112523367Y-99091954D01*
X113281214Y-98922417D01*
X114074979Y-98755847D01*
X114902181Y-98592812D01*
X115760340Y-98433881D01*
X116646977Y-98279624D01*
X116840000Y-98247305D01*
X117231564Y-98182849D01*
X117579899Y-98127113D01*
X117891677Y-98079291D01*
X118173570Y-98038579D01*
X118432250Y-98004175D01*
X118674388Y-97975273D01*
X118906655Y-97951069D01*
X119135723Y-97930761D01*
X119368264Y-97913543D01*
X119610948Y-97898612D01*
X119827930Y-97887228D01*
X120343721Y-97873472D01*
X120863537Y-97881773D01*
X121374650Y-97911390D01*
X121864332Y-97961582D01*
X122319854Y-98031607D01*
X122326400Y-98032812D01*
X122783810Y-98131911D01*
X123219236Y-98255562D01*
X123628957Y-98401875D01*
X124009251Y-98568962D01*
X124356395Y-98754935D01*
X124666667Y-98957905D01*
X124936345Y-99175983D01*
X125161706Y-99407282D01*
X125247276Y-99514650D01*
X125358898Y-99646989D01*
X125467214Y-99735189D01*
X125580770Y-99784509D01*
X125708110Y-99800207D01*
X125711287Y-99800215D01*
X125839075Y-99791420D01*
X125939921Y-99760073D01*
X126035401Y-99698679D01*
X126058897Y-99679499D01*
X126159342Y-99563738D01*
X126218494Y-99425588D01*
X126234615Y-99274537D01*
X126205965Y-99120075D01*
X126175015Y-99045937D01*
X126105387Y-98931559D01*
X126003321Y-98796616D01*
X125877284Y-98650666D01*
X125735742Y-98503269D01*
X125587160Y-98363985D01*
X125519862Y-98306170D01*
X125130670Y-98014245D01*
X124702694Y-97753940D01*
X124237098Y-97525495D01*
X123735048Y-97329152D01*
X123197712Y-97165153D01*
X122626253Y-97033740D01*
X122021840Y-96935154D01*
X121385636Y-96869637D01*
X120718810Y-96837430D01*
X120022525Y-96838775D01*
G37*
X120022525Y-96838775D02*
X119297949Y-96873914D01*
X118808500Y-96915370D01*
X118524848Y-96946431D01*
X118197189Y-96987810D01*
X117831060Y-97038584D01*
X117431993Y-97097831D01*
X117005526Y-97164628D01*
X116557191Y-97238053D01*
X116092525Y-97317183D01*
X115617063Y-97401096D01*
X115136338Y-97488870D01*
X114655886Y-97579582D01*
X114181241Y-97672311D01*
X113779300Y-97753502D01*
X113236470Y-97867760D01*
X112696527Y-97986873D01*
X112163973Y-98109648D01*
X111643309Y-98234892D01*
X111139036Y-98361414D01*
X110655657Y-98488021D01*
X110197672Y-98613520D01*
X109769582Y-98736719D01*
X109375890Y-98856425D01*
X109021095Y-98971446D01*
X108709700Y-99080590D01*
X108567927Y-99134042D01*
X108390658Y-99221016D01*
X108259870Y-99327044D01*
X108174385Y-99453595D01*
X108133024Y-99602141D01*
X108128500Y-99682300D01*
X108153042Y-99813772D01*
X108218895Y-99936979D01*
X108316575Y-100043035D01*
X108436597Y-100123053D01*
X108569477Y-100168148D01*
X108654035Y-100174674D01*
X108704235Y-100165794D01*
X108794591Y-100142376D01*
X108917336Y-100106736D01*
X109064703Y-100061192D01*
X109228926Y-100008058D01*
X109359700Y-99964207D01*
X109900758Y-99788378D01*
X110490134Y-99612669D01*
X111125347Y-99437649D01*
X111803918Y-99263888D01*
X112523367Y-99091954D01*
X113281214Y-98922417D01*
X114074979Y-98755847D01*
X114902181Y-98592812D01*
X115760340Y-98433881D01*
X116646977Y-98279624D01*
X116840000Y-98247305D01*
X117231564Y-98182849D01*
X117579899Y-98127113D01*
X117891677Y-98079291D01*
X118173570Y-98038579D01*
X118432250Y-98004175D01*
X118674388Y-97975273D01*
X118906655Y-97951069D01*
X119135723Y-97930761D01*
X119368264Y-97913543D01*
X119610948Y-97898612D01*
X119827930Y-97887228D01*
X120343721Y-97873472D01*
X120863537Y-97881773D01*
X121374650Y-97911390D01*
X121864332Y-97961582D01*
X122319854Y-98031607D01*
X122326400Y-98032812D01*
X122783810Y-98131911D01*
X123219236Y-98255562D01*
X123628957Y-98401875D01*
X124009251Y-98568962D01*
X124356395Y-98754935D01*
X124666667Y-98957905D01*
X124936345Y-99175983D01*
X125161706Y-99407282D01*
X125247276Y-99514650D01*
X125358898Y-99646989D01*
X125467214Y-99735189D01*
X125580770Y-99784509D01*
X125708110Y-99800207D01*
X125711287Y-99800215D01*
X125839075Y-99791420D01*
X125939921Y-99760073D01*
X126035401Y-99698679D01*
X126058897Y-99679499D01*
X126159342Y-99563738D01*
X126218494Y-99425588D01*
X126234615Y-99274537D01*
X126205965Y-99120075D01*
X126175015Y-99045937D01*
X126105387Y-98931559D01*
X126003321Y-98796616D01*
X125877284Y-98650666D01*
X125735742Y-98503269D01*
X125587160Y-98363985D01*
X125519862Y-98306170D01*
X125130670Y-98014245D01*
X124702694Y-97753940D01*
X124237098Y-97525495D01*
X123735048Y-97329152D01*
X123197712Y-97165153D01*
X122626253Y-97033740D01*
X122021840Y-96935154D01*
X121385636Y-96869637D01*
X120718810Y-96837430D01*
X120022525Y-96838775D01*
G36*
X118574055Y-102006042D02*
G01*
X118190553Y-102011293D01*
X117771668Y-102020778D01*
X117320437Y-102034385D01*
X116839900Y-102052005D01*
X116333093Y-102073527D01*
X115803056Y-102098840D01*
X115252826Y-102127833D01*
X114685442Y-102160397D01*
X114103941Y-102196421D01*
X113511363Y-102235794D01*
X112966500Y-102274335D01*
X112611963Y-102300630D01*
X112237522Y-102329312D01*
X111846342Y-102360088D01*
X111441588Y-102392670D01*
X111026425Y-102426765D01*
X110604019Y-102462085D01*
X110177535Y-102498339D01*
X109750138Y-102535235D01*
X109324994Y-102572485D01*
X108905266Y-102609796D01*
X108494122Y-102646880D01*
X108094725Y-102683445D01*
X107710241Y-102719202D01*
X107343836Y-102753859D01*
X106998674Y-102787126D01*
X106677921Y-102818714D01*
X106384742Y-102848330D01*
X106122302Y-102875686D01*
X105893766Y-102900491D01*
X105702300Y-102922453D01*
X105551069Y-102941284D01*
X105443238Y-102956692D01*
X105381972Y-102968387D01*
X105373458Y-102971007D01*
X105318770Y-103001643D01*
X105248194Y-103053598D01*
X105208274Y-103087590D01*
X105111702Y-103205148D01*
X105057830Y-103337668D01*
X105044297Y-103476662D01*
X105068740Y-103613640D01*
X105128795Y-103740115D01*
X105222101Y-103847597D01*
X105346294Y-103927599D01*
X105451941Y-103963066D01*
X105512318Y-103967531D01*
X105619071Y-103964893D01*
X105768310Y-103955384D01*
X105956144Y-103939239D01*
X106117154Y-103923212D01*
X106905167Y-103842829D01*
X107723460Y-103762915D01*
X108563981Y-103684139D01*
X109418675Y-103607170D01*
X110279491Y-103532676D01*
X111138374Y-103461327D01*
X111987272Y-103393791D01*
X112818131Y-103330738D01*
X113622897Y-103272836D01*
X114393518Y-103220754D01*
X115121941Y-103175161D01*
X115125500Y-103174948D01*
X115550580Y-103150829D01*
X115978718Y-103128980D01*
X116405530Y-103109503D01*
X116826630Y-103092498D01*
X117237634Y-103078066D01*
X117634158Y-103066308D01*
X118011816Y-103057325D01*
X118366224Y-103051217D01*
X118692996Y-103048086D01*
X118987749Y-103048032D01*
X119246098Y-103051156D01*
X119463657Y-103057559D01*
X119636042Y-103067342D01*
X119672303Y-103070395D01*
X120330734Y-103154371D01*
X120971767Y-103283719D01*
X121593393Y-103457468D01*
X122193602Y-103674647D01*
X122770385Y-103934285D01*
X123321732Y-104235412D01*
X123845635Y-104577056D01*
X124340083Y-104958247D01*
X124803067Y-105378014D01*
X125110957Y-105698242D01*
X125204940Y-105799227D01*
X125292118Y-105888324D01*
X125364526Y-105957715D01*
X125414197Y-105999583D01*
X125424932Y-106006389D01*
X125529781Y-106041420D01*
X125653050Y-106056520D01*
X125765111Y-106048243D01*
X125771702Y-106046716D01*
X125913505Y-105988182D01*
X126028549Y-105894058D01*
X126112390Y-105773450D01*
X126160586Y-105635463D01*
X126168696Y-105489201D01*
X126132275Y-105343769D01*
X126123849Y-105325001D01*
X126072751Y-105241434D01*
X125987998Y-105131166D01*
X125875115Y-104999829D01*
X125739629Y-104853056D01*
X125587066Y-104696480D01*
X125422950Y-104535733D01*
X125252808Y-104376448D01*
X125082166Y-104224259D01*
X124916550Y-104084797D01*
X124872055Y-104048975D01*
X124322872Y-103643977D01*
X123746627Y-103281399D01*
X123145411Y-102962053D01*
X122521312Y-102686756D01*
X121876418Y-102456322D01*
X121212819Y-102271565D01*
X120532602Y-102133300D01*
X119837858Y-102042341D01*
X119693467Y-102029582D01*
X119481880Y-102016794D01*
X119222756Y-102008682D01*
X118919135Y-102005135D01*
X118574055Y-102006042D01*
G37*
X118574055Y-102006042D02*
X118190553Y-102011293D01*
X117771668Y-102020778D01*
X117320437Y-102034385D01*
X116839900Y-102052005D01*
X116333093Y-102073527D01*
X115803056Y-102098840D01*
X115252826Y-102127833D01*
X114685442Y-102160397D01*
X114103941Y-102196421D01*
X113511363Y-102235794D01*
X112966500Y-102274335D01*
X112611963Y-102300630D01*
X112237522Y-102329312D01*
X111846342Y-102360088D01*
X111441588Y-102392670D01*
X111026425Y-102426765D01*
X110604019Y-102462085D01*
X110177535Y-102498339D01*
X109750138Y-102535235D01*
X109324994Y-102572485D01*
X108905266Y-102609796D01*
X108494122Y-102646880D01*
X108094725Y-102683445D01*
X107710241Y-102719202D01*
X107343836Y-102753859D01*
X106998674Y-102787126D01*
X106677921Y-102818714D01*
X106384742Y-102848330D01*
X106122302Y-102875686D01*
X105893766Y-102900491D01*
X105702300Y-102922453D01*
X105551069Y-102941284D01*
X105443238Y-102956692D01*
X105381972Y-102968387D01*
X105373458Y-102971007D01*
X105318770Y-103001643D01*
X105248194Y-103053598D01*
X105208274Y-103087590D01*
X105111702Y-103205148D01*
X105057830Y-103337668D01*
X105044297Y-103476662D01*
X105068740Y-103613640D01*
X105128795Y-103740115D01*
X105222101Y-103847597D01*
X105346294Y-103927599D01*
X105451941Y-103963066D01*
X105512318Y-103967531D01*
X105619071Y-103964893D01*
X105768310Y-103955384D01*
X105956144Y-103939239D01*
X106117154Y-103923212D01*
X106905167Y-103842829D01*
X107723460Y-103762915D01*
X108563981Y-103684139D01*
X109418675Y-103607170D01*
X110279491Y-103532676D01*
X111138374Y-103461327D01*
X111987272Y-103393791D01*
X112818131Y-103330738D01*
X113622897Y-103272836D01*
X114393518Y-103220754D01*
X115121941Y-103175161D01*
X115125500Y-103174948D01*
X115550580Y-103150829D01*
X115978718Y-103128980D01*
X116405530Y-103109503D01*
X116826630Y-103092498D01*
X117237634Y-103078066D01*
X117634158Y-103066308D01*
X118011816Y-103057325D01*
X118366224Y-103051217D01*
X118692996Y-103048086D01*
X118987749Y-103048032D01*
X119246098Y-103051156D01*
X119463657Y-103057559D01*
X119636042Y-103067342D01*
X119672303Y-103070395D01*
X120330734Y-103154371D01*
X120971767Y-103283719D01*
X121593393Y-103457468D01*
X122193602Y-103674647D01*
X122770385Y-103934285D01*
X123321732Y-104235412D01*
X123845635Y-104577056D01*
X124340083Y-104958247D01*
X124803067Y-105378014D01*
X125110957Y-105698242D01*
X125204940Y-105799227D01*
X125292118Y-105888324D01*
X125364526Y-105957715D01*
X125414197Y-105999583D01*
X125424932Y-106006389D01*
X125529781Y-106041420D01*
X125653050Y-106056520D01*
X125765111Y-106048243D01*
X125771702Y-106046716D01*
X125913505Y-105988182D01*
X126028549Y-105894058D01*
X126112390Y-105773450D01*
X126160586Y-105635463D01*
X126168696Y-105489201D01*
X126132275Y-105343769D01*
X126123849Y-105325001D01*
X126072751Y-105241434D01*
X125987998Y-105131166D01*
X125875115Y-104999829D01*
X125739629Y-104853056D01*
X125587066Y-104696480D01*
X125422950Y-104535733D01*
X125252808Y-104376448D01*
X125082166Y-104224259D01*
X124916550Y-104084797D01*
X124872055Y-104048975D01*
X124322872Y-103643977D01*
X123746627Y-103281399D01*
X123145411Y-102962053D01*
X122521312Y-102686756D01*
X121876418Y-102456322D01*
X121212819Y-102271565D01*
X120532602Y-102133300D01*
X119837858Y-102042341D01*
X119693467Y-102029582D01*
X119481880Y-102016794D01*
X119222756Y-102008682D01*
X118919135Y-102005135D01*
X118574055Y-102006042D01*
G36*
X111523161Y-106138092D02*
G01*
X111454616Y-106152937D01*
X111360423Y-106177554D01*
X111232884Y-106213324D01*
X111064303Y-106261627D01*
X111061500Y-106262432D01*
X110167822Y-106504338D01*
X109268461Y-106719067D01*
X108372603Y-106904799D01*
X107489430Y-107059712D01*
X106628127Y-107181987D01*
X106146600Y-107236782D01*
X105896652Y-107261559D01*
X105657785Y-107282999D01*
X105425718Y-107301120D01*
X105196175Y-107315939D01*
X104964874Y-107327473D01*
X104727537Y-107335739D01*
X104479884Y-107340755D01*
X104217638Y-107342537D01*
X103936517Y-107341104D01*
X103632244Y-107336473D01*
X103300539Y-107328660D01*
X102937123Y-107317684D01*
X102537716Y-107303561D01*
X102098039Y-107286308D01*
X101613815Y-107265944D01*
X101386111Y-107256027D01*
X100972288Y-107238160D01*
X100607979Y-107223101D01*
X100291979Y-107210814D01*
X100023082Y-107201262D01*
X99800083Y-107194410D01*
X99621775Y-107190221D01*
X99486953Y-107188660D01*
X99394411Y-107189689D01*
X99342943Y-107193273D01*
X99336430Y-107194544D01*
X99258878Y-107226386D01*
X99173569Y-107278777D01*
X99139567Y-107305311D01*
X99038379Y-107422069D01*
X98979302Y-107556260D01*
X98961233Y-107698605D01*
X98983072Y-107839822D01*
X99043720Y-107970633D01*
X99142077Y-108081758D01*
X99239275Y-108146264D01*
X99257984Y-108156068D01*
X99275707Y-108164849D01*
X99295325Y-108172786D01*
X99319720Y-108180058D01*
X99351775Y-108186846D01*
X99394371Y-108193330D01*
X99450390Y-108199689D01*
X99522713Y-108206102D01*
X99614222Y-108212751D01*
X99727800Y-108219813D01*
X99866328Y-108227471D01*
X100032687Y-108235902D01*
X100229760Y-108245287D01*
X100460429Y-108255806D01*
X100727575Y-108267637D01*
X101034080Y-108280963D01*
X101382825Y-108295961D01*
X101776694Y-108312811D01*
X102196900Y-108330768D01*
X102487153Y-108342086D01*
X102792342Y-108351997D01*
X103106017Y-108360428D01*
X103421725Y-108367305D01*
X103733015Y-108372555D01*
X104033435Y-108376105D01*
X104316534Y-108377883D01*
X104575859Y-108377814D01*
X104804959Y-108375825D01*
X104997382Y-108371844D01*
X105146677Y-108365798D01*
X105168700Y-108364470D01*
X106179384Y-108278889D01*
X107210086Y-108151469D01*
X108253882Y-107983437D01*
X109303853Y-107776021D01*
X110353074Y-107530451D01*
X111290100Y-107278092D01*
X111486899Y-107219896D01*
X111641040Y-107169365D01*
X111759469Y-107123194D01*
X111849129Y-107078073D01*
X111916964Y-107030695D01*
X111969917Y-106977752D01*
X111998275Y-106940748D01*
X112064814Y-106805792D01*
X112087019Y-106662652D01*
X112068353Y-106520359D01*
X112012276Y-106387945D01*
X111922249Y-106274441D01*
X111801733Y-106188878D01*
X111694779Y-106148816D01*
X111651865Y-106138381D01*
X111614088Y-106132195D01*
X111573752Y-106131638D01*
X111523161Y-106138092D01*
G37*
X111523161Y-106138092D02*
X111454616Y-106152937D01*
X111360423Y-106177554D01*
X111232884Y-106213324D01*
X111064303Y-106261627D01*
X111061500Y-106262432D01*
X110167822Y-106504338D01*
X109268461Y-106719067D01*
X108372603Y-106904799D01*
X107489430Y-107059712D01*
X106628127Y-107181987D01*
X106146600Y-107236782D01*
X105896652Y-107261559D01*
X105657785Y-107282999D01*
X105425718Y-107301120D01*
X105196175Y-107315939D01*
X104964874Y-107327473D01*
X104727537Y-107335739D01*
X104479884Y-107340755D01*
X104217638Y-107342537D01*
X103936517Y-107341104D01*
X103632244Y-107336473D01*
X103300539Y-107328660D01*
X102937123Y-107317684D01*
X102537716Y-107303561D01*
X102098039Y-107286308D01*
X101613815Y-107265944D01*
X101386111Y-107256027D01*
X100972288Y-107238160D01*
X100607979Y-107223101D01*
X100291979Y-107210814D01*
X100023082Y-107201262D01*
X99800083Y-107194410D01*
X99621775Y-107190221D01*
X99486953Y-107188660D01*
X99394411Y-107189689D01*
X99342943Y-107193273D01*
X99336430Y-107194544D01*
X99258878Y-107226386D01*
X99173569Y-107278777D01*
X99139567Y-107305311D01*
X99038379Y-107422069D01*
X98979302Y-107556260D01*
X98961233Y-107698605D01*
X98983072Y-107839822D01*
X99043720Y-107970633D01*
X99142077Y-108081758D01*
X99239275Y-108146264D01*
X99257984Y-108156068D01*
X99275707Y-108164849D01*
X99295325Y-108172786D01*
X99319720Y-108180058D01*
X99351775Y-108186846D01*
X99394371Y-108193330D01*
X99450390Y-108199689D01*
X99522713Y-108206102D01*
X99614222Y-108212751D01*
X99727800Y-108219813D01*
X99866328Y-108227471D01*
X100032687Y-108235902D01*
X100229760Y-108245287D01*
X100460429Y-108255806D01*
X100727575Y-108267637D01*
X101034080Y-108280963D01*
X101382825Y-108295961D01*
X101776694Y-108312811D01*
X102196900Y-108330768D01*
X102487153Y-108342086D01*
X102792342Y-108351997D01*
X103106017Y-108360428D01*
X103421725Y-108367305D01*
X103733015Y-108372555D01*
X104033435Y-108376105D01*
X104316534Y-108377883D01*
X104575859Y-108377814D01*
X104804959Y-108375825D01*
X104997382Y-108371844D01*
X105146677Y-108365798D01*
X105168700Y-108364470D01*
X106179384Y-108278889D01*
X107210086Y-108151469D01*
X108253882Y-107983437D01*
X109303853Y-107776021D01*
X110353074Y-107530451D01*
X111290100Y-107278092D01*
X111486899Y-107219896D01*
X111641040Y-107169365D01*
X111759469Y-107123194D01*
X111849129Y-107078073D01*
X111916964Y-107030695D01*
X111969917Y-106977752D01*
X111998275Y-106940748D01*
X112064814Y-106805792D01*
X112087019Y-106662652D01*
X112068353Y-106520359D01*
X112012276Y-106387945D01*
X111922249Y-106274441D01*
X111801733Y-106188878D01*
X111694779Y-106148816D01*
X111651865Y-106138381D01*
X111614088Y-106132195D01*
X111573752Y-106131638D01*
X111523161Y-106138092D01*
G36*
X141399373Y-101326573D02*
G01*
X141264800Y-101363518D01*
X141145987Y-101441074D01*
X141051583Y-101549548D01*
X140990232Y-101679253D01*
X140970418Y-101807297D01*
X140976194Y-101883242D01*
X140992071Y-101991226D01*
X141015297Y-102114143D01*
X141031698Y-102188297D01*
X141052939Y-102283200D01*
X141081763Y-102418565D01*
X141116234Y-102584953D01*
X141154421Y-102772925D01*
X141194387Y-102973045D01*
X141234199Y-103175871D01*
X141236459Y-103187500D01*
X141300558Y-103513079D01*
X141358257Y-103795925D01*
X141411254Y-104043454D01*
X141461245Y-104263083D01*
X141509929Y-104462228D01*
X141559002Y-104648307D01*
X141610162Y-104828736D01*
X141618562Y-104857263D01*
X141721759Y-105175178D01*
X141841933Y-105492636D01*
X141973383Y-105796241D01*
X142110404Y-106072597D01*
X142212563Y-106252553D01*
X142263138Y-106330821D01*
X142339357Y-106442251D01*
X142435987Y-106579663D01*
X142547797Y-106735880D01*
X142669552Y-106903723D01*
X142796020Y-107076014D01*
X142921970Y-107245575D01*
X143042168Y-107405226D01*
X143151382Y-107547791D01*
X143227713Y-107645200D01*
X143340642Y-107780263D01*
X143476843Y-107931957D01*
X143627857Y-108091814D01*
X143785227Y-108251361D01*
X143940495Y-108402130D01*
X144085204Y-108535649D01*
X144210896Y-108643449D01*
X144272000Y-108691034D01*
X144488979Y-108839791D01*
X144713868Y-108973385D01*
X144936766Y-109086926D01*
X145147768Y-109175525D01*
X145336972Y-109234291D01*
X145398766Y-109247368D01*
X145477978Y-109256801D01*
X145598148Y-109265094D01*
X145749442Y-109272085D01*
X145922027Y-109277611D01*
X146106070Y-109281512D01*
X146291738Y-109283625D01*
X146469197Y-109283788D01*
X146628615Y-109281840D01*
X146760158Y-109277617D01*
X146850931Y-109271290D01*
X147326872Y-109201965D01*
X147787013Y-109097672D01*
X148220948Y-108961004D01*
X148436297Y-108876521D01*
X148650940Y-108781187D01*
X148829950Y-108689161D01*
X148986944Y-108591295D01*
X149135539Y-108478441D01*
X149289351Y-108341453D01*
X149413910Y-108219795D01*
X149675996Y-107943754D01*
X149924882Y-107653697D01*
X150162524Y-107346105D01*
X150390880Y-107017464D01*
X150611909Y-106664256D01*
X150827566Y-106282966D01*
X151039811Y-105870077D01*
X151250600Y-105422074D01*
X151461890Y-104935439D01*
X151675641Y-104406657D01*
X151881946Y-103863443D01*
X150772894Y-103863443D01*
X150709364Y-104032226D01*
X150449253Y-104681318D01*
X150175817Y-105281738D01*
X149888817Y-105833900D01*
X149588012Y-106338220D01*
X149273162Y-106795112D01*
X148944025Y-107204990D01*
X148737850Y-107430326D01*
X148628134Y-107542011D01*
X148539646Y-107625077D01*
X148460103Y-107689085D01*
X148377223Y-107743597D01*
X148278725Y-107798174D01*
X148238868Y-107818764D01*
X148027889Y-107920244D01*
X147829509Y-108000648D01*
X147623799Y-108067068D01*
X147390830Y-108126600D01*
X147344389Y-108137148D01*
X147164179Y-108175298D01*
X147001908Y-108204050D01*
X146845703Y-108224420D01*
X146683689Y-108237426D01*
X146503993Y-108244084D01*
X146294742Y-108245411D01*
X146103657Y-108243404D01*
X145560413Y-108235064D01*
X145303557Y-108106150D01*
X145141152Y-108019282D01*
X144987501Y-107924811D01*
X144838771Y-107818897D01*
X144691129Y-107697699D01*
X144540743Y-107557378D01*
X144383779Y-107394094D01*
X144216404Y-107204005D01*
X144034787Y-106983273D01*
X143835095Y-106728057D01*
X143613494Y-106434516D01*
X143550598Y-106349800D01*
X143361091Y-106087866D01*
X143201894Y-105853555D01*
X143068044Y-105637932D01*
X142954578Y-105432065D01*
X142856530Y-105227019D01*
X142768938Y-105013860D01*
X142696777Y-104813100D01*
X142658274Y-104693643D01*
X142615643Y-104550916D01*
X142570740Y-104392296D01*
X142525421Y-104225160D01*
X142481543Y-104056886D01*
X142440962Y-103894851D01*
X142405535Y-103746432D01*
X142377119Y-103619008D01*
X142357570Y-103519954D01*
X142348745Y-103456650D01*
X142350447Y-103436886D01*
X142372394Y-103447353D01*
X142426566Y-103479441D01*
X142502666Y-103526981D01*
X142530049Y-103544502D01*
X142853972Y-103733172D01*
X143215878Y-103909120D01*
X143603656Y-104068044D01*
X144005190Y-104205643D01*
X144408369Y-104317616D01*
X144801078Y-104399661D01*
X145034000Y-104433615D01*
X145116456Y-104446701D01*
X145231456Y-104469275D01*
X145362414Y-104497919D01*
X145467572Y-104522922D01*
X145933512Y-104619929D01*
X146406472Y-104681374D01*
X146889447Y-104706912D01*
X147385432Y-104696195D01*
X147897423Y-104648875D01*
X148428415Y-104564607D01*
X148981402Y-104443042D01*
X149559381Y-104283835D01*
X150165345Y-104086636D01*
X150602197Y-103927916D01*
X150772894Y-103863443D01*
X151881946Y-103863443D01*
X151893808Y-103832211D01*
X151965473Y-103636520D01*
X152045834Y-103409681D01*
X152106147Y-103223391D01*
X152146696Y-103071641D01*
X152167766Y-102948426D01*
X152169639Y-102847739D01*
X152152600Y-102763573D01*
X152116931Y-102689922D01*
X152062917Y-102620779D01*
X152015679Y-102573107D01*
X151948048Y-102514319D01*
X151881824Y-102471353D01*
X151811225Y-102444817D01*
X151730472Y-102435324D01*
X151633785Y-102443482D01*
X151515382Y-102469902D01*
X151369484Y-102515194D01*
X151190311Y-102579969D01*
X150972082Y-102664837D01*
X150909071Y-102689934D01*
X150477734Y-102859525D01*
X150085698Y-103007536D01*
X149727168Y-103135776D01*
X149396351Y-103246052D01*
X149087452Y-103340175D01*
X148794677Y-103419953D01*
X148512231Y-103487195D01*
X148234321Y-103543711D01*
X148094571Y-103568628D01*
X147605543Y-103636599D01*
X147143534Y-103668181D01*
X146699842Y-103663109D01*
X146265767Y-103621113D01*
X145832606Y-103541926D01*
X145630900Y-103492844D01*
X145494330Y-103460509D01*
X145342701Y-103429821D01*
X145205487Y-103406670D01*
X145186400Y-103404000D01*
X144695460Y-103316511D01*
X144225742Y-103189736D01*
X143780270Y-103025325D01*
X143362068Y-102824925D01*
X142974160Y-102590186D01*
X142619570Y-102322754D01*
X142301321Y-102024279D01*
X142022439Y-101696408D01*
X142001039Y-101667767D01*
X141892461Y-101529054D01*
X141797835Y-101430266D01*
X141707890Y-101366148D01*
X141613358Y-101331443D01*
X141504969Y-101320895D01*
X141399373Y-101326573D01*
G37*
X141399373Y-101326573D02*
X141264800Y-101363518D01*
X141145987Y-101441074D01*
X141051583Y-101549548D01*
X140990232Y-101679253D01*
X140970418Y-101807297D01*
X140976194Y-101883242D01*
X140992071Y-101991226D01*
X141015297Y-102114143D01*
X141031698Y-102188297D01*
X141052939Y-102283200D01*
X141081763Y-102418565D01*
X141116234Y-102584953D01*
X141154421Y-102772925D01*
X141194387Y-102973045D01*
X141234199Y-103175871D01*
X141236459Y-103187500D01*
X141300558Y-103513079D01*
X141358257Y-103795925D01*
X141411254Y-104043454D01*
X141461245Y-104263083D01*
X141509929Y-104462228D01*
X141559002Y-104648307D01*
X141610162Y-104828736D01*
X141618562Y-104857263D01*
X141721759Y-105175178D01*
X141841933Y-105492636D01*
X141973383Y-105796241D01*
X142110404Y-106072597D01*
X142212563Y-106252553D01*
X142263138Y-106330821D01*
X142339357Y-106442251D01*
X142435987Y-106579663D01*
X142547797Y-106735880D01*
X142669552Y-106903723D01*
X142796020Y-107076014D01*
X142921970Y-107245575D01*
X143042168Y-107405226D01*
X143151382Y-107547791D01*
X143227713Y-107645200D01*
X143340642Y-107780263D01*
X143476843Y-107931957D01*
X143627857Y-108091814D01*
X143785227Y-108251361D01*
X143940495Y-108402130D01*
X144085204Y-108535649D01*
X144210896Y-108643449D01*
X144272000Y-108691034D01*
X144488979Y-108839791D01*
X144713868Y-108973385D01*
X144936766Y-109086926D01*
X145147768Y-109175525D01*
X145336972Y-109234291D01*
X145398766Y-109247368D01*
X145477978Y-109256801D01*
X145598148Y-109265094D01*
X145749442Y-109272085D01*
X145922027Y-109277611D01*
X146106070Y-109281512D01*
X146291738Y-109283625D01*
X146469197Y-109283788D01*
X146628615Y-109281840D01*
X146760158Y-109277617D01*
X146850931Y-109271290D01*
X147326872Y-109201965D01*
X147787013Y-109097672D01*
X148220948Y-108961004D01*
X148436297Y-108876521D01*
X148650940Y-108781187D01*
X148829950Y-108689161D01*
X148986944Y-108591295D01*
X149135539Y-108478441D01*
X149289351Y-108341453D01*
X149413910Y-108219795D01*
X149675996Y-107943754D01*
X149924882Y-107653697D01*
X150162524Y-107346105D01*
X150390880Y-107017464D01*
X150611909Y-106664256D01*
X150827566Y-106282966D01*
X151039811Y-105870077D01*
X151250600Y-105422074D01*
X151461890Y-104935439D01*
X151675641Y-104406657D01*
X151881946Y-103863443D01*
X150772894Y-103863443D01*
X150709364Y-104032226D01*
X150449253Y-104681318D01*
X150175817Y-105281738D01*
X149888817Y-105833900D01*
X149588012Y-106338220D01*
X149273162Y-106795112D01*
X148944025Y-107204990D01*
X148737850Y-107430326D01*
X148628134Y-107542011D01*
X148539646Y-107625077D01*
X148460103Y-107689085D01*
X148377223Y-107743597D01*
X148278725Y-107798174D01*
X148238868Y-107818764D01*
X148027889Y-107920244D01*
X147829509Y-108000648D01*
X147623799Y-108067068D01*
X147390830Y-108126600D01*
X147344389Y-108137148D01*
X147164179Y-108175298D01*
X147001908Y-108204050D01*
X146845703Y-108224420D01*
X146683689Y-108237426D01*
X146503993Y-108244084D01*
X146294742Y-108245411D01*
X146103657Y-108243404D01*
X145560413Y-108235064D01*
X145303557Y-108106150D01*
X145141152Y-108019282D01*
X144987501Y-107924811D01*
X144838771Y-107818897D01*
X144691129Y-107697699D01*
X144540743Y-107557378D01*
X144383779Y-107394094D01*
X144216404Y-107204005D01*
X144034787Y-106983273D01*
X143835095Y-106728057D01*
X143613494Y-106434516D01*
X143550598Y-106349800D01*
X143361091Y-106087866D01*
X143201894Y-105853555D01*
X143068044Y-105637932D01*
X142954578Y-105432065D01*
X142856530Y-105227019D01*
X142768938Y-105013860D01*
X142696777Y-104813100D01*
X142658274Y-104693643D01*
X142615643Y-104550916D01*
X142570740Y-104392296D01*
X142525421Y-104225160D01*
X142481543Y-104056886D01*
X142440962Y-103894851D01*
X142405535Y-103746432D01*
X142377119Y-103619008D01*
X142357570Y-103519954D01*
X142348745Y-103456650D01*
X142350447Y-103436886D01*
X142372394Y-103447353D01*
X142426566Y-103479441D01*
X142502666Y-103526981D01*
X142530049Y-103544502D01*
X142853972Y-103733172D01*
X143215878Y-103909120D01*
X143603656Y-104068044D01*
X144005190Y-104205643D01*
X144408369Y-104317616D01*
X144801078Y-104399661D01*
X145034000Y-104433615D01*
X145116456Y-104446701D01*
X145231456Y-104469275D01*
X145362414Y-104497919D01*
X145467572Y-104522922D01*
X145933512Y-104619929D01*
X146406472Y-104681374D01*
X146889447Y-104706912D01*
X147385432Y-104696195D01*
X147897423Y-104648875D01*
X148428415Y-104564607D01*
X148981402Y-104443042D01*
X149559381Y-104283835D01*
X150165345Y-104086636D01*
X150602197Y-103927916D01*
X150772894Y-103863443D01*
X151881946Y-103863443D01*
X151893808Y-103832211D01*
X151965473Y-103636520D01*
X152045834Y-103409681D01*
X152106147Y-103223391D01*
X152146696Y-103071641D01*
X152167766Y-102948426D01*
X152169639Y-102847739D01*
X152152600Y-102763573D01*
X152116931Y-102689922D01*
X152062917Y-102620779D01*
X152015679Y-102573107D01*
X151948048Y-102514319D01*
X151881824Y-102471353D01*
X151811225Y-102444817D01*
X151730472Y-102435324D01*
X151633785Y-102443482D01*
X151515382Y-102469902D01*
X151369484Y-102515194D01*
X151190311Y-102579969D01*
X150972082Y-102664837D01*
X150909071Y-102689934D01*
X150477734Y-102859525D01*
X150085698Y-103007536D01*
X149727168Y-103135776D01*
X149396351Y-103246052D01*
X149087452Y-103340175D01*
X148794677Y-103419953D01*
X148512231Y-103487195D01*
X148234321Y-103543711D01*
X148094571Y-103568628D01*
X147605543Y-103636599D01*
X147143534Y-103668181D01*
X146699842Y-103663109D01*
X146265767Y-103621113D01*
X145832606Y-103541926D01*
X145630900Y-103492844D01*
X145494330Y-103460509D01*
X145342701Y-103429821D01*
X145205487Y-103406670D01*
X145186400Y-103404000D01*
X144695460Y-103316511D01*
X144225742Y-103189736D01*
X143780270Y-103025325D01*
X143362068Y-102824925D01*
X142974160Y-102590186D01*
X142619570Y-102322754D01*
X142301321Y-102024279D01*
X142022439Y-101696408D01*
X142001039Y-101667767D01*
X141892461Y-101529054D01*
X141797835Y-101430266D01*
X141707890Y-101366148D01*
X141613358Y-101331443D01*
X141504969Y-101320895D01*
X141399373Y-101326573D01*
G36*
X124175142Y-120094194D02*
G01*
X124030287Y-120098086D01*
X123924228Y-120101350D01*
X123391684Y-120122905D01*
X122823910Y-120155032D01*
X122230977Y-120196748D01*
X121622953Y-120247070D01*
X121009910Y-120305014D01*
X120401915Y-120369598D01*
X119809039Y-120439837D01*
X119241352Y-120514749D01*
X118708922Y-120593350D01*
X118440200Y-120636884D01*
X117962235Y-120720403D01*
X117523647Y-120804593D01*
X117113055Y-120892192D01*
X116719079Y-120985942D01*
X116330339Y-121088582D01*
X115935453Y-121202852D01*
X115523042Y-121331491D01*
X115430300Y-121361513D01*
X114822666Y-121552405D01*
X114164426Y-121745840D01*
X113455710Y-121941785D01*
X112696646Y-122140210D01*
X111887364Y-122341081D01*
X111027994Y-122544367D01*
X110118663Y-122750036D01*
X109159501Y-122958056D01*
X108150638Y-123168395D01*
X108043137Y-123190347D01*
X107852121Y-123230256D01*
X107673229Y-123269479D01*
X107513709Y-123306284D01*
X107380806Y-123338936D01*
X107281769Y-123365705D01*
X107223842Y-123384856D01*
X107217637Y-123387718D01*
X107146117Y-123438556D01*
X107073915Y-123510929D01*
X107048300Y-123543700D01*
X107007360Y-123607613D01*
X106984333Y-123666094D01*
X106974242Y-123738223D01*
X106972100Y-123835709D01*
X106974723Y-123939110D01*
X106985782Y-124010867D01*
X107010062Y-124070006D01*
X107044822Y-124124780D01*
X107128876Y-124214278D01*
X107239546Y-124289196D01*
X107359044Y-124339755D01*
X107466038Y-124356290D01*
X107511272Y-124350769D01*
X107599974Y-124335999D01*
X107725893Y-124313162D01*
X107882780Y-124283440D01*
X108064385Y-124248018D01*
X108264457Y-124208077D01*
X108466755Y-124166859D01*
X109388290Y-123974088D01*
X110262620Y-123784585D01*
X111093173Y-123597489D01*
X111883377Y-123411937D01*
X112636659Y-123227069D01*
X113356447Y-123042024D01*
X114046167Y-122855939D01*
X114709248Y-122667954D01*
X115349117Y-122477207D01*
X115969201Y-122282837D01*
X115989100Y-122276437D01*
X116423139Y-122144688D01*
X116884501Y-122019187D01*
X117349709Y-121906158D01*
X117563900Y-121858924D01*
X118084793Y-121755462D01*
X118649290Y-121657006D01*
X119250372Y-121564369D01*
X119881016Y-121478362D01*
X120534201Y-121399800D01*
X121202907Y-121329493D01*
X121880111Y-121268255D01*
X122558793Y-121216898D01*
X123231932Y-121176235D01*
X123625278Y-121157518D01*
X123860243Y-121146959D01*
X124050440Y-121136715D01*
X124201884Y-121125797D01*
X124320591Y-121113211D01*
X124412576Y-121097969D01*
X124483855Y-121079077D01*
X124540442Y-121055545D01*
X124588354Y-121026382D01*
X124632493Y-120991549D01*
X124734934Y-120873832D01*
X124794763Y-120739110D01*
X124813009Y-120596386D01*
X124790699Y-120454665D01*
X124728860Y-120322947D01*
X124628520Y-120210238D01*
X124536200Y-120147621D01*
X124495673Y-120126489D01*
X124458176Y-120111071D01*
X124415541Y-120100750D01*
X124359602Y-120094909D01*
X124282192Y-120092930D01*
X124175142Y-120094194D01*
G37*
X124175142Y-120094194D02*
X124030287Y-120098086D01*
X123924228Y-120101350D01*
X123391684Y-120122905D01*
X122823910Y-120155032D01*
X122230977Y-120196748D01*
X121622953Y-120247070D01*
X121009910Y-120305014D01*
X120401915Y-120369598D01*
X119809039Y-120439837D01*
X119241352Y-120514749D01*
X118708922Y-120593350D01*
X118440200Y-120636884D01*
X117962235Y-120720403D01*
X117523647Y-120804593D01*
X117113055Y-120892192D01*
X116719079Y-120985942D01*
X116330339Y-121088582D01*
X115935453Y-121202852D01*
X115523042Y-121331491D01*
X115430300Y-121361513D01*
X114822666Y-121552405D01*
X114164426Y-121745840D01*
X113455710Y-121941785D01*
X112696646Y-122140210D01*
X111887364Y-122341081D01*
X111027994Y-122544367D01*
X110118663Y-122750036D01*
X109159501Y-122958056D01*
X108150638Y-123168395D01*
X108043137Y-123190347D01*
X107852121Y-123230256D01*
X107673229Y-123269479D01*
X107513709Y-123306284D01*
X107380806Y-123338936D01*
X107281769Y-123365705D01*
X107223842Y-123384856D01*
X107217637Y-123387718D01*
X107146117Y-123438556D01*
X107073915Y-123510929D01*
X107048300Y-123543700D01*
X107007360Y-123607613D01*
X106984333Y-123666094D01*
X106974242Y-123738223D01*
X106972100Y-123835709D01*
X106974723Y-123939110D01*
X106985782Y-124010867D01*
X107010062Y-124070006D01*
X107044822Y-124124780D01*
X107128876Y-124214278D01*
X107239546Y-124289196D01*
X107359044Y-124339755D01*
X107466038Y-124356290D01*
X107511272Y-124350769D01*
X107599974Y-124335999D01*
X107725893Y-124313162D01*
X107882780Y-124283440D01*
X108064385Y-124248018D01*
X108264457Y-124208077D01*
X108466755Y-124166859D01*
X109388290Y-123974088D01*
X110262620Y-123784585D01*
X111093173Y-123597489D01*
X111883377Y-123411937D01*
X112636659Y-123227069D01*
X113356447Y-123042024D01*
X114046167Y-122855939D01*
X114709248Y-122667954D01*
X115349117Y-122477207D01*
X115969201Y-122282837D01*
X115989100Y-122276437D01*
X116423139Y-122144688D01*
X116884501Y-122019187D01*
X117349709Y-121906158D01*
X117563900Y-121858924D01*
X118084793Y-121755462D01*
X118649290Y-121657006D01*
X119250372Y-121564369D01*
X119881016Y-121478362D01*
X120534201Y-121399800D01*
X121202907Y-121329493D01*
X121880111Y-121268255D01*
X122558793Y-121216898D01*
X123231932Y-121176235D01*
X123625278Y-121157518D01*
X123860243Y-121146959D01*
X124050440Y-121136715D01*
X124201884Y-121125797D01*
X124320591Y-121113211D01*
X124412576Y-121097969D01*
X124483855Y-121079077D01*
X124540442Y-121055545D01*
X124588354Y-121026382D01*
X124632493Y-120991549D01*
X124734934Y-120873832D01*
X124794763Y-120739110D01*
X124813009Y-120596386D01*
X124790699Y-120454665D01*
X124728860Y-120322947D01*
X124628520Y-120210238D01*
X124536200Y-120147621D01*
X124495673Y-120126489D01*
X124458176Y-120111071D01*
X124415541Y-120100750D01*
X124359602Y-120094909D01*
X124282192Y-120092930D01*
X124175142Y-120094194D01*
G36*
X150961152Y-82386803D02*
G01*
X150818729Y-82389367D01*
X150703777Y-82395228D01*
X150604643Y-82405279D01*
X150509676Y-82420415D01*
X150407221Y-82441531D01*
X150396436Y-82443934D01*
X149979311Y-82558886D01*
X149594795Y-82710724D01*
X149237902Y-82902166D01*
X148903646Y-83135932D01*
X148587040Y-83414742D01*
X148550725Y-83450626D01*
X148260137Y-83776285D01*
X148008977Y-84130647D01*
X147797346Y-84510263D01*
X147625341Y-84911683D01*
X147493063Y-85331459D01*
X147400611Y-85766139D01*
X147348083Y-86212276D01*
X147335579Y-86666419D01*
X147363198Y-87125119D01*
X147431040Y-87584926D01*
X147539202Y-88042391D01*
X147687786Y-88494064D01*
X147876889Y-88936495D01*
X148106612Y-89366236D01*
X148369061Y-89768695D01*
X148512293Y-89962144D01*
X148652969Y-90136559D01*
X148799509Y-90300745D01*
X148960336Y-90463509D01*
X149143869Y-90633656D01*
X149358532Y-90819994D01*
X149439757Y-90888311D01*
X149514814Y-90951035D01*
X149275243Y-91958994D01*
X149222966Y-92177992D01*
X149173875Y-92381817D01*
X149129292Y-92565113D01*
X149090541Y-92722524D01*
X149058943Y-92848692D01*
X149035822Y-92938261D01*
X149022499Y-92985875D01*
X149020216Y-92991963D01*
X148989391Y-92996230D01*
X148922778Y-92977976D01*
X148828296Y-92940566D01*
X148713864Y-92887367D01*
X148587403Y-92821745D01*
X148489107Y-92766213D01*
X148413428Y-92719121D01*
X148305294Y-92648051D01*
X148173349Y-92558880D01*
X148026241Y-92457486D01*
X147872614Y-92349744D01*
X147790607Y-92291435D01*
X147542298Y-92116641D01*
X147326032Y-91970561D01*
X147135079Y-91849087D01*
X146962711Y-91748109D01*
X146802199Y-91663519D01*
X146646812Y-91591208D01*
X146636352Y-91586672D01*
X146443700Y-91503500D01*
X145973800Y-91504992D01*
X145791909Y-91506529D01*
X145649205Y-91510473D01*
X145534098Y-91517779D01*
X145434997Y-91529401D01*
X145340311Y-91546295D01*
X145262833Y-91563564D01*
X144989795Y-91636626D01*
X144717233Y-91727370D01*
X144438112Y-91838915D01*
X144145400Y-91974382D01*
X143832063Y-92136893D01*
X143491068Y-92329568D01*
X143354597Y-92410253D01*
X143194267Y-92505333D01*
X143071334Y-92575334D01*
X142979954Y-92621837D01*
X142914282Y-92646423D01*
X142868471Y-92650672D01*
X142836677Y-92636164D01*
X142813054Y-92604479D01*
X142793669Y-92561899D01*
X142784157Y-92510633D01*
X142777023Y-92410115D01*
X142772313Y-92261840D01*
X142770074Y-92067303D01*
X142770351Y-91827999D01*
X142770475Y-91808300D01*
X142770861Y-91619854D01*
X142769620Y-91442173D01*
X142766934Y-91283389D01*
X142762985Y-91151640D01*
X142757954Y-91055059D01*
X142752522Y-91004229D01*
X142730048Y-90885959D01*
X142849168Y-90795116D01*
X142937073Y-90720869D01*
X143046844Y-90617391D01*
X143168544Y-90495065D01*
X143292233Y-90364270D01*
X143407973Y-90235389D01*
X143505826Y-90118802D01*
X143544912Y-90068400D01*
X143794686Y-89692822D01*
X143999226Y-89298180D01*
X144158475Y-88888290D01*
X144272378Y-88466969D01*
X144340876Y-88038034D01*
X144363914Y-87605302D01*
X144361548Y-87559757D01*
X143323704Y-87559757D01*
X143306117Y-87932611D01*
X143241359Y-88306557D01*
X143150028Y-88616390D01*
X143000795Y-88971596D01*
X142813155Y-89296629D01*
X142583316Y-89597380D01*
X142380740Y-89810763D01*
X142080001Y-90067915D01*
X141754396Y-90283341D01*
X141408233Y-90455566D01*
X141045819Y-90583116D01*
X140671458Y-90664515D01*
X140289459Y-90698289D01*
X139904126Y-90682962D01*
X139851734Y-90677008D01*
X139454393Y-90604300D01*
X139080238Y-90486400D01*
X138729010Y-90323181D01*
X138400450Y-90114516D01*
X138094299Y-89860280D01*
X138010132Y-89778474D01*
X137748111Y-89482414D01*
X137531632Y-89165981D01*
X137359037Y-88826030D01*
X137228665Y-88459418D01*
X137157265Y-88163400D01*
X137138755Y-88027062D01*
X137127940Y-87855589D01*
X137124636Y-87664029D01*
X137128657Y-87467432D01*
X137139821Y-87280846D01*
X137157941Y-87119321D01*
X137170979Y-87045800D01*
X137276277Y-86663689D01*
X137422925Y-86306710D01*
X137607524Y-85976773D01*
X137826677Y-85675791D01*
X138076985Y-85405676D01*
X138355050Y-85168339D01*
X138657472Y-84965693D01*
X138980854Y-84799649D01*
X139321797Y-84672120D01*
X139676902Y-84585017D01*
X140042772Y-84540252D01*
X140416008Y-84539738D01*
X140793211Y-84585386D01*
X141170982Y-84679108D01*
X141300200Y-84722715D01*
X141655566Y-84876787D01*
X141981717Y-85069744D01*
X142276857Y-85297807D01*
X142539190Y-85557198D01*
X142766921Y-85844136D01*
X142958255Y-86154842D01*
X143111396Y-86485536D01*
X143224548Y-86832440D01*
X143295916Y-87191774D01*
X143323704Y-87559757D01*
X144361548Y-87559757D01*
X144341434Y-87172590D01*
X144273380Y-86743714D01*
X144159695Y-86322492D01*
X144000322Y-85912739D01*
X143795204Y-85518274D01*
X143616719Y-85242400D01*
X143468002Y-85050085D01*
X143288649Y-84847823D01*
X143090907Y-84647695D01*
X142887027Y-84461782D01*
X142689259Y-84302163D01*
X142595600Y-84235385D01*
X142194035Y-83993310D01*
X141777425Y-83798700D01*
X141348655Y-83651913D01*
X140910607Y-83553307D01*
X140466164Y-83503240D01*
X140018211Y-83502070D01*
X139569629Y-83550154D01*
X139123303Y-83647851D01*
X138772900Y-83760824D01*
X138562256Y-83848797D01*
X138332260Y-83962053D01*
X138100464Y-84090965D01*
X137884419Y-84225903D01*
X137741221Y-84326816D01*
X137386038Y-84624831D01*
X137070011Y-84954642D01*
X136794358Y-85314259D01*
X136560301Y-85701692D01*
X136369058Y-86114950D01*
X136221849Y-86552044D01*
X136129324Y-86956900D01*
X136104496Y-87142531D01*
X136089045Y-87361792D01*
X136082996Y-87598659D01*
X136086369Y-87837108D01*
X136099189Y-88061113D01*
X136121477Y-88254650D01*
X136127448Y-88290400D01*
X136233115Y-88744681D01*
X136382978Y-89176611D01*
X136575236Y-89583815D01*
X136808091Y-89963918D01*
X137079741Y-90314547D01*
X137388387Y-90633327D01*
X137732230Y-90917883D01*
X138109469Y-91165840D01*
X138437276Y-91337756D01*
X138755229Y-91472725D01*
X139074970Y-91577668D01*
X139410248Y-91656227D01*
X139774815Y-91712045D01*
X139902845Y-91725991D01*
X140219990Y-91757500D01*
X140238007Y-91859100D01*
X140275587Y-92118458D01*
X140304143Y-92414719D01*
X140323222Y-92734714D01*
X140332371Y-93065274D01*
X140331138Y-93393230D01*
X140319070Y-93705414D01*
X140307143Y-93871570D01*
X140293952Y-94011840D01*
X140280889Y-94112410D01*
X140265510Y-94184315D01*
X140245372Y-94238587D01*
X140218032Y-94286262D01*
X140213976Y-94292322D01*
X140147422Y-94371931D01*
X140049103Y-94459414D01*
X139915713Y-94557072D01*
X139743948Y-94667202D01*
X139530502Y-94792104D01*
X139358243Y-94887531D01*
X139133804Y-95011635D01*
X138946454Y-95120769D01*
X138787340Y-95221643D01*
X138647612Y-95320972D01*
X138518419Y-95425466D01*
X138390908Y-95541840D01*
X138256230Y-95676806D01*
X138105532Y-95837075D01*
X138104078Y-95838650D01*
X137870043Y-96098828D01*
X137669279Y-96337428D01*
X137494925Y-96564015D01*
X137340119Y-96788153D01*
X137197997Y-97019407D01*
X137061698Y-97267340D01*
X137017557Y-97353013D01*
X136995848Y-97341516D01*
X136934754Y-97305743D01*
X136838155Y-97248044D01*
X136709928Y-97170767D01*
X136553953Y-97076261D01*
X136374110Y-96966875D01*
X136174277Y-96844957D01*
X135958334Y-96712857D01*
X135797821Y-96614454D01*
X135294194Y-96305995D01*
X134829959Y-96022914D01*
X134401691Y-95763248D01*
X134005967Y-95525031D01*
X133639364Y-95306301D01*
X133298458Y-95105094D01*
X132979827Y-94919444D01*
X132680047Y-94747389D01*
X132395695Y-94586963D01*
X132123347Y-94436204D01*
X131859581Y-94293147D01*
X131600972Y-94155827D01*
X131344099Y-94022282D01*
X131085537Y-93890546D01*
X130821863Y-93758657D01*
X130810000Y-93752775D01*
X130158624Y-93438963D01*
X129534173Y-93157344D01*
X128927410Y-92904434D01*
X128329093Y-92676753D01*
X127729984Y-92470817D01*
X127120843Y-92283144D01*
X126492430Y-92110253D01*
X126364686Y-92077412D01*
X126089882Y-92006054D01*
X125855120Y-91941293D01*
X125650635Y-91879741D01*
X125466660Y-91818010D01*
X125293429Y-91752710D01*
X125121175Y-91680455D01*
X124940132Y-91597855D01*
X124828300Y-91544380D01*
X124681126Y-91472251D01*
X124542956Y-91402461D01*
X124407825Y-91331590D01*
X124269769Y-91256216D01*
X124122822Y-91172919D01*
X123961018Y-91078279D01*
X123778393Y-90968875D01*
X123568981Y-90841285D01*
X123326816Y-90692091D01*
X123139200Y-90575812D01*
X122795926Y-90363955D01*
X122488606Y-90177529D01*
X122211067Y-90013578D01*
X121957136Y-89869144D01*
X121720638Y-89741270D01*
X121495400Y-89626999D01*
X121275249Y-89523376D01*
X121054011Y-89427442D01*
X120825513Y-89336241D01*
X120583580Y-89246817D01*
X120322040Y-89156211D01*
X120034719Y-89061468D01*
X119861272Y-89005826D01*
X119091737Y-88765360D01*
X118340759Y-88540233D01*
X117597981Y-88327675D01*
X116853044Y-88124915D01*
X116095588Y-87929184D01*
X115315256Y-87737712D01*
X114501689Y-87547728D01*
X113919000Y-87416826D01*
X113443969Y-87312616D01*
X113012914Y-87220308D01*
X112620607Y-87139169D01*
X112261823Y-87068466D01*
X111931334Y-87007464D01*
X111623913Y-86955431D01*
X111334332Y-86911633D01*
X111057365Y-86875336D01*
X110787784Y-86845807D01*
X110520363Y-86822312D01*
X110249874Y-86804118D01*
X109971090Y-86790491D01*
X109678785Y-86780698D01*
X109367730Y-86774006D01*
X109334300Y-86773461D01*
X108962598Y-86769602D01*
X108630913Y-86770872D01*
X108328677Y-86777752D01*
X108045319Y-86790719D01*
X107770270Y-86810254D01*
X107492963Y-86836835D01*
X107213400Y-86869604D01*
X106474882Y-86983866D01*
X105769635Y-87136244D01*
X105097104Y-87326960D01*
X104456735Y-87556230D01*
X103847971Y-87824274D01*
X103270256Y-88131311D01*
X102723036Y-88477560D01*
X102260400Y-88819516D01*
X102131124Y-88927985D01*
X101977898Y-89066078D01*
X101809786Y-89224809D01*
X101635850Y-89395192D01*
X101465154Y-89568240D01*
X101306761Y-89734967D01*
X101169734Y-89886386D01*
X101090527Y-89979500D01*
X100934873Y-90163773D01*
X100772166Y-90344829D01*
X100598780Y-90525885D01*
X100411091Y-90710158D01*
X100205475Y-90900866D01*
X99978305Y-91101227D01*
X99725958Y-91314457D01*
X99444808Y-91543774D01*
X99131231Y-91792396D01*
X98781601Y-92063541D01*
X98501200Y-92277791D01*
X98183624Y-92520067D01*
X97903680Y-92735741D01*
X97657774Y-92927886D01*
X97442307Y-93099576D01*
X97253684Y-93253886D01*
X97088308Y-93393889D01*
X96942581Y-93522660D01*
X96812907Y-93643273D01*
X96695690Y-93758801D01*
X96587333Y-93872320D01*
X96484239Y-93986902D01*
X96435296Y-94043500D01*
X96244327Y-94264067D01*
X96021724Y-94516068D01*
X95771638Y-94794883D01*
X95498221Y-95095890D01*
X95205624Y-95414467D01*
X95135700Y-95490117D01*
X94736810Y-95924840D01*
X94373186Y-96329181D01*
X94042193Y-96706579D01*
X93741193Y-97060472D01*
X93467547Y-97394300D01*
X93218618Y-97711501D01*
X92991770Y-98015513D01*
X92784363Y-98309776D01*
X92593761Y-98597729D01*
X92417327Y-98882809D01*
X92252422Y-99168456D01*
X92105334Y-99441000D01*
X92041921Y-99555612D01*
X91956110Y-99700986D01*
X91854623Y-99866260D01*
X91744185Y-100040572D01*
X91631517Y-100213058D01*
X91578697Y-100291900D01*
X91236089Y-100804721D01*
X90925178Y-101283605D01*
X90643889Y-101732559D01*
X90390142Y-102155592D01*
X90161863Y-102556712D01*
X89956972Y-102939926D01*
X89773393Y-103309243D01*
X89609049Y-103668672D01*
X89461863Y-104022219D01*
X89329757Y-104373894D01*
X89210654Y-104727705D01*
X89113677Y-105048440D01*
X89065319Y-105209717D01*
X89005121Y-105399823D01*
X88939187Y-105600065D01*
X88873621Y-105791746D01*
X88839968Y-105886640D01*
X88628110Y-106503592D01*
X88429487Y-107142626D01*
X88243543Y-107806531D01*
X88069724Y-108498095D01*
X87907474Y-109220107D01*
X87756237Y-109975354D01*
X87615458Y-110766625D01*
X87484583Y-111596708D01*
X87363055Y-112468391D01*
X87250320Y-113384462D01*
X87145821Y-114347710D01*
X87136511Y-114439700D01*
X87092111Y-114883799D01*
X87053082Y-115280660D01*
X87019175Y-115633532D01*
X86990138Y-115945663D01*
X86965722Y-116220304D01*
X86945676Y-116460704D01*
X86929750Y-116670112D01*
X86917694Y-116851778D01*
X86909257Y-117008950D01*
X86904188Y-117144878D01*
X86902239Y-117262812D01*
X86903158Y-117366001D01*
X86905637Y-117436900D01*
X86949855Y-117993316D01*
X87028561Y-118535339D01*
X87139926Y-119050783D01*
X87159271Y-119124818D01*
X87178140Y-119201411D01*
X87188295Y-119255025D01*
X87188423Y-119271243D01*
X87160347Y-119280074D01*
X87089819Y-119296828D01*
X86984303Y-119319989D01*
X86851263Y-119348038D01*
X86698162Y-119379458D01*
X86532464Y-119412733D01*
X86361632Y-119446343D01*
X86193131Y-119478773D01*
X86034423Y-119508505D01*
X85915500Y-119530042D01*
X85416897Y-119612423D01*
X84910118Y-119683543D01*
X84375068Y-119746195D01*
X84315300Y-119752515D01*
X84118257Y-119769041D01*
X83881743Y-119782149D01*
X83615260Y-119791831D01*
X83328313Y-119798078D01*
X83030404Y-119800883D01*
X82731037Y-119800239D01*
X82439715Y-119796138D01*
X82165941Y-119788571D01*
X81919219Y-119777532D01*
X81709052Y-119763013D01*
X81622900Y-119754692D01*
X81472438Y-119739655D01*
X81285932Y-119723069D01*
X81078065Y-119706116D01*
X80863520Y-119689983D01*
X80656978Y-119675855D01*
X80606900Y-119672687D01*
X80431523Y-119661939D01*
X80263888Y-119652004D01*
X80100878Y-119642787D01*
X79939376Y-119634193D01*
X79776264Y-119626129D01*
X79608427Y-119618498D01*
X79432746Y-119611208D01*
X79246104Y-119604163D01*
X79045385Y-119597269D01*
X78827470Y-119590430D01*
X78589244Y-119583553D01*
X78327588Y-119576543D01*
X78039386Y-119569304D01*
X77721521Y-119561744D01*
X77370875Y-119553766D01*
X76984331Y-119545277D01*
X76558772Y-119536181D01*
X76091081Y-119526385D01*
X75578141Y-119515793D01*
X75145900Y-119506944D01*
X74598511Y-119495004D01*
X74099471Y-119482483D01*
X73646331Y-119469277D01*
X73236643Y-119455279D01*
X72867958Y-119440384D01*
X72537828Y-119424486D01*
X72243804Y-119407481D01*
X71983437Y-119389262D01*
X71754279Y-119369724D01*
X71602600Y-119354271D01*
X71407025Y-119336572D01*
X71171013Y-119321486D01*
X70904875Y-119309251D01*
X70618917Y-119300101D01*
X70323448Y-119294270D01*
X70028778Y-119291995D01*
X69745214Y-119293511D01*
X69483064Y-119299052D01*
X69366550Y-119303265D01*
X68871842Y-119329512D01*
X68425385Y-119364921D01*
X68025368Y-119410019D01*
X67669982Y-119465334D01*
X67357416Y-119531393D01*
X67085860Y-119608723D01*
X66853506Y-119697850D01*
X66658541Y-119799303D01*
X66499157Y-119913607D01*
X66373544Y-120041291D01*
X66279890Y-120182882D01*
X66268415Y-120205500D01*
X66235268Y-120283791D01*
X66216122Y-120362192D01*
X66207577Y-120459404D01*
X66206082Y-120548400D01*
X66208220Y-120663460D01*
X66217544Y-120746726D01*
X66237910Y-120817096D01*
X66273173Y-120893465D01*
X66278625Y-120904000D01*
X66362501Y-121048006D01*
X66456519Y-121171248D01*
X66573463Y-121288675D01*
X66694471Y-121390352D01*
X66806051Y-121475371D01*
X66922429Y-121555850D01*
X67050255Y-121635488D01*
X67196180Y-121717984D01*
X67366854Y-121807040D01*
X67568926Y-121906354D01*
X67809047Y-122019627D01*
X67906900Y-122064910D01*
X68033397Y-122123440D01*
X68200386Y-122201064D01*
X68402407Y-122295229D01*
X68633998Y-122403378D01*
X68889696Y-122522955D01*
X69164041Y-122651407D01*
X69451569Y-122786178D01*
X69746818Y-122924711D01*
X70044328Y-123064453D01*
X70231000Y-123152213D01*
X70843295Y-123439728D01*
X71413244Y-123706367D01*
X71944130Y-123953596D01*
X72439232Y-124182878D01*
X72901832Y-124395675D01*
X73335209Y-124593451D01*
X73742645Y-124777671D01*
X74127420Y-124949796D01*
X74492815Y-125111291D01*
X74842111Y-125263619D01*
X75178587Y-125408243D01*
X75505526Y-125546627D01*
X75826206Y-125680234D01*
X76143910Y-125810528D01*
X76461917Y-125938972D01*
X76619100Y-126001779D01*
X76840730Y-126090634D01*
X77082451Y-126188571D01*
X77330432Y-126289918D01*
X77570845Y-126389003D01*
X77789860Y-126480152D01*
X77952600Y-126548739D01*
X78724727Y-126871234D01*
X79458818Y-127166100D01*
X80158684Y-127434509D01*
X80828137Y-127677633D01*
X81470985Y-127896646D01*
X82091041Y-128092720D01*
X82692115Y-128267026D01*
X83278017Y-128420739D01*
X83852559Y-128555029D01*
X84419550Y-128671071D01*
X84982801Y-128770035D01*
X85356700Y-128826902D01*
X85696331Y-128873690D01*
X85991594Y-128910426D01*
X86247837Y-128937514D01*
X86470407Y-128955353D01*
X86664649Y-128964345D01*
X86835911Y-128964891D01*
X86989538Y-128957393D01*
X87038469Y-128953105D01*
X87176931Y-128943664D01*
X87356287Y-128937646D01*
X87566759Y-128934868D01*
X87798569Y-128935144D01*
X88041940Y-128938289D01*
X88287094Y-128944119D01*
X88524253Y-128952447D01*
X88743640Y-128963089D01*
X88935476Y-128975861D01*
X89089984Y-128990576D01*
X89103200Y-128992172D01*
X89288265Y-129015729D01*
X89473646Y-129040800D01*
X89665984Y-129068425D01*
X89871918Y-129099647D01*
X90098088Y-129135507D01*
X90351135Y-129177046D01*
X90637696Y-129225305D01*
X90964414Y-129281327D01*
X91135200Y-129310890D01*
X91526962Y-129378512D01*
X91874116Y-129437561D01*
X92181990Y-129488790D01*
X92455913Y-129532952D01*
X92701213Y-129570799D01*
X92923220Y-129603084D01*
X93127262Y-129630560D01*
X93318667Y-129653979D01*
X93502764Y-129674093D01*
X93684882Y-129691657D01*
X93870349Y-129707421D01*
X94028126Y-129719493D01*
X94203638Y-129729161D01*
X94410994Y-129735340D01*
X94640071Y-129738182D01*
X94880750Y-129737838D01*
X95122907Y-129734460D01*
X95356421Y-129728199D01*
X95571171Y-129719206D01*
X95757034Y-129707633D01*
X95903890Y-129693630D01*
X95923100Y-129691173D01*
X96109349Y-129674951D01*
X96336932Y-129669558D01*
X96597663Y-129674485D01*
X96883359Y-129689224D01*
X97185833Y-129713265D01*
X97496901Y-129746101D01*
X97808377Y-129787222D01*
X98031300Y-129822178D01*
X98240539Y-129858582D01*
X98448103Y-129897383D01*
X98659351Y-129939848D01*
X98879641Y-129987247D01*
X99114330Y-130040847D01*
X99368775Y-130101917D01*
X99648335Y-130171727D01*
X99958365Y-130251544D01*
X100304226Y-130342636D01*
X100691272Y-130446274D01*
X100862752Y-130492588D01*
X101373486Y-130629605D01*
X101840076Y-130751974D01*
X102266788Y-130860454D01*
X102657885Y-130955803D01*
X103017633Y-131038779D01*
X103350297Y-131110139D01*
X103660140Y-131170642D01*
X103951428Y-131221046D01*
X104228425Y-131262108D01*
X104495396Y-131294586D01*
X104756605Y-131319239D01*
X105016318Y-131336824D01*
X105278798Y-131348099D01*
X105548310Y-131353822D01*
X105714800Y-131354905D01*
X105978265Y-131354288D01*
X106202097Y-131350947D01*
X106397426Y-131344068D01*
X106575384Y-131332838D01*
X106747101Y-131316444D01*
X106923708Y-131294071D01*
X107116336Y-131264907D01*
X107251500Y-131242583D01*
X107798234Y-131172313D01*
X108372899Y-131140964D01*
X108970871Y-131148460D01*
X109587527Y-131194725D01*
X110218244Y-131279683D01*
X110296973Y-131292870D01*
X110647906Y-131359110D01*
X111015321Y-131440886D01*
X111403052Y-131539348D01*
X111814938Y-131655647D01*
X112254813Y-131790935D01*
X112726514Y-131946361D01*
X113233877Y-132123078D01*
X113780738Y-132322235D01*
X113995200Y-132402347D01*
X114210414Y-132483034D01*
X114386501Y-132548161D01*
X114531820Y-132600216D01*
X114654730Y-132641687D01*
X114763591Y-132675063D01*
X114866762Y-132702831D01*
X114972601Y-132727479D01*
X115089469Y-132751496D01*
X115225724Y-132777369D01*
X115303300Y-132791700D01*
X115559017Y-132837685D01*
X115816862Y-132881769D01*
X116081102Y-132924515D01*
X116356007Y-132966481D01*
X116645844Y-133008229D01*
X116954881Y-133050321D01*
X117287387Y-133093316D01*
X117647629Y-133137777D01*
X118039877Y-133184263D01*
X118468397Y-133233335D01*
X118937458Y-133285555D01*
X119451329Y-133341484D01*
X119646700Y-133362483D01*
X120124943Y-133413988D01*
X120557177Y-133461129D01*
X120947954Y-133504477D01*
X121301823Y-133544605D01*
X121623337Y-133582083D01*
X121917046Y-133617486D01*
X122187500Y-133651384D01*
X122439251Y-133684349D01*
X122676850Y-133716954D01*
X122904848Y-133749771D01*
X123127794Y-133783372D01*
X123350242Y-133818328D01*
X123576740Y-133855213D01*
X123609100Y-133860574D01*
X124304852Y-133986411D01*
X125001543Y-134132445D01*
X125684034Y-134295205D01*
X126337181Y-134471219D01*
X126568200Y-134538955D01*
X126722504Y-134583502D01*
X126911527Y-134635308D01*
X127120431Y-134690470D01*
X127334377Y-134745086D01*
X127538526Y-134795254D01*
X127584200Y-134806148D01*
X128323338Y-134973818D01*
X129029137Y-135118195D01*
X129712437Y-135241059D01*
X130384079Y-135344194D01*
X131054904Y-135429379D01*
X131735753Y-135498398D01*
X131864100Y-135509573D01*
X131961779Y-135515805D01*
X132101650Y-135521855D01*
X132276073Y-135527612D01*
X132477407Y-135532966D01*
X132698010Y-135537806D01*
X132930242Y-135542022D01*
X133166463Y-135545503D01*
X133399030Y-135548139D01*
X133620304Y-135549819D01*
X133822643Y-135550433D01*
X133998407Y-135549871D01*
X134139954Y-135548022D01*
X134239644Y-135544776D01*
X134251700Y-135544088D01*
X134894202Y-135494349D01*
X135501913Y-135426759D01*
X136088323Y-135339271D01*
X136666920Y-135229840D01*
X137251194Y-135096421D01*
X137325100Y-135078005D01*
X137519364Y-135030555D01*
X137708427Y-134987582D01*
X137896424Y-134948642D01*
X138087489Y-134913288D01*
X138285758Y-134881076D01*
X138495364Y-134851560D01*
X138720442Y-134824294D01*
X138965127Y-134798832D01*
X139233553Y-134774730D01*
X139529856Y-134751541D01*
X139858170Y-134728821D01*
X140222628Y-134706124D01*
X140627367Y-134683003D01*
X141076521Y-134659015D01*
X141338300Y-134645578D01*
X141850089Y-134618596D01*
X142315769Y-134591771D01*
X142740028Y-134564636D01*
X143127554Y-134536723D01*
X143483035Y-134507563D01*
X143811157Y-134476689D01*
X144116608Y-134443632D01*
X144404077Y-134407924D01*
X144678251Y-134369098D01*
X144943817Y-134326686D01*
X145205463Y-134280219D01*
X145427700Y-134237301D01*
X146121390Y-134078665D01*
X146788765Y-133885552D01*
X147426262Y-133659271D01*
X148030323Y-133401132D01*
X148597385Y-133112444D01*
X148797592Y-132997864D01*
X148907935Y-132938736D01*
X149048293Y-132872280D01*
X149200342Y-132806779D01*
X149340697Y-132752343D01*
X149908746Y-132524953D01*
X150448052Y-132263063D01*
X150967233Y-131961914D01*
X151474911Y-131616748D01*
X151688800Y-131455944D01*
X151832164Y-131338544D01*
X151999762Y-131190471D01*
X152183234Y-131020014D01*
X152374219Y-130835464D01*
X152564353Y-130645110D01*
X152745277Y-130457241D01*
X152908627Y-130280147D01*
X153046043Y-130122117D01*
X153096183Y-130060700D01*
X153226912Y-129889617D01*
X153373285Y-129686576D01*
X153527272Y-129463628D01*
X153680845Y-129232823D01*
X153825974Y-129006214D01*
X153954630Y-128795852D01*
X154052327Y-128625600D01*
X154352988Y-128031961D01*
X154623815Y-127403181D01*
X154862570Y-126746769D01*
X155067014Y-126070235D01*
X155234908Y-125381089D01*
X155364012Y-124686841D01*
X155452088Y-123995002D01*
X155460802Y-123901200D01*
X155480436Y-123774339D01*
X155519891Y-123606620D01*
X155577832Y-123403371D01*
X155615257Y-123284065D01*
X155809347Y-122627628D01*
X155968331Y-121968455D01*
X156093464Y-121298720D01*
X156186002Y-120610601D01*
X156247199Y-119896271D01*
X156278236Y-119151400D01*
X156278430Y-119022958D01*
X155240684Y-119022958D01*
X155219745Y-119675373D01*
X155174097Y-120304380D01*
X155103878Y-120899454D01*
X155103224Y-120904000D01*
X155040437Y-121286966D01*
X154959954Y-121693154D01*
X154865430Y-122107418D01*
X154760516Y-122514608D01*
X154648865Y-122899578D01*
X154547171Y-123210143D01*
X154485608Y-123411521D01*
X154447060Y-123605335D01*
X154430862Y-123743543D01*
X154342693Y-124470015D01*
X154214117Y-125179049D01*
X154046181Y-125867935D01*
X153839931Y-126533961D01*
X153596416Y-127174418D01*
X153316681Y-127786593D01*
X153001774Y-128367777D01*
X152652742Y-128915257D01*
X152270631Y-129426324D01*
X152205144Y-129506159D01*
X152099686Y-129627503D01*
X151967013Y-129771752D01*
X151817157Y-129928719D01*
X151660152Y-130088215D01*
X151506029Y-130240051D01*
X151364822Y-130374040D01*
X151246563Y-130479991D01*
X151244300Y-130481926D01*
X150847856Y-130793096D01*
X150414099Y-131083722D01*
X149954539Y-131347305D01*
X149480682Y-131577345D01*
X149004039Y-131767342D01*
X148912347Y-131798971D01*
X148605368Y-131923018D01*
X148359006Y-132053805D01*
X147814284Y-132352176D01*
X147238679Y-132615267D01*
X146630258Y-132843779D01*
X145987089Y-133038414D01*
X145307239Y-133199873D01*
X145072100Y-133246448D01*
X144829618Y-133290475D01*
X144588545Y-133330477D01*
X144344000Y-133366922D01*
X144091103Y-133400277D01*
X143824971Y-133431009D01*
X143540724Y-133459586D01*
X143233481Y-133486476D01*
X142898360Y-133512147D01*
X142530481Y-133537065D01*
X142124962Y-133561698D01*
X141676922Y-133586515D01*
X141338300Y-133604097D01*
X140770303Y-133634197D01*
X140251135Y-133664426D01*
X139778828Y-133694972D01*
X139351411Y-133726022D01*
X138966914Y-133757762D01*
X138623368Y-133790380D01*
X138318802Y-133824063D01*
X138051248Y-133858997D01*
X137818734Y-133895370D01*
X137619292Y-133933368D01*
X137452100Y-133972873D01*
X136903688Y-134111093D01*
X136385285Y-134225910D01*
X135883078Y-134319610D01*
X135383249Y-134394478D01*
X134871985Y-134452802D01*
X134335469Y-134496867D01*
X134251700Y-134502404D01*
X134141308Y-134506940D01*
X133988037Y-134509565D01*
X133799771Y-134510424D01*
X133584390Y-134509662D01*
X133349775Y-134507426D01*
X133103808Y-134503859D01*
X132854370Y-134499108D01*
X132609341Y-134493318D01*
X132376604Y-134486634D01*
X132164038Y-134479202D01*
X131979526Y-134471166D01*
X131830949Y-134462673D01*
X131749800Y-134456275D01*
X131089171Y-134384827D01*
X130412329Y-134294239D01*
X129729277Y-134186403D01*
X129050017Y-134063211D01*
X128384552Y-133926555D01*
X127742884Y-133778327D01*
X127135016Y-133620418D01*
X126758700Y-133512265D01*
X126120082Y-133332182D01*
X125456127Y-133167442D01*
X124761001Y-133016798D01*
X124028870Y-132879001D01*
X123253900Y-132752803D01*
X123101100Y-132730000D01*
X122885398Y-132698593D01*
X122678029Y-132669183D01*
X122473580Y-132641117D01*
X122266639Y-132613743D01*
X122051793Y-132586407D01*
X121823630Y-132558457D01*
X121576738Y-132529241D01*
X121305703Y-132498105D01*
X121005114Y-132464397D01*
X120669557Y-132427464D01*
X120293620Y-132386654D01*
X119926100Y-132347122D01*
X119404007Y-132290761D01*
X118928264Y-132238530D01*
X118494638Y-132189884D01*
X118098895Y-132144277D01*
X117736802Y-132101162D01*
X117404124Y-132059994D01*
X117096629Y-132020227D01*
X116810082Y-131981314D01*
X116540251Y-131942709D01*
X116282900Y-131903866D01*
X116033797Y-131864240D01*
X115788708Y-131823283D01*
X115571355Y-131785418D01*
X115427015Y-131759427D01*
X115305546Y-131735998D01*
X115198103Y-131712514D01*
X115095842Y-131686359D01*
X114989919Y-131654919D01*
X114871489Y-131615576D01*
X114731709Y-131565714D01*
X114561733Y-131502718D01*
X114364855Y-131428559D01*
X113697960Y-131182933D01*
X113069590Y-130964889D01*
X112476257Y-130773456D01*
X111914468Y-130607663D01*
X111380735Y-130466539D01*
X110871566Y-130349113D01*
X110383471Y-130254413D01*
X109912961Y-130181468D01*
X109855000Y-130173805D01*
X109467098Y-130133751D01*
X109052969Y-130109533D01*
X108626325Y-130101059D01*
X108200880Y-130108238D01*
X107790346Y-130130978D01*
X107408434Y-130169190D01*
X107251500Y-130191110D01*
X107105575Y-130213490D01*
X106942737Y-130238358D01*
X106792387Y-130261228D01*
X106756200Y-130266712D01*
X106593695Y-130285977D01*
X106392464Y-130301459D01*
X106164458Y-130312886D01*
X105921631Y-130319990D01*
X105675935Y-130322501D01*
X105439322Y-130320148D01*
X105223744Y-130312662D01*
X105092500Y-130304282D01*
X104819986Y-130280032D01*
X104551704Y-130250644D01*
X104282576Y-130215089D01*
X104007529Y-130172338D01*
X103721486Y-130121361D01*
X103419372Y-130061129D01*
X103096110Y-129990612D01*
X102746625Y-129908782D01*
X102365841Y-129814608D01*
X101948684Y-129707062D01*
X101490075Y-129585114D01*
X101320600Y-129539319D01*
X100834541Y-129408505D01*
X100392444Y-129291780D01*
X99989756Y-129188170D01*
X99621925Y-129096699D01*
X99284398Y-129016389D01*
X98972622Y-128946266D01*
X98682045Y-128885354D01*
X98408115Y-128832677D01*
X98146277Y-128787259D01*
X97891981Y-128748125D01*
X97640673Y-128714297D01*
X97387801Y-128684802D01*
X97282000Y-128673671D01*
X97089748Y-128658766D01*
X96860486Y-128648611D01*
X96607786Y-128643208D01*
X96345215Y-128642556D01*
X96086344Y-128646656D01*
X95844741Y-128655508D01*
X95633975Y-128669112D01*
X95583873Y-128673624D01*
X95400933Y-128687807D01*
X95198993Y-128696282D01*
X94968782Y-128699240D01*
X94701028Y-128696874D01*
X94580573Y-128694462D01*
X94373644Y-128688660D01*
X94175229Y-128680491D01*
X93980388Y-128669333D01*
X93784184Y-128654560D01*
X93581676Y-128635549D01*
X93367925Y-128611677D01*
X93137992Y-128582318D01*
X92886937Y-128546850D01*
X92609821Y-128504648D01*
X92301705Y-128455089D01*
X91957649Y-128397548D01*
X91572714Y-128331402D01*
X91224100Y-128270479D01*
X90821472Y-128200416D01*
X90462795Y-128139706D01*
X90142223Y-128087661D01*
X89853910Y-128043592D01*
X89592011Y-128006809D01*
X89350679Y-127976623D01*
X89124068Y-127952345D01*
X88906333Y-127933286D01*
X88691627Y-127918756D01*
X88474104Y-127908067D01*
X88247919Y-127900529D01*
X88049100Y-127896165D01*
X87808009Y-127893210D01*
X87579285Y-127892952D01*
X87371716Y-127895272D01*
X87194089Y-127900048D01*
X87055192Y-127907162D01*
X87015543Y-127910346D01*
X86897608Y-127919706D01*
X86789907Y-127924188D01*
X86680184Y-127923435D01*
X86556181Y-127917092D01*
X86405641Y-127904800D01*
X86228143Y-127887416D01*
X85640667Y-127818019D01*
X85051910Y-127729528D01*
X84458233Y-127620885D01*
X83855998Y-127491034D01*
X83241565Y-127338919D01*
X82611297Y-127163483D01*
X81961555Y-126963669D01*
X81288699Y-126738421D01*
X80589092Y-126486683D01*
X79859095Y-126207397D01*
X79095068Y-125899507D01*
X78449158Y-125628590D01*
X78244326Y-125542094D01*
X78017360Y-125447605D01*
X77784146Y-125351649D01*
X77560573Y-125260750D01*
X77362530Y-125181433D01*
X77306158Y-125159177D01*
X76957046Y-125020696D01*
X76604997Y-124878413D01*
X76246780Y-124730894D01*
X75879164Y-124576707D01*
X75498921Y-124414417D01*
X75102820Y-124242591D01*
X74687631Y-124059796D01*
X74250123Y-123864599D01*
X73787068Y-123655566D01*
X73295235Y-123431263D01*
X72771395Y-123190258D01*
X72212316Y-122931117D01*
X71614769Y-122652406D01*
X70975525Y-122352693D01*
X70866000Y-122301208D01*
X70566688Y-122160532D01*
X70262140Y-122017531D01*
X69958411Y-121875039D01*
X69661552Y-121735891D01*
X69377618Y-121602919D01*
X69112659Y-121478958D01*
X68872730Y-121366842D01*
X68663882Y-121269405D01*
X68492168Y-121189481D01*
X68427600Y-121159509D01*
X68237950Y-121070730D01*
X68056223Y-120984078D01*
X67889431Y-120903014D01*
X67744588Y-120831001D01*
X67628705Y-120771504D01*
X67548793Y-120727983D01*
X67525900Y-120714191D01*
X67373500Y-120616294D01*
X67453171Y-120583449D01*
X67521780Y-120561671D01*
X67629203Y-120535264D01*
X67763926Y-120506509D01*
X67914434Y-120477690D01*
X68069213Y-120451090D01*
X68216750Y-120428991D01*
X68262500Y-120422998D01*
X68575614Y-120390319D01*
X68927072Y-120365120D01*
X69306667Y-120347404D01*
X69704190Y-120337177D01*
X70109433Y-120334444D01*
X70512187Y-120339210D01*
X70902245Y-120351479D01*
X71269396Y-120371256D01*
X71603434Y-120398546D01*
X71805800Y-120421314D01*
X71922993Y-120433234D01*
X72089207Y-120445380D01*
X72302664Y-120457694D01*
X72561585Y-120470118D01*
X72864191Y-120482594D01*
X73208706Y-120495062D01*
X73593350Y-120507464D01*
X74016345Y-120519743D01*
X74475913Y-120531839D01*
X74970275Y-120543695D01*
X75497654Y-120555252D01*
X76056270Y-120566452D01*
X76454000Y-120573851D01*
X77117741Y-120586733D01*
X77733324Y-120600604D01*
X78303382Y-120615579D01*
X78830549Y-120631775D01*
X79317459Y-120649306D01*
X79766747Y-120668288D01*
X80181046Y-120688837D01*
X80562990Y-120711068D01*
X80915213Y-120735097D01*
X81240349Y-120761039D01*
X81541032Y-120789009D01*
X81673700Y-120802787D01*
X81826716Y-120815703D01*
X82020728Y-120826581D01*
X82245970Y-120835295D01*
X82492673Y-120841721D01*
X82751070Y-120845732D01*
X83011395Y-120847205D01*
X83263880Y-120846013D01*
X83498757Y-120842032D01*
X83706259Y-120835136D01*
X83804755Y-120830082D01*
X84158358Y-120805977D01*
X84509066Y-120775718D01*
X84860920Y-120738545D01*
X85217955Y-120693698D01*
X85584212Y-120640418D01*
X85963726Y-120577943D01*
X86360538Y-120505514D01*
X86778683Y-120422371D01*
X87222201Y-120327753D01*
X87695130Y-120220902D01*
X88201506Y-120101057D01*
X88745370Y-119967457D01*
X89330757Y-119819343D01*
X89750900Y-119710909D01*
X90026204Y-119639939D01*
X90287108Y-119574022D01*
X90538923Y-119512019D01*
X90786960Y-119452791D01*
X91036531Y-119395197D01*
X91292945Y-119338100D01*
X91561513Y-119280360D01*
X91847548Y-119220837D01*
X92156358Y-119158394D01*
X92493255Y-119091889D01*
X92863550Y-119020184D01*
X93272554Y-118942141D01*
X93725577Y-118856619D01*
X93789500Y-118844607D01*
X94255568Y-118756824D01*
X94676102Y-118677048D01*
X95055580Y-118604351D01*
X95398476Y-118537807D01*
X95709266Y-118476489D01*
X95992426Y-118419468D01*
X96252431Y-118365818D01*
X96493757Y-118314612D01*
X96720880Y-118264921D01*
X96938275Y-118215820D01*
X97150418Y-118166381D01*
X97361783Y-118115676D01*
X97576848Y-118062779D01*
X97643649Y-118046121D01*
X97933658Y-117972883D01*
X98179303Y-117909078D01*
X98385791Y-117853039D01*
X98558329Y-117803098D01*
X98702127Y-117757588D01*
X98822391Y-117714843D01*
X98924330Y-117673196D01*
X99013152Y-117630979D01*
X99094064Y-117586525D01*
X99111174Y-117576367D01*
X99532706Y-117346997D01*
X99993400Y-117140830D01*
X100486039Y-116960343D01*
X101003406Y-116808012D01*
X101538285Y-116686312D01*
X101879400Y-116626730D01*
X102034749Y-116603161D01*
X102180307Y-116582205D01*
X102320076Y-116563677D01*
X102458053Y-116547392D01*
X102598237Y-116533163D01*
X102744628Y-116520806D01*
X102901223Y-116510134D01*
X103072021Y-116500962D01*
X103261022Y-116493105D01*
X103472225Y-116486376D01*
X103709627Y-116480590D01*
X103977228Y-116475561D01*
X104279027Y-116471104D01*
X104619021Y-116467034D01*
X105001211Y-116463164D01*
X105429595Y-116459309D01*
X105498900Y-116458713D01*
X105916802Y-116455033D01*
X106288104Y-116451458D01*
X106617010Y-116447831D01*
X106907719Y-116443996D01*
X107164433Y-116439795D01*
X107391353Y-116435073D01*
X107592679Y-116429672D01*
X107772613Y-116423436D01*
X107935356Y-116416209D01*
X108085109Y-116407833D01*
X108226073Y-116398153D01*
X108362449Y-116387010D01*
X108498437Y-116374250D01*
X108638239Y-116359715D01*
X108786057Y-116343248D01*
X108877100Y-116332753D01*
X109274167Y-116289076D01*
X109668825Y-116250925D01*
X110065580Y-116218169D01*
X110468936Y-116190677D01*
X110883399Y-116168317D01*
X111313475Y-116150959D01*
X111763669Y-116138471D01*
X112238486Y-116130723D01*
X112742432Y-116127583D01*
X113280012Y-116128920D01*
X113855731Y-116134603D01*
X114474095Y-116144501D01*
X114985800Y-116154993D01*
X115556842Y-116166733D01*
X116091797Y-116175798D01*
X116589121Y-116182193D01*
X117047269Y-116185922D01*
X117464697Y-116186987D01*
X117839859Y-116185394D01*
X118171211Y-116181144D01*
X118457208Y-116174243D01*
X118696306Y-116164693D01*
X118886960Y-116152498D01*
X118960900Y-116145697D01*
X119484343Y-116084646D01*
X120000415Y-116010967D01*
X120514683Y-115923301D01*
X121032713Y-115820290D01*
X121560072Y-115700575D01*
X122102328Y-115562796D01*
X122665046Y-115405596D01*
X123253794Y-115227615D01*
X123874139Y-115027495D01*
X124531647Y-114803877D01*
X124701300Y-114744558D01*
X124913052Y-114669403D01*
X125151173Y-114583590D01*
X125410777Y-114488969D01*
X125686973Y-114387393D01*
X125974871Y-114280716D01*
X126269584Y-114170788D01*
X126566221Y-114059463D01*
X126859893Y-113948592D01*
X127145712Y-113840027D01*
X127418787Y-113735622D01*
X127674229Y-113637228D01*
X127907150Y-113546698D01*
X128112659Y-113465884D01*
X128285868Y-113396638D01*
X128421888Y-113340813D01*
X128515829Y-113300260D01*
X128526271Y-113295478D01*
X128764501Y-113186425D01*
X129008661Y-113077416D01*
X129262609Y-112966899D01*
X129530204Y-112853321D01*
X129815304Y-112735130D01*
X130121768Y-112610775D01*
X130453455Y-112478701D01*
X130814223Y-112337359D01*
X131207932Y-112185194D01*
X131638440Y-112020655D01*
X132109606Y-111842190D01*
X132562600Y-111671760D01*
X133059945Y-111484664D01*
X133513560Y-111312933D01*
X133927569Y-111154887D01*
X134306100Y-111008850D01*
X134653277Y-110873142D01*
X134973227Y-110746086D01*
X135270074Y-110626002D01*
X135547945Y-110511214D01*
X135810965Y-110400042D01*
X136063260Y-110290808D01*
X136308955Y-110181834D01*
X136552175Y-110071442D01*
X136797048Y-109957953D01*
X136934992Y-109893103D01*
X137120855Y-109806706D01*
X137273046Y-109738868D01*
X137388844Y-109690710D01*
X137465524Y-109663351D01*
X137500367Y-109657911D01*
X137502136Y-109659730D01*
X137508852Y-109693776D01*
X137521732Y-109769167D01*
X137539321Y-109877023D01*
X137560165Y-110008462D01*
X137577757Y-110121700D01*
X137665089Y-110618130D01*
X137767235Y-111067805D01*
X137884864Y-111472764D01*
X138018646Y-111835043D01*
X138169254Y-112156679D01*
X138337355Y-112439710D01*
X138343721Y-112449175D01*
X138392720Y-112523066D01*
X138460310Y-112626824D01*
X138538002Y-112747336D01*
X138617307Y-112871489D01*
X138626586Y-112886099D01*
X138764478Y-113096568D01*
X138922031Y-113325737D01*
X139087829Y-113557621D01*
X139250456Y-113776231D01*
X139388727Y-113953463D01*
X139506015Y-114081634D01*
X139619482Y-114165758D01*
X139737988Y-114210980D01*
X139852400Y-114222684D01*
X140000163Y-114199842D01*
X140132152Y-114136685D01*
X140241664Y-114041269D01*
X140321996Y-113921649D01*
X140366445Y-113785879D01*
X140368306Y-113642014D01*
X140362310Y-113609965D01*
X140353075Y-113569833D01*
X140343011Y-113535949D01*
X140327725Y-113501276D01*
X140302822Y-113458772D01*
X140263907Y-113401398D01*
X140206587Y-113322114D01*
X140126468Y-113213881D01*
X140055787Y-113118900D01*
X139898605Y-112903700D01*
X139740800Y-112680244D01*
X139586656Y-112455126D01*
X139440455Y-112234940D01*
X139306478Y-112026282D01*
X139189008Y-111835746D01*
X139092326Y-111669928D01*
X139020715Y-111535421D01*
X139001684Y-111495466D01*
X138935988Y-111340415D01*
X138875423Y-111173124D01*
X138818681Y-110988146D01*
X138764452Y-110780036D01*
X138711430Y-110543348D01*
X138658306Y-110272636D01*
X138603772Y-109962453D01*
X138546519Y-109607354D01*
X138543558Y-109588300D01*
X138510346Y-109379305D01*
X138480915Y-109208644D01*
X138452506Y-109064273D01*
X138422359Y-108934149D01*
X138387715Y-108806229D01*
X138345815Y-108668467D01*
X138323092Y-108598390D01*
X137225161Y-108598390D01*
X136729031Y-108837604D01*
X136453427Y-108969069D01*
X136179089Y-109096882D01*
X135901733Y-109222807D01*
X135617077Y-109348607D01*
X135320836Y-109476044D01*
X135008729Y-109606882D01*
X134676473Y-109742885D01*
X134319784Y-109885815D01*
X133934380Y-110037435D01*
X133515978Y-110199509D01*
X133060295Y-110373800D01*
X132563048Y-110562071D01*
X132295900Y-110662600D01*
X131836144Y-110835510D01*
X131420120Y-110992481D01*
X131043878Y-111135100D01*
X130703467Y-111264952D01*
X130394939Y-111383624D01*
X130114343Y-111492700D01*
X129857729Y-111593767D01*
X129621148Y-111688411D01*
X129400649Y-111778217D01*
X129192282Y-111864771D01*
X128992099Y-111949659D01*
X128796147Y-112034467D01*
X128600479Y-112120779D01*
X128401143Y-112210184D01*
X128194190Y-112304265D01*
X128104900Y-112345164D01*
X127992798Y-112394196D01*
X127836510Y-112458869D01*
X127639708Y-112537785D01*
X127406062Y-112629544D01*
X127139245Y-112732747D01*
X126842928Y-112845995D01*
X126520780Y-112967890D01*
X126176475Y-113097032D01*
X125813683Y-113232023D01*
X125436075Y-113371463D01*
X125047323Y-113513953D01*
X124828300Y-113593767D01*
X124081304Y-113858930D01*
X123373362Y-114096736D01*
X122701284Y-114308038D01*
X122061880Y-114493694D01*
X121451959Y-114654558D01*
X120868331Y-114791485D01*
X120307805Y-114905330D01*
X119767191Y-114996949D01*
X119405400Y-115047490D01*
X119251113Y-115066510D01*
X119101567Y-115083446D01*
X118953427Y-115098347D01*
X118803359Y-115111260D01*
X118648029Y-115122235D01*
X118484103Y-115131320D01*
X118308247Y-115138563D01*
X118117126Y-115144014D01*
X117907406Y-115147719D01*
X117675753Y-115149728D01*
X117418833Y-115150090D01*
X117133311Y-115148852D01*
X116815853Y-115146063D01*
X116463125Y-115141772D01*
X116071792Y-115136027D01*
X115638521Y-115128876D01*
X115159977Y-115120368D01*
X114821530Y-115114105D01*
X114163844Y-115103154D01*
X113552859Y-115095939D01*
X112984608Y-115092575D01*
X112455121Y-115093179D01*
X111960428Y-115097869D01*
X111496563Y-115106762D01*
X111059554Y-115119974D01*
X110645433Y-115137623D01*
X110250232Y-115159824D01*
X109869981Y-115186697D01*
X109500711Y-115218356D01*
X109138454Y-115254920D01*
X108826300Y-115290762D01*
X108679720Y-115308262D01*
X108543650Y-115323761D01*
X108413973Y-115337419D01*
X108286570Y-115349391D01*
X108157323Y-115359837D01*
X108022114Y-115368912D01*
X107876824Y-115376776D01*
X107717334Y-115383585D01*
X107539527Y-115389497D01*
X107339284Y-115394669D01*
X107112486Y-115399259D01*
X106855016Y-115403425D01*
X106562755Y-115407324D01*
X106231584Y-115411113D01*
X105857385Y-115414951D01*
X105486200Y-115418521D01*
X105141804Y-115421917D01*
X104809607Y-115425472D01*
X104493432Y-115429131D01*
X104197099Y-115432835D01*
X103924431Y-115436530D01*
X103679247Y-115440157D01*
X103465370Y-115443660D01*
X103286621Y-115446982D01*
X103146821Y-115450067D01*
X103049791Y-115452857D01*
X102999353Y-115455295D01*
X102997000Y-115455520D01*
X102914145Y-115463734D01*
X102797393Y-115474561D01*
X102663481Y-115486476D01*
X102552500Y-115495998D01*
X101854618Y-115575238D01*
X101188088Y-115693149D01*
X100550518Y-115850429D01*
X99939517Y-116047775D01*
X99352694Y-116285884D01*
X98787659Y-116565453D01*
X98679000Y-116625313D01*
X98579906Y-116678380D01*
X98483950Y-116723367D01*
X98380068Y-116764359D01*
X98257201Y-116805442D01*
X98104286Y-116850700D01*
X97961231Y-116890386D01*
X97715894Y-116956069D01*
X97466926Y-117020204D01*
X97210235Y-117083669D01*
X96941726Y-117147338D01*
X96657306Y-117212088D01*
X96352879Y-117278794D01*
X96024354Y-117348333D01*
X95667635Y-117421580D01*
X95278629Y-117499412D01*
X94853242Y-117582704D01*
X94387381Y-117672333D01*
X93876950Y-117769173D01*
X93686212Y-117805084D01*
X93152389Y-117906111D01*
X92662408Y-118000448D01*
X92209961Y-118089497D01*
X91788740Y-118174662D01*
X91392436Y-118257347D01*
X91014741Y-118338954D01*
X90649346Y-118420888D01*
X90289943Y-118504552D01*
X89930223Y-118591349D01*
X89563878Y-118682682D01*
X89184599Y-118779955D01*
X88786078Y-118884572D01*
X88544400Y-118948962D01*
X88431848Y-118977783D01*
X88335214Y-119000114D01*
X88266386Y-119013353D01*
X88239720Y-119015700D01*
X88215407Y-118991788D01*
X88186471Y-118923849D01*
X88151959Y-118809380D01*
X88131828Y-118731975D01*
X88070687Y-118452833D01*
X88018090Y-118143389D01*
X87976938Y-117823826D01*
X87950128Y-117514327D01*
X87945811Y-117436900D01*
X87942503Y-117346945D01*
X87941550Y-117253408D01*
X87943298Y-117150540D01*
X87948095Y-117032595D01*
X87956286Y-116893822D01*
X87968219Y-116728476D01*
X87984241Y-116530807D01*
X88004698Y-116295068D01*
X88029937Y-116015510D01*
X88034683Y-115963700D01*
X88090478Y-115365398D01*
X88143987Y-114812529D01*
X88195849Y-114299812D01*
X88246703Y-113821965D01*
X88297188Y-113373705D01*
X88347942Y-112949750D01*
X88399605Y-112544818D01*
X88452815Y-112153627D01*
X88508212Y-111770895D01*
X88566433Y-111391339D01*
X88628119Y-111009679D01*
X88649121Y-110883700D01*
X88805674Y-110020797D01*
X88981636Y-109179491D01*
X89175634Y-108365132D01*
X89386298Y-107583074D01*
X89612256Y-106838671D01*
X89852137Y-106137274D01*
X89894878Y-106020881D01*
X89938273Y-105897511D01*
X89989344Y-105742212D01*
X90042637Y-105572128D01*
X90092699Y-105404403D01*
X90108370Y-105349705D01*
X90209923Y-105012036D01*
X90322684Y-104679811D01*
X90448833Y-104348783D01*
X90590550Y-104014708D01*
X90750016Y-103673337D01*
X90929411Y-103320427D01*
X91130916Y-102951729D01*
X91356710Y-102562997D01*
X91608975Y-102149987D01*
X91889891Y-101708450D01*
X92201637Y-101234142D01*
X92287898Y-101105097D01*
X92418465Y-100908709D01*
X92545490Y-100714503D01*
X92664843Y-100529022D01*
X92772392Y-100358808D01*
X92864009Y-100210405D01*
X92935560Y-100090354D01*
X92982916Y-100005199D01*
X92985481Y-100000197D01*
X93126775Y-99731924D01*
X93276409Y-99467737D01*
X93437034Y-99204157D01*
X93611301Y-98937706D01*
X93801858Y-98664905D01*
X94011358Y-98382274D01*
X94242449Y-98086336D01*
X94497781Y-97773611D01*
X94780006Y-97440621D01*
X95091773Y-97083887D01*
X95435732Y-96699930D01*
X95814534Y-96285272D01*
X95820588Y-96278700D01*
X96065346Y-96012595D01*
X96280066Y-95778190D01*
X96469518Y-95570183D01*
X96638474Y-95383275D01*
X96791704Y-95212165D01*
X96933980Y-95051552D01*
X97070072Y-94896136D01*
X97198115Y-94748319D01*
X97296088Y-94637752D01*
X97398743Y-94528690D01*
X97509798Y-94417961D01*
X97632974Y-94302394D01*
X97771990Y-94178815D01*
X97930567Y-94044053D01*
X98112424Y-93894936D01*
X98321281Y-93728290D01*
X98560858Y-93540944D01*
X98834874Y-93329725D01*
X99090180Y-93134731D01*
X99448219Y-92860838D01*
X99768750Y-92612536D01*
X100055831Y-92386217D01*
X100313523Y-92178273D01*
X100545885Y-91985095D01*
X100756977Y-91803073D01*
X100950860Y-91628599D01*
X101131592Y-91458064D01*
X101303233Y-91287859D01*
X101469844Y-91114375D01*
X101635484Y-90934004D01*
X101804213Y-90743137D01*
X101882455Y-90652600D01*
X102007924Y-90510466D01*
X102151840Y-90353747D01*
X102299178Y-90198443D01*
X102434912Y-90060555D01*
X102479041Y-90017292D01*
X102908099Y-89636655D01*
X103372121Y-89291682D01*
X103871362Y-88982269D01*
X104406074Y-88708308D01*
X104976511Y-88469694D01*
X105582927Y-88266321D01*
X106225575Y-88098083D01*
X106904709Y-87964873D01*
X107619800Y-87866673D01*
X107745114Y-87854020D01*
X107872747Y-87843783D01*
X108009653Y-87835740D01*
X108162785Y-87829670D01*
X108339096Y-87825354D01*
X108545542Y-87822569D01*
X108789074Y-87821097D01*
X109067600Y-87820712D01*
X109386575Y-87821669D01*
X109676272Y-87824884D01*
X109942828Y-87831080D01*
X110192379Y-87840979D01*
X110431061Y-87855305D01*
X110665009Y-87874780D01*
X110900361Y-87900127D01*
X111143252Y-87932070D01*
X111399818Y-87971330D01*
X111676195Y-88018632D01*
X111978519Y-88074697D01*
X112312926Y-88140249D01*
X112685553Y-88216010D01*
X113030000Y-88287529D01*
X114069162Y-88513629D01*
X115113518Y-88758289D01*
X116153338Y-89018929D01*
X117178893Y-89292970D01*
X118180449Y-89577834D01*
X119148279Y-89870941D01*
X119837200Y-90091685D01*
X120077362Y-90172038D01*
X120296517Y-90249071D01*
X120500465Y-90325663D01*
X120695003Y-90404689D01*
X120885930Y-90489026D01*
X121079045Y-90581549D01*
X121280146Y-90685136D01*
X121495030Y-90802662D01*
X121729498Y-90937005D01*
X121989346Y-91091039D01*
X122280373Y-91267643D01*
X122581279Y-91452919D01*
X122952115Y-91681020D01*
X123285705Y-91882912D01*
X123586867Y-92060873D01*
X123860416Y-92217179D01*
X124111170Y-92354106D01*
X124343947Y-92473930D01*
X124563561Y-92578929D01*
X124774832Y-92671378D01*
X124982574Y-92753555D01*
X125191606Y-92827735D01*
X125406744Y-92896196D01*
X125632805Y-92961213D01*
X125874606Y-93025063D01*
X125945900Y-93043070D01*
X126480235Y-93182626D01*
X126985771Y-93327158D01*
X127472709Y-93480332D01*
X127951246Y-93645812D01*
X128431581Y-93827260D01*
X128923912Y-94028342D01*
X129438438Y-94252720D01*
X129895600Y-94462044D01*
X130163619Y-94588919D01*
X130433558Y-94720546D01*
X130708388Y-94858606D01*
X130991078Y-95004785D01*
X131284599Y-95160766D01*
X131591921Y-95328232D01*
X131916015Y-95508867D01*
X132259850Y-95704354D01*
X132626396Y-95916377D01*
X133018624Y-96146619D01*
X133439504Y-96396764D01*
X133892006Y-96668495D01*
X134379100Y-96963497D01*
X134903756Y-97283452D01*
X135280400Y-97514235D01*
X135495987Y-97646518D01*
X135703212Y-97773600D01*
X135897068Y-97892416D01*
X136072546Y-97999899D01*
X136224640Y-98092984D01*
X136348342Y-98168605D01*
X136438644Y-98223694D01*
X136489739Y-98254706D01*
X136644977Y-98348211D01*
X136598758Y-98545355D01*
X136561574Y-98721175D01*
X136522050Y-98938885D01*
X136481365Y-99189695D01*
X136440695Y-99464817D01*
X136401220Y-99755463D01*
X136364115Y-100052842D01*
X136330560Y-100348168D01*
X136301731Y-100632650D01*
X136278807Y-100897500D01*
X136272837Y-100977700D01*
X136230533Y-101917913D01*
X136235824Y-102870778D01*
X136288267Y-103832429D01*
X136387417Y-104799004D01*
X136532827Y-105766641D01*
X136724054Y-106731475D01*
X136960652Y-107689644D01*
X137103754Y-108191645D01*
X137225161Y-108598390D01*
X138323092Y-108598390D01*
X138301537Y-108531921D01*
X138029776Y-107650080D01*
X137801882Y-106781837D01*
X137616210Y-105918234D01*
X137471109Y-105050311D01*
X137364933Y-104169109D01*
X137296032Y-103265668D01*
X137282549Y-102992740D01*
X137266518Y-102234176D01*
X137284997Y-101473972D01*
X137338564Y-100703638D01*
X137427795Y-99914685D01*
X137543836Y-99153629D01*
X137634441Y-98710165D01*
X137750480Y-98304614D01*
X137895895Y-97928856D01*
X138074628Y-97574773D01*
X138290622Y-97234247D01*
X138547818Y-96899159D01*
X138751447Y-96666789D01*
X138892219Y-96513763D01*
X139006938Y-96391315D01*
X139103987Y-96292893D01*
X139191746Y-96211939D01*
X139278595Y-96141900D01*
X139372916Y-96076220D01*
X139483090Y-96008344D01*
X139617497Y-95931716D01*
X139784519Y-95839782D01*
X139865100Y-95795745D01*
X140076111Y-95678994D01*
X140249299Y-95579315D01*
X140392428Y-95491359D01*
X140513261Y-95409780D01*
X140619561Y-95329231D01*
X140719093Y-95244366D01*
X140819619Y-95149839D01*
X140858059Y-95111904D01*
X140967292Y-94998961D01*
X141059688Y-94891984D01*
X141136629Y-94785567D01*
X141199498Y-94674308D01*
X141249676Y-94552803D01*
X141288547Y-94415647D01*
X141317491Y-94257438D01*
X141337892Y-94072772D01*
X141351130Y-93856245D01*
X141358589Y-93602454D01*
X141361651Y-93305994D01*
X141361964Y-93141800D01*
X141360622Y-92856802D01*
X141356178Y-92613418D01*
X141348006Y-92402523D01*
X141335477Y-92214991D01*
X141317967Y-92041696D01*
X141294847Y-91873513D01*
X141265491Y-91701316D01*
X141261577Y-91680255D01*
X141256677Y-91645558D01*
X141263024Y-91620385D01*
X141288971Y-91599127D01*
X141342866Y-91576176D01*
X141433063Y-91545922D01*
X141487575Y-91528478D01*
X141727649Y-91451856D01*
X141738041Y-92087278D01*
X141741723Y-92288801D01*
X141745780Y-92446830D01*
X141750799Y-92568669D01*
X141757370Y-92661623D01*
X141766081Y-92732998D01*
X141777520Y-92790097D01*
X141792275Y-92840227D01*
X141800584Y-92863621D01*
X141912309Y-93109558D01*
X142050241Y-93312260D01*
X142216012Y-93472953D01*
X142411253Y-93592863D01*
X142637597Y-93673215D01*
X142896675Y-93715236D01*
X142938516Y-93718312D01*
X143167131Y-93732707D01*
X143725916Y-93396628D01*
X144033158Y-93215276D01*
X144305670Y-93062048D01*
X144549020Y-92934142D01*
X144768776Y-92828753D01*
X144970507Y-92743077D01*
X145159781Y-92674309D01*
X145161000Y-92673905D01*
X145379046Y-92608020D01*
X145572888Y-92564715D01*
X145762012Y-92540648D01*
X145965904Y-92532481D01*
X145986500Y-92532411D01*
X146106315Y-92534528D01*
X146194219Y-92543456D01*
X146268997Y-92562745D01*
X146349434Y-92595944D01*
X146367500Y-92604399D01*
X146460525Y-92654385D01*
X146591268Y-92733800D01*
X146757257Y-92841003D01*
X146956019Y-92974356D01*
X147185082Y-93132217D01*
X147441971Y-93312948D01*
X147523200Y-93370744D01*
X147824325Y-93575480D01*
X148103486Y-93742696D01*
X148369011Y-93875657D01*
X148629223Y-93977623D01*
X148892450Y-94051861D01*
X149167017Y-94101631D01*
X149460749Y-94130167D01*
X149586407Y-94136785D01*
X149693323Y-94140155D01*
X149771540Y-94140130D01*
X149811101Y-94136564D01*
X149813540Y-94135375D01*
X149822490Y-94108354D01*
X149841912Y-94036504D01*
X149870666Y-93924449D01*
X149907606Y-93776813D01*
X149951589Y-93598222D01*
X150001473Y-93393299D01*
X150056114Y-93166669D01*
X150114368Y-92922957D01*
X150140827Y-92811600D01*
X150200027Y-92562257D01*
X150255705Y-92328255D01*
X150306764Y-92114172D01*
X150352105Y-91924586D01*
X150390633Y-91764072D01*
X150421248Y-91637211D01*
X150442854Y-91548578D01*
X150454353Y-91502752D01*
X150455936Y-91497317D01*
X150480217Y-91502658D01*
X150541113Y-91522159D01*
X150627650Y-91552217D01*
X150673762Y-91568858D01*
X150797549Y-91610736D01*
X150938504Y-91653165D01*
X151084758Y-91693132D01*
X151224440Y-91727628D01*
X151345680Y-91753640D01*
X151436608Y-91768158D01*
X151467348Y-91770167D01*
X151523687Y-91781902D01*
X151551931Y-91806517D01*
X151548993Y-91836882D01*
X151535945Y-91912721D01*
X151513637Y-92029901D01*
X151482918Y-92184292D01*
X151444634Y-92371762D01*
X151399636Y-92588180D01*
X151348772Y-92829414D01*
X151292890Y-93091334D01*
X151232839Y-93369809D01*
X151196147Y-93538595D01*
X150826427Y-95234355D01*
X150949733Y-95468578D01*
X151024131Y-95602300D01*
X151105641Y-95732216D01*
X151199787Y-95865630D01*
X151312091Y-96009851D01*
X151448076Y-96172184D01*
X151613265Y-96359935D01*
X151677280Y-96431100D01*
X151835313Y-96607158D01*
X151967502Y-96758259D01*
X152079496Y-96892645D01*
X152176946Y-97018560D01*
X152265499Y-97144247D01*
X152350807Y-97277951D01*
X152438517Y-97427914D01*
X152534279Y-97602380D01*
X152643743Y-97809593D01*
X152712331Y-97941461D01*
X153004789Y-98509800D01*
X153271973Y-99038456D01*
X153515341Y-99530946D01*
X153736352Y-99990785D01*
X153936463Y-100421489D01*
X154117133Y-100826574D01*
X154279819Y-101209555D01*
X154425979Y-101573948D01*
X154557072Y-101923268D01*
X154674554Y-102261033D01*
X154779885Y-102590756D01*
X154874521Y-102915955D01*
X154959922Y-103240144D01*
X155028348Y-103526317D01*
X155090792Y-103809591D01*
X155138606Y-104050099D01*
X155172561Y-104253481D01*
X155193429Y-104425378D01*
X155201980Y-104571434D01*
X155198984Y-104697290D01*
X155194678Y-104743657D01*
X155165119Y-104962602D01*
X155126142Y-105175457D01*
X155075771Y-105387221D01*
X155012029Y-105602893D01*
X154932943Y-105827471D01*
X154836534Y-106065956D01*
X154720829Y-106323347D01*
X154583851Y-106604642D01*
X154423623Y-106914841D01*
X154238171Y-107258943D01*
X154106207Y-107497698D01*
X154011120Y-107670569D01*
X153900141Y-107875942D01*
X153780129Y-108100900D01*
X153657942Y-108332521D01*
X153540438Y-108557889D01*
X153448081Y-108737400D01*
X153071763Y-109453065D01*
X152697497Y-110121023D01*
X152323141Y-110744190D01*
X151946554Y-111325484D01*
X151565595Y-111867825D01*
X151178123Y-112374130D01*
X150781997Y-112847317D01*
X150375076Y-113290305D01*
X149955219Y-113706012D01*
X149520285Y-114097355D01*
X149507449Y-114108349D01*
X149369061Y-114232190D01*
X149268986Y-114336598D01*
X149202538Y-114429192D01*
X149165032Y-114517588D01*
X149151780Y-114609403D01*
X149154624Y-114681865D01*
X149192856Y-114842520D01*
X149270184Y-114975630D01*
X149380396Y-115076624D01*
X149517277Y-115140931D01*
X149674617Y-115163980D01*
X149794814Y-115152892D01*
X149868840Y-115123264D01*
X149972068Y-115058605D01*
X150100713Y-114962515D01*
X150250989Y-114838595D01*
X150419110Y-114690447D01*
X150601293Y-114521672D01*
X150793751Y-114335870D01*
X150992700Y-114136642D01*
X151194353Y-113927590D01*
X151394926Y-113712315D01*
X151590633Y-113494418D01*
X151777690Y-113277499D01*
X151823034Y-113223394D01*
X152080765Y-112903016D01*
X152350421Y-112547678D01*
X152623833Y-112169079D01*
X152892831Y-111778914D01*
X153149248Y-111388881D01*
X153384913Y-111010678D01*
X153480351Y-110850307D01*
X153678410Y-110512114D01*
X153764823Y-110786807D01*
X154061596Y-111765685D01*
X154324557Y-112708300D01*
X154554011Y-113616024D01*
X154750263Y-114490232D01*
X154913619Y-115332297D01*
X155044385Y-116143592D01*
X155142866Y-116925491D01*
X155153871Y-117030500D01*
X155207885Y-117689998D01*
X155236776Y-118357659D01*
X155240684Y-119022958D01*
X156278430Y-119022958D01*
X156279293Y-118454257D01*
X156252245Y-117742776D01*
X156196631Y-117014003D01*
X156111989Y-116264981D01*
X155997859Y-115492755D01*
X155853779Y-114694370D01*
X155679288Y-113866871D01*
X155473925Y-113007301D01*
X155237228Y-112112707D01*
X155108931Y-111658107D01*
X155046651Y-111444125D01*
X154976445Y-111207119D01*
X154900715Y-110954867D01*
X154821862Y-110695148D01*
X154742287Y-110435740D01*
X154664390Y-110184422D01*
X154590574Y-109948971D01*
X154523239Y-109737166D01*
X154464786Y-109556786D01*
X154417617Y-109415610D01*
X154408644Y-109389581D01*
X154357251Y-109241662D01*
X154497392Y-108962229D01*
X154545935Y-108867840D01*
X154614702Y-108737522D01*
X154699151Y-108579702D01*
X154794745Y-108402808D01*
X154896945Y-108215269D01*
X155001211Y-108025510D01*
X155028423Y-107976263D01*
X155169085Y-107721272D01*
X155287825Y-107504112D01*
X155387878Y-107318480D01*
X155472478Y-107158074D01*
X155544860Y-107016592D01*
X155608260Y-106887730D01*
X155665911Y-106765187D01*
X155721048Y-106642659D01*
X155766272Y-106538669D01*
X155953059Y-106057447D01*
X156093775Y-105589565D01*
X156189734Y-105130054D01*
X156234863Y-104768528D01*
X156244705Y-104635121D01*
X156247359Y-104522821D01*
X156242031Y-104413232D01*
X156227927Y-104287956D01*
X156208393Y-104155058D01*
X156107912Y-103595619D01*
X155978682Y-103028391D01*
X155819216Y-102448616D01*
X155628028Y-101851537D01*
X155403632Y-101232394D01*
X155144541Y-100586430D01*
X154957828Y-100152200D01*
X154888300Y-99998037D01*
X154802211Y-99813114D01*
X154701975Y-99602215D01*
X154590006Y-99370125D01*
X154468721Y-99121626D01*
X154340532Y-98861504D01*
X154207857Y-98594543D01*
X154073108Y-98325527D01*
X153938701Y-98059241D01*
X153807051Y-97800468D01*
X153680572Y-97553993D01*
X153561679Y-97324600D01*
X153452787Y-97117074D01*
X153356311Y-96936198D01*
X153274666Y-96786757D01*
X153210265Y-96673535D01*
X153165724Y-96601610D01*
X153067030Y-96465311D01*
X152936057Y-96299656D01*
X152771581Y-96103177D01*
X152572379Y-95874405D01*
X152391867Y-95672332D01*
X152287051Y-95554140D01*
X152187449Y-95438328D01*
X152101088Y-95334487D01*
X152035998Y-95252205D01*
X152009104Y-95215132D01*
X151921116Y-95084900D01*
X152281923Y-93434511D01*
X152642730Y-91784123D01*
X152908715Y-91715864D01*
X153296799Y-91598019D01*
X153649133Y-91450961D01*
X153974697Y-91269563D01*
X154282469Y-91048699D01*
X154581426Y-90783241D01*
X154635443Y-90729878D01*
X154931196Y-90399790D01*
X155184889Y-90044239D01*
X155397670Y-89661080D01*
X155570686Y-89248165D01*
X155705086Y-88803349D01*
X155736265Y-88671400D01*
X155817262Y-88192488D01*
X155849986Y-87706974D01*
X155849820Y-87701240D01*
X154810665Y-87701240D01*
X154780006Y-88103454D01*
X154709363Y-88493219D01*
X154599418Y-88866489D01*
X154450856Y-89219224D01*
X154264362Y-89547378D01*
X154040619Y-89846910D01*
X153841384Y-90057405D01*
X153622967Y-90247504D01*
X153399602Y-90403890D01*
X153161855Y-90531110D01*
X152900293Y-90633712D01*
X152605483Y-90716244D01*
X152374600Y-90764450D01*
X152326108Y-90768135D01*
X152238522Y-90769861D01*
X152123512Y-90769567D01*
X151992750Y-90767195D01*
X151968200Y-90766536D01*
X151772175Y-90757228D01*
X151607083Y-90740022D01*
X151453355Y-90712517D01*
X151371300Y-90693319D01*
X150987675Y-90573772D01*
X150620452Y-90410234D01*
X150263359Y-90199775D01*
X150153323Y-90124254D01*
X150004307Y-90008025D01*
X149838200Y-89860866D01*
X149666163Y-89694068D01*
X149499355Y-89518923D01*
X149348936Y-89346720D01*
X149226066Y-89188750D01*
X149219409Y-89179400D01*
X149066596Y-88944028D01*
X148916371Y-88677095D01*
X148778319Y-88397353D01*
X148662024Y-88123555D01*
X148617228Y-88001157D01*
X148496784Y-87588912D01*
X148417931Y-87177628D01*
X148379533Y-86770676D01*
X148380455Y-86371429D01*
X148419559Y-85983260D01*
X148495710Y-85609540D01*
X148607771Y-85253644D01*
X148754607Y-84918942D01*
X148935080Y-84608808D01*
X149148054Y-84326613D01*
X149392394Y-84075732D01*
X149666963Y-83859535D01*
X149970624Y-83681396D01*
X150091595Y-83625168D01*
X150255457Y-83557522D01*
X150399934Y-83507124D01*
X150537871Y-83471586D01*
X150682113Y-83448520D01*
X150845506Y-83435538D01*
X151040895Y-83430252D01*
X151142700Y-83429747D01*
X151312317Y-83430293D01*
X151442571Y-83432804D01*
X151544893Y-83438379D01*
X151630714Y-83448117D01*
X151711463Y-83463114D01*
X151798570Y-83484470D01*
X151846040Y-83497314D01*
X152248733Y-83634131D01*
X152631969Y-83816495D01*
X152993325Y-84042091D01*
X153330376Y-84308608D01*
X153640698Y-84613731D01*
X153921867Y-84955147D01*
X154171459Y-85330544D01*
X154387050Y-85737607D01*
X154519763Y-86048747D01*
X154655887Y-86460329D01*
X154749290Y-86875634D01*
X154800654Y-87290619D01*
X154810665Y-87701240D01*
X155849820Y-87701240D01*
X155835842Y-87218872D01*
X155776236Y-86732195D01*
X155672574Y-86250956D01*
X155526261Y-85779169D01*
X155338702Y-85320847D01*
X155111303Y-84880003D01*
X154845469Y-84460650D01*
X154542606Y-84066803D01*
X154204120Y-83702474D01*
X153899883Y-83427665D01*
X153594349Y-83195688D01*
X153259895Y-82981844D01*
X152910766Y-82794134D01*
X152561205Y-82640560D01*
X152387300Y-82577942D01*
X152163701Y-82508735D01*
X151959957Y-82457550D01*
X151761000Y-82422070D01*
X151551762Y-82399980D01*
X151317174Y-82388964D01*
X151142700Y-82386639D01*
X150961152Y-82386803D01*
G37*
X150961152Y-82386803D02*
X150818729Y-82389367D01*
X150703777Y-82395228D01*
X150604643Y-82405279D01*
X150509676Y-82420415D01*
X150407221Y-82441531D01*
X150396436Y-82443934D01*
X149979311Y-82558886D01*
X149594795Y-82710724D01*
X149237902Y-82902166D01*
X148903646Y-83135932D01*
X148587040Y-83414742D01*
X148550725Y-83450626D01*
X148260137Y-83776285D01*
X148008977Y-84130647D01*
X147797346Y-84510263D01*
X147625341Y-84911683D01*
X147493063Y-85331459D01*
X147400611Y-85766139D01*
X147348083Y-86212276D01*
X147335579Y-86666419D01*
X147363198Y-87125119D01*
X147431040Y-87584926D01*
X147539202Y-88042391D01*
X147687786Y-88494064D01*
X147876889Y-88936495D01*
X148106612Y-89366236D01*
X148369061Y-89768695D01*
X148512293Y-89962144D01*
X148652969Y-90136559D01*
X148799509Y-90300745D01*
X148960336Y-90463509D01*
X149143869Y-90633656D01*
X149358532Y-90819994D01*
X149439757Y-90888311D01*
X149514814Y-90951035D01*
X149275243Y-91958994D01*
X149222966Y-92177992D01*
X149173875Y-92381817D01*
X149129292Y-92565113D01*
X149090541Y-92722524D01*
X149058943Y-92848692D01*
X149035822Y-92938261D01*
X149022499Y-92985875D01*
X149020216Y-92991963D01*
X148989391Y-92996230D01*
X148922778Y-92977976D01*
X148828296Y-92940566D01*
X148713864Y-92887367D01*
X148587403Y-92821745D01*
X148489107Y-92766213D01*
X148413428Y-92719121D01*
X148305294Y-92648051D01*
X148173349Y-92558880D01*
X148026241Y-92457486D01*
X147872614Y-92349744D01*
X147790607Y-92291435D01*
X147542298Y-92116641D01*
X147326032Y-91970561D01*
X147135079Y-91849087D01*
X146962711Y-91748109D01*
X146802199Y-91663519D01*
X146646812Y-91591208D01*
X146636352Y-91586672D01*
X146443700Y-91503500D01*
X145973800Y-91504992D01*
X145791909Y-91506529D01*
X145649205Y-91510473D01*
X145534098Y-91517779D01*
X145434997Y-91529401D01*
X145340311Y-91546295D01*
X145262833Y-91563564D01*
X144989795Y-91636626D01*
X144717233Y-91727370D01*
X144438112Y-91838915D01*
X144145400Y-91974382D01*
X143832063Y-92136893D01*
X143491068Y-92329568D01*
X143354597Y-92410253D01*
X143194267Y-92505333D01*
X143071334Y-92575334D01*
X142979954Y-92621837D01*
X142914282Y-92646423D01*
X142868471Y-92650672D01*
X142836677Y-92636164D01*
X142813054Y-92604479D01*
X142793669Y-92561899D01*
X142784157Y-92510633D01*
X142777023Y-92410115D01*
X142772313Y-92261840D01*
X142770074Y-92067303D01*
X142770351Y-91827999D01*
X142770475Y-91808300D01*
X142770861Y-91619854D01*
X142769620Y-91442173D01*
X142766934Y-91283389D01*
X142762985Y-91151640D01*
X142757954Y-91055059D01*
X142752522Y-91004229D01*
X142730048Y-90885959D01*
X142849168Y-90795116D01*
X142937073Y-90720869D01*
X143046844Y-90617391D01*
X143168544Y-90495065D01*
X143292233Y-90364270D01*
X143407973Y-90235389D01*
X143505826Y-90118802D01*
X143544912Y-90068400D01*
X143794686Y-89692822D01*
X143999226Y-89298180D01*
X144158475Y-88888290D01*
X144272378Y-88466969D01*
X144340876Y-88038034D01*
X144363914Y-87605302D01*
X144361548Y-87559757D01*
X143323704Y-87559757D01*
X143306117Y-87932611D01*
X143241359Y-88306557D01*
X143150028Y-88616390D01*
X143000795Y-88971596D01*
X142813155Y-89296629D01*
X142583316Y-89597380D01*
X142380740Y-89810763D01*
X142080001Y-90067915D01*
X141754396Y-90283341D01*
X141408233Y-90455566D01*
X141045819Y-90583116D01*
X140671458Y-90664515D01*
X140289459Y-90698289D01*
X139904126Y-90682962D01*
X139851734Y-90677008D01*
X139454393Y-90604300D01*
X139080238Y-90486400D01*
X138729010Y-90323181D01*
X138400450Y-90114516D01*
X138094299Y-89860280D01*
X138010132Y-89778474D01*
X137748111Y-89482414D01*
X137531632Y-89165981D01*
X137359037Y-88826030D01*
X137228665Y-88459418D01*
X137157265Y-88163400D01*
X137138755Y-88027062D01*
X137127940Y-87855589D01*
X137124636Y-87664029D01*
X137128657Y-87467432D01*
X137139821Y-87280846D01*
X137157941Y-87119321D01*
X137170979Y-87045800D01*
X137276277Y-86663689D01*
X137422925Y-86306710D01*
X137607524Y-85976773D01*
X137826677Y-85675791D01*
X138076985Y-85405676D01*
X138355050Y-85168339D01*
X138657472Y-84965693D01*
X138980854Y-84799649D01*
X139321797Y-84672120D01*
X139676902Y-84585017D01*
X140042772Y-84540252D01*
X140416008Y-84539738D01*
X140793211Y-84585386D01*
X141170982Y-84679108D01*
X141300200Y-84722715D01*
X141655566Y-84876787D01*
X141981717Y-85069744D01*
X142276857Y-85297807D01*
X142539190Y-85557198D01*
X142766921Y-85844136D01*
X142958255Y-86154842D01*
X143111396Y-86485536D01*
X143224548Y-86832440D01*
X143295916Y-87191774D01*
X143323704Y-87559757D01*
X144361548Y-87559757D01*
X144341434Y-87172590D01*
X144273380Y-86743714D01*
X144159695Y-86322492D01*
X144000322Y-85912739D01*
X143795204Y-85518274D01*
X143616719Y-85242400D01*
X143468002Y-85050085D01*
X143288649Y-84847823D01*
X143090907Y-84647695D01*
X142887027Y-84461782D01*
X142689259Y-84302163D01*
X142595600Y-84235385D01*
X142194035Y-83993310D01*
X141777425Y-83798700D01*
X141348655Y-83651913D01*
X140910607Y-83553307D01*
X140466164Y-83503240D01*
X140018211Y-83502070D01*
X139569629Y-83550154D01*
X139123303Y-83647851D01*
X138772900Y-83760824D01*
X138562256Y-83848797D01*
X138332260Y-83962053D01*
X138100464Y-84090965D01*
X137884419Y-84225903D01*
X137741221Y-84326816D01*
X137386038Y-84624831D01*
X137070011Y-84954642D01*
X136794358Y-85314259D01*
X136560301Y-85701692D01*
X136369058Y-86114950D01*
X136221849Y-86552044D01*
X136129324Y-86956900D01*
X136104496Y-87142531D01*
X136089045Y-87361792D01*
X136082996Y-87598659D01*
X136086369Y-87837108D01*
X136099189Y-88061113D01*
X136121477Y-88254650D01*
X136127448Y-88290400D01*
X136233115Y-88744681D01*
X136382978Y-89176611D01*
X136575236Y-89583815D01*
X136808091Y-89963918D01*
X137079741Y-90314547D01*
X137388387Y-90633327D01*
X137732230Y-90917883D01*
X138109469Y-91165840D01*
X138437276Y-91337756D01*
X138755229Y-91472725D01*
X139074970Y-91577668D01*
X139410248Y-91656227D01*
X139774815Y-91712045D01*
X139902845Y-91725991D01*
X140219990Y-91757500D01*
X140238007Y-91859100D01*
X140275587Y-92118458D01*
X140304143Y-92414719D01*
X140323222Y-92734714D01*
X140332371Y-93065274D01*
X140331138Y-93393230D01*
X140319070Y-93705414D01*
X140307143Y-93871570D01*
X140293952Y-94011840D01*
X140280889Y-94112410D01*
X140265510Y-94184315D01*
X140245372Y-94238587D01*
X140218032Y-94286262D01*
X140213976Y-94292322D01*
X140147422Y-94371931D01*
X140049103Y-94459414D01*
X139915713Y-94557072D01*
X139743948Y-94667202D01*
X139530502Y-94792104D01*
X139358243Y-94887531D01*
X139133804Y-95011635D01*
X138946454Y-95120769D01*
X138787340Y-95221643D01*
X138647612Y-95320972D01*
X138518419Y-95425466D01*
X138390908Y-95541840D01*
X138256230Y-95676806D01*
X138105532Y-95837075D01*
X138104078Y-95838650D01*
X137870043Y-96098828D01*
X137669279Y-96337428D01*
X137494925Y-96564015D01*
X137340119Y-96788153D01*
X137197997Y-97019407D01*
X137061698Y-97267340D01*
X137017557Y-97353013D01*
X136995848Y-97341516D01*
X136934754Y-97305743D01*
X136838155Y-97248044D01*
X136709928Y-97170767D01*
X136553953Y-97076261D01*
X136374110Y-96966875D01*
X136174277Y-96844957D01*
X135958334Y-96712857D01*
X135797821Y-96614454D01*
X135294194Y-96305995D01*
X134829959Y-96022914D01*
X134401691Y-95763248D01*
X134005967Y-95525031D01*
X133639364Y-95306301D01*
X133298458Y-95105094D01*
X132979827Y-94919444D01*
X132680047Y-94747389D01*
X132395695Y-94586963D01*
X132123347Y-94436204D01*
X131859581Y-94293147D01*
X131600972Y-94155827D01*
X131344099Y-94022282D01*
X131085537Y-93890546D01*
X130821863Y-93758657D01*
X130810000Y-93752775D01*
X130158624Y-93438963D01*
X129534173Y-93157344D01*
X128927410Y-92904434D01*
X128329093Y-92676753D01*
X127729984Y-92470817D01*
X127120843Y-92283144D01*
X126492430Y-92110253D01*
X126364686Y-92077412D01*
X126089882Y-92006054D01*
X125855120Y-91941293D01*
X125650635Y-91879741D01*
X125466660Y-91818010D01*
X125293429Y-91752710D01*
X125121175Y-91680455D01*
X124940132Y-91597855D01*
X124828300Y-91544380D01*
X124681126Y-91472251D01*
X124542956Y-91402461D01*
X124407825Y-91331590D01*
X124269769Y-91256216D01*
X124122822Y-91172919D01*
X123961018Y-91078279D01*
X123778393Y-90968875D01*
X123568981Y-90841285D01*
X123326816Y-90692091D01*
X123139200Y-90575812D01*
X122795926Y-90363955D01*
X122488606Y-90177529D01*
X122211067Y-90013578D01*
X121957136Y-89869144D01*
X121720638Y-89741270D01*
X121495400Y-89626999D01*
X121275249Y-89523376D01*
X121054011Y-89427442D01*
X120825513Y-89336241D01*
X120583580Y-89246817D01*
X120322040Y-89156211D01*
X120034719Y-89061468D01*
X119861272Y-89005826D01*
X119091737Y-88765360D01*
X118340759Y-88540233D01*
X117597981Y-88327675D01*
X116853044Y-88124915D01*
X116095588Y-87929184D01*
X115315256Y-87737712D01*
X114501689Y-87547728D01*
X113919000Y-87416826D01*
X113443969Y-87312616D01*
X113012914Y-87220308D01*
X112620607Y-87139169D01*
X112261823Y-87068466D01*
X111931334Y-87007464D01*
X111623913Y-86955431D01*
X111334332Y-86911633D01*
X111057365Y-86875336D01*
X110787784Y-86845807D01*
X110520363Y-86822312D01*
X110249874Y-86804118D01*
X109971090Y-86790491D01*
X109678785Y-86780698D01*
X109367730Y-86774006D01*
X109334300Y-86773461D01*
X108962598Y-86769602D01*
X108630913Y-86770872D01*
X108328677Y-86777752D01*
X108045319Y-86790719D01*
X107770270Y-86810254D01*
X107492963Y-86836835D01*
X107213400Y-86869604D01*
X106474882Y-86983866D01*
X105769635Y-87136244D01*
X105097104Y-87326960D01*
X104456735Y-87556230D01*
X103847971Y-87824274D01*
X103270256Y-88131311D01*
X102723036Y-88477560D01*
X102260400Y-88819516D01*
X102131124Y-88927985D01*
X101977898Y-89066078D01*
X101809786Y-89224809D01*
X101635850Y-89395192D01*
X101465154Y-89568240D01*
X101306761Y-89734967D01*
X101169734Y-89886386D01*
X101090527Y-89979500D01*
X100934873Y-90163773D01*
X100772166Y-90344829D01*
X100598780Y-90525885D01*
X100411091Y-90710158D01*
X100205475Y-90900866D01*
X99978305Y-91101227D01*
X99725958Y-91314457D01*
X99444808Y-91543774D01*
X99131231Y-91792396D01*
X98781601Y-92063541D01*
X98501200Y-92277791D01*
X98183624Y-92520067D01*
X97903680Y-92735741D01*
X97657774Y-92927886D01*
X97442307Y-93099576D01*
X97253684Y-93253886D01*
X97088308Y-93393889D01*
X96942581Y-93522660D01*
X96812907Y-93643273D01*
X96695690Y-93758801D01*
X96587333Y-93872320D01*
X96484239Y-93986902D01*
X96435296Y-94043500D01*
X96244327Y-94264067D01*
X96021724Y-94516068D01*
X95771638Y-94794883D01*
X95498221Y-95095890D01*
X95205624Y-95414467D01*
X95135700Y-95490117D01*
X94736810Y-95924840D01*
X94373186Y-96329181D01*
X94042193Y-96706579D01*
X93741193Y-97060472D01*
X93467547Y-97394300D01*
X93218618Y-97711501D01*
X92991770Y-98015513D01*
X92784363Y-98309776D01*
X92593761Y-98597729D01*
X92417327Y-98882809D01*
X92252422Y-99168456D01*
X92105334Y-99441000D01*
X92041921Y-99555612D01*
X91956110Y-99700986D01*
X91854623Y-99866260D01*
X91744185Y-100040572D01*
X91631517Y-100213058D01*
X91578697Y-100291900D01*
X91236089Y-100804721D01*
X90925178Y-101283605D01*
X90643889Y-101732559D01*
X90390142Y-102155592D01*
X90161863Y-102556712D01*
X89956972Y-102939926D01*
X89773393Y-103309243D01*
X89609049Y-103668672D01*
X89461863Y-104022219D01*
X89329757Y-104373894D01*
X89210654Y-104727705D01*
X89113677Y-105048440D01*
X89065319Y-105209717D01*
X89005121Y-105399823D01*
X88939187Y-105600065D01*
X88873621Y-105791746D01*
X88839968Y-105886640D01*
X88628110Y-106503592D01*
X88429487Y-107142626D01*
X88243543Y-107806531D01*
X88069724Y-108498095D01*
X87907474Y-109220107D01*
X87756237Y-109975354D01*
X87615458Y-110766625D01*
X87484583Y-111596708D01*
X87363055Y-112468391D01*
X87250320Y-113384462D01*
X87145821Y-114347710D01*
X87136511Y-114439700D01*
X87092111Y-114883799D01*
X87053082Y-115280660D01*
X87019175Y-115633532D01*
X86990138Y-115945663D01*
X86965722Y-116220304D01*
X86945676Y-116460704D01*
X86929750Y-116670112D01*
X86917694Y-116851778D01*
X86909257Y-117008950D01*
X86904188Y-117144878D01*
X86902239Y-117262812D01*
X86903158Y-117366001D01*
X86905637Y-117436900D01*
X86949855Y-117993316D01*
X87028561Y-118535339D01*
X87139926Y-119050783D01*
X87159271Y-119124818D01*
X87178140Y-119201411D01*
X87188295Y-119255025D01*
X87188423Y-119271243D01*
X87160347Y-119280074D01*
X87089819Y-119296828D01*
X86984303Y-119319989D01*
X86851263Y-119348038D01*
X86698162Y-119379458D01*
X86532464Y-119412733D01*
X86361632Y-119446343D01*
X86193131Y-119478773D01*
X86034423Y-119508505D01*
X85915500Y-119530042D01*
X85416897Y-119612423D01*
X84910118Y-119683543D01*
X84375068Y-119746195D01*
X84315300Y-119752515D01*
X84118257Y-119769041D01*
X83881743Y-119782149D01*
X83615260Y-119791831D01*
X83328313Y-119798078D01*
X83030404Y-119800883D01*
X82731037Y-119800239D01*
X82439715Y-119796138D01*
X82165941Y-119788571D01*
X81919219Y-119777532D01*
X81709052Y-119763013D01*
X81622900Y-119754692D01*
X81472438Y-119739655D01*
X81285932Y-119723069D01*
X81078065Y-119706116D01*
X80863520Y-119689983D01*
X80656978Y-119675855D01*
X80606900Y-119672687D01*
X80431523Y-119661939D01*
X80263888Y-119652004D01*
X80100878Y-119642787D01*
X79939376Y-119634193D01*
X79776264Y-119626129D01*
X79608427Y-119618498D01*
X79432746Y-119611208D01*
X79246104Y-119604163D01*
X79045385Y-119597269D01*
X78827470Y-119590430D01*
X78589244Y-119583553D01*
X78327588Y-119576543D01*
X78039386Y-119569304D01*
X77721521Y-119561744D01*
X77370875Y-119553766D01*
X76984331Y-119545277D01*
X76558772Y-119536181D01*
X76091081Y-119526385D01*
X75578141Y-119515793D01*
X75145900Y-119506944D01*
X74598511Y-119495004D01*
X74099471Y-119482483D01*
X73646331Y-119469277D01*
X73236643Y-119455279D01*
X72867958Y-119440384D01*
X72537828Y-119424486D01*
X72243804Y-119407481D01*
X71983437Y-119389262D01*
X71754279Y-119369724D01*
X71602600Y-119354271D01*
X71407025Y-119336572D01*
X71171013Y-119321486D01*
X70904875Y-119309251D01*
X70618917Y-119300101D01*
X70323448Y-119294270D01*
X70028778Y-119291995D01*
X69745214Y-119293511D01*
X69483064Y-119299052D01*
X69366550Y-119303265D01*
X68871842Y-119329512D01*
X68425385Y-119364921D01*
X68025368Y-119410019D01*
X67669982Y-119465334D01*
X67357416Y-119531393D01*
X67085860Y-119608723D01*
X66853506Y-119697850D01*
X66658541Y-119799303D01*
X66499157Y-119913607D01*
X66373544Y-120041291D01*
X66279890Y-120182882D01*
X66268415Y-120205500D01*
X66235268Y-120283791D01*
X66216122Y-120362192D01*
X66207577Y-120459404D01*
X66206082Y-120548400D01*
X66208220Y-120663460D01*
X66217544Y-120746726D01*
X66237910Y-120817096D01*
X66273173Y-120893465D01*
X66278625Y-120904000D01*
X66362501Y-121048006D01*
X66456519Y-121171248D01*
X66573463Y-121288675D01*
X66694471Y-121390352D01*
X66806051Y-121475371D01*
X66922429Y-121555850D01*
X67050255Y-121635488D01*
X67196180Y-121717984D01*
X67366854Y-121807040D01*
X67568926Y-121906354D01*
X67809047Y-122019627D01*
X67906900Y-122064910D01*
X68033397Y-122123440D01*
X68200386Y-122201064D01*
X68402407Y-122295229D01*
X68633998Y-122403378D01*
X68889696Y-122522955D01*
X69164041Y-122651407D01*
X69451569Y-122786178D01*
X69746818Y-122924711D01*
X70044328Y-123064453D01*
X70231000Y-123152213D01*
X70843295Y-123439728D01*
X71413244Y-123706367D01*
X71944130Y-123953596D01*
X72439232Y-124182878D01*
X72901832Y-124395675D01*
X73335209Y-124593451D01*
X73742645Y-124777671D01*
X74127420Y-124949796D01*
X74492815Y-125111291D01*
X74842111Y-125263619D01*
X75178587Y-125408243D01*
X75505526Y-125546627D01*
X75826206Y-125680234D01*
X76143910Y-125810528D01*
X76461917Y-125938972D01*
X76619100Y-126001779D01*
X76840730Y-126090634D01*
X77082451Y-126188571D01*
X77330432Y-126289918D01*
X77570845Y-126389003D01*
X77789860Y-126480152D01*
X77952600Y-126548739D01*
X78724727Y-126871234D01*
X79458818Y-127166100D01*
X80158684Y-127434509D01*
X80828137Y-127677633D01*
X81470985Y-127896646D01*
X82091041Y-128092720D01*
X82692115Y-128267026D01*
X83278017Y-128420739D01*
X83852559Y-128555029D01*
X84419550Y-128671071D01*
X84982801Y-128770035D01*
X85356700Y-128826902D01*
X85696331Y-128873690D01*
X85991594Y-128910426D01*
X86247837Y-128937514D01*
X86470407Y-128955353D01*
X86664649Y-128964345D01*
X86835911Y-128964891D01*
X86989538Y-128957393D01*
X87038469Y-128953105D01*
X87176931Y-128943664D01*
X87356287Y-128937646D01*
X87566759Y-128934868D01*
X87798569Y-128935144D01*
X88041940Y-128938289D01*
X88287094Y-128944119D01*
X88524253Y-128952447D01*
X88743640Y-128963089D01*
X88935476Y-128975861D01*
X89089984Y-128990576D01*
X89103200Y-128992172D01*
X89288265Y-129015729D01*
X89473646Y-129040800D01*
X89665984Y-129068425D01*
X89871918Y-129099647D01*
X90098088Y-129135507D01*
X90351135Y-129177046D01*
X90637696Y-129225305D01*
X90964414Y-129281327D01*
X91135200Y-129310890D01*
X91526962Y-129378512D01*
X91874116Y-129437561D01*
X92181990Y-129488790D01*
X92455913Y-129532952D01*
X92701213Y-129570799D01*
X92923220Y-129603084D01*
X93127262Y-129630560D01*
X93318667Y-129653979D01*
X93502764Y-129674093D01*
X93684882Y-129691657D01*
X93870349Y-129707421D01*
X94028126Y-129719493D01*
X94203638Y-129729161D01*
X94410994Y-129735340D01*
X94640071Y-129738182D01*
X94880750Y-129737838D01*
X95122907Y-129734460D01*
X95356421Y-129728199D01*
X95571171Y-129719206D01*
X95757034Y-129707633D01*
X95903890Y-129693630D01*
X95923100Y-129691173D01*
X96109349Y-129674951D01*
X96336932Y-129669558D01*
X96597663Y-129674485D01*
X96883359Y-129689224D01*
X97185833Y-129713265D01*
X97496901Y-129746101D01*
X97808377Y-129787222D01*
X98031300Y-129822178D01*
X98240539Y-129858582D01*
X98448103Y-129897383D01*
X98659351Y-129939848D01*
X98879641Y-129987247D01*
X99114330Y-130040847D01*
X99368775Y-130101917D01*
X99648335Y-130171727D01*
X99958365Y-130251544D01*
X100304226Y-130342636D01*
X100691272Y-130446274D01*
X100862752Y-130492588D01*
X101373486Y-130629605D01*
X101840076Y-130751974D01*
X102266788Y-130860454D01*
X102657885Y-130955803D01*
X103017633Y-131038779D01*
X103350297Y-131110139D01*
X103660140Y-131170642D01*
X103951428Y-131221046D01*
X104228425Y-131262108D01*
X104495396Y-131294586D01*
X104756605Y-131319239D01*
X105016318Y-131336824D01*
X105278798Y-131348099D01*
X105548310Y-131353822D01*
X105714800Y-131354905D01*
X105978265Y-131354288D01*
X106202097Y-131350947D01*
X106397426Y-131344068D01*
X106575384Y-131332838D01*
X106747101Y-131316444D01*
X106923708Y-131294071D01*
X107116336Y-131264907D01*
X107251500Y-131242583D01*
X107798234Y-131172313D01*
X108372899Y-131140964D01*
X108970871Y-131148460D01*
X109587527Y-131194725D01*
X110218244Y-131279683D01*
X110296973Y-131292870D01*
X110647906Y-131359110D01*
X111015321Y-131440886D01*
X111403052Y-131539348D01*
X111814938Y-131655647D01*
X112254813Y-131790935D01*
X112726514Y-131946361D01*
X113233877Y-132123078D01*
X113780738Y-132322235D01*
X113995200Y-132402347D01*
X114210414Y-132483034D01*
X114386501Y-132548161D01*
X114531820Y-132600216D01*
X114654730Y-132641687D01*
X114763591Y-132675063D01*
X114866762Y-132702831D01*
X114972601Y-132727479D01*
X115089469Y-132751496D01*
X115225724Y-132777369D01*
X115303300Y-132791700D01*
X115559017Y-132837685D01*
X115816862Y-132881769D01*
X116081102Y-132924515D01*
X116356007Y-132966481D01*
X116645844Y-133008229D01*
X116954881Y-133050321D01*
X117287387Y-133093316D01*
X117647629Y-133137777D01*
X118039877Y-133184263D01*
X118468397Y-133233335D01*
X118937458Y-133285555D01*
X119451329Y-133341484D01*
X119646700Y-133362483D01*
X120124943Y-133413988D01*
X120557177Y-133461129D01*
X120947954Y-133504477D01*
X121301823Y-133544605D01*
X121623337Y-133582083D01*
X121917046Y-133617486D01*
X122187500Y-133651384D01*
X122439251Y-133684349D01*
X122676850Y-133716954D01*
X122904848Y-133749771D01*
X123127794Y-133783372D01*
X123350242Y-133818328D01*
X123576740Y-133855213D01*
X123609100Y-133860574D01*
X124304852Y-133986411D01*
X125001543Y-134132445D01*
X125684034Y-134295205D01*
X126337181Y-134471219D01*
X126568200Y-134538955D01*
X126722504Y-134583502D01*
X126911527Y-134635308D01*
X127120431Y-134690470D01*
X127334377Y-134745086D01*
X127538526Y-134795254D01*
X127584200Y-134806148D01*
X128323338Y-134973818D01*
X129029137Y-135118195D01*
X129712437Y-135241059D01*
X130384079Y-135344194D01*
X131054904Y-135429379D01*
X131735753Y-135498398D01*
X131864100Y-135509573D01*
X131961779Y-135515805D01*
X132101650Y-135521855D01*
X132276073Y-135527612D01*
X132477407Y-135532966D01*
X132698010Y-135537806D01*
X132930242Y-135542022D01*
X133166463Y-135545503D01*
X133399030Y-135548139D01*
X133620304Y-135549819D01*
X133822643Y-135550433D01*
X133998407Y-135549871D01*
X134139954Y-135548022D01*
X134239644Y-135544776D01*
X134251700Y-135544088D01*
X134894202Y-135494349D01*
X135501913Y-135426759D01*
X136088323Y-135339271D01*
X136666920Y-135229840D01*
X137251194Y-135096421D01*
X137325100Y-135078005D01*
X137519364Y-135030555D01*
X137708427Y-134987582D01*
X137896424Y-134948642D01*
X138087489Y-134913288D01*
X138285758Y-134881076D01*
X138495364Y-134851560D01*
X138720442Y-134824294D01*
X138965127Y-134798832D01*
X139233553Y-134774730D01*
X139529856Y-134751541D01*
X139858170Y-134728821D01*
X140222628Y-134706124D01*
X140627367Y-134683003D01*
X141076521Y-134659015D01*
X141338300Y-134645578D01*
X141850089Y-134618596D01*
X142315769Y-134591771D01*
X142740028Y-134564636D01*
X143127554Y-134536723D01*
X143483035Y-134507563D01*
X143811157Y-134476689D01*
X144116608Y-134443632D01*
X144404077Y-134407924D01*
X144678251Y-134369098D01*
X144943817Y-134326686D01*
X145205463Y-134280219D01*
X145427700Y-134237301D01*
X146121390Y-134078665D01*
X146788765Y-133885552D01*
X147426262Y-133659271D01*
X148030323Y-133401132D01*
X148597385Y-133112444D01*
X148797592Y-132997864D01*
X148907935Y-132938736D01*
X149048293Y-132872280D01*
X149200342Y-132806779D01*
X149340697Y-132752343D01*
X149908746Y-132524953D01*
X150448052Y-132263063D01*
X150967233Y-131961914D01*
X151474911Y-131616748D01*
X151688800Y-131455944D01*
X151832164Y-131338544D01*
X151999762Y-131190471D01*
X152183234Y-131020014D01*
X152374219Y-130835464D01*
X152564353Y-130645110D01*
X152745277Y-130457241D01*
X152908627Y-130280147D01*
X153046043Y-130122117D01*
X153096183Y-130060700D01*
X153226912Y-129889617D01*
X153373285Y-129686576D01*
X153527272Y-129463628D01*
X153680845Y-129232823D01*
X153825974Y-129006214D01*
X153954630Y-128795852D01*
X154052327Y-128625600D01*
X154352988Y-128031961D01*
X154623815Y-127403181D01*
X154862570Y-126746769D01*
X155067014Y-126070235D01*
X155234908Y-125381089D01*
X155364012Y-124686841D01*
X155452088Y-123995002D01*
X155460802Y-123901200D01*
X155480436Y-123774339D01*
X155519891Y-123606620D01*
X155577832Y-123403371D01*
X155615257Y-123284065D01*
X155809347Y-122627628D01*
X155968331Y-121968455D01*
X156093464Y-121298720D01*
X156186002Y-120610601D01*
X156247199Y-119896271D01*
X156278236Y-119151400D01*
X156278430Y-119022958D01*
X155240684Y-119022958D01*
X155219745Y-119675373D01*
X155174097Y-120304380D01*
X155103878Y-120899454D01*
X155103224Y-120904000D01*
X155040437Y-121286966D01*
X154959954Y-121693154D01*
X154865430Y-122107418D01*
X154760516Y-122514608D01*
X154648865Y-122899578D01*
X154547171Y-123210143D01*
X154485608Y-123411521D01*
X154447060Y-123605335D01*
X154430862Y-123743543D01*
X154342693Y-124470015D01*
X154214117Y-125179049D01*
X154046181Y-125867935D01*
X153839931Y-126533961D01*
X153596416Y-127174418D01*
X153316681Y-127786593D01*
X153001774Y-128367777D01*
X152652742Y-128915257D01*
X152270631Y-129426324D01*
X152205144Y-129506159D01*
X152099686Y-129627503D01*
X151967013Y-129771752D01*
X151817157Y-129928719D01*
X151660152Y-130088215D01*
X151506029Y-130240051D01*
X151364822Y-130374040D01*
X151246563Y-130479991D01*
X151244300Y-130481926D01*
X150847856Y-130793096D01*
X150414099Y-131083722D01*
X149954539Y-131347305D01*
X149480682Y-131577345D01*
X149004039Y-131767342D01*
X148912347Y-131798971D01*
X148605368Y-131923018D01*
X148359006Y-132053805D01*
X147814284Y-132352176D01*
X147238679Y-132615267D01*
X146630258Y-132843779D01*
X145987089Y-133038414D01*
X145307239Y-133199873D01*
X145072100Y-133246448D01*
X144829618Y-133290475D01*
X144588545Y-133330477D01*
X144344000Y-133366922D01*
X144091103Y-133400277D01*
X143824971Y-133431009D01*
X143540724Y-133459586D01*
X143233481Y-133486476D01*
X142898360Y-133512147D01*
X142530481Y-133537065D01*
X142124962Y-133561698D01*
X141676922Y-133586515D01*
X141338300Y-133604097D01*
X140770303Y-133634197D01*
X140251135Y-133664426D01*
X139778828Y-133694972D01*
X139351411Y-133726022D01*
X138966914Y-133757762D01*
X138623368Y-133790380D01*
X138318802Y-133824063D01*
X138051248Y-133858997D01*
X137818734Y-133895370D01*
X137619292Y-133933368D01*
X137452100Y-133972873D01*
X136903688Y-134111093D01*
X136385285Y-134225910D01*
X135883078Y-134319610D01*
X135383249Y-134394478D01*
X134871985Y-134452802D01*
X134335469Y-134496867D01*
X134251700Y-134502404D01*
X134141308Y-134506940D01*
X133988037Y-134509565D01*
X133799771Y-134510424D01*
X133584390Y-134509662D01*
X133349775Y-134507426D01*
X133103808Y-134503859D01*
X132854370Y-134499108D01*
X132609341Y-134493318D01*
X132376604Y-134486634D01*
X132164038Y-134479202D01*
X131979526Y-134471166D01*
X131830949Y-134462673D01*
X131749800Y-134456275D01*
X131089171Y-134384827D01*
X130412329Y-134294239D01*
X129729277Y-134186403D01*
X129050017Y-134063211D01*
X128384552Y-133926555D01*
X127742884Y-133778327D01*
X127135016Y-133620418D01*
X126758700Y-133512265D01*
X126120082Y-133332182D01*
X125456127Y-133167442D01*
X124761001Y-133016798D01*
X124028870Y-132879001D01*
X123253900Y-132752803D01*
X123101100Y-132730000D01*
X122885398Y-132698593D01*
X122678029Y-132669183D01*
X122473580Y-132641117D01*
X122266639Y-132613743D01*
X122051793Y-132586407D01*
X121823630Y-132558457D01*
X121576738Y-132529241D01*
X121305703Y-132498105D01*
X121005114Y-132464397D01*
X120669557Y-132427464D01*
X120293620Y-132386654D01*
X119926100Y-132347122D01*
X119404007Y-132290761D01*
X118928264Y-132238530D01*
X118494638Y-132189884D01*
X118098895Y-132144277D01*
X117736802Y-132101162D01*
X117404124Y-132059994D01*
X117096629Y-132020227D01*
X116810082Y-131981314D01*
X116540251Y-131942709D01*
X116282900Y-131903866D01*
X116033797Y-131864240D01*
X115788708Y-131823283D01*
X115571355Y-131785418D01*
X115427015Y-131759427D01*
X115305546Y-131735998D01*
X115198103Y-131712514D01*
X115095842Y-131686359D01*
X114989919Y-131654919D01*
X114871489Y-131615576D01*
X114731709Y-131565714D01*
X114561733Y-131502718D01*
X114364855Y-131428559D01*
X113697960Y-131182933D01*
X113069590Y-130964889D01*
X112476257Y-130773456D01*
X111914468Y-130607663D01*
X111380735Y-130466539D01*
X110871566Y-130349113D01*
X110383471Y-130254413D01*
X109912961Y-130181468D01*
X109855000Y-130173805D01*
X109467098Y-130133751D01*
X109052969Y-130109533D01*
X108626325Y-130101059D01*
X108200880Y-130108238D01*
X107790346Y-130130978D01*
X107408434Y-130169190D01*
X107251500Y-130191110D01*
X107105575Y-130213490D01*
X106942737Y-130238358D01*
X106792387Y-130261228D01*
X106756200Y-130266712D01*
X106593695Y-130285977D01*
X106392464Y-130301459D01*
X106164458Y-130312886D01*
X105921631Y-130319990D01*
X105675935Y-130322501D01*
X105439322Y-130320148D01*
X105223744Y-130312662D01*
X105092500Y-130304282D01*
X104819986Y-130280032D01*
X104551704Y-130250644D01*
X104282576Y-130215089D01*
X104007529Y-130172338D01*
X103721486Y-130121361D01*
X103419372Y-130061129D01*
X103096110Y-129990612D01*
X102746625Y-129908782D01*
X102365841Y-129814608D01*
X101948684Y-129707062D01*
X101490075Y-129585114D01*
X101320600Y-129539319D01*
X100834541Y-129408505D01*
X100392444Y-129291780D01*
X99989756Y-129188170D01*
X99621925Y-129096699D01*
X99284398Y-129016389D01*
X98972622Y-128946266D01*
X98682045Y-128885354D01*
X98408115Y-128832677D01*
X98146277Y-128787259D01*
X97891981Y-128748125D01*
X97640673Y-128714297D01*
X97387801Y-128684802D01*
X97282000Y-128673671D01*
X97089748Y-128658766D01*
X96860486Y-128648611D01*
X96607786Y-128643208D01*
X96345215Y-128642556D01*
X96086344Y-128646656D01*
X95844741Y-128655508D01*
X95633975Y-128669112D01*
X95583873Y-128673624D01*
X95400933Y-128687807D01*
X95198993Y-128696282D01*
X94968782Y-128699240D01*
X94701028Y-128696874D01*
X94580573Y-128694462D01*
X94373644Y-128688660D01*
X94175229Y-128680491D01*
X93980388Y-128669333D01*
X93784184Y-128654560D01*
X93581676Y-128635549D01*
X93367925Y-128611677D01*
X93137992Y-128582318D01*
X92886937Y-128546850D01*
X92609821Y-128504648D01*
X92301705Y-128455089D01*
X91957649Y-128397548D01*
X91572714Y-128331402D01*
X91224100Y-128270479D01*
X90821472Y-128200416D01*
X90462795Y-128139706D01*
X90142223Y-128087661D01*
X89853910Y-128043592D01*
X89592011Y-128006809D01*
X89350679Y-127976623D01*
X89124068Y-127952345D01*
X88906333Y-127933286D01*
X88691627Y-127918756D01*
X88474104Y-127908067D01*
X88247919Y-127900529D01*
X88049100Y-127896165D01*
X87808009Y-127893210D01*
X87579285Y-127892952D01*
X87371716Y-127895272D01*
X87194089Y-127900048D01*
X87055192Y-127907162D01*
X87015543Y-127910346D01*
X86897608Y-127919706D01*
X86789907Y-127924188D01*
X86680184Y-127923435D01*
X86556181Y-127917092D01*
X86405641Y-127904800D01*
X86228143Y-127887416D01*
X85640667Y-127818019D01*
X85051910Y-127729528D01*
X84458233Y-127620885D01*
X83855998Y-127491034D01*
X83241565Y-127338919D01*
X82611297Y-127163483D01*
X81961555Y-126963669D01*
X81288699Y-126738421D01*
X80589092Y-126486683D01*
X79859095Y-126207397D01*
X79095068Y-125899507D01*
X78449158Y-125628590D01*
X78244326Y-125542094D01*
X78017360Y-125447605D01*
X77784146Y-125351649D01*
X77560573Y-125260750D01*
X77362530Y-125181433D01*
X77306158Y-125159177D01*
X76957046Y-125020696D01*
X76604997Y-124878413D01*
X76246780Y-124730894D01*
X75879164Y-124576707D01*
X75498921Y-124414417D01*
X75102820Y-124242591D01*
X74687631Y-124059796D01*
X74250123Y-123864599D01*
X73787068Y-123655566D01*
X73295235Y-123431263D01*
X72771395Y-123190258D01*
X72212316Y-122931117D01*
X71614769Y-122652406D01*
X70975525Y-122352693D01*
X70866000Y-122301208D01*
X70566688Y-122160532D01*
X70262140Y-122017531D01*
X69958411Y-121875039D01*
X69661552Y-121735891D01*
X69377618Y-121602919D01*
X69112659Y-121478958D01*
X68872730Y-121366842D01*
X68663882Y-121269405D01*
X68492168Y-121189481D01*
X68427600Y-121159509D01*
X68237950Y-121070730D01*
X68056223Y-120984078D01*
X67889431Y-120903014D01*
X67744588Y-120831001D01*
X67628705Y-120771504D01*
X67548793Y-120727983D01*
X67525900Y-120714191D01*
X67373500Y-120616294D01*
X67453171Y-120583449D01*
X67521780Y-120561671D01*
X67629203Y-120535264D01*
X67763926Y-120506509D01*
X67914434Y-120477690D01*
X68069213Y-120451090D01*
X68216750Y-120428991D01*
X68262500Y-120422998D01*
X68575614Y-120390319D01*
X68927072Y-120365120D01*
X69306667Y-120347404D01*
X69704190Y-120337177D01*
X70109433Y-120334444D01*
X70512187Y-120339210D01*
X70902245Y-120351479D01*
X71269396Y-120371256D01*
X71603434Y-120398546D01*
X71805800Y-120421314D01*
X71922993Y-120433234D01*
X72089207Y-120445380D01*
X72302664Y-120457694D01*
X72561585Y-120470118D01*
X72864191Y-120482594D01*
X73208706Y-120495062D01*
X73593350Y-120507464D01*
X74016345Y-120519743D01*
X74475913Y-120531839D01*
X74970275Y-120543695D01*
X75497654Y-120555252D01*
X76056270Y-120566452D01*
X76454000Y-120573851D01*
X77117741Y-120586733D01*
X77733324Y-120600604D01*
X78303382Y-120615579D01*
X78830549Y-120631775D01*
X79317459Y-120649306D01*
X79766747Y-120668288D01*
X80181046Y-120688837D01*
X80562990Y-120711068D01*
X80915213Y-120735097D01*
X81240349Y-120761039D01*
X81541032Y-120789009D01*
X81673700Y-120802787D01*
X81826716Y-120815703D01*
X82020728Y-120826581D01*
X82245970Y-120835295D01*
X82492673Y-120841721D01*
X82751070Y-120845732D01*
X83011395Y-120847205D01*
X83263880Y-120846013D01*
X83498757Y-120842032D01*
X83706259Y-120835136D01*
X83804755Y-120830082D01*
X84158358Y-120805977D01*
X84509066Y-120775718D01*
X84860920Y-120738545D01*
X85217955Y-120693698D01*
X85584212Y-120640418D01*
X85963726Y-120577943D01*
X86360538Y-120505514D01*
X86778683Y-120422371D01*
X87222201Y-120327753D01*
X87695130Y-120220902D01*
X88201506Y-120101057D01*
X88745370Y-119967457D01*
X89330757Y-119819343D01*
X89750900Y-119710909D01*
X90026204Y-119639939D01*
X90287108Y-119574022D01*
X90538923Y-119512019D01*
X90786960Y-119452791D01*
X91036531Y-119395197D01*
X91292945Y-119338100D01*
X91561513Y-119280360D01*
X91847548Y-119220837D01*
X92156358Y-119158394D01*
X92493255Y-119091889D01*
X92863550Y-119020184D01*
X93272554Y-118942141D01*
X93725577Y-118856619D01*
X93789500Y-118844607D01*
X94255568Y-118756824D01*
X94676102Y-118677048D01*
X95055580Y-118604351D01*
X95398476Y-118537807D01*
X95709266Y-118476489D01*
X95992426Y-118419468D01*
X96252431Y-118365818D01*
X96493757Y-118314612D01*
X96720880Y-118264921D01*
X96938275Y-118215820D01*
X97150418Y-118166381D01*
X97361783Y-118115676D01*
X97576848Y-118062779D01*
X97643649Y-118046121D01*
X97933658Y-117972883D01*
X98179303Y-117909078D01*
X98385791Y-117853039D01*
X98558329Y-117803098D01*
X98702127Y-117757588D01*
X98822391Y-117714843D01*
X98924330Y-117673196D01*
X99013152Y-117630979D01*
X99094064Y-117586525D01*
X99111174Y-117576367D01*
X99532706Y-117346997D01*
X99993400Y-117140830D01*
X100486039Y-116960343D01*
X101003406Y-116808012D01*
X101538285Y-116686312D01*
X101879400Y-116626730D01*
X102034749Y-116603161D01*
X102180307Y-116582205D01*
X102320076Y-116563677D01*
X102458053Y-116547392D01*
X102598237Y-116533163D01*
X102744628Y-116520806D01*
X102901223Y-116510134D01*
X103072021Y-116500962D01*
X103261022Y-116493105D01*
X103472225Y-116486376D01*
X103709627Y-116480590D01*
X103977228Y-116475561D01*
X104279027Y-116471104D01*
X104619021Y-116467034D01*
X105001211Y-116463164D01*
X105429595Y-116459309D01*
X105498900Y-116458713D01*
X105916802Y-116455033D01*
X106288104Y-116451458D01*
X106617010Y-116447831D01*
X106907719Y-116443996D01*
X107164433Y-116439795D01*
X107391353Y-116435073D01*
X107592679Y-116429672D01*
X107772613Y-116423436D01*
X107935356Y-116416209D01*
X108085109Y-116407833D01*
X108226073Y-116398153D01*
X108362449Y-116387010D01*
X108498437Y-116374250D01*
X108638239Y-116359715D01*
X108786057Y-116343248D01*
X108877100Y-116332753D01*
X109274167Y-116289076D01*
X109668825Y-116250925D01*
X110065580Y-116218169D01*
X110468936Y-116190677D01*
X110883399Y-116168317D01*
X111313475Y-116150959D01*
X111763669Y-116138471D01*
X112238486Y-116130723D01*
X112742432Y-116127583D01*
X113280012Y-116128920D01*
X113855731Y-116134603D01*
X114474095Y-116144501D01*
X114985800Y-116154993D01*
X115556842Y-116166733D01*
X116091797Y-116175798D01*
X116589121Y-116182193D01*
X117047269Y-116185922D01*
X117464697Y-116186987D01*
X117839859Y-116185394D01*
X118171211Y-116181144D01*
X118457208Y-116174243D01*
X118696306Y-116164693D01*
X118886960Y-116152498D01*
X118960900Y-116145697D01*
X119484343Y-116084646D01*
X120000415Y-116010967D01*
X120514683Y-115923301D01*
X121032713Y-115820290D01*
X121560072Y-115700575D01*
X122102328Y-115562796D01*
X122665046Y-115405596D01*
X123253794Y-115227615D01*
X123874139Y-115027495D01*
X124531647Y-114803877D01*
X124701300Y-114744558D01*
X124913052Y-114669403D01*
X125151173Y-114583590D01*
X125410777Y-114488969D01*
X125686973Y-114387393D01*
X125974871Y-114280716D01*
X126269584Y-114170788D01*
X126566221Y-114059463D01*
X126859893Y-113948592D01*
X127145712Y-113840027D01*
X127418787Y-113735622D01*
X127674229Y-113637228D01*
X127907150Y-113546698D01*
X128112659Y-113465884D01*
X128285868Y-113396638D01*
X128421888Y-113340813D01*
X128515829Y-113300260D01*
X128526271Y-113295478D01*
X128764501Y-113186425D01*
X129008661Y-113077416D01*
X129262609Y-112966899D01*
X129530204Y-112853321D01*
X129815304Y-112735130D01*
X130121768Y-112610775D01*
X130453455Y-112478701D01*
X130814223Y-112337359D01*
X131207932Y-112185194D01*
X131638440Y-112020655D01*
X132109606Y-111842190D01*
X132562600Y-111671760D01*
X133059945Y-111484664D01*
X133513560Y-111312933D01*
X133927569Y-111154887D01*
X134306100Y-111008850D01*
X134653277Y-110873142D01*
X134973227Y-110746086D01*
X135270074Y-110626002D01*
X135547945Y-110511214D01*
X135810965Y-110400042D01*
X136063260Y-110290808D01*
X136308955Y-110181834D01*
X136552175Y-110071442D01*
X136797048Y-109957953D01*
X136934992Y-109893103D01*
X137120855Y-109806706D01*
X137273046Y-109738868D01*
X137388844Y-109690710D01*
X137465524Y-109663351D01*
X137500367Y-109657911D01*
X137502136Y-109659730D01*
X137508852Y-109693776D01*
X137521732Y-109769167D01*
X137539321Y-109877023D01*
X137560165Y-110008462D01*
X137577757Y-110121700D01*
X137665089Y-110618130D01*
X137767235Y-111067805D01*
X137884864Y-111472764D01*
X138018646Y-111835043D01*
X138169254Y-112156679D01*
X138337355Y-112439710D01*
X138343721Y-112449175D01*
X138392720Y-112523066D01*
X138460310Y-112626824D01*
X138538002Y-112747336D01*
X138617307Y-112871489D01*
X138626586Y-112886099D01*
X138764478Y-113096568D01*
X138922031Y-113325737D01*
X139087829Y-113557621D01*
X139250456Y-113776231D01*
X139388727Y-113953463D01*
X139506015Y-114081634D01*
X139619482Y-114165758D01*
X139737988Y-114210980D01*
X139852400Y-114222684D01*
X140000163Y-114199842D01*
X140132152Y-114136685D01*
X140241664Y-114041269D01*
X140321996Y-113921649D01*
X140366445Y-113785879D01*
X140368306Y-113642014D01*
X140362310Y-113609965D01*
X140353075Y-113569833D01*
X140343011Y-113535949D01*
X140327725Y-113501276D01*
X140302822Y-113458772D01*
X140263907Y-113401398D01*
X140206587Y-113322114D01*
X140126468Y-113213881D01*
X140055787Y-113118900D01*
X139898605Y-112903700D01*
X139740800Y-112680244D01*
X139586656Y-112455126D01*
X139440455Y-112234940D01*
X139306478Y-112026282D01*
X139189008Y-111835746D01*
X139092326Y-111669928D01*
X139020715Y-111535421D01*
X139001684Y-111495466D01*
X138935988Y-111340415D01*
X138875423Y-111173124D01*
X138818681Y-110988146D01*
X138764452Y-110780036D01*
X138711430Y-110543348D01*
X138658306Y-110272636D01*
X138603772Y-109962453D01*
X138546519Y-109607354D01*
X138543558Y-109588300D01*
X138510346Y-109379305D01*
X138480915Y-109208644D01*
X138452506Y-109064273D01*
X138422359Y-108934149D01*
X138387715Y-108806229D01*
X138345815Y-108668467D01*
X138323092Y-108598390D01*
X137225161Y-108598390D01*
X136729031Y-108837604D01*
X136453427Y-108969069D01*
X136179089Y-109096882D01*
X135901733Y-109222807D01*
X135617077Y-109348607D01*
X135320836Y-109476044D01*
X135008729Y-109606882D01*
X134676473Y-109742885D01*
X134319784Y-109885815D01*
X133934380Y-110037435D01*
X133515978Y-110199509D01*
X133060295Y-110373800D01*
X132563048Y-110562071D01*
X132295900Y-110662600D01*
X131836144Y-110835510D01*
X131420120Y-110992481D01*
X131043878Y-111135100D01*
X130703467Y-111264952D01*
X130394939Y-111383624D01*
X130114343Y-111492700D01*
X129857729Y-111593767D01*
X129621148Y-111688411D01*
X129400649Y-111778217D01*
X129192282Y-111864771D01*
X128992099Y-111949659D01*
X128796147Y-112034467D01*
X128600479Y-112120779D01*
X128401143Y-112210184D01*
X128194190Y-112304265D01*
X128104900Y-112345164D01*
X127992798Y-112394196D01*
X127836510Y-112458869D01*
X127639708Y-112537785D01*
X127406062Y-112629544D01*
X127139245Y-112732747D01*
X126842928Y-112845995D01*
X126520780Y-112967890D01*
X126176475Y-113097032D01*
X125813683Y-113232023D01*
X125436075Y-113371463D01*
X125047323Y-113513953D01*
X124828300Y-113593767D01*
X124081304Y-113858930D01*
X123373362Y-114096736D01*
X122701284Y-114308038D01*
X122061880Y-114493694D01*
X121451959Y-114654558D01*
X120868331Y-114791485D01*
X120307805Y-114905330D01*
X119767191Y-114996949D01*
X119405400Y-115047490D01*
X119251113Y-115066510D01*
X119101567Y-115083446D01*
X118953427Y-115098347D01*
X118803359Y-115111260D01*
X118648029Y-115122235D01*
X118484103Y-115131320D01*
X118308247Y-115138563D01*
X118117126Y-115144014D01*
X117907406Y-115147719D01*
X117675753Y-115149728D01*
X117418833Y-115150090D01*
X117133311Y-115148852D01*
X116815853Y-115146063D01*
X116463125Y-115141772D01*
X116071792Y-115136027D01*
X115638521Y-115128876D01*
X115159977Y-115120368D01*
X114821530Y-115114105D01*
X114163844Y-115103154D01*
X113552859Y-115095939D01*
X112984608Y-115092575D01*
X112455121Y-115093179D01*
X111960428Y-115097869D01*
X111496563Y-115106762D01*
X111059554Y-115119974D01*
X110645433Y-115137623D01*
X110250232Y-115159824D01*
X109869981Y-115186697D01*
X109500711Y-115218356D01*
X109138454Y-115254920D01*
X108826300Y-115290762D01*
X108679720Y-115308262D01*
X108543650Y-115323761D01*
X108413973Y-115337419D01*
X108286570Y-115349391D01*
X108157323Y-115359837D01*
X108022114Y-115368912D01*
X107876824Y-115376776D01*
X107717334Y-115383585D01*
X107539527Y-115389497D01*
X107339284Y-115394669D01*
X107112486Y-115399259D01*
X106855016Y-115403425D01*
X106562755Y-115407324D01*
X106231584Y-115411113D01*
X105857385Y-115414951D01*
X105486200Y-115418521D01*
X105141804Y-115421917D01*
X104809607Y-115425472D01*
X104493432Y-115429131D01*
X104197099Y-115432835D01*
X103924431Y-115436530D01*
X103679247Y-115440157D01*
X103465370Y-115443660D01*
X103286621Y-115446982D01*
X103146821Y-115450067D01*
X103049791Y-115452857D01*
X102999353Y-115455295D01*
X102997000Y-115455520D01*
X102914145Y-115463734D01*
X102797393Y-115474561D01*
X102663481Y-115486476D01*
X102552500Y-115495998D01*
X101854618Y-115575238D01*
X101188088Y-115693149D01*
X100550518Y-115850429D01*
X99939517Y-116047775D01*
X99352694Y-116285884D01*
X98787659Y-116565453D01*
X98679000Y-116625313D01*
X98579906Y-116678380D01*
X98483950Y-116723367D01*
X98380068Y-116764359D01*
X98257201Y-116805442D01*
X98104286Y-116850700D01*
X97961231Y-116890386D01*
X97715894Y-116956069D01*
X97466926Y-117020204D01*
X97210235Y-117083669D01*
X96941726Y-117147338D01*
X96657306Y-117212088D01*
X96352879Y-117278794D01*
X96024354Y-117348333D01*
X95667635Y-117421580D01*
X95278629Y-117499412D01*
X94853242Y-117582704D01*
X94387381Y-117672333D01*
X93876950Y-117769173D01*
X93686212Y-117805084D01*
X93152389Y-117906111D01*
X92662408Y-118000448D01*
X92209961Y-118089497D01*
X91788740Y-118174662D01*
X91392436Y-118257347D01*
X91014741Y-118338954D01*
X90649346Y-118420888D01*
X90289943Y-118504552D01*
X89930223Y-118591349D01*
X89563878Y-118682682D01*
X89184599Y-118779955D01*
X88786078Y-118884572D01*
X88544400Y-118948962D01*
X88431848Y-118977783D01*
X88335214Y-119000114D01*
X88266386Y-119013353D01*
X88239720Y-119015700D01*
X88215407Y-118991788D01*
X88186471Y-118923849D01*
X88151959Y-118809380D01*
X88131828Y-118731975D01*
X88070687Y-118452833D01*
X88018090Y-118143389D01*
X87976938Y-117823826D01*
X87950128Y-117514327D01*
X87945811Y-117436900D01*
X87942503Y-117346945D01*
X87941550Y-117253408D01*
X87943298Y-117150540D01*
X87948095Y-117032595D01*
X87956286Y-116893822D01*
X87968219Y-116728476D01*
X87984241Y-116530807D01*
X88004698Y-116295068D01*
X88029937Y-116015510D01*
X88034683Y-115963700D01*
X88090478Y-115365398D01*
X88143987Y-114812529D01*
X88195849Y-114299812D01*
X88246703Y-113821965D01*
X88297188Y-113373705D01*
X88347942Y-112949750D01*
X88399605Y-112544818D01*
X88452815Y-112153627D01*
X88508212Y-111770895D01*
X88566433Y-111391339D01*
X88628119Y-111009679D01*
X88649121Y-110883700D01*
X88805674Y-110020797D01*
X88981636Y-109179491D01*
X89175634Y-108365132D01*
X89386298Y-107583074D01*
X89612256Y-106838671D01*
X89852137Y-106137274D01*
X89894878Y-106020881D01*
X89938273Y-105897511D01*
X89989344Y-105742212D01*
X90042637Y-105572128D01*
X90092699Y-105404403D01*
X90108370Y-105349705D01*
X90209923Y-105012036D01*
X90322684Y-104679811D01*
X90448833Y-104348783D01*
X90590550Y-104014708D01*
X90750016Y-103673337D01*
X90929411Y-103320427D01*
X91130916Y-102951729D01*
X91356710Y-102562997D01*
X91608975Y-102149987D01*
X91889891Y-101708450D01*
X92201637Y-101234142D01*
X92287898Y-101105097D01*
X92418465Y-100908709D01*
X92545490Y-100714503D01*
X92664843Y-100529022D01*
X92772392Y-100358808D01*
X92864009Y-100210405D01*
X92935560Y-100090354D01*
X92982916Y-100005199D01*
X92985481Y-100000197D01*
X93126775Y-99731924D01*
X93276409Y-99467737D01*
X93437034Y-99204157D01*
X93611301Y-98937706D01*
X93801858Y-98664905D01*
X94011358Y-98382274D01*
X94242449Y-98086336D01*
X94497781Y-97773611D01*
X94780006Y-97440621D01*
X95091773Y-97083887D01*
X95435732Y-96699930D01*
X95814534Y-96285272D01*
X95820588Y-96278700D01*
X96065346Y-96012595D01*
X96280066Y-95778190D01*
X96469518Y-95570183D01*
X96638474Y-95383275D01*
X96791704Y-95212165D01*
X96933980Y-95051552D01*
X97070072Y-94896136D01*
X97198115Y-94748319D01*
X97296088Y-94637752D01*
X97398743Y-94528690D01*
X97509798Y-94417961D01*
X97632974Y-94302394D01*
X97771990Y-94178815D01*
X97930567Y-94044053D01*
X98112424Y-93894936D01*
X98321281Y-93728290D01*
X98560858Y-93540944D01*
X98834874Y-93329725D01*
X99090180Y-93134731D01*
X99448219Y-92860838D01*
X99768750Y-92612536D01*
X100055831Y-92386217D01*
X100313523Y-92178273D01*
X100545885Y-91985095D01*
X100756977Y-91803073D01*
X100950860Y-91628599D01*
X101131592Y-91458064D01*
X101303233Y-91287859D01*
X101469844Y-91114375D01*
X101635484Y-90934004D01*
X101804213Y-90743137D01*
X101882455Y-90652600D01*
X102007924Y-90510466D01*
X102151840Y-90353747D01*
X102299178Y-90198443D01*
X102434912Y-90060555D01*
X102479041Y-90017292D01*
X102908099Y-89636655D01*
X103372121Y-89291682D01*
X103871362Y-88982269D01*
X104406074Y-88708308D01*
X104976511Y-88469694D01*
X105582927Y-88266321D01*
X106225575Y-88098083D01*
X106904709Y-87964873D01*
X107619800Y-87866673D01*
X107745114Y-87854020D01*
X107872747Y-87843783D01*
X108009653Y-87835740D01*
X108162785Y-87829670D01*
X108339096Y-87825354D01*
X108545542Y-87822569D01*
X108789074Y-87821097D01*
X109067600Y-87820712D01*
X109386575Y-87821669D01*
X109676272Y-87824884D01*
X109942828Y-87831080D01*
X110192379Y-87840979D01*
X110431061Y-87855305D01*
X110665009Y-87874780D01*
X110900361Y-87900127D01*
X111143252Y-87932070D01*
X111399818Y-87971330D01*
X111676195Y-88018632D01*
X111978519Y-88074697D01*
X112312926Y-88140249D01*
X112685553Y-88216010D01*
X113030000Y-88287529D01*
X114069162Y-88513629D01*
X115113518Y-88758289D01*
X116153338Y-89018929D01*
X117178893Y-89292970D01*
X118180449Y-89577834D01*
X119148279Y-89870941D01*
X119837200Y-90091685D01*
X120077362Y-90172038D01*
X120296517Y-90249071D01*
X120500465Y-90325663D01*
X120695003Y-90404689D01*
X120885930Y-90489026D01*
X121079045Y-90581549D01*
X121280146Y-90685136D01*
X121495030Y-90802662D01*
X121729498Y-90937005D01*
X121989346Y-91091039D01*
X122280373Y-91267643D01*
X122581279Y-91452919D01*
X122952115Y-91681020D01*
X123285705Y-91882912D01*
X123586867Y-92060873D01*
X123860416Y-92217179D01*
X124111170Y-92354106D01*
X124343947Y-92473930D01*
X124563561Y-92578929D01*
X124774832Y-92671378D01*
X124982574Y-92753555D01*
X125191606Y-92827735D01*
X125406744Y-92896196D01*
X125632805Y-92961213D01*
X125874606Y-93025063D01*
X125945900Y-93043070D01*
X126480235Y-93182626D01*
X126985771Y-93327158D01*
X127472709Y-93480332D01*
X127951246Y-93645812D01*
X128431581Y-93827260D01*
X128923912Y-94028342D01*
X129438438Y-94252720D01*
X129895600Y-94462044D01*
X130163619Y-94588919D01*
X130433558Y-94720546D01*
X130708388Y-94858606D01*
X130991078Y-95004785D01*
X131284599Y-95160766D01*
X131591921Y-95328232D01*
X131916015Y-95508867D01*
X132259850Y-95704354D01*
X132626396Y-95916377D01*
X133018624Y-96146619D01*
X133439504Y-96396764D01*
X133892006Y-96668495D01*
X134379100Y-96963497D01*
X134903756Y-97283452D01*
X135280400Y-97514235D01*
X135495987Y-97646518D01*
X135703212Y-97773600D01*
X135897068Y-97892416D01*
X136072546Y-97999899D01*
X136224640Y-98092984D01*
X136348342Y-98168605D01*
X136438644Y-98223694D01*
X136489739Y-98254706D01*
X136644977Y-98348211D01*
X136598758Y-98545355D01*
X136561574Y-98721175D01*
X136522050Y-98938885D01*
X136481365Y-99189695D01*
X136440695Y-99464817D01*
X136401220Y-99755463D01*
X136364115Y-100052842D01*
X136330560Y-100348168D01*
X136301731Y-100632650D01*
X136278807Y-100897500D01*
X136272837Y-100977700D01*
X136230533Y-101917913D01*
X136235824Y-102870778D01*
X136288267Y-103832429D01*
X136387417Y-104799004D01*
X136532827Y-105766641D01*
X136724054Y-106731475D01*
X136960652Y-107689644D01*
X137103754Y-108191645D01*
X137225161Y-108598390D01*
X138323092Y-108598390D01*
X138301537Y-108531921D01*
X138029776Y-107650080D01*
X137801882Y-106781837D01*
X137616210Y-105918234D01*
X137471109Y-105050311D01*
X137364933Y-104169109D01*
X137296032Y-103265668D01*
X137282549Y-102992740D01*
X137266518Y-102234176D01*
X137284997Y-101473972D01*
X137338564Y-100703638D01*
X137427795Y-99914685D01*
X137543836Y-99153629D01*
X137634441Y-98710165D01*
X137750480Y-98304614D01*
X137895895Y-97928856D01*
X138074628Y-97574773D01*
X138290622Y-97234247D01*
X138547818Y-96899159D01*
X138751447Y-96666789D01*
X138892219Y-96513763D01*
X139006938Y-96391315D01*
X139103987Y-96292893D01*
X139191746Y-96211939D01*
X139278595Y-96141900D01*
X139372916Y-96076220D01*
X139483090Y-96008344D01*
X139617497Y-95931716D01*
X139784519Y-95839782D01*
X139865100Y-95795745D01*
X140076111Y-95678994D01*
X140249299Y-95579315D01*
X140392428Y-95491359D01*
X140513261Y-95409780D01*
X140619561Y-95329231D01*
X140719093Y-95244366D01*
X140819619Y-95149839D01*
X140858059Y-95111904D01*
X140967292Y-94998961D01*
X141059688Y-94891984D01*
X141136629Y-94785567D01*
X141199498Y-94674308D01*
X141249676Y-94552803D01*
X141288547Y-94415647D01*
X141317491Y-94257438D01*
X141337892Y-94072772D01*
X141351130Y-93856245D01*
X141358589Y-93602454D01*
X141361651Y-93305994D01*
X141361964Y-93141800D01*
X141360622Y-92856802D01*
X141356178Y-92613418D01*
X141348006Y-92402523D01*
X141335477Y-92214991D01*
X141317967Y-92041696D01*
X141294847Y-91873513D01*
X141265491Y-91701316D01*
X141261577Y-91680255D01*
X141256677Y-91645558D01*
X141263024Y-91620385D01*
X141288971Y-91599127D01*
X141342866Y-91576176D01*
X141433063Y-91545922D01*
X141487575Y-91528478D01*
X141727649Y-91451856D01*
X141738041Y-92087278D01*
X141741723Y-92288801D01*
X141745780Y-92446830D01*
X141750799Y-92568669D01*
X141757370Y-92661623D01*
X141766081Y-92732998D01*
X141777520Y-92790097D01*
X141792275Y-92840227D01*
X141800584Y-92863621D01*
X141912309Y-93109558D01*
X142050241Y-93312260D01*
X142216012Y-93472953D01*
X142411253Y-93592863D01*
X142637597Y-93673215D01*
X142896675Y-93715236D01*
X142938516Y-93718312D01*
X143167131Y-93732707D01*
X143725916Y-93396628D01*
X144033158Y-93215276D01*
X144305670Y-93062048D01*
X144549020Y-92934142D01*
X144768776Y-92828753D01*
X144970507Y-92743077D01*
X145159781Y-92674309D01*
X145161000Y-92673905D01*
X145379046Y-92608020D01*
X145572888Y-92564715D01*
X145762012Y-92540648D01*
X145965904Y-92532481D01*
X145986500Y-92532411D01*
X146106315Y-92534528D01*
X146194219Y-92543456D01*
X146268997Y-92562745D01*
X146349434Y-92595944D01*
X146367500Y-92604399D01*
X146460525Y-92654385D01*
X146591268Y-92733800D01*
X146757257Y-92841003D01*
X146956019Y-92974356D01*
X147185082Y-93132217D01*
X147441971Y-93312948D01*
X147523200Y-93370744D01*
X147824325Y-93575480D01*
X148103486Y-93742696D01*
X148369011Y-93875657D01*
X148629223Y-93977623D01*
X148892450Y-94051861D01*
X149167017Y-94101631D01*
X149460749Y-94130167D01*
X149586407Y-94136785D01*
X149693323Y-94140155D01*
X149771540Y-94140130D01*
X149811101Y-94136564D01*
X149813540Y-94135375D01*
X149822490Y-94108354D01*
X149841912Y-94036504D01*
X149870666Y-93924449D01*
X149907606Y-93776813D01*
X149951589Y-93598222D01*
X150001473Y-93393299D01*
X150056114Y-93166669D01*
X150114368Y-92922957D01*
X150140827Y-92811600D01*
X150200027Y-92562257D01*
X150255705Y-92328255D01*
X150306764Y-92114172D01*
X150352105Y-91924586D01*
X150390633Y-91764072D01*
X150421248Y-91637211D01*
X150442854Y-91548578D01*
X150454353Y-91502752D01*
X150455936Y-91497317D01*
X150480217Y-91502658D01*
X150541113Y-91522159D01*
X150627650Y-91552217D01*
X150673762Y-91568858D01*
X150797549Y-91610736D01*
X150938504Y-91653165D01*
X151084758Y-91693132D01*
X151224440Y-91727628D01*
X151345680Y-91753640D01*
X151436608Y-91768158D01*
X151467348Y-91770167D01*
X151523687Y-91781902D01*
X151551931Y-91806517D01*
X151548993Y-91836882D01*
X151535945Y-91912721D01*
X151513637Y-92029901D01*
X151482918Y-92184292D01*
X151444634Y-92371762D01*
X151399636Y-92588180D01*
X151348772Y-92829414D01*
X151292890Y-93091334D01*
X151232839Y-93369809D01*
X151196147Y-93538595D01*
X150826427Y-95234355D01*
X150949733Y-95468578D01*
X151024131Y-95602300D01*
X151105641Y-95732216D01*
X151199787Y-95865630D01*
X151312091Y-96009851D01*
X151448076Y-96172184D01*
X151613265Y-96359935D01*
X151677280Y-96431100D01*
X151835313Y-96607158D01*
X151967502Y-96758259D01*
X152079496Y-96892645D01*
X152176946Y-97018560D01*
X152265499Y-97144247D01*
X152350807Y-97277951D01*
X152438517Y-97427914D01*
X152534279Y-97602380D01*
X152643743Y-97809593D01*
X152712331Y-97941461D01*
X153004789Y-98509800D01*
X153271973Y-99038456D01*
X153515341Y-99530946D01*
X153736352Y-99990785D01*
X153936463Y-100421489D01*
X154117133Y-100826574D01*
X154279819Y-101209555D01*
X154425979Y-101573948D01*
X154557072Y-101923268D01*
X154674554Y-102261033D01*
X154779885Y-102590756D01*
X154874521Y-102915955D01*
X154959922Y-103240144D01*
X155028348Y-103526317D01*
X155090792Y-103809591D01*
X155138606Y-104050099D01*
X155172561Y-104253481D01*
X155193429Y-104425378D01*
X155201980Y-104571434D01*
X155198984Y-104697290D01*
X155194678Y-104743657D01*
X155165119Y-104962602D01*
X155126142Y-105175457D01*
X155075771Y-105387221D01*
X155012029Y-105602893D01*
X154932943Y-105827471D01*
X154836534Y-106065956D01*
X154720829Y-106323347D01*
X154583851Y-106604642D01*
X154423623Y-106914841D01*
X154238171Y-107258943D01*
X154106207Y-107497698D01*
X154011120Y-107670569D01*
X153900141Y-107875942D01*
X153780129Y-108100900D01*
X153657942Y-108332521D01*
X153540438Y-108557889D01*
X153448081Y-108737400D01*
X153071763Y-109453065D01*
X152697497Y-110121023D01*
X152323141Y-110744190D01*
X151946554Y-111325484D01*
X151565595Y-111867825D01*
X151178123Y-112374130D01*
X150781997Y-112847317D01*
X150375076Y-113290305D01*
X149955219Y-113706012D01*
X149520285Y-114097355D01*
X149507449Y-114108349D01*
X149369061Y-114232190D01*
X149268986Y-114336598D01*
X149202538Y-114429192D01*
X149165032Y-114517588D01*
X149151780Y-114609403D01*
X149154624Y-114681865D01*
X149192856Y-114842520D01*
X149270184Y-114975630D01*
X149380396Y-115076624D01*
X149517277Y-115140931D01*
X149674617Y-115163980D01*
X149794814Y-115152892D01*
X149868840Y-115123264D01*
X149972068Y-115058605D01*
X150100713Y-114962515D01*
X150250989Y-114838595D01*
X150419110Y-114690447D01*
X150601293Y-114521672D01*
X150793751Y-114335870D01*
X150992700Y-114136642D01*
X151194353Y-113927590D01*
X151394926Y-113712315D01*
X151590633Y-113494418D01*
X151777690Y-113277499D01*
X151823034Y-113223394D01*
X152080765Y-112903016D01*
X152350421Y-112547678D01*
X152623833Y-112169079D01*
X152892831Y-111778914D01*
X153149248Y-111388881D01*
X153384913Y-111010678D01*
X153480351Y-110850307D01*
X153678410Y-110512114D01*
X153764823Y-110786807D01*
X154061596Y-111765685D01*
X154324557Y-112708300D01*
X154554011Y-113616024D01*
X154750263Y-114490232D01*
X154913619Y-115332297D01*
X155044385Y-116143592D01*
X155142866Y-116925491D01*
X155153871Y-117030500D01*
X155207885Y-117689998D01*
X155236776Y-118357659D01*
X155240684Y-119022958D01*
X156278430Y-119022958D01*
X156279293Y-118454257D01*
X156252245Y-117742776D01*
X156196631Y-117014003D01*
X156111989Y-116264981D01*
X155997859Y-115492755D01*
X155853779Y-114694370D01*
X155679288Y-113866871D01*
X155473925Y-113007301D01*
X155237228Y-112112707D01*
X155108931Y-111658107D01*
X155046651Y-111444125D01*
X154976445Y-111207119D01*
X154900715Y-110954867D01*
X154821862Y-110695148D01*
X154742287Y-110435740D01*
X154664390Y-110184422D01*
X154590574Y-109948971D01*
X154523239Y-109737166D01*
X154464786Y-109556786D01*
X154417617Y-109415610D01*
X154408644Y-109389581D01*
X154357251Y-109241662D01*
X154497392Y-108962229D01*
X154545935Y-108867840D01*
X154614702Y-108737522D01*
X154699151Y-108579702D01*
X154794745Y-108402808D01*
X154896945Y-108215269D01*
X155001211Y-108025510D01*
X155028423Y-107976263D01*
X155169085Y-107721272D01*
X155287825Y-107504112D01*
X155387878Y-107318480D01*
X155472478Y-107158074D01*
X155544860Y-107016592D01*
X155608260Y-106887730D01*
X155665911Y-106765187D01*
X155721048Y-106642659D01*
X155766272Y-106538669D01*
X155953059Y-106057447D01*
X156093775Y-105589565D01*
X156189734Y-105130054D01*
X156234863Y-104768528D01*
X156244705Y-104635121D01*
X156247359Y-104522821D01*
X156242031Y-104413232D01*
X156227927Y-104287956D01*
X156208393Y-104155058D01*
X156107912Y-103595619D01*
X155978682Y-103028391D01*
X155819216Y-102448616D01*
X155628028Y-101851537D01*
X155403632Y-101232394D01*
X155144541Y-100586430D01*
X154957828Y-100152200D01*
X154888300Y-99998037D01*
X154802211Y-99813114D01*
X154701975Y-99602215D01*
X154590006Y-99370125D01*
X154468721Y-99121626D01*
X154340532Y-98861504D01*
X154207857Y-98594543D01*
X154073108Y-98325527D01*
X153938701Y-98059241D01*
X153807051Y-97800468D01*
X153680572Y-97553993D01*
X153561679Y-97324600D01*
X153452787Y-97117074D01*
X153356311Y-96936198D01*
X153274666Y-96786757D01*
X153210265Y-96673535D01*
X153165724Y-96601610D01*
X153067030Y-96465311D01*
X152936057Y-96299656D01*
X152771581Y-96103177D01*
X152572379Y-95874405D01*
X152391867Y-95672332D01*
X152287051Y-95554140D01*
X152187449Y-95438328D01*
X152101088Y-95334487D01*
X152035998Y-95252205D01*
X152009104Y-95215132D01*
X151921116Y-95084900D01*
X152281923Y-93434511D01*
X152642730Y-91784123D01*
X152908715Y-91715864D01*
X153296799Y-91598019D01*
X153649133Y-91450961D01*
X153974697Y-91269563D01*
X154282469Y-91048699D01*
X154581426Y-90783241D01*
X154635443Y-90729878D01*
X154931196Y-90399790D01*
X155184889Y-90044239D01*
X155397670Y-89661080D01*
X155570686Y-89248165D01*
X155705086Y-88803349D01*
X155736265Y-88671400D01*
X155817262Y-88192488D01*
X155849986Y-87706974D01*
X155849820Y-87701240D01*
X154810665Y-87701240D01*
X154780006Y-88103454D01*
X154709363Y-88493219D01*
X154599418Y-88866489D01*
X154450856Y-89219224D01*
X154264362Y-89547378D01*
X154040619Y-89846910D01*
X153841384Y-90057405D01*
X153622967Y-90247504D01*
X153399602Y-90403890D01*
X153161855Y-90531110D01*
X152900293Y-90633712D01*
X152605483Y-90716244D01*
X152374600Y-90764450D01*
X152326108Y-90768135D01*
X152238522Y-90769861D01*
X152123512Y-90769567D01*
X151992750Y-90767195D01*
X151968200Y-90766536D01*
X151772175Y-90757228D01*
X151607083Y-90740022D01*
X151453355Y-90712517D01*
X151371300Y-90693319D01*
X150987675Y-90573772D01*
X150620452Y-90410234D01*
X150263359Y-90199775D01*
X150153323Y-90124254D01*
X150004307Y-90008025D01*
X149838200Y-89860866D01*
X149666163Y-89694068D01*
X149499355Y-89518923D01*
X149348936Y-89346720D01*
X149226066Y-89188750D01*
X149219409Y-89179400D01*
X149066596Y-88944028D01*
X148916371Y-88677095D01*
X148778319Y-88397353D01*
X148662024Y-88123555D01*
X148617228Y-88001157D01*
X148496784Y-87588912D01*
X148417931Y-87177628D01*
X148379533Y-86770676D01*
X148380455Y-86371429D01*
X148419559Y-85983260D01*
X148495710Y-85609540D01*
X148607771Y-85253644D01*
X148754607Y-84918942D01*
X148935080Y-84608808D01*
X149148054Y-84326613D01*
X149392394Y-84075732D01*
X149666963Y-83859535D01*
X149970624Y-83681396D01*
X150091595Y-83625168D01*
X150255457Y-83557522D01*
X150399934Y-83507124D01*
X150537871Y-83471586D01*
X150682113Y-83448520D01*
X150845506Y-83435538D01*
X151040895Y-83430252D01*
X151142700Y-83429747D01*
X151312317Y-83430293D01*
X151442571Y-83432804D01*
X151544893Y-83438379D01*
X151630714Y-83448117D01*
X151711463Y-83463114D01*
X151798570Y-83484470D01*
X151846040Y-83497314D01*
X152248733Y-83634131D01*
X152631969Y-83816495D01*
X152993325Y-84042091D01*
X153330376Y-84308608D01*
X153640698Y-84613731D01*
X153921867Y-84955147D01*
X154171459Y-85330544D01*
X154387050Y-85737607D01*
X154519763Y-86048747D01*
X154655887Y-86460329D01*
X154749290Y-86875634D01*
X154800654Y-87290619D01*
X154810665Y-87701240D01*
X155849820Y-87701240D01*
X155835842Y-87218872D01*
X155776236Y-86732195D01*
X155672574Y-86250956D01*
X155526261Y-85779169D01*
X155338702Y-85320847D01*
X155111303Y-84880003D01*
X154845469Y-84460650D01*
X154542606Y-84066803D01*
X154204120Y-83702474D01*
X153899883Y-83427665D01*
X153594349Y-83195688D01*
X153259895Y-82981844D01*
X152910766Y-82794134D01*
X152561205Y-82640560D01*
X152387300Y-82577942D01*
X152163701Y-82508735D01*
X151959957Y-82457550D01*
X151761000Y-82422070D01*
X151551762Y-82399980D01*
X151317174Y-82388964D01*
X151142700Y-82386639D01*
X150961152Y-82386803D01*
%LPC*%
D12*
X129180000Y-71730000D03*
X82140000Y-71730000D03*
D13*
X120840000Y-70460000D03*
X118080000Y-70460000D03*
X115320000Y-70460000D03*
X112560000Y-70460000D03*
X109800000Y-70460000D03*
X107040000Y-70460000D03*
X104280000Y-70460000D03*
X101520000Y-70460000D03*
X98760000Y-70460000D03*
X96000000Y-70460000D03*
X93240000Y-70460000D03*
X90480000Y-70460000D03*
X122220000Y-73000000D03*
X119460000Y-73000000D03*
X116700000Y-73000000D03*
X113940000Y-73000000D03*
X111180000Y-73000000D03*
X108420000Y-73000000D03*
X105660000Y-73000000D03*
X102900000Y-73000000D03*
X100140000Y-73000000D03*
X97380000Y-73000000D03*
X94620000Y-73000000D03*
X91860000Y-73000000D03*
X89100000Y-73000000D03*
D14*
X72500000Y-73700000D03*
X72500000Y-67700000D03*
D15*
X128905000Y-108585000D03*
X128905000Y-106045000D03*
X131445000Y-108585000D03*
X131445000Y-106045000D03*
X133985000Y-108585000D03*
D16*
X133985000Y-106045000D03*
D17*
X74930000Y-133275000D03*
D18*
X77470000Y-117475000D03*
D19*
X74930000Y-117475000D03*
X72390000Y-117475000D03*
D20*
X90500000Y-133950000D03*
X85500000Y-133950000D03*
D21*
X91875000Y-136700000D03*
X84125000Y-136700000D03*
D22*
X91725000Y-132900000D03*
X84275000Y-132900000D03*
D13*
X149600000Y-122200000D03*
X125400000Y-122200000D03*
D23*
X156000000Y-136000000D03*
X64000000Y-136000000D03*
X64000000Y-64000000D03*
X156000000Y-64000000D03*
D24*
X147100000Y-73200000D03*
D25*
X145830000Y-75740000D03*
X144560000Y-73200000D03*
X143290000Y-75740000D03*
X142020000Y-73200000D03*
X140750000Y-75740000D03*
X139480000Y-73200000D03*
X138210000Y-75740000D03*
X136330000Y-63480000D03*
X138870000Y-61960000D03*
X146440000Y-63480000D03*
X148980000Y-61960000D03*
D26*
X150430000Y-69910000D03*
X134880000Y-69910000D03*
D27*
X148370000Y-66860000D03*
X136940000Y-66860000D03*
D13*
X133350000Y-97663000D03*
X133350000Y-92783000D03*
D22*
X74295000Y-93980000D03*
X106045000Y-133985000D03*
D28*
X107950000Y-78740000D03*
X110490000Y-78740000D03*
X113030000Y-78740000D03*
X115570000Y-78740000D03*
X118110000Y-78740000D03*
X120650000Y-78740000D03*
X123190000Y-78740000D03*
X125730000Y-78740000D03*
X128270000Y-78740000D03*
D29*
X130810000Y-78740000D03*
D28*
X101600000Y-78740000D03*
X99060000Y-78740000D03*
X96520000Y-78740000D03*
X93980000Y-78740000D03*
X91440000Y-78740000D03*
X88900000Y-78740000D03*
X86360000Y-78740000D03*
X83820000Y-78740000D03*
X81280000Y-78740000D03*
D29*
X78740000Y-78740000D03*
D30*
X67945000Y-111800000D03*
D29*
X67945000Y-114300000D03*
M02*
