G04 #@! TF.GenerationSoftware,KiCad,Pcbnew,(5.1.6)-1*
G04 #@! TF.CreationDate,2021-05-12T21:13:22-05:00*
G04 #@! TF.ProjectId,scuznet,7363757a-6e65-4742-9e6b-696361645f70,rev?*
G04 #@! TF.SameCoordinates,Original*
G04 #@! TF.FileFunction,Soldermask,Top*
G04 #@! TF.FilePolarity,Negative*
%FSLAX46Y46*%
G04 Gerber Fmt 4.6, Leading zero omitted, Abs format (unit mm)*
G04 Created by KiCad (PCBNEW (5.1.6)-1) date 2021-05-12 21:13:22*
%MOMM*%
%LPD*%
G01*
G04 APERTURE LIST*
%ADD10C,4.500000*%
%ADD11C,1.900000*%
%ADD12C,4.900000*%
%ADD13O,2.100000X2.100000*%
%ADD14R,2.100000X2.100000*%
%ADD15O,3.900000X3.900000*%
%ADD16R,2.305000X2.400000*%
%ADD17O,2.305000X2.400000*%
%ADD18R,1.900000X2.400000*%
%ADD19R,4.200000X2.400000*%
%ADD20C,1.200000*%
%ADD21C,2.200000*%
%ADD22C,2.400000*%
%ADD23R,0.850000X1.700000*%
%ADD24R,1.300000X1.200000*%
%ADD25C,3.600000*%
%ADD26R,2.051000X2.051000*%
%ADD27C,2.051000*%
%ADD28C,3.000000*%
%ADD29C,3.650000*%
%ADD30R,1.900000X0.950000*%
%ADD31R,0.950000X1.900000*%
%ADD32O,2.000000X2.000000*%
%ADD33R,2.000000X2.000000*%
%ADD34R,2.700000X2.900000*%
%ADD35C,2.000000*%
G04 APERTURE END LIST*
G36*
G01*
X107165000Y-137438750D02*
X107165000Y-138151250D01*
G75*
G02*
X106846250Y-138470000I-318750J0D01*
G01*
X106208750Y-138470000D01*
G75*
G02*
X105890000Y-138151250I0J318750D01*
G01*
X105890000Y-137438750D01*
G75*
G02*
X106208750Y-137120000I318750J0D01*
G01*
X106846250Y-137120000D01*
G75*
G02*
X107165000Y-137438750I0J-318750D01*
G01*
G37*
G36*
G01*
X108740000Y-137438750D02*
X108740000Y-138151250D01*
G75*
G02*
X108421250Y-138470000I-318750J0D01*
G01*
X107783750Y-138470000D01*
G75*
G02*
X107465000Y-138151250I0J318750D01*
G01*
X107465000Y-137438750D01*
G75*
G02*
X107783750Y-137120000I318750J0D01*
G01*
X108421250Y-137120000D01*
G75*
G02*
X108740000Y-137438750I0J-318750D01*
G01*
G37*
G36*
G01*
X111510000Y-137238750D02*
X111510000Y-138351250D01*
G75*
G02*
X111166250Y-138695000I-343750J0D01*
G01*
X110478750Y-138695000D01*
G75*
G02*
X110135000Y-138351250I0J343750D01*
G01*
X110135000Y-137238750D01*
G75*
G02*
X110478750Y-136895000I343750J0D01*
G01*
X111166250Y-136895000D01*
G75*
G02*
X111510000Y-137238750I0J-343750D01*
G01*
G37*
G36*
G01*
X113385000Y-137238750D02*
X113385000Y-138351250D01*
G75*
G02*
X113041250Y-138695000I-343750J0D01*
G01*
X112353750Y-138695000D01*
G75*
G02*
X112010000Y-138351250I0J343750D01*
G01*
X112010000Y-137238750D01*
G75*
G02*
X112353750Y-136895000I343750J0D01*
G01*
X113041250Y-136895000D01*
G75*
G02*
X113385000Y-137238750I0J-343750D01*
G01*
G37*
D10*
X129180000Y-71730000D03*
X82140000Y-71730000D03*
D11*
X120840000Y-70460000D03*
X118080000Y-70460000D03*
X115320000Y-70460000D03*
X112560000Y-70460000D03*
X109800000Y-70460000D03*
X107040000Y-70460000D03*
X104280000Y-70460000D03*
X101520000Y-70460000D03*
X98760000Y-70460000D03*
X96000000Y-70460000D03*
X93240000Y-70460000D03*
X90480000Y-70460000D03*
X122220000Y-73000000D03*
X119460000Y-73000000D03*
X116700000Y-73000000D03*
X113940000Y-73000000D03*
X111180000Y-73000000D03*
X108420000Y-73000000D03*
X105660000Y-73000000D03*
X102900000Y-73000000D03*
X100140000Y-73000000D03*
X97380000Y-73000000D03*
X94620000Y-73000000D03*
X91860000Y-73000000D03*
X89100000Y-73000000D03*
D12*
X72500000Y-73700000D03*
X72500000Y-67700000D03*
D13*
X128905000Y-108585000D03*
X128905000Y-106045000D03*
X131445000Y-108585000D03*
X131445000Y-106045000D03*
X133985000Y-108585000D03*
D14*
X133985000Y-106045000D03*
D15*
X74930000Y-133275000D03*
D16*
X77470000Y-117475000D03*
D17*
X74930000Y-117475000D03*
X72390000Y-117475000D03*
D18*
X75170000Y-107925000D03*
X79770000Y-107925000D03*
X77470000Y-107925000D03*
D19*
X77470000Y-101625000D03*
G36*
G01*
X82828750Y-125245000D02*
X83541250Y-125245000D01*
G75*
G02*
X83860000Y-125563750I0J-318750D01*
G01*
X83860000Y-126201250D01*
G75*
G02*
X83541250Y-126520000I-318750J0D01*
G01*
X82828750Y-126520000D01*
G75*
G02*
X82510000Y-126201250I0J318750D01*
G01*
X82510000Y-125563750D01*
G75*
G02*
X82828750Y-125245000I318750J0D01*
G01*
G37*
G36*
G01*
X82828750Y-123670000D02*
X83541250Y-123670000D01*
G75*
G02*
X83860000Y-123988750I0J-318750D01*
G01*
X83860000Y-124626250D01*
G75*
G02*
X83541250Y-124945000I-318750J0D01*
G01*
X82828750Y-124945000D01*
G75*
G02*
X82510000Y-124626250I0J318750D01*
G01*
X82510000Y-123988750D01*
G75*
G02*
X82828750Y-123670000I318750J0D01*
G01*
G37*
G36*
G01*
X82828750Y-129055000D02*
X83541250Y-129055000D01*
G75*
G02*
X83860000Y-129373750I0J-318750D01*
G01*
X83860000Y-130011250D01*
G75*
G02*
X83541250Y-130330000I-318750J0D01*
G01*
X82828750Y-130330000D01*
G75*
G02*
X82510000Y-130011250I0J318750D01*
G01*
X82510000Y-129373750D01*
G75*
G02*
X82828750Y-129055000I318750J0D01*
G01*
G37*
G36*
G01*
X82828750Y-127480000D02*
X83541250Y-127480000D01*
G75*
G02*
X83860000Y-127798750I0J-318750D01*
G01*
X83860000Y-128436250D01*
G75*
G02*
X83541250Y-128755000I-318750J0D01*
G01*
X82828750Y-128755000D01*
G75*
G02*
X82510000Y-128436250I0J318750D01*
G01*
X82510000Y-127798750D01*
G75*
G02*
X82828750Y-127480000I318750J0D01*
G01*
G37*
D20*
X90500000Y-133950000D03*
X85500000Y-133950000D03*
D21*
X91875000Y-136700000D03*
X84125000Y-136700000D03*
D22*
X91725000Y-132900000D03*
X84275000Y-132900000D03*
D23*
X89300000Y-132850000D03*
X88650000Y-132850000D03*
X88000000Y-132850000D03*
X87350000Y-132850000D03*
X86700000Y-132850000D03*
D24*
X85360000Y-128905000D03*
X87360000Y-127955000D03*
X87360000Y-129855000D03*
G36*
G01*
X149600000Y-137294200D02*
X149600000Y-135105800D01*
G75*
G02*
X149905800Y-134800000I305800J0D01*
G01*
X151494200Y-134800000D01*
G75*
G02*
X151800000Y-135105800I0J-305800D01*
G01*
X151800000Y-137294200D01*
G75*
G02*
X151494200Y-137600000I-305800J0D01*
G01*
X149905800Y-137600000D01*
G75*
G02*
X149600000Y-137294200I0J305800D01*
G01*
G37*
G36*
G01*
X123200000Y-138491300D02*
X123200000Y-136308700D01*
G75*
G02*
X123508700Y-136000000I308700J0D01*
G01*
X124991300Y-136000000D01*
G75*
G02*
X125300000Y-136308700I0J-308700D01*
G01*
X125300000Y-138491300D01*
G75*
G02*
X124991300Y-138800000I-308700J0D01*
G01*
X123508700Y-138800000D01*
G75*
G02*
X123200000Y-138491300I0J308700D01*
G01*
G37*
D11*
X149600000Y-122200000D03*
X125400000Y-122200000D03*
G36*
G01*
X123710000Y-115807300D02*
X123710000Y-114192700D01*
G75*
G02*
X124102700Y-113800000I392700J0D01*
G01*
X124417300Y-113800000D01*
G75*
G02*
X124810000Y-114192700I0J-392700D01*
G01*
X124810000Y-115807300D01*
G75*
G02*
X124417300Y-116200000I-392700J0D01*
G01*
X124102700Y-116200000D01*
G75*
G02*
X123710000Y-115807300I0J392700D01*
G01*
G37*
G36*
G01*
X127150000Y-115824400D02*
X127150000Y-114175600D01*
G75*
G02*
X127525600Y-113800000I375600J0D01*
G01*
X127974400Y-113800000D01*
G75*
G02*
X128350000Y-114175600I0J-375600D01*
G01*
X128350000Y-115824400D01*
G75*
G02*
X127974400Y-116200000I-375600J0D01*
G01*
X127525600Y-116200000D01*
G75*
G02*
X127150000Y-115824400I0J375600D01*
G01*
G37*
G36*
G01*
X128850000Y-115824400D02*
X128850000Y-114175600D01*
G75*
G02*
X129225600Y-113800000I375600J0D01*
G01*
X129674400Y-113800000D01*
G75*
G02*
X130050000Y-114175600I0J-375600D01*
G01*
X130050000Y-115824400D01*
G75*
G02*
X129674400Y-116200000I-375600J0D01*
G01*
X129225600Y-116200000D01*
G75*
G02*
X128850000Y-115824400I0J375600D01*
G01*
G37*
G36*
G01*
X131280000Y-115824400D02*
X131280000Y-114175600D01*
G75*
G02*
X131655600Y-113800000I375600J0D01*
G01*
X132104400Y-113800000D01*
G75*
G02*
X132480000Y-114175600I0J-375600D01*
G01*
X132480000Y-115824400D01*
G75*
G02*
X132104400Y-116200000I-375600J0D01*
G01*
X131655600Y-116200000D01*
G75*
G02*
X131280000Y-115824400I0J375600D01*
G01*
G37*
G36*
G01*
X133780000Y-115824400D02*
X133780000Y-114175600D01*
G75*
G02*
X134155600Y-113800000I375600J0D01*
G01*
X134604400Y-113800000D01*
G75*
G02*
X134980000Y-114175600I0J-375600D01*
G01*
X134980000Y-115824400D01*
G75*
G02*
X134604400Y-116200000I-375600J0D01*
G01*
X134155600Y-116200000D01*
G75*
G02*
X133780000Y-115824400I0J375600D01*
G01*
G37*
G36*
G01*
X136280000Y-115824400D02*
X136280000Y-114175600D01*
G75*
G02*
X136655600Y-113800000I375600J0D01*
G01*
X137104400Y-113800000D01*
G75*
G02*
X137480000Y-114175600I0J-375600D01*
G01*
X137480000Y-115824400D01*
G75*
G02*
X137104400Y-116200000I-375600J0D01*
G01*
X136655600Y-116200000D01*
G75*
G02*
X136280000Y-115824400I0J375600D01*
G01*
G37*
G36*
G01*
X137980000Y-115824400D02*
X137980000Y-114175600D01*
G75*
G02*
X138355600Y-113800000I375600J0D01*
G01*
X138804400Y-113800000D01*
G75*
G02*
X139180000Y-114175600I0J-375600D01*
G01*
X139180000Y-115824400D01*
G75*
G02*
X138804400Y-116200000I-375600J0D01*
G01*
X138355600Y-116200000D01*
G75*
G02*
X137980000Y-115824400I0J375600D01*
G01*
G37*
G36*
G01*
X139580000Y-115824400D02*
X139580000Y-114175600D01*
G75*
G02*
X139955600Y-113800000I375600J0D01*
G01*
X140404400Y-113800000D01*
G75*
G02*
X140780000Y-114175600I0J-375600D01*
G01*
X140780000Y-115824400D01*
G75*
G02*
X140404400Y-116200000I-375600J0D01*
G01*
X139955600Y-116200000D01*
G75*
G02*
X139580000Y-115824400I0J375600D01*
G01*
G37*
G36*
G01*
X141280000Y-115824400D02*
X141280000Y-114175600D01*
G75*
G02*
X141655600Y-113800000I375600J0D01*
G01*
X142104400Y-113800000D01*
G75*
G02*
X142480000Y-114175600I0J-375600D01*
G01*
X142480000Y-115824400D01*
G75*
G02*
X142104400Y-116200000I-375600J0D01*
G01*
X141655600Y-116200000D01*
G75*
G02*
X141280000Y-115824400I0J375600D01*
G01*
G37*
G36*
G01*
X143780000Y-115824400D02*
X143780000Y-114175600D01*
G75*
G02*
X144155600Y-113800000I375600J0D01*
G01*
X144604400Y-113800000D01*
G75*
G02*
X144980000Y-114175600I0J-375600D01*
G01*
X144980000Y-115824400D01*
G75*
G02*
X144604400Y-116200000I-375600J0D01*
G01*
X144155600Y-116200000D01*
G75*
G02*
X143780000Y-115824400I0J375600D01*
G01*
G37*
G36*
G01*
X146280000Y-115824400D02*
X146280000Y-114175600D01*
G75*
G02*
X146655600Y-113800000I375600J0D01*
G01*
X147104400Y-113800000D01*
G75*
G02*
X147480000Y-114175600I0J-375600D01*
G01*
X147480000Y-115824400D01*
G75*
G02*
X147104400Y-116200000I-375600J0D01*
G01*
X146655600Y-116200000D01*
G75*
G02*
X146280000Y-115824400I0J375600D01*
G01*
G37*
D25*
X156000000Y-136000000D03*
X64000000Y-136000000D03*
X64000000Y-64000000D03*
X156000000Y-64000000D03*
D26*
X147100000Y-73200000D03*
D27*
X145830000Y-75740000D03*
X144560000Y-73200000D03*
X143290000Y-75740000D03*
X142020000Y-73200000D03*
X140750000Y-75740000D03*
X139480000Y-73200000D03*
X138210000Y-75740000D03*
X136330000Y-63480000D03*
X138870000Y-61960000D03*
X146440000Y-63480000D03*
X148980000Y-61960000D03*
D28*
X150430000Y-69910000D03*
X134880000Y-69910000D03*
D29*
X148370000Y-66860000D03*
X136940000Y-66860000D03*
G36*
G01*
X121035000Y-107565000D02*
X121535000Y-107565000D01*
G75*
G02*
X121785000Y-107815000I0J-250000D01*
G01*
X121785000Y-109765000D01*
G75*
G02*
X121535000Y-110015000I-250000J0D01*
G01*
X121035000Y-110015000D01*
G75*
G02*
X120785000Y-109765000I0J250000D01*
G01*
X120785000Y-107815000D01*
G75*
G02*
X121035000Y-107565000I250000J0D01*
G01*
G37*
G36*
G01*
X119765000Y-107565000D02*
X120265000Y-107565000D01*
G75*
G02*
X120515000Y-107815000I0J-250000D01*
G01*
X120515000Y-109765000D01*
G75*
G02*
X120265000Y-110015000I-250000J0D01*
G01*
X119765000Y-110015000D01*
G75*
G02*
X119515000Y-109765000I0J250000D01*
G01*
X119515000Y-107815000D01*
G75*
G02*
X119765000Y-107565000I250000J0D01*
G01*
G37*
G36*
G01*
X118495000Y-107565000D02*
X118995000Y-107565000D01*
G75*
G02*
X119245000Y-107815000I0J-250000D01*
G01*
X119245000Y-109765000D01*
G75*
G02*
X118995000Y-110015000I-250000J0D01*
G01*
X118495000Y-110015000D01*
G75*
G02*
X118245000Y-109765000I0J250000D01*
G01*
X118245000Y-107815000D01*
G75*
G02*
X118495000Y-107565000I250000J0D01*
G01*
G37*
G36*
G01*
X117225000Y-107565000D02*
X117725000Y-107565000D01*
G75*
G02*
X117975000Y-107815000I0J-250000D01*
G01*
X117975000Y-109765000D01*
G75*
G02*
X117725000Y-110015000I-250000J0D01*
G01*
X117225000Y-110015000D01*
G75*
G02*
X116975000Y-109765000I0J250000D01*
G01*
X116975000Y-107815000D01*
G75*
G02*
X117225000Y-107565000I250000J0D01*
G01*
G37*
G36*
G01*
X115955000Y-107565000D02*
X116455000Y-107565000D01*
G75*
G02*
X116705000Y-107815000I0J-250000D01*
G01*
X116705000Y-109765000D01*
G75*
G02*
X116455000Y-110015000I-250000J0D01*
G01*
X115955000Y-110015000D01*
G75*
G02*
X115705000Y-109765000I0J250000D01*
G01*
X115705000Y-107815000D01*
G75*
G02*
X115955000Y-107565000I250000J0D01*
G01*
G37*
G36*
G01*
X114685000Y-107565000D02*
X115185000Y-107565000D01*
G75*
G02*
X115435000Y-107815000I0J-250000D01*
G01*
X115435000Y-109765000D01*
G75*
G02*
X115185000Y-110015000I-250000J0D01*
G01*
X114685000Y-110015000D01*
G75*
G02*
X114435000Y-109765000I0J250000D01*
G01*
X114435000Y-107815000D01*
G75*
G02*
X114685000Y-107565000I250000J0D01*
G01*
G37*
G36*
G01*
X113415000Y-107565000D02*
X113915000Y-107565000D01*
G75*
G02*
X114165000Y-107815000I0J-250000D01*
G01*
X114165000Y-109765000D01*
G75*
G02*
X113915000Y-110015000I-250000J0D01*
G01*
X113415000Y-110015000D01*
G75*
G02*
X113165000Y-109765000I0J250000D01*
G01*
X113165000Y-107815000D01*
G75*
G02*
X113415000Y-107565000I250000J0D01*
G01*
G37*
G36*
G01*
X112145000Y-107565000D02*
X112645000Y-107565000D01*
G75*
G02*
X112895000Y-107815000I0J-250000D01*
G01*
X112895000Y-109765000D01*
G75*
G02*
X112645000Y-110015000I-250000J0D01*
G01*
X112145000Y-110015000D01*
G75*
G02*
X111895000Y-109765000I0J250000D01*
G01*
X111895000Y-107815000D01*
G75*
G02*
X112145000Y-107565000I250000J0D01*
G01*
G37*
G36*
G01*
X110875000Y-107565000D02*
X111375000Y-107565000D01*
G75*
G02*
X111625000Y-107815000I0J-250000D01*
G01*
X111625000Y-109765000D01*
G75*
G02*
X111375000Y-110015000I-250000J0D01*
G01*
X110875000Y-110015000D01*
G75*
G02*
X110625000Y-109765000I0J250000D01*
G01*
X110625000Y-107815000D01*
G75*
G02*
X110875000Y-107565000I250000J0D01*
G01*
G37*
G36*
G01*
X109605000Y-107565000D02*
X110105000Y-107565000D01*
G75*
G02*
X110355000Y-107815000I0J-250000D01*
G01*
X110355000Y-109765000D01*
G75*
G02*
X110105000Y-110015000I-250000J0D01*
G01*
X109605000Y-110015000D01*
G75*
G02*
X109355000Y-109765000I0J250000D01*
G01*
X109355000Y-107815000D01*
G75*
G02*
X109605000Y-107565000I250000J0D01*
G01*
G37*
G36*
G01*
X109605000Y-98265000D02*
X110105000Y-98265000D01*
G75*
G02*
X110355000Y-98515000I0J-250000D01*
G01*
X110355000Y-100465000D01*
G75*
G02*
X110105000Y-100715000I-250000J0D01*
G01*
X109605000Y-100715000D01*
G75*
G02*
X109355000Y-100465000I0J250000D01*
G01*
X109355000Y-98515000D01*
G75*
G02*
X109605000Y-98265000I250000J0D01*
G01*
G37*
G36*
G01*
X110875000Y-98265000D02*
X111375000Y-98265000D01*
G75*
G02*
X111625000Y-98515000I0J-250000D01*
G01*
X111625000Y-100465000D01*
G75*
G02*
X111375000Y-100715000I-250000J0D01*
G01*
X110875000Y-100715000D01*
G75*
G02*
X110625000Y-100465000I0J250000D01*
G01*
X110625000Y-98515000D01*
G75*
G02*
X110875000Y-98265000I250000J0D01*
G01*
G37*
G36*
G01*
X112145000Y-98265000D02*
X112645000Y-98265000D01*
G75*
G02*
X112895000Y-98515000I0J-250000D01*
G01*
X112895000Y-100465000D01*
G75*
G02*
X112645000Y-100715000I-250000J0D01*
G01*
X112145000Y-100715000D01*
G75*
G02*
X111895000Y-100465000I0J250000D01*
G01*
X111895000Y-98515000D01*
G75*
G02*
X112145000Y-98265000I250000J0D01*
G01*
G37*
G36*
G01*
X113415000Y-98265000D02*
X113915000Y-98265000D01*
G75*
G02*
X114165000Y-98515000I0J-250000D01*
G01*
X114165000Y-100465000D01*
G75*
G02*
X113915000Y-100715000I-250000J0D01*
G01*
X113415000Y-100715000D01*
G75*
G02*
X113165000Y-100465000I0J250000D01*
G01*
X113165000Y-98515000D01*
G75*
G02*
X113415000Y-98265000I250000J0D01*
G01*
G37*
G36*
G01*
X114685000Y-98265000D02*
X115185000Y-98265000D01*
G75*
G02*
X115435000Y-98515000I0J-250000D01*
G01*
X115435000Y-100465000D01*
G75*
G02*
X115185000Y-100715000I-250000J0D01*
G01*
X114685000Y-100715000D01*
G75*
G02*
X114435000Y-100465000I0J250000D01*
G01*
X114435000Y-98515000D01*
G75*
G02*
X114685000Y-98265000I250000J0D01*
G01*
G37*
G36*
G01*
X115955000Y-98265000D02*
X116455000Y-98265000D01*
G75*
G02*
X116705000Y-98515000I0J-250000D01*
G01*
X116705000Y-100465000D01*
G75*
G02*
X116455000Y-100715000I-250000J0D01*
G01*
X115955000Y-100715000D01*
G75*
G02*
X115705000Y-100465000I0J250000D01*
G01*
X115705000Y-98515000D01*
G75*
G02*
X115955000Y-98265000I250000J0D01*
G01*
G37*
G36*
G01*
X117225000Y-98265000D02*
X117725000Y-98265000D01*
G75*
G02*
X117975000Y-98515000I0J-250000D01*
G01*
X117975000Y-100465000D01*
G75*
G02*
X117725000Y-100715000I-250000J0D01*
G01*
X117225000Y-100715000D01*
G75*
G02*
X116975000Y-100465000I0J250000D01*
G01*
X116975000Y-98515000D01*
G75*
G02*
X117225000Y-98265000I250000J0D01*
G01*
G37*
G36*
G01*
X118495000Y-98265000D02*
X118995000Y-98265000D01*
G75*
G02*
X119245000Y-98515000I0J-250000D01*
G01*
X119245000Y-100465000D01*
G75*
G02*
X118995000Y-100715000I-250000J0D01*
G01*
X118495000Y-100715000D01*
G75*
G02*
X118245000Y-100465000I0J250000D01*
G01*
X118245000Y-98515000D01*
G75*
G02*
X118495000Y-98265000I250000J0D01*
G01*
G37*
G36*
G01*
X119765000Y-98265000D02*
X120265000Y-98265000D01*
G75*
G02*
X120515000Y-98515000I0J-250000D01*
G01*
X120515000Y-100465000D01*
G75*
G02*
X120265000Y-100715000I-250000J0D01*
G01*
X119765000Y-100715000D01*
G75*
G02*
X119515000Y-100465000I0J250000D01*
G01*
X119515000Y-98515000D01*
G75*
G02*
X119765000Y-98265000I250000J0D01*
G01*
G37*
G36*
G01*
X121035000Y-98265000D02*
X121535000Y-98265000D01*
G75*
G02*
X121785000Y-98515000I0J-250000D01*
G01*
X121785000Y-100465000D01*
G75*
G02*
X121535000Y-100715000I-250000J0D01*
G01*
X121035000Y-100715000D01*
G75*
G02*
X120785000Y-100465000I0J250000D01*
G01*
X120785000Y-98515000D01*
G75*
G02*
X121035000Y-98265000I250000J0D01*
G01*
G37*
D11*
X133350000Y-97663000D03*
X133350000Y-92783000D03*
G36*
G01*
X141990000Y-100715000D02*
X141990000Y-101215000D01*
G75*
G02*
X141740000Y-101465000I-250000J0D01*
G01*
X139790000Y-101465000D01*
G75*
G02*
X139540000Y-101215000I0J250000D01*
G01*
X139540000Y-100715000D01*
G75*
G02*
X139790000Y-100465000I250000J0D01*
G01*
X141740000Y-100465000D01*
G75*
G02*
X141990000Y-100715000I0J-250000D01*
G01*
G37*
G36*
G01*
X141990000Y-99445000D02*
X141990000Y-99945000D01*
G75*
G02*
X141740000Y-100195000I-250000J0D01*
G01*
X139790000Y-100195000D01*
G75*
G02*
X139540000Y-99945000I0J250000D01*
G01*
X139540000Y-99445000D01*
G75*
G02*
X139790000Y-99195000I250000J0D01*
G01*
X141740000Y-99195000D01*
G75*
G02*
X141990000Y-99445000I0J-250000D01*
G01*
G37*
G36*
G01*
X141990000Y-98175000D02*
X141990000Y-98675000D01*
G75*
G02*
X141740000Y-98925000I-250000J0D01*
G01*
X139790000Y-98925000D01*
G75*
G02*
X139540000Y-98675000I0J250000D01*
G01*
X139540000Y-98175000D01*
G75*
G02*
X139790000Y-97925000I250000J0D01*
G01*
X141740000Y-97925000D01*
G75*
G02*
X141990000Y-98175000I0J-250000D01*
G01*
G37*
G36*
G01*
X141990000Y-96905000D02*
X141990000Y-97405000D01*
G75*
G02*
X141740000Y-97655000I-250000J0D01*
G01*
X139790000Y-97655000D01*
G75*
G02*
X139540000Y-97405000I0J250000D01*
G01*
X139540000Y-96905000D01*
G75*
G02*
X139790000Y-96655000I250000J0D01*
G01*
X141740000Y-96655000D01*
G75*
G02*
X141990000Y-96905000I0J-250000D01*
G01*
G37*
G36*
G01*
X141990000Y-95635000D02*
X141990000Y-96135000D01*
G75*
G02*
X141740000Y-96385000I-250000J0D01*
G01*
X139790000Y-96385000D01*
G75*
G02*
X139540000Y-96135000I0J250000D01*
G01*
X139540000Y-95635000D01*
G75*
G02*
X139790000Y-95385000I250000J0D01*
G01*
X141740000Y-95385000D01*
G75*
G02*
X141990000Y-95635000I0J-250000D01*
G01*
G37*
G36*
G01*
X141990000Y-94365000D02*
X141990000Y-94865000D01*
G75*
G02*
X141740000Y-95115000I-250000J0D01*
G01*
X139790000Y-95115000D01*
G75*
G02*
X139540000Y-94865000I0J250000D01*
G01*
X139540000Y-94365000D01*
G75*
G02*
X139790000Y-94115000I250000J0D01*
G01*
X141740000Y-94115000D01*
G75*
G02*
X141990000Y-94365000I0J-250000D01*
G01*
G37*
G36*
G01*
X141990000Y-93095000D02*
X141990000Y-93595000D01*
G75*
G02*
X141740000Y-93845000I-250000J0D01*
G01*
X139790000Y-93845000D01*
G75*
G02*
X139540000Y-93595000I0J250000D01*
G01*
X139540000Y-93095000D01*
G75*
G02*
X139790000Y-92845000I250000J0D01*
G01*
X141740000Y-92845000D01*
G75*
G02*
X141990000Y-93095000I0J-250000D01*
G01*
G37*
G36*
G01*
X141990000Y-91825000D02*
X141990000Y-92325000D01*
G75*
G02*
X141740000Y-92575000I-250000J0D01*
G01*
X139790000Y-92575000D01*
G75*
G02*
X139540000Y-92325000I0J250000D01*
G01*
X139540000Y-91825000D01*
G75*
G02*
X139790000Y-91575000I250000J0D01*
G01*
X141740000Y-91575000D01*
G75*
G02*
X141990000Y-91825000I0J-250000D01*
G01*
G37*
G36*
G01*
X141990000Y-90555000D02*
X141990000Y-91055000D01*
G75*
G02*
X141740000Y-91305000I-250000J0D01*
G01*
X139790000Y-91305000D01*
G75*
G02*
X139540000Y-91055000I0J250000D01*
G01*
X139540000Y-90555000D01*
G75*
G02*
X139790000Y-90305000I250000J0D01*
G01*
X141740000Y-90305000D01*
G75*
G02*
X141990000Y-90555000I0J-250000D01*
G01*
G37*
G36*
G01*
X141990000Y-89285000D02*
X141990000Y-89785000D01*
G75*
G02*
X141740000Y-90035000I-250000J0D01*
G01*
X139790000Y-90035000D01*
G75*
G02*
X139540000Y-89785000I0J250000D01*
G01*
X139540000Y-89285000D01*
G75*
G02*
X139790000Y-89035000I250000J0D01*
G01*
X141740000Y-89035000D01*
G75*
G02*
X141990000Y-89285000I0J-250000D01*
G01*
G37*
G36*
G01*
X141990000Y-88015000D02*
X141990000Y-88515000D01*
G75*
G02*
X141740000Y-88765000I-250000J0D01*
G01*
X139790000Y-88765000D01*
G75*
G02*
X139540000Y-88515000I0J250000D01*
G01*
X139540000Y-88015000D01*
G75*
G02*
X139790000Y-87765000I250000J0D01*
G01*
X141740000Y-87765000D01*
G75*
G02*
X141990000Y-88015000I0J-250000D01*
G01*
G37*
G36*
G01*
X141990000Y-86745000D02*
X141990000Y-87245000D01*
G75*
G02*
X141740000Y-87495000I-250000J0D01*
G01*
X139790000Y-87495000D01*
G75*
G02*
X139540000Y-87245000I0J250000D01*
G01*
X139540000Y-86745000D01*
G75*
G02*
X139790000Y-86495000I250000J0D01*
G01*
X141740000Y-86495000D01*
G75*
G02*
X141990000Y-86745000I0J-250000D01*
G01*
G37*
G36*
G01*
X141990000Y-85475000D02*
X141990000Y-85975000D01*
G75*
G02*
X141740000Y-86225000I-250000J0D01*
G01*
X139790000Y-86225000D01*
G75*
G02*
X139540000Y-85975000I0J250000D01*
G01*
X139540000Y-85475000D01*
G75*
G02*
X139790000Y-85225000I250000J0D01*
G01*
X141740000Y-85225000D01*
G75*
G02*
X141990000Y-85475000I0J-250000D01*
G01*
G37*
G36*
G01*
X141990000Y-84205000D02*
X141990000Y-84705000D01*
G75*
G02*
X141740000Y-84955000I-250000J0D01*
G01*
X139790000Y-84955000D01*
G75*
G02*
X139540000Y-84705000I0J250000D01*
G01*
X139540000Y-84205000D01*
G75*
G02*
X139790000Y-83955000I250000J0D01*
G01*
X141740000Y-83955000D01*
G75*
G02*
X141990000Y-84205000I0J-250000D01*
G01*
G37*
G36*
G01*
X151290000Y-84205000D02*
X151290000Y-84705000D01*
G75*
G02*
X151040000Y-84955000I-250000J0D01*
G01*
X149090000Y-84955000D01*
G75*
G02*
X148840000Y-84705000I0J250000D01*
G01*
X148840000Y-84205000D01*
G75*
G02*
X149090000Y-83955000I250000J0D01*
G01*
X151040000Y-83955000D01*
G75*
G02*
X151290000Y-84205000I0J-250000D01*
G01*
G37*
G36*
G01*
X151290000Y-85475000D02*
X151290000Y-85975000D01*
G75*
G02*
X151040000Y-86225000I-250000J0D01*
G01*
X149090000Y-86225000D01*
G75*
G02*
X148840000Y-85975000I0J250000D01*
G01*
X148840000Y-85475000D01*
G75*
G02*
X149090000Y-85225000I250000J0D01*
G01*
X151040000Y-85225000D01*
G75*
G02*
X151290000Y-85475000I0J-250000D01*
G01*
G37*
G36*
G01*
X151290000Y-86745000D02*
X151290000Y-87245000D01*
G75*
G02*
X151040000Y-87495000I-250000J0D01*
G01*
X149090000Y-87495000D01*
G75*
G02*
X148840000Y-87245000I0J250000D01*
G01*
X148840000Y-86745000D01*
G75*
G02*
X149090000Y-86495000I250000J0D01*
G01*
X151040000Y-86495000D01*
G75*
G02*
X151290000Y-86745000I0J-250000D01*
G01*
G37*
G36*
G01*
X151290000Y-88015000D02*
X151290000Y-88515000D01*
G75*
G02*
X151040000Y-88765000I-250000J0D01*
G01*
X149090000Y-88765000D01*
G75*
G02*
X148840000Y-88515000I0J250000D01*
G01*
X148840000Y-88015000D01*
G75*
G02*
X149090000Y-87765000I250000J0D01*
G01*
X151040000Y-87765000D01*
G75*
G02*
X151290000Y-88015000I0J-250000D01*
G01*
G37*
G36*
G01*
X151290000Y-89285000D02*
X151290000Y-89785000D01*
G75*
G02*
X151040000Y-90035000I-250000J0D01*
G01*
X149090000Y-90035000D01*
G75*
G02*
X148840000Y-89785000I0J250000D01*
G01*
X148840000Y-89285000D01*
G75*
G02*
X149090000Y-89035000I250000J0D01*
G01*
X151040000Y-89035000D01*
G75*
G02*
X151290000Y-89285000I0J-250000D01*
G01*
G37*
G36*
G01*
X151290000Y-90555000D02*
X151290000Y-91055000D01*
G75*
G02*
X151040000Y-91305000I-250000J0D01*
G01*
X149090000Y-91305000D01*
G75*
G02*
X148840000Y-91055000I0J250000D01*
G01*
X148840000Y-90555000D01*
G75*
G02*
X149090000Y-90305000I250000J0D01*
G01*
X151040000Y-90305000D01*
G75*
G02*
X151290000Y-90555000I0J-250000D01*
G01*
G37*
G36*
G01*
X151290000Y-91825000D02*
X151290000Y-92325000D01*
G75*
G02*
X151040000Y-92575000I-250000J0D01*
G01*
X149090000Y-92575000D01*
G75*
G02*
X148840000Y-92325000I0J250000D01*
G01*
X148840000Y-91825000D01*
G75*
G02*
X149090000Y-91575000I250000J0D01*
G01*
X151040000Y-91575000D01*
G75*
G02*
X151290000Y-91825000I0J-250000D01*
G01*
G37*
G36*
G01*
X151290000Y-93095000D02*
X151290000Y-93595000D01*
G75*
G02*
X151040000Y-93845000I-250000J0D01*
G01*
X149090000Y-93845000D01*
G75*
G02*
X148840000Y-93595000I0J250000D01*
G01*
X148840000Y-93095000D01*
G75*
G02*
X149090000Y-92845000I250000J0D01*
G01*
X151040000Y-92845000D01*
G75*
G02*
X151290000Y-93095000I0J-250000D01*
G01*
G37*
G36*
G01*
X151290000Y-94365000D02*
X151290000Y-94865000D01*
G75*
G02*
X151040000Y-95115000I-250000J0D01*
G01*
X149090000Y-95115000D01*
G75*
G02*
X148840000Y-94865000I0J250000D01*
G01*
X148840000Y-94365000D01*
G75*
G02*
X149090000Y-94115000I250000J0D01*
G01*
X151040000Y-94115000D01*
G75*
G02*
X151290000Y-94365000I0J-250000D01*
G01*
G37*
G36*
G01*
X151290000Y-95635000D02*
X151290000Y-96135000D01*
G75*
G02*
X151040000Y-96385000I-250000J0D01*
G01*
X149090000Y-96385000D01*
G75*
G02*
X148840000Y-96135000I0J250000D01*
G01*
X148840000Y-95635000D01*
G75*
G02*
X149090000Y-95385000I250000J0D01*
G01*
X151040000Y-95385000D01*
G75*
G02*
X151290000Y-95635000I0J-250000D01*
G01*
G37*
G36*
G01*
X151290000Y-96905000D02*
X151290000Y-97405000D01*
G75*
G02*
X151040000Y-97655000I-250000J0D01*
G01*
X149090000Y-97655000D01*
G75*
G02*
X148840000Y-97405000I0J250000D01*
G01*
X148840000Y-96905000D01*
G75*
G02*
X149090000Y-96655000I250000J0D01*
G01*
X151040000Y-96655000D01*
G75*
G02*
X151290000Y-96905000I0J-250000D01*
G01*
G37*
G36*
G01*
X151290000Y-98175000D02*
X151290000Y-98675000D01*
G75*
G02*
X151040000Y-98925000I-250000J0D01*
G01*
X149090000Y-98925000D01*
G75*
G02*
X148840000Y-98675000I0J250000D01*
G01*
X148840000Y-98175000D01*
G75*
G02*
X149090000Y-97925000I250000J0D01*
G01*
X151040000Y-97925000D01*
G75*
G02*
X151290000Y-98175000I0J-250000D01*
G01*
G37*
G36*
G01*
X151290000Y-99445000D02*
X151290000Y-99945000D01*
G75*
G02*
X151040000Y-100195000I-250000J0D01*
G01*
X149090000Y-100195000D01*
G75*
G02*
X148840000Y-99945000I0J250000D01*
G01*
X148840000Y-99445000D01*
G75*
G02*
X149090000Y-99195000I250000J0D01*
G01*
X151040000Y-99195000D01*
G75*
G02*
X151290000Y-99445000I0J-250000D01*
G01*
G37*
G36*
G01*
X151290000Y-100715000D02*
X151290000Y-101215000D01*
G75*
G02*
X151040000Y-101465000I-250000J0D01*
G01*
X149090000Y-101465000D01*
G75*
G02*
X148840000Y-101215000I0J250000D01*
G01*
X148840000Y-100715000D01*
G75*
G02*
X149090000Y-100465000I250000J0D01*
G01*
X151040000Y-100465000D01*
G75*
G02*
X151290000Y-100715000I0J-250000D01*
G01*
G37*
G36*
G01*
X98175000Y-91470000D02*
X98675000Y-91470000D01*
G75*
G02*
X98925000Y-91720000I0J-250000D01*
G01*
X98925000Y-93570000D01*
G75*
G02*
X98675000Y-93820000I-250000J0D01*
G01*
X98175000Y-93820000D01*
G75*
G02*
X97925000Y-93570000I0J250000D01*
G01*
X97925000Y-91720000D01*
G75*
G02*
X98175000Y-91470000I250000J0D01*
G01*
G37*
G36*
G01*
X96905000Y-91470000D02*
X97405000Y-91470000D01*
G75*
G02*
X97655000Y-91720000I0J-250000D01*
G01*
X97655000Y-93570000D01*
G75*
G02*
X97405000Y-93820000I-250000J0D01*
G01*
X96905000Y-93820000D01*
G75*
G02*
X96655000Y-93570000I0J250000D01*
G01*
X96655000Y-91720000D01*
G75*
G02*
X96905000Y-91470000I250000J0D01*
G01*
G37*
G36*
G01*
X95635000Y-91470000D02*
X96135000Y-91470000D01*
G75*
G02*
X96385000Y-91720000I0J-250000D01*
G01*
X96385000Y-93570000D01*
G75*
G02*
X96135000Y-93820000I-250000J0D01*
G01*
X95635000Y-93820000D01*
G75*
G02*
X95385000Y-93570000I0J250000D01*
G01*
X95385000Y-91720000D01*
G75*
G02*
X95635000Y-91470000I250000J0D01*
G01*
G37*
G36*
G01*
X94365000Y-91470000D02*
X94865000Y-91470000D01*
G75*
G02*
X95115000Y-91720000I0J-250000D01*
G01*
X95115000Y-93570000D01*
G75*
G02*
X94865000Y-93820000I-250000J0D01*
G01*
X94365000Y-93820000D01*
G75*
G02*
X94115000Y-93570000I0J250000D01*
G01*
X94115000Y-91720000D01*
G75*
G02*
X94365000Y-91470000I250000J0D01*
G01*
G37*
G36*
G01*
X93095000Y-91470000D02*
X93595000Y-91470000D01*
G75*
G02*
X93845000Y-91720000I0J-250000D01*
G01*
X93845000Y-93570000D01*
G75*
G02*
X93595000Y-93820000I-250000J0D01*
G01*
X93095000Y-93820000D01*
G75*
G02*
X92845000Y-93570000I0J250000D01*
G01*
X92845000Y-91720000D01*
G75*
G02*
X93095000Y-91470000I250000J0D01*
G01*
G37*
G36*
G01*
X91825000Y-91470000D02*
X92325000Y-91470000D01*
G75*
G02*
X92575000Y-91720000I0J-250000D01*
G01*
X92575000Y-93570000D01*
G75*
G02*
X92325000Y-93820000I-250000J0D01*
G01*
X91825000Y-93820000D01*
G75*
G02*
X91575000Y-93570000I0J250000D01*
G01*
X91575000Y-91720000D01*
G75*
G02*
X91825000Y-91470000I250000J0D01*
G01*
G37*
G36*
G01*
X90555000Y-91470000D02*
X91055000Y-91470000D01*
G75*
G02*
X91305000Y-91720000I0J-250000D01*
G01*
X91305000Y-93570000D01*
G75*
G02*
X91055000Y-93820000I-250000J0D01*
G01*
X90555000Y-93820000D01*
G75*
G02*
X90305000Y-93570000I0J250000D01*
G01*
X90305000Y-91720000D01*
G75*
G02*
X90555000Y-91470000I250000J0D01*
G01*
G37*
G36*
G01*
X90555000Y-86520000D02*
X91055000Y-86520000D01*
G75*
G02*
X91305000Y-86770000I0J-250000D01*
G01*
X91305000Y-88620000D01*
G75*
G02*
X91055000Y-88870000I-250000J0D01*
G01*
X90555000Y-88870000D01*
G75*
G02*
X90305000Y-88620000I0J250000D01*
G01*
X90305000Y-86770000D01*
G75*
G02*
X90555000Y-86520000I250000J0D01*
G01*
G37*
G36*
G01*
X91825000Y-86520000D02*
X92325000Y-86520000D01*
G75*
G02*
X92575000Y-86770000I0J-250000D01*
G01*
X92575000Y-88620000D01*
G75*
G02*
X92325000Y-88870000I-250000J0D01*
G01*
X91825000Y-88870000D01*
G75*
G02*
X91575000Y-88620000I0J250000D01*
G01*
X91575000Y-86770000D01*
G75*
G02*
X91825000Y-86520000I250000J0D01*
G01*
G37*
G36*
G01*
X93095000Y-86520000D02*
X93595000Y-86520000D01*
G75*
G02*
X93845000Y-86770000I0J-250000D01*
G01*
X93845000Y-88620000D01*
G75*
G02*
X93595000Y-88870000I-250000J0D01*
G01*
X93095000Y-88870000D01*
G75*
G02*
X92845000Y-88620000I0J250000D01*
G01*
X92845000Y-86770000D01*
G75*
G02*
X93095000Y-86520000I250000J0D01*
G01*
G37*
G36*
G01*
X94365000Y-86520000D02*
X94865000Y-86520000D01*
G75*
G02*
X95115000Y-86770000I0J-250000D01*
G01*
X95115000Y-88620000D01*
G75*
G02*
X94865000Y-88870000I-250000J0D01*
G01*
X94365000Y-88870000D01*
G75*
G02*
X94115000Y-88620000I0J250000D01*
G01*
X94115000Y-86770000D01*
G75*
G02*
X94365000Y-86520000I250000J0D01*
G01*
G37*
G36*
G01*
X95635000Y-86520000D02*
X96135000Y-86520000D01*
G75*
G02*
X96385000Y-86770000I0J-250000D01*
G01*
X96385000Y-88620000D01*
G75*
G02*
X96135000Y-88870000I-250000J0D01*
G01*
X95635000Y-88870000D01*
G75*
G02*
X95385000Y-88620000I0J250000D01*
G01*
X95385000Y-86770000D01*
G75*
G02*
X95635000Y-86520000I250000J0D01*
G01*
G37*
G36*
G01*
X96905000Y-86520000D02*
X97405000Y-86520000D01*
G75*
G02*
X97655000Y-86770000I0J-250000D01*
G01*
X97655000Y-88620000D01*
G75*
G02*
X97405000Y-88870000I-250000J0D01*
G01*
X96905000Y-88870000D01*
G75*
G02*
X96655000Y-88620000I0J250000D01*
G01*
X96655000Y-86770000D01*
G75*
G02*
X96905000Y-86520000I250000J0D01*
G01*
G37*
G36*
G01*
X98175000Y-86520000D02*
X98675000Y-86520000D01*
G75*
G02*
X98925000Y-86770000I0J-250000D01*
G01*
X98925000Y-88620000D01*
G75*
G02*
X98675000Y-88870000I-250000J0D01*
G01*
X98175000Y-88870000D01*
G75*
G02*
X97925000Y-88620000I0J250000D01*
G01*
X97925000Y-86770000D01*
G75*
G02*
X98175000Y-86520000I250000J0D01*
G01*
G37*
G36*
G01*
X124845000Y-91470000D02*
X125345000Y-91470000D01*
G75*
G02*
X125595000Y-91720000I0J-250000D01*
G01*
X125595000Y-93570000D01*
G75*
G02*
X125345000Y-93820000I-250000J0D01*
G01*
X124845000Y-93820000D01*
G75*
G02*
X124595000Y-93570000I0J250000D01*
G01*
X124595000Y-91720000D01*
G75*
G02*
X124845000Y-91470000I250000J0D01*
G01*
G37*
G36*
G01*
X123575000Y-91470000D02*
X124075000Y-91470000D01*
G75*
G02*
X124325000Y-91720000I0J-250000D01*
G01*
X124325000Y-93570000D01*
G75*
G02*
X124075000Y-93820000I-250000J0D01*
G01*
X123575000Y-93820000D01*
G75*
G02*
X123325000Y-93570000I0J250000D01*
G01*
X123325000Y-91720000D01*
G75*
G02*
X123575000Y-91470000I250000J0D01*
G01*
G37*
G36*
G01*
X122305000Y-91470000D02*
X122805000Y-91470000D01*
G75*
G02*
X123055000Y-91720000I0J-250000D01*
G01*
X123055000Y-93570000D01*
G75*
G02*
X122805000Y-93820000I-250000J0D01*
G01*
X122305000Y-93820000D01*
G75*
G02*
X122055000Y-93570000I0J250000D01*
G01*
X122055000Y-91720000D01*
G75*
G02*
X122305000Y-91470000I250000J0D01*
G01*
G37*
G36*
G01*
X121035000Y-91470000D02*
X121535000Y-91470000D01*
G75*
G02*
X121785000Y-91720000I0J-250000D01*
G01*
X121785000Y-93570000D01*
G75*
G02*
X121535000Y-93820000I-250000J0D01*
G01*
X121035000Y-93820000D01*
G75*
G02*
X120785000Y-93570000I0J250000D01*
G01*
X120785000Y-91720000D01*
G75*
G02*
X121035000Y-91470000I250000J0D01*
G01*
G37*
G36*
G01*
X119765000Y-91470000D02*
X120265000Y-91470000D01*
G75*
G02*
X120515000Y-91720000I0J-250000D01*
G01*
X120515000Y-93570000D01*
G75*
G02*
X120265000Y-93820000I-250000J0D01*
G01*
X119765000Y-93820000D01*
G75*
G02*
X119515000Y-93570000I0J250000D01*
G01*
X119515000Y-91720000D01*
G75*
G02*
X119765000Y-91470000I250000J0D01*
G01*
G37*
G36*
G01*
X118495000Y-91470000D02*
X118995000Y-91470000D01*
G75*
G02*
X119245000Y-91720000I0J-250000D01*
G01*
X119245000Y-93570000D01*
G75*
G02*
X118995000Y-93820000I-250000J0D01*
G01*
X118495000Y-93820000D01*
G75*
G02*
X118245000Y-93570000I0J250000D01*
G01*
X118245000Y-91720000D01*
G75*
G02*
X118495000Y-91470000I250000J0D01*
G01*
G37*
G36*
G01*
X117225000Y-91470000D02*
X117725000Y-91470000D01*
G75*
G02*
X117975000Y-91720000I0J-250000D01*
G01*
X117975000Y-93570000D01*
G75*
G02*
X117725000Y-93820000I-250000J0D01*
G01*
X117225000Y-93820000D01*
G75*
G02*
X116975000Y-93570000I0J250000D01*
G01*
X116975000Y-91720000D01*
G75*
G02*
X117225000Y-91470000I250000J0D01*
G01*
G37*
G36*
G01*
X117225000Y-86520000D02*
X117725000Y-86520000D01*
G75*
G02*
X117975000Y-86770000I0J-250000D01*
G01*
X117975000Y-88620000D01*
G75*
G02*
X117725000Y-88870000I-250000J0D01*
G01*
X117225000Y-88870000D01*
G75*
G02*
X116975000Y-88620000I0J250000D01*
G01*
X116975000Y-86770000D01*
G75*
G02*
X117225000Y-86520000I250000J0D01*
G01*
G37*
G36*
G01*
X118495000Y-86520000D02*
X118995000Y-86520000D01*
G75*
G02*
X119245000Y-86770000I0J-250000D01*
G01*
X119245000Y-88620000D01*
G75*
G02*
X118995000Y-88870000I-250000J0D01*
G01*
X118495000Y-88870000D01*
G75*
G02*
X118245000Y-88620000I0J250000D01*
G01*
X118245000Y-86770000D01*
G75*
G02*
X118495000Y-86520000I250000J0D01*
G01*
G37*
G36*
G01*
X119765000Y-86520000D02*
X120265000Y-86520000D01*
G75*
G02*
X120515000Y-86770000I0J-250000D01*
G01*
X120515000Y-88620000D01*
G75*
G02*
X120265000Y-88870000I-250000J0D01*
G01*
X119765000Y-88870000D01*
G75*
G02*
X119515000Y-88620000I0J250000D01*
G01*
X119515000Y-86770000D01*
G75*
G02*
X119765000Y-86520000I250000J0D01*
G01*
G37*
G36*
G01*
X121035000Y-86520000D02*
X121535000Y-86520000D01*
G75*
G02*
X121785000Y-86770000I0J-250000D01*
G01*
X121785000Y-88620000D01*
G75*
G02*
X121535000Y-88870000I-250000J0D01*
G01*
X121035000Y-88870000D01*
G75*
G02*
X120785000Y-88620000I0J250000D01*
G01*
X120785000Y-86770000D01*
G75*
G02*
X121035000Y-86520000I250000J0D01*
G01*
G37*
G36*
G01*
X122305000Y-86520000D02*
X122805000Y-86520000D01*
G75*
G02*
X123055000Y-86770000I0J-250000D01*
G01*
X123055000Y-88620000D01*
G75*
G02*
X122805000Y-88870000I-250000J0D01*
G01*
X122305000Y-88870000D01*
G75*
G02*
X122055000Y-88620000I0J250000D01*
G01*
X122055000Y-86770000D01*
G75*
G02*
X122305000Y-86520000I250000J0D01*
G01*
G37*
G36*
G01*
X123575000Y-86520000D02*
X124075000Y-86520000D01*
G75*
G02*
X124325000Y-86770000I0J-250000D01*
G01*
X124325000Y-88620000D01*
G75*
G02*
X124075000Y-88870000I-250000J0D01*
G01*
X123575000Y-88870000D01*
G75*
G02*
X123325000Y-88620000I0J250000D01*
G01*
X123325000Y-86770000D01*
G75*
G02*
X123575000Y-86520000I250000J0D01*
G01*
G37*
G36*
G01*
X124845000Y-86520000D02*
X125345000Y-86520000D01*
G75*
G02*
X125595000Y-86770000I0J-250000D01*
G01*
X125595000Y-88620000D01*
G75*
G02*
X125345000Y-88870000I-250000J0D01*
G01*
X124845000Y-88870000D01*
G75*
G02*
X124595000Y-88620000I0J250000D01*
G01*
X124595000Y-86770000D01*
G75*
G02*
X124845000Y-86520000I250000J0D01*
G01*
G37*
G36*
G01*
X111510000Y-91470000D02*
X112010000Y-91470000D01*
G75*
G02*
X112260000Y-91720000I0J-250000D01*
G01*
X112260000Y-93570000D01*
G75*
G02*
X112010000Y-93820000I-250000J0D01*
G01*
X111510000Y-93820000D01*
G75*
G02*
X111260000Y-93570000I0J250000D01*
G01*
X111260000Y-91720000D01*
G75*
G02*
X111510000Y-91470000I250000J0D01*
G01*
G37*
G36*
G01*
X110240000Y-91470000D02*
X110740000Y-91470000D01*
G75*
G02*
X110990000Y-91720000I0J-250000D01*
G01*
X110990000Y-93570000D01*
G75*
G02*
X110740000Y-93820000I-250000J0D01*
G01*
X110240000Y-93820000D01*
G75*
G02*
X109990000Y-93570000I0J250000D01*
G01*
X109990000Y-91720000D01*
G75*
G02*
X110240000Y-91470000I250000J0D01*
G01*
G37*
G36*
G01*
X108970000Y-91470000D02*
X109470000Y-91470000D01*
G75*
G02*
X109720000Y-91720000I0J-250000D01*
G01*
X109720000Y-93570000D01*
G75*
G02*
X109470000Y-93820000I-250000J0D01*
G01*
X108970000Y-93820000D01*
G75*
G02*
X108720000Y-93570000I0J250000D01*
G01*
X108720000Y-91720000D01*
G75*
G02*
X108970000Y-91470000I250000J0D01*
G01*
G37*
G36*
G01*
X107700000Y-91470000D02*
X108200000Y-91470000D01*
G75*
G02*
X108450000Y-91720000I0J-250000D01*
G01*
X108450000Y-93570000D01*
G75*
G02*
X108200000Y-93820000I-250000J0D01*
G01*
X107700000Y-93820000D01*
G75*
G02*
X107450000Y-93570000I0J250000D01*
G01*
X107450000Y-91720000D01*
G75*
G02*
X107700000Y-91470000I250000J0D01*
G01*
G37*
G36*
G01*
X106430000Y-91470000D02*
X106930000Y-91470000D01*
G75*
G02*
X107180000Y-91720000I0J-250000D01*
G01*
X107180000Y-93570000D01*
G75*
G02*
X106930000Y-93820000I-250000J0D01*
G01*
X106430000Y-93820000D01*
G75*
G02*
X106180000Y-93570000I0J250000D01*
G01*
X106180000Y-91720000D01*
G75*
G02*
X106430000Y-91470000I250000J0D01*
G01*
G37*
G36*
G01*
X105160000Y-91470000D02*
X105660000Y-91470000D01*
G75*
G02*
X105910000Y-91720000I0J-250000D01*
G01*
X105910000Y-93570000D01*
G75*
G02*
X105660000Y-93820000I-250000J0D01*
G01*
X105160000Y-93820000D01*
G75*
G02*
X104910000Y-93570000I0J250000D01*
G01*
X104910000Y-91720000D01*
G75*
G02*
X105160000Y-91470000I250000J0D01*
G01*
G37*
G36*
G01*
X103890000Y-91470000D02*
X104390000Y-91470000D01*
G75*
G02*
X104640000Y-91720000I0J-250000D01*
G01*
X104640000Y-93570000D01*
G75*
G02*
X104390000Y-93820000I-250000J0D01*
G01*
X103890000Y-93820000D01*
G75*
G02*
X103640000Y-93570000I0J250000D01*
G01*
X103640000Y-91720000D01*
G75*
G02*
X103890000Y-91470000I250000J0D01*
G01*
G37*
G36*
G01*
X103890000Y-86520000D02*
X104390000Y-86520000D01*
G75*
G02*
X104640000Y-86770000I0J-250000D01*
G01*
X104640000Y-88620000D01*
G75*
G02*
X104390000Y-88870000I-250000J0D01*
G01*
X103890000Y-88870000D01*
G75*
G02*
X103640000Y-88620000I0J250000D01*
G01*
X103640000Y-86770000D01*
G75*
G02*
X103890000Y-86520000I250000J0D01*
G01*
G37*
G36*
G01*
X105160000Y-86520000D02*
X105660000Y-86520000D01*
G75*
G02*
X105910000Y-86770000I0J-250000D01*
G01*
X105910000Y-88620000D01*
G75*
G02*
X105660000Y-88870000I-250000J0D01*
G01*
X105160000Y-88870000D01*
G75*
G02*
X104910000Y-88620000I0J250000D01*
G01*
X104910000Y-86770000D01*
G75*
G02*
X105160000Y-86520000I250000J0D01*
G01*
G37*
G36*
G01*
X106430000Y-86520000D02*
X106930000Y-86520000D01*
G75*
G02*
X107180000Y-86770000I0J-250000D01*
G01*
X107180000Y-88620000D01*
G75*
G02*
X106930000Y-88870000I-250000J0D01*
G01*
X106430000Y-88870000D01*
G75*
G02*
X106180000Y-88620000I0J250000D01*
G01*
X106180000Y-86770000D01*
G75*
G02*
X106430000Y-86520000I250000J0D01*
G01*
G37*
G36*
G01*
X107700000Y-86520000D02*
X108200000Y-86520000D01*
G75*
G02*
X108450000Y-86770000I0J-250000D01*
G01*
X108450000Y-88620000D01*
G75*
G02*
X108200000Y-88870000I-250000J0D01*
G01*
X107700000Y-88870000D01*
G75*
G02*
X107450000Y-88620000I0J250000D01*
G01*
X107450000Y-86770000D01*
G75*
G02*
X107700000Y-86520000I250000J0D01*
G01*
G37*
G36*
G01*
X108970000Y-86520000D02*
X109470000Y-86520000D01*
G75*
G02*
X109720000Y-86770000I0J-250000D01*
G01*
X109720000Y-88620000D01*
G75*
G02*
X109470000Y-88870000I-250000J0D01*
G01*
X108970000Y-88870000D01*
G75*
G02*
X108720000Y-88620000I0J250000D01*
G01*
X108720000Y-86770000D01*
G75*
G02*
X108970000Y-86520000I250000J0D01*
G01*
G37*
G36*
G01*
X110240000Y-86520000D02*
X110740000Y-86520000D01*
G75*
G02*
X110990000Y-86770000I0J-250000D01*
G01*
X110990000Y-88620000D01*
G75*
G02*
X110740000Y-88870000I-250000J0D01*
G01*
X110240000Y-88870000D01*
G75*
G02*
X109990000Y-88620000I0J250000D01*
G01*
X109990000Y-86770000D01*
G75*
G02*
X110240000Y-86520000I250000J0D01*
G01*
G37*
G36*
G01*
X111510000Y-86520000D02*
X112010000Y-86520000D01*
G75*
G02*
X112260000Y-86770000I0J-250000D01*
G01*
X112260000Y-88620000D01*
G75*
G02*
X112010000Y-88870000I-250000J0D01*
G01*
X111510000Y-88870000D01*
G75*
G02*
X111260000Y-88620000I0J250000D01*
G01*
X111260000Y-86770000D01*
G75*
G02*
X111510000Y-86520000I250000J0D01*
G01*
G37*
G36*
G01*
X84840000Y-91470000D02*
X85340000Y-91470000D01*
G75*
G02*
X85590000Y-91720000I0J-250000D01*
G01*
X85590000Y-93570000D01*
G75*
G02*
X85340000Y-93820000I-250000J0D01*
G01*
X84840000Y-93820000D01*
G75*
G02*
X84590000Y-93570000I0J250000D01*
G01*
X84590000Y-91720000D01*
G75*
G02*
X84840000Y-91470000I250000J0D01*
G01*
G37*
G36*
G01*
X83570000Y-91470000D02*
X84070000Y-91470000D01*
G75*
G02*
X84320000Y-91720000I0J-250000D01*
G01*
X84320000Y-93570000D01*
G75*
G02*
X84070000Y-93820000I-250000J0D01*
G01*
X83570000Y-93820000D01*
G75*
G02*
X83320000Y-93570000I0J250000D01*
G01*
X83320000Y-91720000D01*
G75*
G02*
X83570000Y-91470000I250000J0D01*
G01*
G37*
G36*
G01*
X82300000Y-91470000D02*
X82800000Y-91470000D01*
G75*
G02*
X83050000Y-91720000I0J-250000D01*
G01*
X83050000Y-93570000D01*
G75*
G02*
X82800000Y-93820000I-250000J0D01*
G01*
X82300000Y-93820000D01*
G75*
G02*
X82050000Y-93570000I0J250000D01*
G01*
X82050000Y-91720000D01*
G75*
G02*
X82300000Y-91470000I250000J0D01*
G01*
G37*
G36*
G01*
X81030000Y-91470000D02*
X81530000Y-91470000D01*
G75*
G02*
X81780000Y-91720000I0J-250000D01*
G01*
X81780000Y-93570000D01*
G75*
G02*
X81530000Y-93820000I-250000J0D01*
G01*
X81030000Y-93820000D01*
G75*
G02*
X80780000Y-93570000I0J250000D01*
G01*
X80780000Y-91720000D01*
G75*
G02*
X81030000Y-91470000I250000J0D01*
G01*
G37*
G36*
G01*
X79760000Y-91470000D02*
X80260000Y-91470000D01*
G75*
G02*
X80510000Y-91720000I0J-250000D01*
G01*
X80510000Y-93570000D01*
G75*
G02*
X80260000Y-93820000I-250000J0D01*
G01*
X79760000Y-93820000D01*
G75*
G02*
X79510000Y-93570000I0J250000D01*
G01*
X79510000Y-91720000D01*
G75*
G02*
X79760000Y-91470000I250000J0D01*
G01*
G37*
G36*
G01*
X78490000Y-91470000D02*
X78990000Y-91470000D01*
G75*
G02*
X79240000Y-91720000I0J-250000D01*
G01*
X79240000Y-93570000D01*
G75*
G02*
X78990000Y-93820000I-250000J0D01*
G01*
X78490000Y-93820000D01*
G75*
G02*
X78240000Y-93570000I0J250000D01*
G01*
X78240000Y-91720000D01*
G75*
G02*
X78490000Y-91470000I250000J0D01*
G01*
G37*
G36*
G01*
X77220000Y-91470000D02*
X77720000Y-91470000D01*
G75*
G02*
X77970000Y-91720000I0J-250000D01*
G01*
X77970000Y-93570000D01*
G75*
G02*
X77720000Y-93820000I-250000J0D01*
G01*
X77220000Y-93820000D01*
G75*
G02*
X76970000Y-93570000I0J250000D01*
G01*
X76970000Y-91720000D01*
G75*
G02*
X77220000Y-91470000I250000J0D01*
G01*
G37*
G36*
G01*
X77220000Y-86520000D02*
X77720000Y-86520000D01*
G75*
G02*
X77970000Y-86770000I0J-250000D01*
G01*
X77970000Y-88620000D01*
G75*
G02*
X77720000Y-88870000I-250000J0D01*
G01*
X77220000Y-88870000D01*
G75*
G02*
X76970000Y-88620000I0J250000D01*
G01*
X76970000Y-86770000D01*
G75*
G02*
X77220000Y-86520000I250000J0D01*
G01*
G37*
G36*
G01*
X78490000Y-86520000D02*
X78990000Y-86520000D01*
G75*
G02*
X79240000Y-86770000I0J-250000D01*
G01*
X79240000Y-88620000D01*
G75*
G02*
X78990000Y-88870000I-250000J0D01*
G01*
X78490000Y-88870000D01*
G75*
G02*
X78240000Y-88620000I0J250000D01*
G01*
X78240000Y-86770000D01*
G75*
G02*
X78490000Y-86520000I250000J0D01*
G01*
G37*
G36*
G01*
X79760000Y-86520000D02*
X80260000Y-86520000D01*
G75*
G02*
X80510000Y-86770000I0J-250000D01*
G01*
X80510000Y-88620000D01*
G75*
G02*
X80260000Y-88870000I-250000J0D01*
G01*
X79760000Y-88870000D01*
G75*
G02*
X79510000Y-88620000I0J250000D01*
G01*
X79510000Y-86770000D01*
G75*
G02*
X79760000Y-86520000I250000J0D01*
G01*
G37*
G36*
G01*
X81030000Y-86520000D02*
X81530000Y-86520000D01*
G75*
G02*
X81780000Y-86770000I0J-250000D01*
G01*
X81780000Y-88620000D01*
G75*
G02*
X81530000Y-88870000I-250000J0D01*
G01*
X81030000Y-88870000D01*
G75*
G02*
X80780000Y-88620000I0J250000D01*
G01*
X80780000Y-86770000D01*
G75*
G02*
X81030000Y-86520000I250000J0D01*
G01*
G37*
G36*
G01*
X82300000Y-86520000D02*
X82800000Y-86520000D01*
G75*
G02*
X83050000Y-86770000I0J-250000D01*
G01*
X83050000Y-88620000D01*
G75*
G02*
X82800000Y-88870000I-250000J0D01*
G01*
X82300000Y-88870000D01*
G75*
G02*
X82050000Y-88620000I0J250000D01*
G01*
X82050000Y-86770000D01*
G75*
G02*
X82300000Y-86520000I250000J0D01*
G01*
G37*
G36*
G01*
X83570000Y-86520000D02*
X84070000Y-86520000D01*
G75*
G02*
X84320000Y-86770000I0J-250000D01*
G01*
X84320000Y-88620000D01*
G75*
G02*
X84070000Y-88870000I-250000J0D01*
G01*
X83570000Y-88870000D01*
G75*
G02*
X83320000Y-88620000I0J250000D01*
G01*
X83320000Y-86770000D01*
G75*
G02*
X83570000Y-86520000I250000J0D01*
G01*
G37*
G36*
G01*
X84840000Y-86520000D02*
X85340000Y-86520000D01*
G75*
G02*
X85590000Y-86770000I0J-250000D01*
G01*
X85590000Y-88620000D01*
G75*
G02*
X85340000Y-88870000I-250000J0D01*
G01*
X84840000Y-88870000D01*
G75*
G02*
X84590000Y-88620000I0J250000D01*
G01*
X84590000Y-86770000D01*
G75*
G02*
X84840000Y-86520000I250000J0D01*
G01*
G37*
G36*
G01*
X98175000Y-103535000D02*
X98675000Y-103535000D01*
G75*
G02*
X98925000Y-103785000I0J-250000D01*
G01*
X98925000Y-105635000D01*
G75*
G02*
X98675000Y-105885000I-250000J0D01*
G01*
X98175000Y-105885000D01*
G75*
G02*
X97925000Y-105635000I0J250000D01*
G01*
X97925000Y-103785000D01*
G75*
G02*
X98175000Y-103535000I250000J0D01*
G01*
G37*
G36*
G01*
X96905000Y-103535000D02*
X97405000Y-103535000D01*
G75*
G02*
X97655000Y-103785000I0J-250000D01*
G01*
X97655000Y-105635000D01*
G75*
G02*
X97405000Y-105885000I-250000J0D01*
G01*
X96905000Y-105885000D01*
G75*
G02*
X96655000Y-105635000I0J250000D01*
G01*
X96655000Y-103785000D01*
G75*
G02*
X96905000Y-103535000I250000J0D01*
G01*
G37*
G36*
G01*
X95635000Y-103535000D02*
X96135000Y-103535000D01*
G75*
G02*
X96385000Y-103785000I0J-250000D01*
G01*
X96385000Y-105635000D01*
G75*
G02*
X96135000Y-105885000I-250000J0D01*
G01*
X95635000Y-105885000D01*
G75*
G02*
X95385000Y-105635000I0J250000D01*
G01*
X95385000Y-103785000D01*
G75*
G02*
X95635000Y-103535000I250000J0D01*
G01*
G37*
G36*
G01*
X94365000Y-103535000D02*
X94865000Y-103535000D01*
G75*
G02*
X95115000Y-103785000I0J-250000D01*
G01*
X95115000Y-105635000D01*
G75*
G02*
X94865000Y-105885000I-250000J0D01*
G01*
X94365000Y-105885000D01*
G75*
G02*
X94115000Y-105635000I0J250000D01*
G01*
X94115000Y-103785000D01*
G75*
G02*
X94365000Y-103535000I250000J0D01*
G01*
G37*
G36*
G01*
X93095000Y-103535000D02*
X93595000Y-103535000D01*
G75*
G02*
X93845000Y-103785000I0J-250000D01*
G01*
X93845000Y-105635000D01*
G75*
G02*
X93595000Y-105885000I-250000J0D01*
G01*
X93095000Y-105885000D01*
G75*
G02*
X92845000Y-105635000I0J250000D01*
G01*
X92845000Y-103785000D01*
G75*
G02*
X93095000Y-103535000I250000J0D01*
G01*
G37*
G36*
G01*
X91825000Y-103535000D02*
X92325000Y-103535000D01*
G75*
G02*
X92575000Y-103785000I0J-250000D01*
G01*
X92575000Y-105635000D01*
G75*
G02*
X92325000Y-105885000I-250000J0D01*
G01*
X91825000Y-105885000D01*
G75*
G02*
X91575000Y-105635000I0J250000D01*
G01*
X91575000Y-103785000D01*
G75*
G02*
X91825000Y-103535000I250000J0D01*
G01*
G37*
G36*
G01*
X90555000Y-103535000D02*
X91055000Y-103535000D01*
G75*
G02*
X91305000Y-103785000I0J-250000D01*
G01*
X91305000Y-105635000D01*
G75*
G02*
X91055000Y-105885000I-250000J0D01*
G01*
X90555000Y-105885000D01*
G75*
G02*
X90305000Y-105635000I0J250000D01*
G01*
X90305000Y-103785000D01*
G75*
G02*
X90555000Y-103535000I250000J0D01*
G01*
G37*
G36*
G01*
X90555000Y-98585000D02*
X91055000Y-98585000D01*
G75*
G02*
X91305000Y-98835000I0J-250000D01*
G01*
X91305000Y-100685000D01*
G75*
G02*
X91055000Y-100935000I-250000J0D01*
G01*
X90555000Y-100935000D01*
G75*
G02*
X90305000Y-100685000I0J250000D01*
G01*
X90305000Y-98835000D01*
G75*
G02*
X90555000Y-98585000I250000J0D01*
G01*
G37*
G36*
G01*
X91825000Y-98585000D02*
X92325000Y-98585000D01*
G75*
G02*
X92575000Y-98835000I0J-250000D01*
G01*
X92575000Y-100685000D01*
G75*
G02*
X92325000Y-100935000I-250000J0D01*
G01*
X91825000Y-100935000D01*
G75*
G02*
X91575000Y-100685000I0J250000D01*
G01*
X91575000Y-98835000D01*
G75*
G02*
X91825000Y-98585000I250000J0D01*
G01*
G37*
G36*
G01*
X93095000Y-98585000D02*
X93595000Y-98585000D01*
G75*
G02*
X93845000Y-98835000I0J-250000D01*
G01*
X93845000Y-100685000D01*
G75*
G02*
X93595000Y-100935000I-250000J0D01*
G01*
X93095000Y-100935000D01*
G75*
G02*
X92845000Y-100685000I0J250000D01*
G01*
X92845000Y-98835000D01*
G75*
G02*
X93095000Y-98585000I250000J0D01*
G01*
G37*
G36*
G01*
X94365000Y-98585000D02*
X94865000Y-98585000D01*
G75*
G02*
X95115000Y-98835000I0J-250000D01*
G01*
X95115000Y-100685000D01*
G75*
G02*
X94865000Y-100935000I-250000J0D01*
G01*
X94365000Y-100935000D01*
G75*
G02*
X94115000Y-100685000I0J250000D01*
G01*
X94115000Y-98835000D01*
G75*
G02*
X94365000Y-98585000I250000J0D01*
G01*
G37*
G36*
G01*
X95635000Y-98585000D02*
X96135000Y-98585000D01*
G75*
G02*
X96385000Y-98835000I0J-250000D01*
G01*
X96385000Y-100685000D01*
G75*
G02*
X96135000Y-100935000I-250000J0D01*
G01*
X95635000Y-100935000D01*
G75*
G02*
X95385000Y-100685000I0J250000D01*
G01*
X95385000Y-98835000D01*
G75*
G02*
X95635000Y-98585000I250000J0D01*
G01*
G37*
G36*
G01*
X96905000Y-98585000D02*
X97405000Y-98585000D01*
G75*
G02*
X97655000Y-98835000I0J-250000D01*
G01*
X97655000Y-100685000D01*
G75*
G02*
X97405000Y-100935000I-250000J0D01*
G01*
X96905000Y-100935000D01*
G75*
G02*
X96655000Y-100685000I0J250000D01*
G01*
X96655000Y-98835000D01*
G75*
G02*
X96905000Y-98585000I250000J0D01*
G01*
G37*
G36*
G01*
X98175000Y-98585000D02*
X98675000Y-98585000D01*
G75*
G02*
X98925000Y-98835000I0J-250000D01*
G01*
X98925000Y-100685000D01*
G75*
G02*
X98675000Y-100935000I-250000J0D01*
G01*
X98175000Y-100935000D01*
G75*
G02*
X97925000Y-100685000I0J250000D01*
G01*
X97925000Y-98835000D01*
G75*
G02*
X98175000Y-98585000I250000J0D01*
G01*
G37*
D30*
X116285000Y-116555000D03*
X116285000Y-117355000D03*
X116285000Y-118155000D03*
X116285000Y-118955000D03*
X116285000Y-119755000D03*
X116285000Y-120555000D03*
X116285000Y-121355000D03*
X116285000Y-122155000D03*
X116285000Y-122955000D03*
X116285000Y-123755000D03*
X116285000Y-124555000D03*
X116285000Y-125355000D03*
X116285000Y-126155000D03*
X116285000Y-126955000D03*
X116285000Y-127755000D03*
X116285000Y-128555000D03*
D31*
X114585000Y-130255000D03*
X113785000Y-130255000D03*
X112985000Y-130255000D03*
X112185000Y-130255000D03*
X111385000Y-130255000D03*
X110585000Y-130255000D03*
X109785000Y-130255000D03*
X108985000Y-130255000D03*
X108185000Y-130255000D03*
X107385000Y-130255000D03*
X106585000Y-130255000D03*
X105785000Y-130255000D03*
X104985000Y-130255000D03*
X104185000Y-130255000D03*
X103385000Y-130255000D03*
X102585000Y-130255000D03*
D30*
X100885000Y-128555000D03*
X100885000Y-127755000D03*
X100885000Y-126955000D03*
X100885000Y-126155000D03*
X100885000Y-125355000D03*
X100885000Y-124555000D03*
X100885000Y-123755000D03*
X100885000Y-122955000D03*
X100885000Y-122155000D03*
X100885000Y-121355000D03*
X100885000Y-120555000D03*
X100885000Y-119755000D03*
X100885000Y-118955000D03*
X100885000Y-118155000D03*
X100885000Y-117355000D03*
X100885000Y-116555000D03*
D31*
X102585000Y-114855000D03*
X103385000Y-114855000D03*
X104185000Y-114855000D03*
X104985000Y-114855000D03*
X105785000Y-114855000D03*
X106585000Y-114855000D03*
X107385000Y-114855000D03*
X108185000Y-114855000D03*
X108985000Y-114855000D03*
X109785000Y-114855000D03*
X110585000Y-114855000D03*
X111385000Y-114855000D03*
X112185000Y-114855000D03*
X112985000Y-114855000D03*
X113785000Y-114855000D03*
X114585000Y-114855000D03*
D22*
X74295000Y-93980000D03*
X106045000Y-133985000D03*
D32*
X107950000Y-78740000D03*
X110490000Y-78740000D03*
X113030000Y-78740000D03*
X115570000Y-78740000D03*
X118110000Y-78740000D03*
X120650000Y-78740000D03*
X123190000Y-78740000D03*
X125730000Y-78740000D03*
X128270000Y-78740000D03*
D33*
X130810000Y-78740000D03*
D32*
X101600000Y-78740000D03*
X99060000Y-78740000D03*
X96520000Y-78740000D03*
X93980000Y-78740000D03*
X91440000Y-78740000D03*
X88900000Y-78740000D03*
X86360000Y-78740000D03*
X83820000Y-78740000D03*
X81280000Y-78740000D03*
D33*
X78740000Y-78740000D03*
G36*
G01*
X72330000Y-79494824D02*
X72330000Y-77985176D01*
G75*
G02*
X72650176Y-77665000I320176J0D01*
G01*
X73834824Y-77665000D01*
G75*
G02*
X74155000Y-77985176I0J-320176D01*
G01*
X74155000Y-79494824D01*
G75*
G02*
X73834824Y-79815000I-320176J0D01*
G01*
X72650176Y-79815000D01*
G75*
G02*
X72330000Y-79494824I0J320176D01*
G01*
G37*
G36*
G01*
X69355000Y-79494824D02*
X69355000Y-77985176D01*
G75*
G02*
X69675176Y-77665000I320176J0D01*
G01*
X70859824Y-77665000D01*
G75*
G02*
X71180000Y-77985176I0J-320176D01*
G01*
X71180000Y-79494824D01*
G75*
G02*
X70859824Y-79815000I-320176J0D01*
G01*
X69675176Y-79815000D01*
G75*
G02*
X69355000Y-79494824I0J320176D01*
G01*
G37*
G36*
G01*
X102620000Y-137238750D02*
X102620000Y-138351250D01*
G75*
G02*
X102276250Y-138695000I-343750J0D01*
G01*
X101588750Y-138695000D01*
G75*
G02*
X101245000Y-138351250I0J343750D01*
G01*
X101245000Y-137238750D01*
G75*
G02*
X101588750Y-136895000I343750J0D01*
G01*
X102276250Y-136895000D01*
G75*
G02*
X102620000Y-137238750I0J-343750D01*
G01*
G37*
G36*
G01*
X104495000Y-137238750D02*
X104495000Y-138351250D01*
G75*
G02*
X104151250Y-138695000I-343750J0D01*
G01*
X103463750Y-138695000D01*
G75*
G02*
X103120000Y-138351250I0J343750D01*
G01*
X103120000Y-137238750D01*
G75*
G02*
X103463750Y-136895000I343750J0D01*
G01*
X104151250Y-136895000D01*
G75*
G02*
X104495000Y-137238750I0J-343750D01*
G01*
G37*
G36*
G01*
X73738750Y-83435000D02*
X74851250Y-83435000D01*
G75*
G02*
X75195000Y-83778750I0J-343750D01*
G01*
X75195000Y-84466250D01*
G75*
G02*
X74851250Y-84810000I-343750J0D01*
G01*
X73738750Y-84810000D01*
G75*
G02*
X73395000Y-84466250I0J343750D01*
G01*
X73395000Y-83778750D01*
G75*
G02*
X73738750Y-83435000I343750J0D01*
G01*
G37*
G36*
G01*
X73738750Y-81560000D02*
X74851250Y-81560000D01*
G75*
G02*
X75195000Y-81903750I0J-343750D01*
G01*
X75195000Y-82591250D01*
G75*
G02*
X74851250Y-82935000I-343750J0D01*
G01*
X73738750Y-82935000D01*
G75*
G02*
X73395000Y-82591250I0J343750D01*
G01*
X73395000Y-81903750D01*
G75*
G02*
X73738750Y-81560000I343750J0D01*
G01*
G37*
D34*
X69850000Y-83185000D03*
X69850000Y-87485000D03*
G36*
G01*
X79653750Y-83335000D02*
X80366250Y-83335000D01*
G75*
G02*
X80685000Y-83653750I0J-318750D01*
G01*
X80685000Y-84291250D01*
G75*
G02*
X80366250Y-84610000I-318750J0D01*
G01*
X79653750Y-84610000D01*
G75*
G02*
X79335000Y-84291250I0J318750D01*
G01*
X79335000Y-83653750D01*
G75*
G02*
X79653750Y-83335000I318750J0D01*
G01*
G37*
G36*
G01*
X79653750Y-81760000D02*
X80366250Y-81760000D01*
G75*
G02*
X80685000Y-82078750I0J-318750D01*
G01*
X80685000Y-82716250D01*
G75*
G02*
X80366250Y-83035000I-318750J0D01*
G01*
X79653750Y-83035000D01*
G75*
G02*
X79335000Y-82716250I0J318750D01*
G01*
X79335000Y-82078750D01*
G75*
G02*
X79653750Y-81760000I318750J0D01*
G01*
G37*
G36*
G01*
X81558750Y-83335000D02*
X82271250Y-83335000D01*
G75*
G02*
X82590000Y-83653750I0J-318750D01*
G01*
X82590000Y-84291250D01*
G75*
G02*
X82271250Y-84610000I-318750J0D01*
G01*
X81558750Y-84610000D01*
G75*
G02*
X81240000Y-84291250I0J318750D01*
G01*
X81240000Y-83653750D01*
G75*
G02*
X81558750Y-83335000I318750J0D01*
G01*
G37*
G36*
G01*
X81558750Y-81760000D02*
X82271250Y-81760000D01*
G75*
G02*
X82590000Y-82078750I0J-318750D01*
G01*
X82590000Y-82716250D01*
G75*
G02*
X82271250Y-83035000I-318750J0D01*
G01*
X81558750Y-83035000D01*
G75*
G02*
X81240000Y-82716250I0J318750D01*
G01*
X81240000Y-82078750D01*
G75*
G02*
X81558750Y-81760000I318750J0D01*
G01*
G37*
G36*
G01*
X86003750Y-83335000D02*
X86716250Y-83335000D01*
G75*
G02*
X87035000Y-83653750I0J-318750D01*
G01*
X87035000Y-84291250D01*
G75*
G02*
X86716250Y-84610000I-318750J0D01*
G01*
X86003750Y-84610000D01*
G75*
G02*
X85685000Y-84291250I0J318750D01*
G01*
X85685000Y-83653750D01*
G75*
G02*
X86003750Y-83335000I318750J0D01*
G01*
G37*
G36*
G01*
X86003750Y-81760000D02*
X86716250Y-81760000D01*
G75*
G02*
X87035000Y-82078750I0J-318750D01*
G01*
X87035000Y-82716250D01*
G75*
G02*
X86716250Y-83035000I-318750J0D01*
G01*
X86003750Y-83035000D01*
G75*
G02*
X85685000Y-82716250I0J318750D01*
G01*
X85685000Y-82078750D01*
G75*
G02*
X86003750Y-81760000I318750J0D01*
G01*
G37*
G36*
G01*
X87908750Y-83335000D02*
X88621250Y-83335000D01*
G75*
G02*
X88940000Y-83653750I0J-318750D01*
G01*
X88940000Y-84291250D01*
G75*
G02*
X88621250Y-84610000I-318750J0D01*
G01*
X87908750Y-84610000D01*
G75*
G02*
X87590000Y-84291250I0J318750D01*
G01*
X87590000Y-83653750D01*
G75*
G02*
X87908750Y-83335000I318750J0D01*
G01*
G37*
G36*
G01*
X87908750Y-81760000D02*
X88621250Y-81760000D01*
G75*
G02*
X88940000Y-82078750I0J-318750D01*
G01*
X88940000Y-82716250D01*
G75*
G02*
X88621250Y-83035000I-318750J0D01*
G01*
X87908750Y-83035000D01*
G75*
G02*
X87590000Y-82716250I0J318750D01*
G01*
X87590000Y-82078750D01*
G75*
G02*
X87908750Y-81760000I318750J0D01*
G01*
G37*
G36*
G01*
X91083750Y-83335000D02*
X91796250Y-83335000D01*
G75*
G02*
X92115000Y-83653750I0J-318750D01*
G01*
X92115000Y-84291250D01*
G75*
G02*
X91796250Y-84610000I-318750J0D01*
G01*
X91083750Y-84610000D01*
G75*
G02*
X90765000Y-84291250I0J318750D01*
G01*
X90765000Y-83653750D01*
G75*
G02*
X91083750Y-83335000I318750J0D01*
G01*
G37*
G36*
G01*
X91083750Y-81760000D02*
X91796250Y-81760000D01*
G75*
G02*
X92115000Y-82078750I0J-318750D01*
G01*
X92115000Y-82716250D01*
G75*
G02*
X91796250Y-83035000I-318750J0D01*
G01*
X91083750Y-83035000D01*
G75*
G02*
X90765000Y-82716250I0J318750D01*
G01*
X90765000Y-82078750D01*
G75*
G02*
X91083750Y-81760000I318750J0D01*
G01*
G37*
G36*
G01*
X95528750Y-115085000D02*
X96241250Y-115085000D01*
G75*
G02*
X96560000Y-115403750I0J-318750D01*
G01*
X96560000Y-116041250D01*
G75*
G02*
X96241250Y-116360000I-318750J0D01*
G01*
X95528750Y-116360000D01*
G75*
G02*
X95210000Y-116041250I0J318750D01*
G01*
X95210000Y-115403750D01*
G75*
G02*
X95528750Y-115085000I318750J0D01*
G01*
G37*
G36*
G01*
X95528750Y-113510000D02*
X96241250Y-113510000D01*
G75*
G02*
X96560000Y-113828750I0J-318750D01*
G01*
X96560000Y-114466250D01*
G75*
G02*
X96241250Y-114785000I-318750J0D01*
G01*
X95528750Y-114785000D01*
G75*
G02*
X95210000Y-114466250I0J318750D01*
G01*
X95210000Y-113828750D01*
G75*
G02*
X95528750Y-113510000I318750J0D01*
G01*
G37*
G36*
G01*
X97433750Y-115085000D02*
X98146250Y-115085000D01*
G75*
G02*
X98465000Y-115403750I0J-318750D01*
G01*
X98465000Y-116041250D01*
G75*
G02*
X98146250Y-116360000I-318750J0D01*
G01*
X97433750Y-116360000D01*
G75*
G02*
X97115000Y-116041250I0J318750D01*
G01*
X97115000Y-115403750D01*
G75*
G02*
X97433750Y-115085000I318750J0D01*
G01*
G37*
G36*
G01*
X97433750Y-113510000D02*
X98146250Y-113510000D01*
G75*
G02*
X98465000Y-113828750I0J-318750D01*
G01*
X98465000Y-114466250D01*
G75*
G02*
X98146250Y-114785000I-318750J0D01*
G01*
X97433750Y-114785000D01*
G75*
G02*
X97115000Y-114466250I0J318750D01*
G01*
X97115000Y-113828750D01*
G75*
G02*
X97433750Y-113510000I318750J0D01*
G01*
G37*
G36*
G01*
X126643750Y-83335000D02*
X127356250Y-83335000D01*
G75*
G02*
X127675000Y-83653750I0J-318750D01*
G01*
X127675000Y-84291250D01*
G75*
G02*
X127356250Y-84610000I-318750J0D01*
G01*
X126643750Y-84610000D01*
G75*
G02*
X126325000Y-84291250I0J318750D01*
G01*
X126325000Y-83653750D01*
G75*
G02*
X126643750Y-83335000I318750J0D01*
G01*
G37*
G36*
G01*
X126643750Y-81760000D02*
X127356250Y-81760000D01*
G75*
G02*
X127675000Y-82078750I0J-318750D01*
G01*
X127675000Y-82716250D01*
G75*
G02*
X127356250Y-83035000I-318750J0D01*
G01*
X126643750Y-83035000D01*
G75*
G02*
X126325000Y-82716250I0J318750D01*
G01*
X126325000Y-82078750D01*
G75*
G02*
X126643750Y-81760000I318750J0D01*
G01*
G37*
G36*
G01*
X124738750Y-83335000D02*
X125451250Y-83335000D01*
G75*
G02*
X125770000Y-83653750I0J-318750D01*
G01*
X125770000Y-84291250D01*
G75*
G02*
X125451250Y-84610000I-318750J0D01*
G01*
X124738750Y-84610000D01*
G75*
G02*
X124420000Y-84291250I0J318750D01*
G01*
X124420000Y-83653750D01*
G75*
G02*
X124738750Y-83335000I318750J0D01*
G01*
G37*
G36*
G01*
X124738750Y-81760000D02*
X125451250Y-81760000D01*
G75*
G02*
X125770000Y-82078750I0J-318750D01*
G01*
X125770000Y-82716250D01*
G75*
G02*
X125451250Y-83035000I-318750J0D01*
G01*
X124738750Y-83035000D01*
G75*
G02*
X124420000Y-82716250I0J318750D01*
G01*
X124420000Y-82078750D01*
G75*
G02*
X124738750Y-81760000I318750J0D01*
G01*
G37*
G36*
G01*
X120293750Y-83335000D02*
X121006250Y-83335000D01*
G75*
G02*
X121325000Y-83653750I0J-318750D01*
G01*
X121325000Y-84291250D01*
G75*
G02*
X121006250Y-84610000I-318750J0D01*
G01*
X120293750Y-84610000D01*
G75*
G02*
X119975000Y-84291250I0J318750D01*
G01*
X119975000Y-83653750D01*
G75*
G02*
X120293750Y-83335000I318750J0D01*
G01*
G37*
G36*
G01*
X120293750Y-81760000D02*
X121006250Y-81760000D01*
G75*
G02*
X121325000Y-82078750I0J-318750D01*
G01*
X121325000Y-82716250D01*
G75*
G02*
X121006250Y-83035000I-318750J0D01*
G01*
X120293750Y-83035000D01*
G75*
G02*
X119975000Y-82716250I0J318750D01*
G01*
X119975000Y-82078750D01*
G75*
G02*
X120293750Y-81760000I318750J0D01*
G01*
G37*
G36*
G01*
X118388750Y-83335000D02*
X119101250Y-83335000D01*
G75*
G02*
X119420000Y-83653750I0J-318750D01*
G01*
X119420000Y-84291250D01*
G75*
G02*
X119101250Y-84610000I-318750J0D01*
G01*
X118388750Y-84610000D01*
G75*
G02*
X118070000Y-84291250I0J318750D01*
G01*
X118070000Y-83653750D01*
G75*
G02*
X118388750Y-83335000I318750J0D01*
G01*
G37*
G36*
G01*
X118388750Y-81760000D02*
X119101250Y-81760000D01*
G75*
G02*
X119420000Y-82078750I0J-318750D01*
G01*
X119420000Y-82716250D01*
G75*
G02*
X119101250Y-83035000I-318750J0D01*
G01*
X118388750Y-83035000D01*
G75*
G02*
X118070000Y-82716250I0J318750D01*
G01*
X118070000Y-82078750D01*
G75*
G02*
X118388750Y-81760000I318750J0D01*
G01*
G37*
G36*
G01*
X113308750Y-83335000D02*
X114021250Y-83335000D01*
G75*
G02*
X114340000Y-83653750I0J-318750D01*
G01*
X114340000Y-84291250D01*
G75*
G02*
X114021250Y-84610000I-318750J0D01*
G01*
X113308750Y-84610000D01*
G75*
G02*
X112990000Y-84291250I0J318750D01*
G01*
X112990000Y-83653750D01*
G75*
G02*
X113308750Y-83335000I318750J0D01*
G01*
G37*
G36*
G01*
X113308750Y-81760000D02*
X114021250Y-81760000D01*
G75*
G02*
X114340000Y-82078750I0J-318750D01*
G01*
X114340000Y-82716250D01*
G75*
G02*
X114021250Y-83035000I-318750J0D01*
G01*
X113308750Y-83035000D01*
G75*
G02*
X112990000Y-82716250I0J318750D01*
G01*
X112990000Y-82078750D01*
G75*
G02*
X113308750Y-81760000I318750J0D01*
G01*
G37*
G36*
G01*
X115213750Y-83335000D02*
X115926250Y-83335000D01*
G75*
G02*
X116245000Y-83653750I0J-318750D01*
G01*
X116245000Y-84291250D01*
G75*
G02*
X115926250Y-84610000I-318750J0D01*
G01*
X115213750Y-84610000D01*
G75*
G02*
X114895000Y-84291250I0J318750D01*
G01*
X114895000Y-83653750D01*
G75*
G02*
X115213750Y-83335000I318750J0D01*
G01*
G37*
G36*
G01*
X115213750Y-81760000D02*
X115926250Y-81760000D01*
G75*
G02*
X116245000Y-82078750I0J-318750D01*
G01*
X116245000Y-82716250D01*
G75*
G02*
X115926250Y-83035000I-318750J0D01*
G01*
X115213750Y-83035000D01*
G75*
G02*
X114895000Y-82716250I0J318750D01*
G01*
X114895000Y-82078750D01*
G75*
G02*
X115213750Y-81760000I318750J0D01*
G01*
G37*
G36*
G01*
X107593750Y-83335000D02*
X108306250Y-83335000D01*
G75*
G02*
X108625000Y-83653750I0J-318750D01*
G01*
X108625000Y-84291250D01*
G75*
G02*
X108306250Y-84610000I-318750J0D01*
G01*
X107593750Y-84610000D01*
G75*
G02*
X107275000Y-84291250I0J318750D01*
G01*
X107275000Y-83653750D01*
G75*
G02*
X107593750Y-83335000I318750J0D01*
G01*
G37*
G36*
G01*
X107593750Y-81760000D02*
X108306250Y-81760000D01*
G75*
G02*
X108625000Y-82078750I0J-318750D01*
G01*
X108625000Y-82716250D01*
G75*
G02*
X108306250Y-83035000I-318750J0D01*
G01*
X107593750Y-83035000D01*
G75*
G02*
X107275000Y-82716250I0J318750D01*
G01*
X107275000Y-82078750D01*
G75*
G02*
X107593750Y-81760000I318750J0D01*
G01*
G37*
G36*
G01*
X105688750Y-83335000D02*
X106401250Y-83335000D01*
G75*
G02*
X106720000Y-83653750I0J-318750D01*
G01*
X106720000Y-84291250D01*
G75*
G02*
X106401250Y-84610000I-318750J0D01*
G01*
X105688750Y-84610000D01*
G75*
G02*
X105370000Y-84291250I0J318750D01*
G01*
X105370000Y-83653750D01*
G75*
G02*
X105688750Y-83335000I318750J0D01*
G01*
G37*
G36*
G01*
X105688750Y-81760000D02*
X106401250Y-81760000D01*
G75*
G02*
X106720000Y-82078750I0J-318750D01*
G01*
X106720000Y-82716250D01*
G75*
G02*
X106401250Y-83035000I-318750J0D01*
G01*
X105688750Y-83035000D01*
G75*
G02*
X105370000Y-82716250I0J318750D01*
G01*
X105370000Y-82078750D01*
G75*
G02*
X105688750Y-81760000I318750J0D01*
G01*
G37*
G36*
G01*
X82906250Y-113515000D02*
X82193750Y-113515000D01*
G75*
G02*
X81875000Y-113196250I0J318750D01*
G01*
X81875000Y-112558750D01*
G75*
G02*
X82193750Y-112240000I318750J0D01*
G01*
X82906250Y-112240000D01*
G75*
G02*
X83225000Y-112558750I0J-318750D01*
G01*
X83225000Y-113196250D01*
G75*
G02*
X82906250Y-113515000I-318750J0D01*
G01*
G37*
G36*
G01*
X82906250Y-115090000D02*
X82193750Y-115090000D01*
G75*
G02*
X81875000Y-114771250I0J318750D01*
G01*
X81875000Y-114133750D01*
G75*
G02*
X82193750Y-113815000I318750J0D01*
G01*
X82906250Y-113815000D01*
G75*
G02*
X83225000Y-114133750I0J-318750D01*
G01*
X83225000Y-114771250D01*
G75*
G02*
X82906250Y-115090000I-318750J0D01*
G01*
G37*
G36*
G01*
X77826250Y-113515000D02*
X77113750Y-113515000D01*
G75*
G02*
X76795000Y-113196250I0J318750D01*
G01*
X76795000Y-112558750D01*
G75*
G02*
X77113750Y-112240000I318750J0D01*
G01*
X77826250Y-112240000D01*
G75*
G02*
X78145000Y-112558750I0J-318750D01*
G01*
X78145000Y-113196250D01*
G75*
G02*
X77826250Y-113515000I-318750J0D01*
G01*
G37*
G36*
G01*
X77826250Y-115090000D02*
X77113750Y-115090000D01*
G75*
G02*
X76795000Y-114771250I0J318750D01*
G01*
X76795000Y-114133750D01*
G75*
G02*
X77113750Y-113815000I318750J0D01*
G01*
X77826250Y-113815000D01*
G75*
G02*
X78145000Y-114133750I0J-318750D01*
G01*
X78145000Y-114771250D01*
G75*
G02*
X77826250Y-115090000I-318750J0D01*
G01*
G37*
G36*
G01*
X127356250Y-95735000D02*
X126643750Y-95735000D01*
G75*
G02*
X126325000Y-95416250I0J318750D01*
G01*
X126325000Y-94778750D01*
G75*
G02*
X126643750Y-94460000I318750J0D01*
G01*
X127356250Y-94460000D01*
G75*
G02*
X127675000Y-94778750I0J-318750D01*
G01*
X127675000Y-95416250D01*
G75*
G02*
X127356250Y-95735000I-318750J0D01*
G01*
G37*
G36*
G01*
X127356250Y-97310000D02*
X126643750Y-97310000D01*
G75*
G02*
X126325000Y-96991250I0J318750D01*
G01*
X126325000Y-96353750D01*
G75*
G02*
X126643750Y-96035000I318750J0D01*
G01*
X127356250Y-96035000D01*
G75*
G02*
X127675000Y-96353750I0J-318750D01*
G01*
X127675000Y-96991250D01*
G75*
G02*
X127356250Y-97310000I-318750J0D01*
G01*
G37*
G36*
G01*
X98275000Y-137438750D02*
X98275000Y-138151250D01*
G75*
G02*
X97956250Y-138470000I-318750J0D01*
G01*
X97318750Y-138470000D01*
G75*
G02*
X97000000Y-138151250I0J318750D01*
G01*
X97000000Y-137438750D01*
G75*
G02*
X97318750Y-137120000I318750J0D01*
G01*
X97956250Y-137120000D01*
G75*
G02*
X98275000Y-137438750I0J-318750D01*
G01*
G37*
G36*
G01*
X99850000Y-137438750D02*
X99850000Y-138151250D01*
G75*
G02*
X99531250Y-138470000I-318750J0D01*
G01*
X98893750Y-138470000D01*
G75*
G02*
X98575000Y-138151250I0J318750D01*
G01*
X98575000Y-137438750D01*
G75*
G02*
X98893750Y-137120000I318750J0D01*
G01*
X99531250Y-137120000D01*
G75*
G02*
X99850000Y-137438750I0J-318750D01*
G01*
G37*
G36*
G01*
X73938750Y-88415000D02*
X74651250Y-88415000D01*
G75*
G02*
X74970000Y-88733750I0J-318750D01*
G01*
X74970000Y-89371250D01*
G75*
G02*
X74651250Y-89690000I-318750J0D01*
G01*
X73938750Y-89690000D01*
G75*
G02*
X73620000Y-89371250I0J318750D01*
G01*
X73620000Y-88733750D01*
G75*
G02*
X73938750Y-88415000I318750J0D01*
G01*
G37*
G36*
G01*
X73938750Y-86840000D02*
X74651250Y-86840000D01*
G75*
G02*
X74970000Y-87158750I0J-318750D01*
G01*
X74970000Y-87796250D01*
G75*
G02*
X74651250Y-88115000I-318750J0D01*
G01*
X73938750Y-88115000D01*
G75*
G02*
X73620000Y-87796250I0J318750D01*
G01*
X73620000Y-87158750D01*
G75*
G02*
X73938750Y-86840000I318750J0D01*
G01*
G37*
G36*
G01*
X119530000Y-134341250D02*
X119530000Y-133628750D01*
G75*
G02*
X119848750Y-133310000I318750J0D01*
G01*
X120486250Y-133310000D01*
G75*
G02*
X120805000Y-133628750I0J-318750D01*
G01*
X120805000Y-134341250D01*
G75*
G02*
X120486250Y-134660000I-318750J0D01*
G01*
X119848750Y-134660000D01*
G75*
G02*
X119530000Y-134341250I0J318750D01*
G01*
G37*
G36*
G01*
X117955000Y-134341250D02*
X117955000Y-133628750D01*
G75*
G02*
X118273750Y-133310000I318750J0D01*
G01*
X118911250Y-133310000D01*
G75*
G02*
X119230000Y-133628750I0J-318750D01*
G01*
X119230000Y-134341250D01*
G75*
G02*
X118911250Y-134660000I-318750J0D01*
G01*
X118273750Y-134660000D01*
G75*
G02*
X117955000Y-134341250I0J318750D01*
G01*
G37*
G36*
G01*
X119530000Y-136246250D02*
X119530000Y-135533750D01*
G75*
G02*
X119848750Y-135215000I318750J0D01*
G01*
X120486250Y-135215000D01*
G75*
G02*
X120805000Y-135533750I0J-318750D01*
G01*
X120805000Y-136246250D01*
G75*
G02*
X120486250Y-136565000I-318750J0D01*
G01*
X119848750Y-136565000D01*
G75*
G02*
X119530000Y-136246250I0J318750D01*
G01*
G37*
G36*
G01*
X117955000Y-136246250D02*
X117955000Y-135533750D01*
G75*
G02*
X118273750Y-135215000I318750J0D01*
G01*
X118911250Y-135215000D01*
G75*
G02*
X119230000Y-135533750I0J-318750D01*
G01*
X119230000Y-136246250D01*
G75*
G02*
X118911250Y-136565000I-318750J0D01*
G01*
X118273750Y-136565000D01*
G75*
G02*
X117955000Y-136246250I0J318750D01*
G01*
G37*
G36*
G01*
X146535000Y-107593750D02*
X146535000Y-108306250D01*
G75*
G02*
X146216250Y-108625000I-318750J0D01*
G01*
X145578750Y-108625000D01*
G75*
G02*
X145260000Y-108306250I0J318750D01*
G01*
X145260000Y-107593750D01*
G75*
G02*
X145578750Y-107275000I318750J0D01*
G01*
X146216250Y-107275000D01*
G75*
G02*
X146535000Y-107593750I0J-318750D01*
G01*
G37*
G36*
G01*
X148110000Y-107593750D02*
X148110000Y-108306250D01*
G75*
G02*
X147791250Y-108625000I-318750J0D01*
G01*
X147153750Y-108625000D01*
G75*
G02*
X146835000Y-108306250I0J318750D01*
G01*
X146835000Y-107593750D01*
G75*
G02*
X147153750Y-107275000I318750J0D01*
G01*
X147791250Y-107275000D01*
G75*
G02*
X148110000Y-107593750I0J-318750D01*
G01*
G37*
G36*
G01*
X146835000Y-112116250D02*
X146835000Y-111403750D01*
G75*
G02*
X147153750Y-111085000I318750J0D01*
G01*
X147791250Y-111085000D01*
G75*
G02*
X148110000Y-111403750I0J-318750D01*
G01*
X148110000Y-112116250D01*
G75*
G02*
X147791250Y-112435000I-318750J0D01*
G01*
X147153750Y-112435000D01*
G75*
G02*
X146835000Y-112116250I0J318750D01*
G01*
G37*
G36*
G01*
X145260000Y-112116250D02*
X145260000Y-111403750D01*
G75*
G02*
X145578750Y-111085000I318750J0D01*
G01*
X146216250Y-111085000D01*
G75*
G02*
X146535000Y-111403750I0J-318750D01*
G01*
X146535000Y-112116250D01*
G75*
G02*
X146216250Y-112435000I-318750J0D01*
G01*
X145578750Y-112435000D01*
G75*
G02*
X145260000Y-112116250I0J318750D01*
G01*
G37*
G36*
G01*
X131214000Y-76302250D02*
X131214000Y-75589750D01*
G75*
G02*
X131532750Y-75271000I318750J0D01*
G01*
X132170250Y-75271000D01*
G75*
G02*
X132489000Y-75589750I0J-318750D01*
G01*
X132489000Y-76302250D01*
G75*
G02*
X132170250Y-76621000I-318750J0D01*
G01*
X131532750Y-76621000D01*
G75*
G02*
X131214000Y-76302250I0J318750D01*
G01*
G37*
G36*
G01*
X129639000Y-76302250D02*
X129639000Y-75589750D01*
G75*
G02*
X129957750Y-75271000I318750J0D01*
G01*
X130595250Y-75271000D01*
G75*
G02*
X130914000Y-75589750I0J-318750D01*
G01*
X130914000Y-76302250D01*
G75*
G02*
X130595250Y-76621000I-318750J0D01*
G01*
X129957750Y-76621000D01*
G75*
G02*
X129639000Y-76302250I0J318750D01*
G01*
G37*
G36*
G01*
X79652000Y-76302250D02*
X79652000Y-75589750D01*
G75*
G02*
X79970750Y-75271000I318750J0D01*
G01*
X80608250Y-75271000D01*
G75*
G02*
X80927000Y-75589750I0J-318750D01*
G01*
X80927000Y-76302250D01*
G75*
G02*
X80608250Y-76621000I-318750J0D01*
G01*
X79970750Y-76621000D01*
G75*
G02*
X79652000Y-76302250I0J318750D01*
G01*
G37*
G36*
G01*
X78077000Y-76302250D02*
X78077000Y-75589750D01*
G75*
G02*
X78395750Y-75271000I318750J0D01*
G01*
X79033250Y-75271000D01*
G75*
G02*
X79352000Y-75589750I0J-318750D01*
G01*
X79352000Y-76302250D01*
G75*
G02*
X79033250Y-76621000I-318750J0D01*
G01*
X78395750Y-76621000D01*
G75*
G02*
X78077000Y-76302250I0J318750D01*
G01*
G37*
G36*
G01*
X136370000Y-112116250D02*
X136370000Y-111403750D01*
G75*
G02*
X136688750Y-111085000I318750J0D01*
G01*
X137326250Y-111085000D01*
G75*
G02*
X137645000Y-111403750I0J-318750D01*
G01*
X137645000Y-112116250D01*
G75*
G02*
X137326250Y-112435000I-318750J0D01*
G01*
X136688750Y-112435000D01*
G75*
G02*
X136370000Y-112116250I0J318750D01*
G01*
G37*
G36*
G01*
X137945000Y-112116250D02*
X137945000Y-111403750D01*
G75*
G02*
X138263750Y-111085000I318750J0D01*
G01*
X138901250Y-111085000D01*
G75*
G02*
X139220000Y-111403750I0J-318750D01*
G01*
X139220000Y-112116250D01*
G75*
G02*
X138901250Y-112435000I-318750J0D01*
G01*
X138263750Y-112435000D01*
G75*
G02*
X137945000Y-112116250I0J318750D01*
G01*
G37*
G36*
G01*
X124181250Y-107800000D02*
X123468750Y-107800000D01*
G75*
G02*
X123150000Y-107481250I0J318750D01*
G01*
X123150000Y-106843750D01*
G75*
G02*
X123468750Y-106525000I318750J0D01*
G01*
X124181250Y-106525000D01*
G75*
G02*
X124500000Y-106843750I0J-318750D01*
G01*
X124500000Y-107481250D01*
G75*
G02*
X124181250Y-107800000I-318750J0D01*
G01*
G37*
G36*
G01*
X124181250Y-109375000D02*
X123468750Y-109375000D01*
G75*
G02*
X123150000Y-109056250I0J318750D01*
G01*
X123150000Y-108418750D01*
G75*
G02*
X123468750Y-108100000I318750J0D01*
G01*
X124181250Y-108100000D01*
G75*
G02*
X124500000Y-108418750I0J-318750D01*
G01*
X124500000Y-109056250D01*
G75*
G02*
X124181250Y-109375000I-318750J0D01*
G01*
G37*
G36*
G01*
X100686250Y-91925000D02*
X99973750Y-91925000D01*
G75*
G02*
X99655000Y-91606250I0J318750D01*
G01*
X99655000Y-90968750D01*
G75*
G02*
X99973750Y-90650000I318750J0D01*
G01*
X100686250Y-90650000D01*
G75*
G02*
X101005000Y-90968750I0J-318750D01*
G01*
X101005000Y-91606250D01*
G75*
G02*
X100686250Y-91925000I-318750J0D01*
G01*
G37*
G36*
G01*
X100686250Y-93500000D02*
X99973750Y-93500000D01*
G75*
G02*
X99655000Y-93181250I0J318750D01*
G01*
X99655000Y-92543750D01*
G75*
G02*
X99973750Y-92225000I318750J0D01*
G01*
X100686250Y-92225000D01*
G75*
G02*
X101005000Y-92543750I0J-318750D01*
G01*
X101005000Y-93181250D01*
G75*
G02*
X100686250Y-93500000I-318750J0D01*
G01*
G37*
G36*
G01*
X127356250Y-91925000D02*
X126643750Y-91925000D01*
G75*
G02*
X126325000Y-91606250I0J318750D01*
G01*
X126325000Y-90968750D01*
G75*
G02*
X126643750Y-90650000I318750J0D01*
G01*
X127356250Y-90650000D01*
G75*
G02*
X127675000Y-90968750I0J-318750D01*
G01*
X127675000Y-91606250D01*
G75*
G02*
X127356250Y-91925000I-318750J0D01*
G01*
G37*
G36*
G01*
X127356250Y-93500000D02*
X126643750Y-93500000D01*
G75*
G02*
X126325000Y-93181250I0J318750D01*
G01*
X126325000Y-92543750D01*
G75*
G02*
X126643750Y-92225000I318750J0D01*
G01*
X127356250Y-92225000D01*
G75*
G02*
X127675000Y-92543750I0J-318750D01*
G01*
X127675000Y-93181250D01*
G75*
G02*
X127356250Y-93500000I-318750J0D01*
G01*
G37*
G36*
G01*
X114021250Y-91925000D02*
X113308750Y-91925000D01*
G75*
G02*
X112990000Y-91606250I0J318750D01*
G01*
X112990000Y-90968750D01*
G75*
G02*
X113308750Y-90650000I318750J0D01*
G01*
X114021250Y-90650000D01*
G75*
G02*
X114340000Y-90968750I0J-318750D01*
G01*
X114340000Y-91606250D01*
G75*
G02*
X114021250Y-91925000I-318750J0D01*
G01*
G37*
G36*
G01*
X114021250Y-93500000D02*
X113308750Y-93500000D01*
G75*
G02*
X112990000Y-93181250I0J318750D01*
G01*
X112990000Y-92543750D01*
G75*
G02*
X113308750Y-92225000I318750J0D01*
G01*
X114021250Y-92225000D01*
G75*
G02*
X114340000Y-92543750I0J-318750D01*
G01*
X114340000Y-93181250D01*
G75*
G02*
X114021250Y-93500000I-318750J0D01*
G01*
G37*
G36*
G01*
X100686250Y-103990000D02*
X99973750Y-103990000D01*
G75*
G02*
X99655000Y-103671250I0J318750D01*
G01*
X99655000Y-103033750D01*
G75*
G02*
X99973750Y-102715000I318750J0D01*
G01*
X100686250Y-102715000D01*
G75*
G02*
X101005000Y-103033750I0J-318750D01*
G01*
X101005000Y-103671250D01*
G75*
G02*
X100686250Y-103990000I-318750J0D01*
G01*
G37*
G36*
G01*
X100686250Y-105565000D02*
X99973750Y-105565000D01*
G75*
G02*
X99655000Y-105246250I0J318750D01*
G01*
X99655000Y-104608750D01*
G75*
G02*
X99973750Y-104290000I318750J0D01*
G01*
X100686250Y-104290000D01*
G75*
G02*
X101005000Y-104608750I0J-318750D01*
G01*
X101005000Y-105246250D01*
G75*
G02*
X100686250Y-105565000I-318750J0D01*
G01*
G37*
G36*
G01*
X87351250Y-91925000D02*
X86638750Y-91925000D01*
G75*
G02*
X86320000Y-91606250I0J318750D01*
G01*
X86320000Y-90968750D01*
G75*
G02*
X86638750Y-90650000I318750J0D01*
G01*
X87351250Y-90650000D01*
G75*
G02*
X87670000Y-90968750I0J-318750D01*
G01*
X87670000Y-91606250D01*
G75*
G02*
X87351250Y-91925000I-318750J0D01*
G01*
G37*
G36*
G01*
X87351250Y-93500000D02*
X86638750Y-93500000D01*
G75*
G02*
X86320000Y-93181250I0J318750D01*
G01*
X86320000Y-92543750D01*
G75*
G02*
X86638750Y-92225000I318750J0D01*
G01*
X87351250Y-92225000D01*
G75*
G02*
X87670000Y-92543750I0J-318750D01*
G01*
X87670000Y-93181250D01*
G75*
G02*
X87351250Y-93500000I-318750J0D01*
G01*
G37*
G36*
G01*
X119023750Y-120165000D02*
X119736250Y-120165000D01*
G75*
G02*
X120055000Y-120483750I0J-318750D01*
G01*
X120055000Y-121121250D01*
G75*
G02*
X119736250Y-121440000I-318750J0D01*
G01*
X119023750Y-121440000D01*
G75*
G02*
X118705000Y-121121250I0J318750D01*
G01*
X118705000Y-120483750D01*
G75*
G02*
X119023750Y-120165000I318750J0D01*
G01*
G37*
G36*
G01*
X119023750Y-118590000D02*
X119736250Y-118590000D01*
G75*
G02*
X120055000Y-118908750I0J-318750D01*
G01*
X120055000Y-119546250D01*
G75*
G02*
X119736250Y-119865000I-318750J0D01*
G01*
X119023750Y-119865000D01*
G75*
G02*
X118705000Y-119546250I0J318750D01*
G01*
X118705000Y-118908750D01*
G75*
G02*
X119023750Y-118590000I318750J0D01*
G01*
G37*
G36*
G01*
X119023750Y-125245000D02*
X119736250Y-125245000D01*
G75*
G02*
X120055000Y-125563750I0J-318750D01*
G01*
X120055000Y-126201250D01*
G75*
G02*
X119736250Y-126520000I-318750J0D01*
G01*
X119023750Y-126520000D01*
G75*
G02*
X118705000Y-126201250I0J318750D01*
G01*
X118705000Y-125563750D01*
G75*
G02*
X119023750Y-125245000I318750J0D01*
G01*
G37*
G36*
G01*
X119023750Y-123670000D02*
X119736250Y-123670000D01*
G75*
G02*
X120055000Y-123988750I0J-318750D01*
G01*
X120055000Y-124626250D01*
G75*
G02*
X119736250Y-124945000I-318750J0D01*
G01*
X119023750Y-124945000D01*
G75*
G02*
X118705000Y-124626250I0J318750D01*
G01*
X118705000Y-123988750D01*
G75*
G02*
X119023750Y-123670000I318750J0D01*
G01*
G37*
G36*
G01*
X111610000Y-132993750D02*
X111610000Y-133706250D01*
G75*
G02*
X111291250Y-134025000I-318750J0D01*
G01*
X110653750Y-134025000D01*
G75*
G02*
X110335000Y-133706250I0J318750D01*
G01*
X110335000Y-132993750D01*
G75*
G02*
X110653750Y-132675000I318750J0D01*
G01*
X111291250Y-132675000D01*
G75*
G02*
X111610000Y-132993750I0J-318750D01*
G01*
G37*
G36*
G01*
X113185000Y-132993750D02*
X113185000Y-133706250D01*
G75*
G02*
X112866250Y-134025000I-318750J0D01*
G01*
X112228750Y-134025000D01*
G75*
G02*
X111910000Y-133706250I0J318750D01*
G01*
X111910000Y-132993750D01*
G75*
G02*
X112228750Y-132675000I318750J0D01*
G01*
X112866250Y-132675000D01*
G75*
G02*
X113185000Y-132993750I0J-318750D01*
G01*
G37*
G36*
G01*
X102085000Y-132993750D02*
X102085000Y-133706250D01*
G75*
G02*
X101766250Y-134025000I-318750J0D01*
G01*
X101128750Y-134025000D01*
G75*
G02*
X100810000Y-133706250I0J318750D01*
G01*
X100810000Y-132993750D01*
G75*
G02*
X101128750Y-132675000I318750J0D01*
G01*
X101766250Y-132675000D01*
G75*
G02*
X102085000Y-132993750I0J-318750D01*
G01*
G37*
G36*
G01*
X103660000Y-132993750D02*
X103660000Y-133706250D01*
G75*
G02*
X103341250Y-134025000I-318750J0D01*
G01*
X102703750Y-134025000D01*
G75*
G02*
X102385000Y-133706250I0J318750D01*
G01*
X102385000Y-132993750D01*
G75*
G02*
X102703750Y-132675000I318750J0D01*
G01*
X103341250Y-132675000D01*
G75*
G02*
X103660000Y-132993750I0J-318750D01*
G01*
G37*
G36*
G01*
X98146250Y-122024000D02*
X97433750Y-122024000D01*
G75*
G02*
X97115000Y-121705250I0J318750D01*
G01*
X97115000Y-121067750D01*
G75*
G02*
X97433750Y-120749000I318750J0D01*
G01*
X98146250Y-120749000D01*
G75*
G02*
X98465000Y-121067750I0J-318750D01*
G01*
X98465000Y-121705250D01*
G75*
G02*
X98146250Y-122024000I-318750J0D01*
G01*
G37*
G36*
G01*
X98146250Y-123599000D02*
X97433750Y-123599000D01*
G75*
G02*
X97115000Y-123280250I0J318750D01*
G01*
X97115000Y-122642750D01*
G75*
G02*
X97433750Y-122324000I318750J0D01*
G01*
X98146250Y-122324000D01*
G75*
G02*
X98465000Y-122642750I0J-318750D01*
G01*
X98465000Y-123280250D01*
G75*
G02*
X98146250Y-123599000I-318750J0D01*
G01*
G37*
G36*
G01*
X102385000Y-112116250D02*
X102385000Y-111403750D01*
G75*
G02*
X102703750Y-111085000I318750J0D01*
G01*
X103341250Y-111085000D01*
G75*
G02*
X103660000Y-111403750I0J-318750D01*
G01*
X103660000Y-112116250D01*
G75*
G02*
X103341250Y-112435000I-318750J0D01*
G01*
X102703750Y-112435000D01*
G75*
G02*
X102385000Y-112116250I0J318750D01*
G01*
G37*
G36*
G01*
X100810000Y-112116250D02*
X100810000Y-111403750D01*
G75*
G02*
X101128750Y-111085000I318750J0D01*
G01*
X101766250Y-111085000D01*
G75*
G02*
X102085000Y-111403750I0J-318750D01*
G01*
X102085000Y-112116250D01*
G75*
G02*
X101766250Y-112435000I-318750J0D01*
G01*
X101128750Y-112435000D01*
G75*
G02*
X100810000Y-112116250I0J318750D01*
G01*
G37*
G36*
G01*
X142490000Y-112316250D02*
X142490000Y-111203750D01*
G75*
G02*
X142833750Y-110860000I343750J0D01*
G01*
X143521250Y-110860000D01*
G75*
G02*
X143865000Y-111203750I0J-343750D01*
G01*
X143865000Y-112316250D01*
G75*
G02*
X143521250Y-112660000I-343750J0D01*
G01*
X142833750Y-112660000D01*
G75*
G02*
X142490000Y-112316250I0J343750D01*
G01*
G37*
G36*
G01*
X140615000Y-112316250D02*
X140615000Y-111203750D01*
G75*
G02*
X140958750Y-110860000I343750J0D01*
G01*
X141646250Y-110860000D01*
G75*
G02*
X141990000Y-111203750I0J-343750D01*
G01*
X141990000Y-112316250D01*
G75*
G02*
X141646250Y-112660000I-343750J0D01*
G01*
X140958750Y-112660000D01*
G75*
G02*
X140615000Y-112316250I0J343750D01*
G01*
G37*
G36*
G01*
X80566250Y-113415000D02*
X79453750Y-113415000D01*
G75*
G02*
X79110000Y-113071250I0J343750D01*
G01*
X79110000Y-112383750D01*
G75*
G02*
X79453750Y-112040000I343750J0D01*
G01*
X80566250Y-112040000D01*
G75*
G02*
X80910000Y-112383750I0J-343750D01*
G01*
X80910000Y-113071250D01*
G75*
G02*
X80566250Y-113415000I-343750J0D01*
G01*
G37*
G36*
G01*
X80566250Y-115290000D02*
X79453750Y-115290000D01*
G75*
G02*
X79110000Y-114946250I0J343750D01*
G01*
X79110000Y-114258750D01*
G75*
G02*
X79453750Y-113915000I343750J0D01*
G01*
X80566250Y-113915000D01*
G75*
G02*
X80910000Y-114258750I0J-343750D01*
G01*
X80910000Y-114946250D01*
G75*
G02*
X80566250Y-115290000I-343750J0D01*
G01*
G37*
G36*
G01*
X73910000Y-114856250D02*
X73910000Y-113743750D01*
G75*
G02*
X74253750Y-113400000I343750J0D01*
G01*
X74941250Y-113400000D01*
G75*
G02*
X75285000Y-113743750I0J-343750D01*
G01*
X75285000Y-114856250D01*
G75*
G02*
X74941250Y-115200000I-343750J0D01*
G01*
X74253750Y-115200000D01*
G75*
G02*
X73910000Y-114856250I0J343750D01*
G01*
G37*
G36*
G01*
X72035000Y-114856250D02*
X72035000Y-113743750D01*
G75*
G02*
X72378750Y-113400000I343750J0D01*
G01*
X73066250Y-113400000D01*
G75*
G02*
X73410000Y-113743750I0J-343750D01*
G01*
X73410000Y-114856250D01*
G75*
G02*
X73066250Y-115200000I-343750J0D01*
G01*
X72378750Y-115200000D01*
G75*
G02*
X72035000Y-114856250I0J343750D01*
G01*
G37*
G36*
G01*
X81993750Y-109470000D02*
X83106250Y-109470000D01*
G75*
G02*
X83450000Y-109813750I0J-343750D01*
G01*
X83450000Y-110501250D01*
G75*
G02*
X83106250Y-110845000I-343750J0D01*
G01*
X81993750Y-110845000D01*
G75*
G02*
X81650000Y-110501250I0J343750D01*
G01*
X81650000Y-109813750D01*
G75*
G02*
X81993750Y-109470000I343750J0D01*
G01*
G37*
G36*
G01*
X81993750Y-107595000D02*
X83106250Y-107595000D01*
G75*
G02*
X83450000Y-107938750I0J-343750D01*
G01*
X83450000Y-108626250D01*
G75*
G02*
X83106250Y-108970000I-343750J0D01*
G01*
X81993750Y-108970000D01*
G75*
G02*
X81650000Y-108626250I0J343750D01*
G01*
X81650000Y-107938750D01*
G75*
G02*
X81993750Y-107595000I343750J0D01*
G01*
G37*
G36*
G01*
X71833750Y-109470000D02*
X72946250Y-109470000D01*
G75*
G02*
X73290000Y-109813750I0J-343750D01*
G01*
X73290000Y-110501250D01*
G75*
G02*
X72946250Y-110845000I-343750J0D01*
G01*
X71833750Y-110845000D01*
G75*
G02*
X71490000Y-110501250I0J343750D01*
G01*
X71490000Y-109813750D01*
G75*
G02*
X71833750Y-109470000I343750J0D01*
G01*
G37*
G36*
G01*
X71833750Y-107595000D02*
X72946250Y-107595000D01*
G75*
G02*
X73290000Y-107938750I0J-343750D01*
G01*
X73290000Y-108626250D01*
G75*
G02*
X72946250Y-108970000I-343750J0D01*
G01*
X71833750Y-108970000D01*
G75*
G02*
X71490000Y-108626250I0J343750D01*
G01*
X71490000Y-107938750D01*
G75*
G02*
X71833750Y-107595000I343750J0D01*
G01*
G37*
D35*
X67945000Y-111800000D03*
D33*
X67945000Y-114300000D03*
G36*
G01*
X151408750Y-108100000D02*
X152121250Y-108100000D01*
G75*
G02*
X152440000Y-108418750I0J-318750D01*
G01*
X152440000Y-109056250D01*
G75*
G02*
X152121250Y-109375000I-318750J0D01*
G01*
X151408750Y-109375000D01*
G75*
G02*
X151090000Y-109056250I0J318750D01*
G01*
X151090000Y-108418750D01*
G75*
G02*
X151408750Y-108100000I318750J0D01*
G01*
G37*
G36*
G01*
X151408750Y-106525000D02*
X152121250Y-106525000D01*
G75*
G02*
X152440000Y-106843750I0J-318750D01*
G01*
X152440000Y-107481250D01*
G75*
G02*
X152121250Y-107800000I-318750J0D01*
G01*
X151408750Y-107800000D01*
G75*
G02*
X151090000Y-107481250I0J318750D01*
G01*
X151090000Y-106843750D01*
G75*
G02*
X151408750Y-106525000I318750J0D01*
G01*
G37*
G36*
G01*
X142390000Y-108306250D02*
X142390000Y-107593750D01*
G75*
G02*
X142708750Y-107275000I318750J0D01*
G01*
X143346250Y-107275000D01*
G75*
G02*
X143665000Y-107593750I0J-318750D01*
G01*
X143665000Y-108306250D01*
G75*
G02*
X143346250Y-108625000I-318750J0D01*
G01*
X142708750Y-108625000D01*
G75*
G02*
X142390000Y-108306250I0J318750D01*
G01*
G37*
G36*
G01*
X140815000Y-108306250D02*
X140815000Y-107593750D01*
G75*
G02*
X141133750Y-107275000I318750J0D01*
G01*
X141771250Y-107275000D01*
G75*
G02*
X142090000Y-107593750I0J-318750D01*
G01*
X142090000Y-108306250D01*
G75*
G02*
X141771250Y-108625000I-318750J0D01*
G01*
X141133750Y-108625000D01*
G75*
G02*
X140815000Y-108306250I0J318750D01*
G01*
G37*
G36*
G01*
X146535000Y-109498750D02*
X146535000Y-110211250D01*
G75*
G02*
X146216250Y-110530000I-318750J0D01*
G01*
X145578750Y-110530000D01*
G75*
G02*
X145260000Y-110211250I0J318750D01*
G01*
X145260000Y-109498750D01*
G75*
G02*
X145578750Y-109180000I318750J0D01*
G01*
X146216250Y-109180000D01*
G75*
G02*
X146535000Y-109498750I0J-318750D01*
G01*
G37*
G36*
G01*
X148110000Y-109498750D02*
X148110000Y-110211250D01*
G75*
G02*
X147791250Y-110530000I-318750J0D01*
G01*
X147153750Y-110530000D01*
G75*
G02*
X146835000Y-110211250I0J318750D01*
G01*
X146835000Y-109498750D01*
G75*
G02*
X147153750Y-109180000I318750J0D01*
G01*
X147791250Y-109180000D01*
G75*
G02*
X148110000Y-109498750I0J-318750D01*
G01*
G37*
G36*
G01*
X153591250Y-100080000D02*
X152478750Y-100080000D01*
G75*
G02*
X152135000Y-99736250I0J343750D01*
G01*
X152135000Y-99048750D01*
G75*
G02*
X152478750Y-98705000I343750J0D01*
G01*
X153591250Y-98705000D01*
G75*
G02*
X153935000Y-99048750I0J-343750D01*
G01*
X153935000Y-99736250D01*
G75*
G02*
X153591250Y-100080000I-343750J0D01*
G01*
G37*
G36*
G01*
X153591250Y-101955000D02*
X152478750Y-101955000D01*
G75*
G02*
X152135000Y-101611250I0J343750D01*
G01*
X152135000Y-100923750D01*
G75*
G02*
X152478750Y-100580000I343750J0D01*
G01*
X153591250Y-100580000D01*
G75*
G02*
X153935000Y-100923750I0J-343750D01*
G01*
X153935000Y-101611250D01*
G75*
G02*
X153591250Y-101955000I-343750J0D01*
G01*
G37*
G36*
G01*
X152678750Y-77620000D02*
X153391250Y-77620000D01*
G75*
G02*
X153710000Y-77938750I0J-318750D01*
G01*
X153710000Y-78576250D01*
G75*
G02*
X153391250Y-78895000I-318750J0D01*
G01*
X152678750Y-78895000D01*
G75*
G02*
X152360000Y-78576250I0J318750D01*
G01*
X152360000Y-77938750D01*
G75*
G02*
X152678750Y-77620000I318750J0D01*
G01*
G37*
G36*
G01*
X152678750Y-76045000D02*
X153391250Y-76045000D01*
G75*
G02*
X153710000Y-76363750I0J-318750D01*
G01*
X153710000Y-77001250D01*
G75*
G02*
X153391250Y-77320000I-318750J0D01*
G01*
X152678750Y-77320000D01*
G75*
G02*
X152360000Y-77001250I0J318750D01*
G01*
X152360000Y-76363750D01*
G75*
G02*
X152678750Y-76045000I318750J0D01*
G01*
G37*
G36*
G01*
X153391250Y-72875000D02*
X152678750Y-72875000D01*
G75*
G02*
X152360000Y-72556250I0J318750D01*
G01*
X152360000Y-71918750D01*
G75*
G02*
X152678750Y-71600000I318750J0D01*
G01*
X153391250Y-71600000D01*
G75*
G02*
X153710000Y-71918750I0J-318750D01*
G01*
X153710000Y-72556250D01*
G75*
G02*
X153391250Y-72875000I-318750J0D01*
G01*
G37*
G36*
G01*
X153391250Y-74450000D02*
X152678750Y-74450000D01*
G75*
G02*
X152360000Y-74131250I0J318750D01*
G01*
X152360000Y-73493750D01*
G75*
G02*
X152678750Y-73175000I318750J0D01*
G01*
X153391250Y-73175000D01*
G75*
G02*
X153710000Y-73493750I0J-318750D01*
G01*
X153710000Y-74131250D01*
G75*
G02*
X153391250Y-74450000I-318750J0D01*
G01*
G37*
G36*
G01*
X152678750Y-83970000D02*
X153391250Y-83970000D01*
G75*
G02*
X153710000Y-84288750I0J-318750D01*
G01*
X153710000Y-84926250D01*
G75*
G02*
X153391250Y-85245000I-318750J0D01*
G01*
X152678750Y-85245000D01*
G75*
G02*
X152360000Y-84926250I0J318750D01*
G01*
X152360000Y-84288750D01*
G75*
G02*
X152678750Y-83970000I318750J0D01*
G01*
G37*
G36*
G01*
X152678750Y-82395000D02*
X153391250Y-82395000D01*
G75*
G02*
X153710000Y-82713750I0J-318750D01*
G01*
X153710000Y-83351250D01*
G75*
G02*
X153391250Y-83670000I-318750J0D01*
G01*
X152678750Y-83670000D01*
G75*
G02*
X152360000Y-83351250I0J318750D01*
G01*
X152360000Y-82713750D01*
G75*
G02*
X152678750Y-82395000I318750J0D01*
G01*
G37*
G36*
G01*
X137438750Y-80795000D02*
X138151250Y-80795000D01*
G75*
G02*
X138470000Y-81113750I0J-318750D01*
G01*
X138470000Y-81751250D01*
G75*
G02*
X138151250Y-82070000I-318750J0D01*
G01*
X137438750Y-82070000D01*
G75*
G02*
X137120000Y-81751250I0J318750D01*
G01*
X137120000Y-81113750D01*
G75*
G02*
X137438750Y-80795000I318750J0D01*
G01*
G37*
G36*
G01*
X137438750Y-79220000D02*
X138151250Y-79220000D01*
G75*
G02*
X138470000Y-79538750I0J-318750D01*
G01*
X138470000Y-80176250D01*
G75*
G02*
X138151250Y-80495000I-318750J0D01*
G01*
X137438750Y-80495000D01*
G75*
G02*
X137120000Y-80176250I0J318750D01*
G01*
X137120000Y-79538750D01*
G75*
G02*
X137438750Y-79220000I318750J0D01*
G01*
G37*
G36*
G01*
X139978750Y-80795000D02*
X140691250Y-80795000D01*
G75*
G02*
X141010000Y-81113750I0J-318750D01*
G01*
X141010000Y-81751250D01*
G75*
G02*
X140691250Y-82070000I-318750J0D01*
G01*
X139978750Y-82070000D01*
G75*
G02*
X139660000Y-81751250I0J318750D01*
G01*
X139660000Y-81113750D01*
G75*
G02*
X139978750Y-80795000I318750J0D01*
G01*
G37*
G36*
G01*
X139978750Y-79220000D02*
X140691250Y-79220000D01*
G75*
G02*
X141010000Y-79538750I0J-318750D01*
G01*
X141010000Y-80176250D01*
G75*
G02*
X140691250Y-80495000I-318750J0D01*
G01*
X139978750Y-80495000D01*
G75*
G02*
X139660000Y-80176250I0J318750D01*
G01*
X139660000Y-79538750D01*
G75*
G02*
X139978750Y-79220000I318750J0D01*
G01*
G37*
G36*
G01*
X150138750Y-80795000D02*
X150851250Y-80795000D01*
G75*
G02*
X151170000Y-81113750I0J-318750D01*
G01*
X151170000Y-81751250D01*
G75*
G02*
X150851250Y-82070000I-318750J0D01*
G01*
X150138750Y-82070000D01*
G75*
G02*
X149820000Y-81751250I0J318750D01*
G01*
X149820000Y-81113750D01*
G75*
G02*
X150138750Y-80795000I318750J0D01*
G01*
G37*
G36*
G01*
X150138750Y-79220000D02*
X150851250Y-79220000D01*
G75*
G02*
X151170000Y-79538750I0J-318750D01*
G01*
X151170000Y-80176250D01*
G75*
G02*
X150851250Y-80495000I-318750J0D01*
G01*
X150138750Y-80495000D01*
G75*
G02*
X149820000Y-80176250I0J318750D01*
G01*
X149820000Y-79538750D01*
G75*
G02*
X150138750Y-79220000I318750J0D01*
G01*
G37*
G36*
G01*
X139550000Y-103148750D02*
X139550000Y-103861250D01*
G75*
G02*
X139231250Y-104180000I-318750J0D01*
G01*
X138593750Y-104180000D01*
G75*
G02*
X138275000Y-103861250I0J318750D01*
G01*
X138275000Y-103148750D01*
G75*
G02*
X138593750Y-102830000I318750J0D01*
G01*
X139231250Y-102830000D01*
G75*
G02*
X139550000Y-103148750I0J-318750D01*
G01*
G37*
G36*
G01*
X141125000Y-103148750D02*
X141125000Y-103861250D01*
G75*
G02*
X140806250Y-104180000I-318750J0D01*
G01*
X140168750Y-104180000D01*
G75*
G02*
X139850000Y-103861250I0J318750D01*
G01*
X139850000Y-103148750D01*
G75*
G02*
X140168750Y-102830000I318750J0D01*
G01*
X140806250Y-102830000D01*
G75*
G02*
X141125000Y-103148750I0J-318750D01*
G01*
G37*
G36*
G01*
X137438750Y-92225000D02*
X138151250Y-92225000D01*
G75*
G02*
X138470000Y-92543750I0J-318750D01*
G01*
X138470000Y-93181250D01*
G75*
G02*
X138151250Y-93500000I-318750J0D01*
G01*
X137438750Y-93500000D01*
G75*
G02*
X137120000Y-93181250I0J318750D01*
G01*
X137120000Y-92543750D01*
G75*
G02*
X137438750Y-92225000I318750J0D01*
G01*
G37*
G36*
G01*
X137438750Y-90650000D02*
X138151250Y-90650000D01*
G75*
G02*
X138470000Y-90968750I0J-318750D01*
G01*
X138470000Y-91606250D01*
G75*
G02*
X138151250Y-91925000I-318750J0D01*
G01*
X137438750Y-91925000D01*
G75*
G02*
X137120000Y-91606250I0J318750D01*
G01*
X137120000Y-90968750D01*
G75*
G02*
X137438750Y-90650000I318750J0D01*
G01*
G37*
G36*
G01*
X138151250Y-97640000D02*
X137438750Y-97640000D01*
G75*
G02*
X137120000Y-97321250I0J318750D01*
G01*
X137120000Y-96683750D01*
G75*
G02*
X137438750Y-96365000I318750J0D01*
G01*
X138151250Y-96365000D01*
G75*
G02*
X138470000Y-96683750I0J-318750D01*
G01*
X138470000Y-97321250D01*
G75*
G02*
X138151250Y-97640000I-318750J0D01*
G01*
G37*
G36*
G01*
X138151250Y-99215000D02*
X137438750Y-99215000D01*
G75*
G02*
X137120000Y-98896250I0J318750D01*
G01*
X137120000Y-98258750D01*
G75*
G02*
X137438750Y-97940000I318750J0D01*
G01*
X138151250Y-97940000D01*
G75*
G02*
X138470000Y-98258750I0J-318750D01*
G01*
X138470000Y-98896250D01*
G75*
G02*
X138151250Y-99215000I-318750J0D01*
G01*
G37*
G36*
G01*
X133200000Y-101878750D02*
X133200000Y-102591250D01*
G75*
G02*
X132881250Y-102910000I-318750J0D01*
G01*
X132243750Y-102910000D01*
G75*
G02*
X131925000Y-102591250I0J318750D01*
G01*
X131925000Y-101878750D01*
G75*
G02*
X132243750Y-101560000I318750J0D01*
G01*
X132881250Y-101560000D01*
G75*
G02*
X133200000Y-101878750I0J-318750D01*
G01*
G37*
G36*
G01*
X134775000Y-101878750D02*
X134775000Y-102591250D01*
G75*
G02*
X134456250Y-102910000I-318750J0D01*
G01*
X133818750Y-102910000D01*
G75*
G02*
X133500000Y-102591250I0J318750D01*
G01*
X133500000Y-101878750D01*
G75*
G02*
X133818750Y-101560000I318750J0D01*
G01*
X134456250Y-101560000D01*
G75*
G02*
X134775000Y-101878750I0J-318750D01*
G01*
G37*
G36*
G01*
X133200000Y-87908750D02*
X133200000Y-88621250D01*
G75*
G02*
X132881250Y-88940000I-318750J0D01*
G01*
X132243750Y-88940000D01*
G75*
G02*
X131925000Y-88621250I0J318750D01*
G01*
X131925000Y-87908750D01*
G75*
G02*
X132243750Y-87590000I318750J0D01*
G01*
X132881250Y-87590000D01*
G75*
G02*
X133200000Y-87908750I0J-318750D01*
G01*
G37*
G36*
G01*
X134775000Y-87908750D02*
X134775000Y-88621250D01*
G75*
G02*
X134456250Y-88940000I-318750J0D01*
G01*
X133818750Y-88940000D01*
G75*
G02*
X133500000Y-88621250I0J318750D01*
G01*
X133500000Y-87908750D01*
G75*
G02*
X133818750Y-87590000I318750J0D01*
G01*
X134456250Y-87590000D01*
G75*
G02*
X134775000Y-87908750I0J-318750D01*
G01*
G37*
G36*
G01*
X138151250Y-88115000D02*
X137438750Y-88115000D01*
G75*
G02*
X137120000Y-87796250I0J318750D01*
G01*
X137120000Y-87158750D01*
G75*
G02*
X137438750Y-86840000I318750J0D01*
G01*
X138151250Y-86840000D01*
G75*
G02*
X138470000Y-87158750I0J-318750D01*
G01*
X138470000Y-87796250D01*
G75*
G02*
X138151250Y-88115000I-318750J0D01*
G01*
G37*
G36*
G01*
X138151250Y-89690000D02*
X137438750Y-89690000D01*
G75*
G02*
X137120000Y-89371250I0J318750D01*
G01*
X137120000Y-88733750D01*
G75*
G02*
X137438750Y-88415000I318750J0D01*
G01*
X138151250Y-88415000D01*
G75*
G02*
X138470000Y-88733750I0J-318750D01*
G01*
X138470000Y-89371250D01*
G75*
G02*
X138151250Y-89690000I-318750J0D01*
G01*
G37*
G36*
G01*
X137438750Y-84605000D02*
X138151250Y-84605000D01*
G75*
G02*
X138470000Y-84923750I0J-318750D01*
G01*
X138470000Y-85561250D01*
G75*
G02*
X138151250Y-85880000I-318750J0D01*
G01*
X137438750Y-85880000D01*
G75*
G02*
X137120000Y-85561250I0J318750D01*
G01*
X137120000Y-84923750D01*
G75*
G02*
X137438750Y-84605000I318750J0D01*
G01*
G37*
G36*
G01*
X137438750Y-83030000D02*
X138151250Y-83030000D01*
G75*
G02*
X138470000Y-83348750I0J-318750D01*
G01*
X138470000Y-83986250D01*
G75*
G02*
X138151250Y-84305000I-318750J0D01*
G01*
X137438750Y-84305000D01*
G75*
G02*
X137120000Y-83986250I0J318750D01*
G01*
X137120000Y-83348750D01*
G75*
G02*
X137438750Y-83030000I318750J0D01*
G01*
G37*
G36*
G01*
X135611250Y-80495000D02*
X134898750Y-80495000D01*
G75*
G02*
X134580000Y-80176250I0J318750D01*
G01*
X134580000Y-79538750D01*
G75*
G02*
X134898750Y-79220000I318750J0D01*
G01*
X135611250Y-79220000D01*
G75*
G02*
X135930000Y-79538750I0J-318750D01*
G01*
X135930000Y-80176250D01*
G75*
G02*
X135611250Y-80495000I-318750J0D01*
G01*
G37*
G36*
G01*
X135611250Y-82070000D02*
X134898750Y-82070000D01*
G75*
G02*
X134580000Y-81751250I0J318750D01*
G01*
X134580000Y-81113750D01*
G75*
G02*
X134898750Y-80795000I318750J0D01*
G01*
X135611250Y-80795000D01*
G75*
G02*
X135930000Y-81113750I0J-318750D01*
G01*
X135930000Y-81751250D01*
G75*
G02*
X135611250Y-82070000I-318750J0D01*
G01*
G37*
G36*
G01*
X145058750Y-80795000D02*
X145771250Y-80795000D01*
G75*
G02*
X146090000Y-81113750I0J-318750D01*
G01*
X146090000Y-81751250D01*
G75*
G02*
X145771250Y-82070000I-318750J0D01*
G01*
X145058750Y-82070000D01*
G75*
G02*
X144740000Y-81751250I0J318750D01*
G01*
X144740000Y-81113750D01*
G75*
G02*
X145058750Y-80795000I318750J0D01*
G01*
G37*
G36*
G01*
X145058750Y-79220000D02*
X145771250Y-79220000D01*
G75*
G02*
X146090000Y-79538750I0J-318750D01*
G01*
X146090000Y-80176250D01*
G75*
G02*
X145771250Y-80495000I-318750J0D01*
G01*
X145058750Y-80495000D01*
G75*
G02*
X144740000Y-80176250I0J318750D01*
G01*
X144740000Y-79538750D01*
G75*
G02*
X145058750Y-79220000I318750J0D01*
G01*
G37*
G36*
G01*
X142518750Y-80795000D02*
X143231250Y-80795000D01*
G75*
G02*
X143550000Y-81113750I0J-318750D01*
G01*
X143550000Y-81751250D01*
G75*
G02*
X143231250Y-82070000I-318750J0D01*
G01*
X142518750Y-82070000D01*
G75*
G02*
X142200000Y-81751250I0J318750D01*
G01*
X142200000Y-81113750D01*
G75*
G02*
X142518750Y-80795000I318750J0D01*
G01*
G37*
G36*
G01*
X142518750Y-79220000D02*
X143231250Y-79220000D01*
G75*
G02*
X143550000Y-79538750I0J-318750D01*
G01*
X143550000Y-80176250D01*
G75*
G02*
X143231250Y-80495000I-318750J0D01*
G01*
X142518750Y-80495000D01*
G75*
G02*
X142200000Y-80176250I0J318750D01*
G01*
X142200000Y-79538750D01*
G75*
G02*
X142518750Y-79220000I318750J0D01*
G01*
G37*
G36*
G01*
X148311250Y-80495000D02*
X147598750Y-80495000D01*
G75*
G02*
X147280000Y-80176250I0J318750D01*
G01*
X147280000Y-79538750D01*
G75*
G02*
X147598750Y-79220000I318750J0D01*
G01*
X148311250Y-79220000D01*
G75*
G02*
X148630000Y-79538750I0J-318750D01*
G01*
X148630000Y-80176250D01*
G75*
G02*
X148311250Y-80495000I-318750J0D01*
G01*
G37*
G36*
G01*
X148311250Y-82070000D02*
X147598750Y-82070000D01*
G75*
G02*
X147280000Y-81751250I0J318750D01*
G01*
X147280000Y-81113750D01*
G75*
G02*
X147598750Y-80795000I318750J0D01*
G01*
X148311250Y-80795000D01*
G75*
G02*
X148630000Y-81113750I0J-318750D01*
G01*
X148630000Y-81751250D01*
G75*
G02*
X148311250Y-82070000I-318750J0D01*
G01*
G37*
M02*
