G04 #@! TF.GenerationSoftware,KiCad,Pcbnew,(5.1.6)-1*
G04 #@! TF.CreationDate,2021-05-12T21:13:22-05:00*
G04 #@! TF.ProjectId,scuznet,7363757a-6e65-4742-9e6b-696361645f70,rev?*
G04 #@! TF.SameCoordinates,Original*
G04 #@! TF.FileFunction,Paste,Top*
G04 #@! TF.FilePolarity,Positive*
%FSLAX46Y46*%
G04 Gerber Fmt 4.6, Leading zero omitted, Abs format (unit mm)*
G04 Created by KiCad (PCBNEW (5.1.6)-1) date 2021-05-12 21:13:22*
%MOMM*%
%LPD*%
G01*
G04 APERTURE LIST*
%ADD10R,1.500000X2.000000*%
%ADD11R,3.800000X2.000000*%
%ADD12R,0.450000X1.300000*%
%ADD13R,0.900000X0.800000*%
%ADD14R,1.500000X0.550000*%
%ADD15R,0.550000X1.500000*%
%ADD16R,2.300000X2.500000*%
G04 APERTURE END LIST*
G36*
G01*
X106965000Y-137538750D02*
X106965000Y-138051250D01*
G75*
G02*
X106746250Y-138270000I-218750J0D01*
G01*
X106308750Y-138270000D01*
G75*
G02*
X106090000Y-138051250I0J218750D01*
G01*
X106090000Y-137538750D01*
G75*
G02*
X106308750Y-137320000I218750J0D01*
G01*
X106746250Y-137320000D01*
G75*
G02*
X106965000Y-137538750I0J-218750D01*
G01*
G37*
G36*
G01*
X108540000Y-137538750D02*
X108540000Y-138051250D01*
G75*
G02*
X108321250Y-138270000I-218750J0D01*
G01*
X107883750Y-138270000D01*
G75*
G02*
X107665000Y-138051250I0J218750D01*
G01*
X107665000Y-137538750D01*
G75*
G02*
X107883750Y-137320000I218750J0D01*
G01*
X108321250Y-137320000D01*
G75*
G02*
X108540000Y-137538750I0J-218750D01*
G01*
G37*
G36*
G01*
X111310000Y-137338750D02*
X111310000Y-138251250D01*
G75*
G02*
X111066250Y-138495000I-243750J0D01*
G01*
X110578750Y-138495000D01*
G75*
G02*
X110335000Y-138251250I0J243750D01*
G01*
X110335000Y-137338750D01*
G75*
G02*
X110578750Y-137095000I243750J0D01*
G01*
X111066250Y-137095000D01*
G75*
G02*
X111310000Y-137338750I0J-243750D01*
G01*
G37*
G36*
G01*
X113185000Y-137338750D02*
X113185000Y-138251250D01*
G75*
G02*
X112941250Y-138495000I-243750J0D01*
G01*
X112453750Y-138495000D01*
G75*
G02*
X112210000Y-138251250I0J243750D01*
G01*
X112210000Y-137338750D01*
G75*
G02*
X112453750Y-137095000I243750J0D01*
G01*
X112941250Y-137095000D01*
G75*
G02*
X113185000Y-137338750I0J-243750D01*
G01*
G37*
D10*
X75170000Y-107925000D03*
X79770000Y-107925000D03*
X77470000Y-107925000D03*
D11*
X77470000Y-101625000D03*
G36*
G01*
X82928750Y-125445000D02*
X83441250Y-125445000D01*
G75*
G02*
X83660000Y-125663750I0J-218750D01*
G01*
X83660000Y-126101250D01*
G75*
G02*
X83441250Y-126320000I-218750J0D01*
G01*
X82928750Y-126320000D01*
G75*
G02*
X82710000Y-126101250I0J218750D01*
G01*
X82710000Y-125663750D01*
G75*
G02*
X82928750Y-125445000I218750J0D01*
G01*
G37*
G36*
G01*
X82928750Y-123870000D02*
X83441250Y-123870000D01*
G75*
G02*
X83660000Y-124088750I0J-218750D01*
G01*
X83660000Y-124526250D01*
G75*
G02*
X83441250Y-124745000I-218750J0D01*
G01*
X82928750Y-124745000D01*
G75*
G02*
X82710000Y-124526250I0J218750D01*
G01*
X82710000Y-124088750D01*
G75*
G02*
X82928750Y-123870000I218750J0D01*
G01*
G37*
G36*
G01*
X82928750Y-129255000D02*
X83441250Y-129255000D01*
G75*
G02*
X83660000Y-129473750I0J-218750D01*
G01*
X83660000Y-129911250D01*
G75*
G02*
X83441250Y-130130000I-218750J0D01*
G01*
X82928750Y-130130000D01*
G75*
G02*
X82710000Y-129911250I0J218750D01*
G01*
X82710000Y-129473750D01*
G75*
G02*
X82928750Y-129255000I218750J0D01*
G01*
G37*
G36*
G01*
X82928750Y-127680000D02*
X83441250Y-127680000D01*
G75*
G02*
X83660000Y-127898750I0J-218750D01*
G01*
X83660000Y-128336250D01*
G75*
G02*
X83441250Y-128555000I-218750J0D01*
G01*
X82928750Y-128555000D01*
G75*
G02*
X82710000Y-128336250I0J218750D01*
G01*
X82710000Y-127898750D01*
G75*
G02*
X82928750Y-127680000I218750J0D01*
G01*
G37*
D12*
X89300000Y-132850000D03*
X88650000Y-132850000D03*
X88000000Y-132850000D03*
X87350000Y-132850000D03*
X86700000Y-132850000D03*
D13*
X85360000Y-128905000D03*
X87360000Y-127955000D03*
X87360000Y-129855000D03*
G36*
G01*
X149800000Y-137149800D02*
X149800000Y-135250200D01*
G75*
G02*
X150050200Y-135000000I250200J0D01*
G01*
X151349800Y-135000000D01*
G75*
G02*
X151600000Y-135250200I0J-250200D01*
G01*
X151600000Y-137149800D01*
G75*
G02*
X151349800Y-137400000I-250200J0D01*
G01*
X150050200Y-137400000D01*
G75*
G02*
X149800000Y-137149800I0J250200D01*
G01*
G37*
G36*
G01*
X123400000Y-138350100D02*
X123400000Y-136449900D01*
G75*
G02*
X123649900Y-136200000I249900J0D01*
G01*
X124850100Y-136200000D01*
G75*
G02*
X125100000Y-136449900I0J-249900D01*
G01*
X125100000Y-138350100D01*
G75*
G02*
X124850100Y-138600000I-249900J0D01*
G01*
X123649900Y-138600000D01*
G75*
G02*
X123400000Y-138350100I0J249900D01*
G01*
G37*
G36*
G01*
X123910000Y-115750100D02*
X123910000Y-114249900D01*
G75*
G02*
X124159900Y-114000000I249900J0D01*
G01*
X124360100Y-114000000D01*
G75*
G02*
X124610000Y-114249900I0J-249900D01*
G01*
X124610000Y-115750100D01*
G75*
G02*
X124360100Y-116000000I-249900J0D01*
G01*
X124159900Y-116000000D01*
G75*
G02*
X123910000Y-115750100I0J249900D01*
G01*
G37*
G36*
G01*
X127350000Y-115749600D02*
X127350000Y-114250400D01*
G75*
G02*
X127600400Y-114000000I250400J0D01*
G01*
X127899600Y-114000000D01*
G75*
G02*
X128150000Y-114250400I0J-250400D01*
G01*
X128150000Y-115749600D01*
G75*
G02*
X127899600Y-116000000I-250400J0D01*
G01*
X127600400Y-116000000D01*
G75*
G02*
X127350000Y-115749600I0J250400D01*
G01*
G37*
G36*
G01*
X129050000Y-115749600D02*
X129050000Y-114250400D01*
G75*
G02*
X129300400Y-114000000I250400J0D01*
G01*
X129599600Y-114000000D01*
G75*
G02*
X129850000Y-114250400I0J-250400D01*
G01*
X129850000Y-115749600D01*
G75*
G02*
X129599600Y-116000000I-250400J0D01*
G01*
X129300400Y-116000000D01*
G75*
G02*
X129050000Y-115749600I0J250400D01*
G01*
G37*
G36*
G01*
X131480000Y-115749600D02*
X131480000Y-114250400D01*
G75*
G02*
X131730400Y-114000000I250400J0D01*
G01*
X132029600Y-114000000D01*
G75*
G02*
X132280000Y-114250400I0J-250400D01*
G01*
X132280000Y-115749600D01*
G75*
G02*
X132029600Y-116000000I-250400J0D01*
G01*
X131730400Y-116000000D01*
G75*
G02*
X131480000Y-115749600I0J250400D01*
G01*
G37*
G36*
G01*
X133980000Y-115749600D02*
X133980000Y-114250400D01*
G75*
G02*
X134230400Y-114000000I250400J0D01*
G01*
X134529600Y-114000000D01*
G75*
G02*
X134780000Y-114250400I0J-250400D01*
G01*
X134780000Y-115749600D01*
G75*
G02*
X134529600Y-116000000I-250400J0D01*
G01*
X134230400Y-116000000D01*
G75*
G02*
X133980000Y-115749600I0J250400D01*
G01*
G37*
G36*
G01*
X136480000Y-115749600D02*
X136480000Y-114250400D01*
G75*
G02*
X136730400Y-114000000I250400J0D01*
G01*
X137029600Y-114000000D01*
G75*
G02*
X137280000Y-114250400I0J-250400D01*
G01*
X137280000Y-115749600D01*
G75*
G02*
X137029600Y-116000000I-250400J0D01*
G01*
X136730400Y-116000000D01*
G75*
G02*
X136480000Y-115749600I0J250400D01*
G01*
G37*
G36*
G01*
X138180000Y-115749600D02*
X138180000Y-114250400D01*
G75*
G02*
X138430400Y-114000000I250400J0D01*
G01*
X138729600Y-114000000D01*
G75*
G02*
X138980000Y-114250400I0J-250400D01*
G01*
X138980000Y-115749600D01*
G75*
G02*
X138729600Y-116000000I-250400J0D01*
G01*
X138430400Y-116000000D01*
G75*
G02*
X138180000Y-115749600I0J250400D01*
G01*
G37*
G36*
G01*
X139780000Y-115749600D02*
X139780000Y-114250400D01*
G75*
G02*
X140030400Y-114000000I250400J0D01*
G01*
X140329600Y-114000000D01*
G75*
G02*
X140580000Y-114250400I0J-250400D01*
G01*
X140580000Y-115749600D01*
G75*
G02*
X140329600Y-116000000I-250400J0D01*
G01*
X140030400Y-116000000D01*
G75*
G02*
X139780000Y-115749600I0J250400D01*
G01*
G37*
G36*
G01*
X141480000Y-115749600D02*
X141480000Y-114250400D01*
G75*
G02*
X141730400Y-114000000I250400J0D01*
G01*
X142029600Y-114000000D01*
G75*
G02*
X142280000Y-114250400I0J-250400D01*
G01*
X142280000Y-115749600D01*
G75*
G02*
X142029600Y-116000000I-250400J0D01*
G01*
X141730400Y-116000000D01*
G75*
G02*
X141480000Y-115749600I0J250400D01*
G01*
G37*
G36*
G01*
X143980000Y-115749600D02*
X143980000Y-114250400D01*
G75*
G02*
X144230400Y-114000000I250400J0D01*
G01*
X144529600Y-114000000D01*
G75*
G02*
X144780000Y-114250400I0J-250400D01*
G01*
X144780000Y-115749600D01*
G75*
G02*
X144529600Y-116000000I-250400J0D01*
G01*
X144230400Y-116000000D01*
G75*
G02*
X143980000Y-115749600I0J250400D01*
G01*
G37*
G36*
G01*
X146480000Y-115749600D02*
X146480000Y-114250400D01*
G75*
G02*
X146730400Y-114000000I250400J0D01*
G01*
X147029600Y-114000000D01*
G75*
G02*
X147280000Y-114250400I0J-250400D01*
G01*
X147280000Y-115749600D01*
G75*
G02*
X147029600Y-116000000I-250400J0D01*
G01*
X146730400Y-116000000D01*
G75*
G02*
X146480000Y-115749600I0J250400D01*
G01*
G37*
G36*
G01*
X121135000Y-107765000D02*
X121435000Y-107765000D01*
G75*
G02*
X121585000Y-107915000I0J-150000D01*
G01*
X121585000Y-109665000D01*
G75*
G02*
X121435000Y-109815000I-150000J0D01*
G01*
X121135000Y-109815000D01*
G75*
G02*
X120985000Y-109665000I0J150000D01*
G01*
X120985000Y-107915000D01*
G75*
G02*
X121135000Y-107765000I150000J0D01*
G01*
G37*
G36*
G01*
X119865000Y-107765000D02*
X120165000Y-107765000D01*
G75*
G02*
X120315000Y-107915000I0J-150000D01*
G01*
X120315000Y-109665000D01*
G75*
G02*
X120165000Y-109815000I-150000J0D01*
G01*
X119865000Y-109815000D01*
G75*
G02*
X119715000Y-109665000I0J150000D01*
G01*
X119715000Y-107915000D01*
G75*
G02*
X119865000Y-107765000I150000J0D01*
G01*
G37*
G36*
G01*
X118595000Y-107765000D02*
X118895000Y-107765000D01*
G75*
G02*
X119045000Y-107915000I0J-150000D01*
G01*
X119045000Y-109665000D01*
G75*
G02*
X118895000Y-109815000I-150000J0D01*
G01*
X118595000Y-109815000D01*
G75*
G02*
X118445000Y-109665000I0J150000D01*
G01*
X118445000Y-107915000D01*
G75*
G02*
X118595000Y-107765000I150000J0D01*
G01*
G37*
G36*
G01*
X117325000Y-107765000D02*
X117625000Y-107765000D01*
G75*
G02*
X117775000Y-107915000I0J-150000D01*
G01*
X117775000Y-109665000D01*
G75*
G02*
X117625000Y-109815000I-150000J0D01*
G01*
X117325000Y-109815000D01*
G75*
G02*
X117175000Y-109665000I0J150000D01*
G01*
X117175000Y-107915000D01*
G75*
G02*
X117325000Y-107765000I150000J0D01*
G01*
G37*
G36*
G01*
X116055000Y-107765000D02*
X116355000Y-107765000D01*
G75*
G02*
X116505000Y-107915000I0J-150000D01*
G01*
X116505000Y-109665000D01*
G75*
G02*
X116355000Y-109815000I-150000J0D01*
G01*
X116055000Y-109815000D01*
G75*
G02*
X115905000Y-109665000I0J150000D01*
G01*
X115905000Y-107915000D01*
G75*
G02*
X116055000Y-107765000I150000J0D01*
G01*
G37*
G36*
G01*
X114785000Y-107765000D02*
X115085000Y-107765000D01*
G75*
G02*
X115235000Y-107915000I0J-150000D01*
G01*
X115235000Y-109665000D01*
G75*
G02*
X115085000Y-109815000I-150000J0D01*
G01*
X114785000Y-109815000D01*
G75*
G02*
X114635000Y-109665000I0J150000D01*
G01*
X114635000Y-107915000D01*
G75*
G02*
X114785000Y-107765000I150000J0D01*
G01*
G37*
G36*
G01*
X113515000Y-107765000D02*
X113815000Y-107765000D01*
G75*
G02*
X113965000Y-107915000I0J-150000D01*
G01*
X113965000Y-109665000D01*
G75*
G02*
X113815000Y-109815000I-150000J0D01*
G01*
X113515000Y-109815000D01*
G75*
G02*
X113365000Y-109665000I0J150000D01*
G01*
X113365000Y-107915000D01*
G75*
G02*
X113515000Y-107765000I150000J0D01*
G01*
G37*
G36*
G01*
X112245000Y-107765000D02*
X112545000Y-107765000D01*
G75*
G02*
X112695000Y-107915000I0J-150000D01*
G01*
X112695000Y-109665000D01*
G75*
G02*
X112545000Y-109815000I-150000J0D01*
G01*
X112245000Y-109815000D01*
G75*
G02*
X112095000Y-109665000I0J150000D01*
G01*
X112095000Y-107915000D01*
G75*
G02*
X112245000Y-107765000I150000J0D01*
G01*
G37*
G36*
G01*
X110975000Y-107765000D02*
X111275000Y-107765000D01*
G75*
G02*
X111425000Y-107915000I0J-150000D01*
G01*
X111425000Y-109665000D01*
G75*
G02*
X111275000Y-109815000I-150000J0D01*
G01*
X110975000Y-109815000D01*
G75*
G02*
X110825000Y-109665000I0J150000D01*
G01*
X110825000Y-107915000D01*
G75*
G02*
X110975000Y-107765000I150000J0D01*
G01*
G37*
G36*
G01*
X109705000Y-107765000D02*
X110005000Y-107765000D01*
G75*
G02*
X110155000Y-107915000I0J-150000D01*
G01*
X110155000Y-109665000D01*
G75*
G02*
X110005000Y-109815000I-150000J0D01*
G01*
X109705000Y-109815000D01*
G75*
G02*
X109555000Y-109665000I0J150000D01*
G01*
X109555000Y-107915000D01*
G75*
G02*
X109705000Y-107765000I150000J0D01*
G01*
G37*
G36*
G01*
X109705000Y-98465000D02*
X110005000Y-98465000D01*
G75*
G02*
X110155000Y-98615000I0J-150000D01*
G01*
X110155000Y-100365000D01*
G75*
G02*
X110005000Y-100515000I-150000J0D01*
G01*
X109705000Y-100515000D01*
G75*
G02*
X109555000Y-100365000I0J150000D01*
G01*
X109555000Y-98615000D01*
G75*
G02*
X109705000Y-98465000I150000J0D01*
G01*
G37*
G36*
G01*
X110975000Y-98465000D02*
X111275000Y-98465000D01*
G75*
G02*
X111425000Y-98615000I0J-150000D01*
G01*
X111425000Y-100365000D01*
G75*
G02*
X111275000Y-100515000I-150000J0D01*
G01*
X110975000Y-100515000D01*
G75*
G02*
X110825000Y-100365000I0J150000D01*
G01*
X110825000Y-98615000D01*
G75*
G02*
X110975000Y-98465000I150000J0D01*
G01*
G37*
G36*
G01*
X112245000Y-98465000D02*
X112545000Y-98465000D01*
G75*
G02*
X112695000Y-98615000I0J-150000D01*
G01*
X112695000Y-100365000D01*
G75*
G02*
X112545000Y-100515000I-150000J0D01*
G01*
X112245000Y-100515000D01*
G75*
G02*
X112095000Y-100365000I0J150000D01*
G01*
X112095000Y-98615000D01*
G75*
G02*
X112245000Y-98465000I150000J0D01*
G01*
G37*
G36*
G01*
X113515000Y-98465000D02*
X113815000Y-98465000D01*
G75*
G02*
X113965000Y-98615000I0J-150000D01*
G01*
X113965000Y-100365000D01*
G75*
G02*
X113815000Y-100515000I-150000J0D01*
G01*
X113515000Y-100515000D01*
G75*
G02*
X113365000Y-100365000I0J150000D01*
G01*
X113365000Y-98615000D01*
G75*
G02*
X113515000Y-98465000I150000J0D01*
G01*
G37*
G36*
G01*
X114785000Y-98465000D02*
X115085000Y-98465000D01*
G75*
G02*
X115235000Y-98615000I0J-150000D01*
G01*
X115235000Y-100365000D01*
G75*
G02*
X115085000Y-100515000I-150000J0D01*
G01*
X114785000Y-100515000D01*
G75*
G02*
X114635000Y-100365000I0J150000D01*
G01*
X114635000Y-98615000D01*
G75*
G02*
X114785000Y-98465000I150000J0D01*
G01*
G37*
G36*
G01*
X116055000Y-98465000D02*
X116355000Y-98465000D01*
G75*
G02*
X116505000Y-98615000I0J-150000D01*
G01*
X116505000Y-100365000D01*
G75*
G02*
X116355000Y-100515000I-150000J0D01*
G01*
X116055000Y-100515000D01*
G75*
G02*
X115905000Y-100365000I0J150000D01*
G01*
X115905000Y-98615000D01*
G75*
G02*
X116055000Y-98465000I150000J0D01*
G01*
G37*
G36*
G01*
X117325000Y-98465000D02*
X117625000Y-98465000D01*
G75*
G02*
X117775000Y-98615000I0J-150000D01*
G01*
X117775000Y-100365000D01*
G75*
G02*
X117625000Y-100515000I-150000J0D01*
G01*
X117325000Y-100515000D01*
G75*
G02*
X117175000Y-100365000I0J150000D01*
G01*
X117175000Y-98615000D01*
G75*
G02*
X117325000Y-98465000I150000J0D01*
G01*
G37*
G36*
G01*
X118595000Y-98465000D02*
X118895000Y-98465000D01*
G75*
G02*
X119045000Y-98615000I0J-150000D01*
G01*
X119045000Y-100365000D01*
G75*
G02*
X118895000Y-100515000I-150000J0D01*
G01*
X118595000Y-100515000D01*
G75*
G02*
X118445000Y-100365000I0J150000D01*
G01*
X118445000Y-98615000D01*
G75*
G02*
X118595000Y-98465000I150000J0D01*
G01*
G37*
G36*
G01*
X119865000Y-98465000D02*
X120165000Y-98465000D01*
G75*
G02*
X120315000Y-98615000I0J-150000D01*
G01*
X120315000Y-100365000D01*
G75*
G02*
X120165000Y-100515000I-150000J0D01*
G01*
X119865000Y-100515000D01*
G75*
G02*
X119715000Y-100365000I0J150000D01*
G01*
X119715000Y-98615000D01*
G75*
G02*
X119865000Y-98465000I150000J0D01*
G01*
G37*
G36*
G01*
X121135000Y-98465000D02*
X121435000Y-98465000D01*
G75*
G02*
X121585000Y-98615000I0J-150000D01*
G01*
X121585000Y-100365000D01*
G75*
G02*
X121435000Y-100515000I-150000J0D01*
G01*
X121135000Y-100515000D01*
G75*
G02*
X120985000Y-100365000I0J150000D01*
G01*
X120985000Y-98615000D01*
G75*
G02*
X121135000Y-98465000I150000J0D01*
G01*
G37*
G36*
G01*
X141790000Y-100815000D02*
X141790000Y-101115000D01*
G75*
G02*
X141640000Y-101265000I-150000J0D01*
G01*
X139890000Y-101265000D01*
G75*
G02*
X139740000Y-101115000I0J150000D01*
G01*
X139740000Y-100815000D01*
G75*
G02*
X139890000Y-100665000I150000J0D01*
G01*
X141640000Y-100665000D01*
G75*
G02*
X141790000Y-100815000I0J-150000D01*
G01*
G37*
G36*
G01*
X141790000Y-99545000D02*
X141790000Y-99845000D01*
G75*
G02*
X141640000Y-99995000I-150000J0D01*
G01*
X139890000Y-99995000D01*
G75*
G02*
X139740000Y-99845000I0J150000D01*
G01*
X139740000Y-99545000D01*
G75*
G02*
X139890000Y-99395000I150000J0D01*
G01*
X141640000Y-99395000D01*
G75*
G02*
X141790000Y-99545000I0J-150000D01*
G01*
G37*
G36*
G01*
X141790000Y-98275000D02*
X141790000Y-98575000D01*
G75*
G02*
X141640000Y-98725000I-150000J0D01*
G01*
X139890000Y-98725000D01*
G75*
G02*
X139740000Y-98575000I0J150000D01*
G01*
X139740000Y-98275000D01*
G75*
G02*
X139890000Y-98125000I150000J0D01*
G01*
X141640000Y-98125000D01*
G75*
G02*
X141790000Y-98275000I0J-150000D01*
G01*
G37*
G36*
G01*
X141790000Y-97005000D02*
X141790000Y-97305000D01*
G75*
G02*
X141640000Y-97455000I-150000J0D01*
G01*
X139890000Y-97455000D01*
G75*
G02*
X139740000Y-97305000I0J150000D01*
G01*
X139740000Y-97005000D01*
G75*
G02*
X139890000Y-96855000I150000J0D01*
G01*
X141640000Y-96855000D01*
G75*
G02*
X141790000Y-97005000I0J-150000D01*
G01*
G37*
G36*
G01*
X141790000Y-95735000D02*
X141790000Y-96035000D01*
G75*
G02*
X141640000Y-96185000I-150000J0D01*
G01*
X139890000Y-96185000D01*
G75*
G02*
X139740000Y-96035000I0J150000D01*
G01*
X139740000Y-95735000D01*
G75*
G02*
X139890000Y-95585000I150000J0D01*
G01*
X141640000Y-95585000D01*
G75*
G02*
X141790000Y-95735000I0J-150000D01*
G01*
G37*
G36*
G01*
X141790000Y-94465000D02*
X141790000Y-94765000D01*
G75*
G02*
X141640000Y-94915000I-150000J0D01*
G01*
X139890000Y-94915000D01*
G75*
G02*
X139740000Y-94765000I0J150000D01*
G01*
X139740000Y-94465000D01*
G75*
G02*
X139890000Y-94315000I150000J0D01*
G01*
X141640000Y-94315000D01*
G75*
G02*
X141790000Y-94465000I0J-150000D01*
G01*
G37*
G36*
G01*
X141790000Y-93195000D02*
X141790000Y-93495000D01*
G75*
G02*
X141640000Y-93645000I-150000J0D01*
G01*
X139890000Y-93645000D01*
G75*
G02*
X139740000Y-93495000I0J150000D01*
G01*
X139740000Y-93195000D01*
G75*
G02*
X139890000Y-93045000I150000J0D01*
G01*
X141640000Y-93045000D01*
G75*
G02*
X141790000Y-93195000I0J-150000D01*
G01*
G37*
G36*
G01*
X141790000Y-91925000D02*
X141790000Y-92225000D01*
G75*
G02*
X141640000Y-92375000I-150000J0D01*
G01*
X139890000Y-92375000D01*
G75*
G02*
X139740000Y-92225000I0J150000D01*
G01*
X139740000Y-91925000D01*
G75*
G02*
X139890000Y-91775000I150000J0D01*
G01*
X141640000Y-91775000D01*
G75*
G02*
X141790000Y-91925000I0J-150000D01*
G01*
G37*
G36*
G01*
X141790000Y-90655000D02*
X141790000Y-90955000D01*
G75*
G02*
X141640000Y-91105000I-150000J0D01*
G01*
X139890000Y-91105000D01*
G75*
G02*
X139740000Y-90955000I0J150000D01*
G01*
X139740000Y-90655000D01*
G75*
G02*
X139890000Y-90505000I150000J0D01*
G01*
X141640000Y-90505000D01*
G75*
G02*
X141790000Y-90655000I0J-150000D01*
G01*
G37*
G36*
G01*
X141790000Y-89385000D02*
X141790000Y-89685000D01*
G75*
G02*
X141640000Y-89835000I-150000J0D01*
G01*
X139890000Y-89835000D01*
G75*
G02*
X139740000Y-89685000I0J150000D01*
G01*
X139740000Y-89385000D01*
G75*
G02*
X139890000Y-89235000I150000J0D01*
G01*
X141640000Y-89235000D01*
G75*
G02*
X141790000Y-89385000I0J-150000D01*
G01*
G37*
G36*
G01*
X141790000Y-88115000D02*
X141790000Y-88415000D01*
G75*
G02*
X141640000Y-88565000I-150000J0D01*
G01*
X139890000Y-88565000D01*
G75*
G02*
X139740000Y-88415000I0J150000D01*
G01*
X139740000Y-88115000D01*
G75*
G02*
X139890000Y-87965000I150000J0D01*
G01*
X141640000Y-87965000D01*
G75*
G02*
X141790000Y-88115000I0J-150000D01*
G01*
G37*
G36*
G01*
X141790000Y-86845000D02*
X141790000Y-87145000D01*
G75*
G02*
X141640000Y-87295000I-150000J0D01*
G01*
X139890000Y-87295000D01*
G75*
G02*
X139740000Y-87145000I0J150000D01*
G01*
X139740000Y-86845000D01*
G75*
G02*
X139890000Y-86695000I150000J0D01*
G01*
X141640000Y-86695000D01*
G75*
G02*
X141790000Y-86845000I0J-150000D01*
G01*
G37*
G36*
G01*
X141790000Y-85575000D02*
X141790000Y-85875000D01*
G75*
G02*
X141640000Y-86025000I-150000J0D01*
G01*
X139890000Y-86025000D01*
G75*
G02*
X139740000Y-85875000I0J150000D01*
G01*
X139740000Y-85575000D01*
G75*
G02*
X139890000Y-85425000I150000J0D01*
G01*
X141640000Y-85425000D01*
G75*
G02*
X141790000Y-85575000I0J-150000D01*
G01*
G37*
G36*
G01*
X141790000Y-84305000D02*
X141790000Y-84605000D01*
G75*
G02*
X141640000Y-84755000I-150000J0D01*
G01*
X139890000Y-84755000D01*
G75*
G02*
X139740000Y-84605000I0J150000D01*
G01*
X139740000Y-84305000D01*
G75*
G02*
X139890000Y-84155000I150000J0D01*
G01*
X141640000Y-84155000D01*
G75*
G02*
X141790000Y-84305000I0J-150000D01*
G01*
G37*
G36*
G01*
X151090000Y-84305000D02*
X151090000Y-84605000D01*
G75*
G02*
X150940000Y-84755000I-150000J0D01*
G01*
X149190000Y-84755000D01*
G75*
G02*
X149040000Y-84605000I0J150000D01*
G01*
X149040000Y-84305000D01*
G75*
G02*
X149190000Y-84155000I150000J0D01*
G01*
X150940000Y-84155000D01*
G75*
G02*
X151090000Y-84305000I0J-150000D01*
G01*
G37*
G36*
G01*
X151090000Y-85575000D02*
X151090000Y-85875000D01*
G75*
G02*
X150940000Y-86025000I-150000J0D01*
G01*
X149190000Y-86025000D01*
G75*
G02*
X149040000Y-85875000I0J150000D01*
G01*
X149040000Y-85575000D01*
G75*
G02*
X149190000Y-85425000I150000J0D01*
G01*
X150940000Y-85425000D01*
G75*
G02*
X151090000Y-85575000I0J-150000D01*
G01*
G37*
G36*
G01*
X151090000Y-86845000D02*
X151090000Y-87145000D01*
G75*
G02*
X150940000Y-87295000I-150000J0D01*
G01*
X149190000Y-87295000D01*
G75*
G02*
X149040000Y-87145000I0J150000D01*
G01*
X149040000Y-86845000D01*
G75*
G02*
X149190000Y-86695000I150000J0D01*
G01*
X150940000Y-86695000D01*
G75*
G02*
X151090000Y-86845000I0J-150000D01*
G01*
G37*
G36*
G01*
X151090000Y-88115000D02*
X151090000Y-88415000D01*
G75*
G02*
X150940000Y-88565000I-150000J0D01*
G01*
X149190000Y-88565000D01*
G75*
G02*
X149040000Y-88415000I0J150000D01*
G01*
X149040000Y-88115000D01*
G75*
G02*
X149190000Y-87965000I150000J0D01*
G01*
X150940000Y-87965000D01*
G75*
G02*
X151090000Y-88115000I0J-150000D01*
G01*
G37*
G36*
G01*
X151090000Y-89385000D02*
X151090000Y-89685000D01*
G75*
G02*
X150940000Y-89835000I-150000J0D01*
G01*
X149190000Y-89835000D01*
G75*
G02*
X149040000Y-89685000I0J150000D01*
G01*
X149040000Y-89385000D01*
G75*
G02*
X149190000Y-89235000I150000J0D01*
G01*
X150940000Y-89235000D01*
G75*
G02*
X151090000Y-89385000I0J-150000D01*
G01*
G37*
G36*
G01*
X151090000Y-90655000D02*
X151090000Y-90955000D01*
G75*
G02*
X150940000Y-91105000I-150000J0D01*
G01*
X149190000Y-91105000D01*
G75*
G02*
X149040000Y-90955000I0J150000D01*
G01*
X149040000Y-90655000D01*
G75*
G02*
X149190000Y-90505000I150000J0D01*
G01*
X150940000Y-90505000D01*
G75*
G02*
X151090000Y-90655000I0J-150000D01*
G01*
G37*
G36*
G01*
X151090000Y-91925000D02*
X151090000Y-92225000D01*
G75*
G02*
X150940000Y-92375000I-150000J0D01*
G01*
X149190000Y-92375000D01*
G75*
G02*
X149040000Y-92225000I0J150000D01*
G01*
X149040000Y-91925000D01*
G75*
G02*
X149190000Y-91775000I150000J0D01*
G01*
X150940000Y-91775000D01*
G75*
G02*
X151090000Y-91925000I0J-150000D01*
G01*
G37*
G36*
G01*
X151090000Y-93195000D02*
X151090000Y-93495000D01*
G75*
G02*
X150940000Y-93645000I-150000J0D01*
G01*
X149190000Y-93645000D01*
G75*
G02*
X149040000Y-93495000I0J150000D01*
G01*
X149040000Y-93195000D01*
G75*
G02*
X149190000Y-93045000I150000J0D01*
G01*
X150940000Y-93045000D01*
G75*
G02*
X151090000Y-93195000I0J-150000D01*
G01*
G37*
G36*
G01*
X151090000Y-94465000D02*
X151090000Y-94765000D01*
G75*
G02*
X150940000Y-94915000I-150000J0D01*
G01*
X149190000Y-94915000D01*
G75*
G02*
X149040000Y-94765000I0J150000D01*
G01*
X149040000Y-94465000D01*
G75*
G02*
X149190000Y-94315000I150000J0D01*
G01*
X150940000Y-94315000D01*
G75*
G02*
X151090000Y-94465000I0J-150000D01*
G01*
G37*
G36*
G01*
X151090000Y-95735000D02*
X151090000Y-96035000D01*
G75*
G02*
X150940000Y-96185000I-150000J0D01*
G01*
X149190000Y-96185000D01*
G75*
G02*
X149040000Y-96035000I0J150000D01*
G01*
X149040000Y-95735000D01*
G75*
G02*
X149190000Y-95585000I150000J0D01*
G01*
X150940000Y-95585000D01*
G75*
G02*
X151090000Y-95735000I0J-150000D01*
G01*
G37*
G36*
G01*
X151090000Y-97005000D02*
X151090000Y-97305000D01*
G75*
G02*
X150940000Y-97455000I-150000J0D01*
G01*
X149190000Y-97455000D01*
G75*
G02*
X149040000Y-97305000I0J150000D01*
G01*
X149040000Y-97005000D01*
G75*
G02*
X149190000Y-96855000I150000J0D01*
G01*
X150940000Y-96855000D01*
G75*
G02*
X151090000Y-97005000I0J-150000D01*
G01*
G37*
G36*
G01*
X151090000Y-98275000D02*
X151090000Y-98575000D01*
G75*
G02*
X150940000Y-98725000I-150000J0D01*
G01*
X149190000Y-98725000D01*
G75*
G02*
X149040000Y-98575000I0J150000D01*
G01*
X149040000Y-98275000D01*
G75*
G02*
X149190000Y-98125000I150000J0D01*
G01*
X150940000Y-98125000D01*
G75*
G02*
X151090000Y-98275000I0J-150000D01*
G01*
G37*
G36*
G01*
X151090000Y-99545000D02*
X151090000Y-99845000D01*
G75*
G02*
X150940000Y-99995000I-150000J0D01*
G01*
X149190000Y-99995000D01*
G75*
G02*
X149040000Y-99845000I0J150000D01*
G01*
X149040000Y-99545000D01*
G75*
G02*
X149190000Y-99395000I150000J0D01*
G01*
X150940000Y-99395000D01*
G75*
G02*
X151090000Y-99545000I0J-150000D01*
G01*
G37*
G36*
G01*
X151090000Y-100815000D02*
X151090000Y-101115000D01*
G75*
G02*
X150940000Y-101265000I-150000J0D01*
G01*
X149190000Y-101265000D01*
G75*
G02*
X149040000Y-101115000I0J150000D01*
G01*
X149040000Y-100815000D01*
G75*
G02*
X149190000Y-100665000I150000J0D01*
G01*
X150940000Y-100665000D01*
G75*
G02*
X151090000Y-100815000I0J-150000D01*
G01*
G37*
G36*
G01*
X98275000Y-91670000D02*
X98575000Y-91670000D01*
G75*
G02*
X98725000Y-91820000I0J-150000D01*
G01*
X98725000Y-93470000D01*
G75*
G02*
X98575000Y-93620000I-150000J0D01*
G01*
X98275000Y-93620000D01*
G75*
G02*
X98125000Y-93470000I0J150000D01*
G01*
X98125000Y-91820000D01*
G75*
G02*
X98275000Y-91670000I150000J0D01*
G01*
G37*
G36*
G01*
X97005000Y-91670000D02*
X97305000Y-91670000D01*
G75*
G02*
X97455000Y-91820000I0J-150000D01*
G01*
X97455000Y-93470000D01*
G75*
G02*
X97305000Y-93620000I-150000J0D01*
G01*
X97005000Y-93620000D01*
G75*
G02*
X96855000Y-93470000I0J150000D01*
G01*
X96855000Y-91820000D01*
G75*
G02*
X97005000Y-91670000I150000J0D01*
G01*
G37*
G36*
G01*
X95735000Y-91670000D02*
X96035000Y-91670000D01*
G75*
G02*
X96185000Y-91820000I0J-150000D01*
G01*
X96185000Y-93470000D01*
G75*
G02*
X96035000Y-93620000I-150000J0D01*
G01*
X95735000Y-93620000D01*
G75*
G02*
X95585000Y-93470000I0J150000D01*
G01*
X95585000Y-91820000D01*
G75*
G02*
X95735000Y-91670000I150000J0D01*
G01*
G37*
G36*
G01*
X94465000Y-91670000D02*
X94765000Y-91670000D01*
G75*
G02*
X94915000Y-91820000I0J-150000D01*
G01*
X94915000Y-93470000D01*
G75*
G02*
X94765000Y-93620000I-150000J0D01*
G01*
X94465000Y-93620000D01*
G75*
G02*
X94315000Y-93470000I0J150000D01*
G01*
X94315000Y-91820000D01*
G75*
G02*
X94465000Y-91670000I150000J0D01*
G01*
G37*
G36*
G01*
X93195000Y-91670000D02*
X93495000Y-91670000D01*
G75*
G02*
X93645000Y-91820000I0J-150000D01*
G01*
X93645000Y-93470000D01*
G75*
G02*
X93495000Y-93620000I-150000J0D01*
G01*
X93195000Y-93620000D01*
G75*
G02*
X93045000Y-93470000I0J150000D01*
G01*
X93045000Y-91820000D01*
G75*
G02*
X93195000Y-91670000I150000J0D01*
G01*
G37*
G36*
G01*
X91925000Y-91670000D02*
X92225000Y-91670000D01*
G75*
G02*
X92375000Y-91820000I0J-150000D01*
G01*
X92375000Y-93470000D01*
G75*
G02*
X92225000Y-93620000I-150000J0D01*
G01*
X91925000Y-93620000D01*
G75*
G02*
X91775000Y-93470000I0J150000D01*
G01*
X91775000Y-91820000D01*
G75*
G02*
X91925000Y-91670000I150000J0D01*
G01*
G37*
G36*
G01*
X90655000Y-91670000D02*
X90955000Y-91670000D01*
G75*
G02*
X91105000Y-91820000I0J-150000D01*
G01*
X91105000Y-93470000D01*
G75*
G02*
X90955000Y-93620000I-150000J0D01*
G01*
X90655000Y-93620000D01*
G75*
G02*
X90505000Y-93470000I0J150000D01*
G01*
X90505000Y-91820000D01*
G75*
G02*
X90655000Y-91670000I150000J0D01*
G01*
G37*
G36*
G01*
X90655000Y-86720000D02*
X90955000Y-86720000D01*
G75*
G02*
X91105000Y-86870000I0J-150000D01*
G01*
X91105000Y-88520000D01*
G75*
G02*
X90955000Y-88670000I-150000J0D01*
G01*
X90655000Y-88670000D01*
G75*
G02*
X90505000Y-88520000I0J150000D01*
G01*
X90505000Y-86870000D01*
G75*
G02*
X90655000Y-86720000I150000J0D01*
G01*
G37*
G36*
G01*
X91925000Y-86720000D02*
X92225000Y-86720000D01*
G75*
G02*
X92375000Y-86870000I0J-150000D01*
G01*
X92375000Y-88520000D01*
G75*
G02*
X92225000Y-88670000I-150000J0D01*
G01*
X91925000Y-88670000D01*
G75*
G02*
X91775000Y-88520000I0J150000D01*
G01*
X91775000Y-86870000D01*
G75*
G02*
X91925000Y-86720000I150000J0D01*
G01*
G37*
G36*
G01*
X93195000Y-86720000D02*
X93495000Y-86720000D01*
G75*
G02*
X93645000Y-86870000I0J-150000D01*
G01*
X93645000Y-88520000D01*
G75*
G02*
X93495000Y-88670000I-150000J0D01*
G01*
X93195000Y-88670000D01*
G75*
G02*
X93045000Y-88520000I0J150000D01*
G01*
X93045000Y-86870000D01*
G75*
G02*
X93195000Y-86720000I150000J0D01*
G01*
G37*
G36*
G01*
X94465000Y-86720000D02*
X94765000Y-86720000D01*
G75*
G02*
X94915000Y-86870000I0J-150000D01*
G01*
X94915000Y-88520000D01*
G75*
G02*
X94765000Y-88670000I-150000J0D01*
G01*
X94465000Y-88670000D01*
G75*
G02*
X94315000Y-88520000I0J150000D01*
G01*
X94315000Y-86870000D01*
G75*
G02*
X94465000Y-86720000I150000J0D01*
G01*
G37*
G36*
G01*
X95735000Y-86720000D02*
X96035000Y-86720000D01*
G75*
G02*
X96185000Y-86870000I0J-150000D01*
G01*
X96185000Y-88520000D01*
G75*
G02*
X96035000Y-88670000I-150000J0D01*
G01*
X95735000Y-88670000D01*
G75*
G02*
X95585000Y-88520000I0J150000D01*
G01*
X95585000Y-86870000D01*
G75*
G02*
X95735000Y-86720000I150000J0D01*
G01*
G37*
G36*
G01*
X97005000Y-86720000D02*
X97305000Y-86720000D01*
G75*
G02*
X97455000Y-86870000I0J-150000D01*
G01*
X97455000Y-88520000D01*
G75*
G02*
X97305000Y-88670000I-150000J0D01*
G01*
X97005000Y-88670000D01*
G75*
G02*
X96855000Y-88520000I0J150000D01*
G01*
X96855000Y-86870000D01*
G75*
G02*
X97005000Y-86720000I150000J0D01*
G01*
G37*
G36*
G01*
X98275000Y-86720000D02*
X98575000Y-86720000D01*
G75*
G02*
X98725000Y-86870000I0J-150000D01*
G01*
X98725000Y-88520000D01*
G75*
G02*
X98575000Y-88670000I-150000J0D01*
G01*
X98275000Y-88670000D01*
G75*
G02*
X98125000Y-88520000I0J150000D01*
G01*
X98125000Y-86870000D01*
G75*
G02*
X98275000Y-86720000I150000J0D01*
G01*
G37*
G36*
G01*
X124945000Y-91670000D02*
X125245000Y-91670000D01*
G75*
G02*
X125395000Y-91820000I0J-150000D01*
G01*
X125395000Y-93470000D01*
G75*
G02*
X125245000Y-93620000I-150000J0D01*
G01*
X124945000Y-93620000D01*
G75*
G02*
X124795000Y-93470000I0J150000D01*
G01*
X124795000Y-91820000D01*
G75*
G02*
X124945000Y-91670000I150000J0D01*
G01*
G37*
G36*
G01*
X123675000Y-91670000D02*
X123975000Y-91670000D01*
G75*
G02*
X124125000Y-91820000I0J-150000D01*
G01*
X124125000Y-93470000D01*
G75*
G02*
X123975000Y-93620000I-150000J0D01*
G01*
X123675000Y-93620000D01*
G75*
G02*
X123525000Y-93470000I0J150000D01*
G01*
X123525000Y-91820000D01*
G75*
G02*
X123675000Y-91670000I150000J0D01*
G01*
G37*
G36*
G01*
X122405000Y-91670000D02*
X122705000Y-91670000D01*
G75*
G02*
X122855000Y-91820000I0J-150000D01*
G01*
X122855000Y-93470000D01*
G75*
G02*
X122705000Y-93620000I-150000J0D01*
G01*
X122405000Y-93620000D01*
G75*
G02*
X122255000Y-93470000I0J150000D01*
G01*
X122255000Y-91820000D01*
G75*
G02*
X122405000Y-91670000I150000J0D01*
G01*
G37*
G36*
G01*
X121135000Y-91670000D02*
X121435000Y-91670000D01*
G75*
G02*
X121585000Y-91820000I0J-150000D01*
G01*
X121585000Y-93470000D01*
G75*
G02*
X121435000Y-93620000I-150000J0D01*
G01*
X121135000Y-93620000D01*
G75*
G02*
X120985000Y-93470000I0J150000D01*
G01*
X120985000Y-91820000D01*
G75*
G02*
X121135000Y-91670000I150000J0D01*
G01*
G37*
G36*
G01*
X119865000Y-91670000D02*
X120165000Y-91670000D01*
G75*
G02*
X120315000Y-91820000I0J-150000D01*
G01*
X120315000Y-93470000D01*
G75*
G02*
X120165000Y-93620000I-150000J0D01*
G01*
X119865000Y-93620000D01*
G75*
G02*
X119715000Y-93470000I0J150000D01*
G01*
X119715000Y-91820000D01*
G75*
G02*
X119865000Y-91670000I150000J0D01*
G01*
G37*
G36*
G01*
X118595000Y-91670000D02*
X118895000Y-91670000D01*
G75*
G02*
X119045000Y-91820000I0J-150000D01*
G01*
X119045000Y-93470000D01*
G75*
G02*
X118895000Y-93620000I-150000J0D01*
G01*
X118595000Y-93620000D01*
G75*
G02*
X118445000Y-93470000I0J150000D01*
G01*
X118445000Y-91820000D01*
G75*
G02*
X118595000Y-91670000I150000J0D01*
G01*
G37*
G36*
G01*
X117325000Y-91670000D02*
X117625000Y-91670000D01*
G75*
G02*
X117775000Y-91820000I0J-150000D01*
G01*
X117775000Y-93470000D01*
G75*
G02*
X117625000Y-93620000I-150000J0D01*
G01*
X117325000Y-93620000D01*
G75*
G02*
X117175000Y-93470000I0J150000D01*
G01*
X117175000Y-91820000D01*
G75*
G02*
X117325000Y-91670000I150000J0D01*
G01*
G37*
G36*
G01*
X117325000Y-86720000D02*
X117625000Y-86720000D01*
G75*
G02*
X117775000Y-86870000I0J-150000D01*
G01*
X117775000Y-88520000D01*
G75*
G02*
X117625000Y-88670000I-150000J0D01*
G01*
X117325000Y-88670000D01*
G75*
G02*
X117175000Y-88520000I0J150000D01*
G01*
X117175000Y-86870000D01*
G75*
G02*
X117325000Y-86720000I150000J0D01*
G01*
G37*
G36*
G01*
X118595000Y-86720000D02*
X118895000Y-86720000D01*
G75*
G02*
X119045000Y-86870000I0J-150000D01*
G01*
X119045000Y-88520000D01*
G75*
G02*
X118895000Y-88670000I-150000J0D01*
G01*
X118595000Y-88670000D01*
G75*
G02*
X118445000Y-88520000I0J150000D01*
G01*
X118445000Y-86870000D01*
G75*
G02*
X118595000Y-86720000I150000J0D01*
G01*
G37*
G36*
G01*
X119865000Y-86720000D02*
X120165000Y-86720000D01*
G75*
G02*
X120315000Y-86870000I0J-150000D01*
G01*
X120315000Y-88520000D01*
G75*
G02*
X120165000Y-88670000I-150000J0D01*
G01*
X119865000Y-88670000D01*
G75*
G02*
X119715000Y-88520000I0J150000D01*
G01*
X119715000Y-86870000D01*
G75*
G02*
X119865000Y-86720000I150000J0D01*
G01*
G37*
G36*
G01*
X121135000Y-86720000D02*
X121435000Y-86720000D01*
G75*
G02*
X121585000Y-86870000I0J-150000D01*
G01*
X121585000Y-88520000D01*
G75*
G02*
X121435000Y-88670000I-150000J0D01*
G01*
X121135000Y-88670000D01*
G75*
G02*
X120985000Y-88520000I0J150000D01*
G01*
X120985000Y-86870000D01*
G75*
G02*
X121135000Y-86720000I150000J0D01*
G01*
G37*
G36*
G01*
X122405000Y-86720000D02*
X122705000Y-86720000D01*
G75*
G02*
X122855000Y-86870000I0J-150000D01*
G01*
X122855000Y-88520000D01*
G75*
G02*
X122705000Y-88670000I-150000J0D01*
G01*
X122405000Y-88670000D01*
G75*
G02*
X122255000Y-88520000I0J150000D01*
G01*
X122255000Y-86870000D01*
G75*
G02*
X122405000Y-86720000I150000J0D01*
G01*
G37*
G36*
G01*
X123675000Y-86720000D02*
X123975000Y-86720000D01*
G75*
G02*
X124125000Y-86870000I0J-150000D01*
G01*
X124125000Y-88520000D01*
G75*
G02*
X123975000Y-88670000I-150000J0D01*
G01*
X123675000Y-88670000D01*
G75*
G02*
X123525000Y-88520000I0J150000D01*
G01*
X123525000Y-86870000D01*
G75*
G02*
X123675000Y-86720000I150000J0D01*
G01*
G37*
G36*
G01*
X124945000Y-86720000D02*
X125245000Y-86720000D01*
G75*
G02*
X125395000Y-86870000I0J-150000D01*
G01*
X125395000Y-88520000D01*
G75*
G02*
X125245000Y-88670000I-150000J0D01*
G01*
X124945000Y-88670000D01*
G75*
G02*
X124795000Y-88520000I0J150000D01*
G01*
X124795000Y-86870000D01*
G75*
G02*
X124945000Y-86720000I150000J0D01*
G01*
G37*
G36*
G01*
X111610000Y-91670000D02*
X111910000Y-91670000D01*
G75*
G02*
X112060000Y-91820000I0J-150000D01*
G01*
X112060000Y-93470000D01*
G75*
G02*
X111910000Y-93620000I-150000J0D01*
G01*
X111610000Y-93620000D01*
G75*
G02*
X111460000Y-93470000I0J150000D01*
G01*
X111460000Y-91820000D01*
G75*
G02*
X111610000Y-91670000I150000J0D01*
G01*
G37*
G36*
G01*
X110340000Y-91670000D02*
X110640000Y-91670000D01*
G75*
G02*
X110790000Y-91820000I0J-150000D01*
G01*
X110790000Y-93470000D01*
G75*
G02*
X110640000Y-93620000I-150000J0D01*
G01*
X110340000Y-93620000D01*
G75*
G02*
X110190000Y-93470000I0J150000D01*
G01*
X110190000Y-91820000D01*
G75*
G02*
X110340000Y-91670000I150000J0D01*
G01*
G37*
G36*
G01*
X109070000Y-91670000D02*
X109370000Y-91670000D01*
G75*
G02*
X109520000Y-91820000I0J-150000D01*
G01*
X109520000Y-93470000D01*
G75*
G02*
X109370000Y-93620000I-150000J0D01*
G01*
X109070000Y-93620000D01*
G75*
G02*
X108920000Y-93470000I0J150000D01*
G01*
X108920000Y-91820000D01*
G75*
G02*
X109070000Y-91670000I150000J0D01*
G01*
G37*
G36*
G01*
X107800000Y-91670000D02*
X108100000Y-91670000D01*
G75*
G02*
X108250000Y-91820000I0J-150000D01*
G01*
X108250000Y-93470000D01*
G75*
G02*
X108100000Y-93620000I-150000J0D01*
G01*
X107800000Y-93620000D01*
G75*
G02*
X107650000Y-93470000I0J150000D01*
G01*
X107650000Y-91820000D01*
G75*
G02*
X107800000Y-91670000I150000J0D01*
G01*
G37*
G36*
G01*
X106530000Y-91670000D02*
X106830000Y-91670000D01*
G75*
G02*
X106980000Y-91820000I0J-150000D01*
G01*
X106980000Y-93470000D01*
G75*
G02*
X106830000Y-93620000I-150000J0D01*
G01*
X106530000Y-93620000D01*
G75*
G02*
X106380000Y-93470000I0J150000D01*
G01*
X106380000Y-91820000D01*
G75*
G02*
X106530000Y-91670000I150000J0D01*
G01*
G37*
G36*
G01*
X105260000Y-91670000D02*
X105560000Y-91670000D01*
G75*
G02*
X105710000Y-91820000I0J-150000D01*
G01*
X105710000Y-93470000D01*
G75*
G02*
X105560000Y-93620000I-150000J0D01*
G01*
X105260000Y-93620000D01*
G75*
G02*
X105110000Y-93470000I0J150000D01*
G01*
X105110000Y-91820000D01*
G75*
G02*
X105260000Y-91670000I150000J0D01*
G01*
G37*
G36*
G01*
X103990000Y-91670000D02*
X104290000Y-91670000D01*
G75*
G02*
X104440000Y-91820000I0J-150000D01*
G01*
X104440000Y-93470000D01*
G75*
G02*
X104290000Y-93620000I-150000J0D01*
G01*
X103990000Y-93620000D01*
G75*
G02*
X103840000Y-93470000I0J150000D01*
G01*
X103840000Y-91820000D01*
G75*
G02*
X103990000Y-91670000I150000J0D01*
G01*
G37*
G36*
G01*
X103990000Y-86720000D02*
X104290000Y-86720000D01*
G75*
G02*
X104440000Y-86870000I0J-150000D01*
G01*
X104440000Y-88520000D01*
G75*
G02*
X104290000Y-88670000I-150000J0D01*
G01*
X103990000Y-88670000D01*
G75*
G02*
X103840000Y-88520000I0J150000D01*
G01*
X103840000Y-86870000D01*
G75*
G02*
X103990000Y-86720000I150000J0D01*
G01*
G37*
G36*
G01*
X105260000Y-86720000D02*
X105560000Y-86720000D01*
G75*
G02*
X105710000Y-86870000I0J-150000D01*
G01*
X105710000Y-88520000D01*
G75*
G02*
X105560000Y-88670000I-150000J0D01*
G01*
X105260000Y-88670000D01*
G75*
G02*
X105110000Y-88520000I0J150000D01*
G01*
X105110000Y-86870000D01*
G75*
G02*
X105260000Y-86720000I150000J0D01*
G01*
G37*
G36*
G01*
X106530000Y-86720000D02*
X106830000Y-86720000D01*
G75*
G02*
X106980000Y-86870000I0J-150000D01*
G01*
X106980000Y-88520000D01*
G75*
G02*
X106830000Y-88670000I-150000J0D01*
G01*
X106530000Y-88670000D01*
G75*
G02*
X106380000Y-88520000I0J150000D01*
G01*
X106380000Y-86870000D01*
G75*
G02*
X106530000Y-86720000I150000J0D01*
G01*
G37*
G36*
G01*
X107800000Y-86720000D02*
X108100000Y-86720000D01*
G75*
G02*
X108250000Y-86870000I0J-150000D01*
G01*
X108250000Y-88520000D01*
G75*
G02*
X108100000Y-88670000I-150000J0D01*
G01*
X107800000Y-88670000D01*
G75*
G02*
X107650000Y-88520000I0J150000D01*
G01*
X107650000Y-86870000D01*
G75*
G02*
X107800000Y-86720000I150000J0D01*
G01*
G37*
G36*
G01*
X109070000Y-86720000D02*
X109370000Y-86720000D01*
G75*
G02*
X109520000Y-86870000I0J-150000D01*
G01*
X109520000Y-88520000D01*
G75*
G02*
X109370000Y-88670000I-150000J0D01*
G01*
X109070000Y-88670000D01*
G75*
G02*
X108920000Y-88520000I0J150000D01*
G01*
X108920000Y-86870000D01*
G75*
G02*
X109070000Y-86720000I150000J0D01*
G01*
G37*
G36*
G01*
X110340000Y-86720000D02*
X110640000Y-86720000D01*
G75*
G02*
X110790000Y-86870000I0J-150000D01*
G01*
X110790000Y-88520000D01*
G75*
G02*
X110640000Y-88670000I-150000J0D01*
G01*
X110340000Y-88670000D01*
G75*
G02*
X110190000Y-88520000I0J150000D01*
G01*
X110190000Y-86870000D01*
G75*
G02*
X110340000Y-86720000I150000J0D01*
G01*
G37*
G36*
G01*
X111610000Y-86720000D02*
X111910000Y-86720000D01*
G75*
G02*
X112060000Y-86870000I0J-150000D01*
G01*
X112060000Y-88520000D01*
G75*
G02*
X111910000Y-88670000I-150000J0D01*
G01*
X111610000Y-88670000D01*
G75*
G02*
X111460000Y-88520000I0J150000D01*
G01*
X111460000Y-86870000D01*
G75*
G02*
X111610000Y-86720000I150000J0D01*
G01*
G37*
G36*
G01*
X84940000Y-91670000D02*
X85240000Y-91670000D01*
G75*
G02*
X85390000Y-91820000I0J-150000D01*
G01*
X85390000Y-93470000D01*
G75*
G02*
X85240000Y-93620000I-150000J0D01*
G01*
X84940000Y-93620000D01*
G75*
G02*
X84790000Y-93470000I0J150000D01*
G01*
X84790000Y-91820000D01*
G75*
G02*
X84940000Y-91670000I150000J0D01*
G01*
G37*
G36*
G01*
X83670000Y-91670000D02*
X83970000Y-91670000D01*
G75*
G02*
X84120000Y-91820000I0J-150000D01*
G01*
X84120000Y-93470000D01*
G75*
G02*
X83970000Y-93620000I-150000J0D01*
G01*
X83670000Y-93620000D01*
G75*
G02*
X83520000Y-93470000I0J150000D01*
G01*
X83520000Y-91820000D01*
G75*
G02*
X83670000Y-91670000I150000J0D01*
G01*
G37*
G36*
G01*
X82400000Y-91670000D02*
X82700000Y-91670000D01*
G75*
G02*
X82850000Y-91820000I0J-150000D01*
G01*
X82850000Y-93470000D01*
G75*
G02*
X82700000Y-93620000I-150000J0D01*
G01*
X82400000Y-93620000D01*
G75*
G02*
X82250000Y-93470000I0J150000D01*
G01*
X82250000Y-91820000D01*
G75*
G02*
X82400000Y-91670000I150000J0D01*
G01*
G37*
G36*
G01*
X81130000Y-91670000D02*
X81430000Y-91670000D01*
G75*
G02*
X81580000Y-91820000I0J-150000D01*
G01*
X81580000Y-93470000D01*
G75*
G02*
X81430000Y-93620000I-150000J0D01*
G01*
X81130000Y-93620000D01*
G75*
G02*
X80980000Y-93470000I0J150000D01*
G01*
X80980000Y-91820000D01*
G75*
G02*
X81130000Y-91670000I150000J0D01*
G01*
G37*
G36*
G01*
X79860000Y-91670000D02*
X80160000Y-91670000D01*
G75*
G02*
X80310000Y-91820000I0J-150000D01*
G01*
X80310000Y-93470000D01*
G75*
G02*
X80160000Y-93620000I-150000J0D01*
G01*
X79860000Y-93620000D01*
G75*
G02*
X79710000Y-93470000I0J150000D01*
G01*
X79710000Y-91820000D01*
G75*
G02*
X79860000Y-91670000I150000J0D01*
G01*
G37*
G36*
G01*
X78590000Y-91670000D02*
X78890000Y-91670000D01*
G75*
G02*
X79040000Y-91820000I0J-150000D01*
G01*
X79040000Y-93470000D01*
G75*
G02*
X78890000Y-93620000I-150000J0D01*
G01*
X78590000Y-93620000D01*
G75*
G02*
X78440000Y-93470000I0J150000D01*
G01*
X78440000Y-91820000D01*
G75*
G02*
X78590000Y-91670000I150000J0D01*
G01*
G37*
G36*
G01*
X77320000Y-91670000D02*
X77620000Y-91670000D01*
G75*
G02*
X77770000Y-91820000I0J-150000D01*
G01*
X77770000Y-93470000D01*
G75*
G02*
X77620000Y-93620000I-150000J0D01*
G01*
X77320000Y-93620000D01*
G75*
G02*
X77170000Y-93470000I0J150000D01*
G01*
X77170000Y-91820000D01*
G75*
G02*
X77320000Y-91670000I150000J0D01*
G01*
G37*
G36*
G01*
X77320000Y-86720000D02*
X77620000Y-86720000D01*
G75*
G02*
X77770000Y-86870000I0J-150000D01*
G01*
X77770000Y-88520000D01*
G75*
G02*
X77620000Y-88670000I-150000J0D01*
G01*
X77320000Y-88670000D01*
G75*
G02*
X77170000Y-88520000I0J150000D01*
G01*
X77170000Y-86870000D01*
G75*
G02*
X77320000Y-86720000I150000J0D01*
G01*
G37*
G36*
G01*
X78590000Y-86720000D02*
X78890000Y-86720000D01*
G75*
G02*
X79040000Y-86870000I0J-150000D01*
G01*
X79040000Y-88520000D01*
G75*
G02*
X78890000Y-88670000I-150000J0D01*
G01*
X78590000Y-88670000D01*
G75*
G02*
X78440000Y-88520000I0J150000D01*
G01*
X78440000Y-86870000D01*
G75*
G02*
X78590000Y-86720000I150000J0D01*
G01*
G37*
G36*
G01*
X79860000Y-86720000D02*
X80160000Y-86720000D01*
G75*
G02*
X80310000Y-86870000I0J-150000D01*
G01*
X80310000Y-88520000D01*
G75*
G02*
X80160000Y-88670000I-150000J0D01*
G01*
X79860000Y-88670000D01*
G75*
G02*
X79710000Y-88520000I0J150000D01*
G01*
X79710000Y-86870000D01*
G75*
G02*
X79860000Y-86720000I150000J0D01*
G01*
G37*
G36*
G01*
X81130000Y-86720000D02*
X81430000Y-86720000D01*
G75*
G02*
X81580000Y-86870000I0J-150000D01*
G01*
X81580000Y-88520000D01*
G75*
G02*
X81430000Y-88670000I-150000J0D01*
G01*
X81130000Y-88670000D01*
G75*
G02*
X80980000Y-88520000I0J150000D01*
G01*
X80980000Y-86870000D01*
G75*
G02*
X81130000Y-86720000I150000J0D01*
G01*
G37*
G36*
G01*
X82400000Y-86720000D02*
X82700000Y-86720000D01*
G75*
G02*
X82850000Y-86870000I0J-150000D01*
G01*
X82850000Y-88520000D01*
G75*
G02*
X82700000Y-88670000I-150000J0D01*
G01*
X82400000Y-88670000D01*
G75*
G02*
X82250000Y-88520000I0J150000D01*
G01*
X82250000Y-86870000D01*
G75*
G02*
X82400000Y-86720000I150000J0D01*
G01*
G37*
G36*
G01*
X83670000Y-86720000D02*
X83970000Y-86720000D01*
G75*
G02*
X84120000Y-86870000I0J-150000D01*
G01*
X84120000Y-88520000D01*
G75*
G02*
X83970000Y-88670000I-150000J0D01*
G01*
X83670000Y-88670000D01*
G75*
G02*
X83520000Y-88520000I0J150000D01*
G01*
X83520000Y-86870000D01*
G75*
G02*
X83670000Y-86720000I150000J0D01*
G01*
G37*
G36*
G01*
X84940000Y-86720000D02*
X85240000Y-86720000D01*
G75*
G02*
X85390000Y-86870000I0J-150000D01*
G01*
X85390000Y-88520000D01*
G75*
G02*
X85240000Y-88670000I-150000J0D01*
G01*
X84940000Y-88670000D01*
G75*
G02*
X84790000Y-88520000I0J150000D01*
G01*
X84790000Y-86870000D01*
G75*
G02*
X84940000Y-86720000I150000J0D01*
G01*
G37*
G36*
G01*
X98275000Y-103735000D02*
X98575000Y-103735000D01*
G75*
G02*
X98725000Y-103885000I0J-150000D01*
G01*
X98725000Y-105535000D01*
G75*
G02*
X98575000Y-105685000I-150000J0D01*
G01*
X98275000Y-105685000D01*
G75*
G02*
X98125000Y-105535000I0J150000D01*
G01*
X98125000Y-103885000D01*
G75*
G02*
X98275000Y-103735000I150000J0D01*
G01*
G37*
G36*
G01*
X97005000Y-103735000D02*
X97305000Y-103735000D01*
G75*
G02*
X97455000Y-103885000I0J-150000D01*
G01*
X97455000Y-105535000D01*
G75*
G02*
X97305000Y-105685000I-150000J0D01*
G01*
X97005000Y-105685000D01*
G75*
G02*
X96855000Y-105535000I0J150000D01*
G01*
X96855000Y-103885000D01*
G75*
G02*
X97005000Y-103735000I150000J0D01*
G01*
G37*
G36*
G01*
X95735000Y-103735000D02*
X96035000Y-103735000D01*
G75*
G02*
X96185000Y-103885000I0J-150000D01*
G01*
X96185000Y-105535000D01*
G75*
G02*
X96035000Y-105685000I-150000J0D01*
G01*
X95735000Y-105685000D01*
G75*
G02*
X95585000Y-105535000I0J150000D01*
G01*
X95585000Y-103885000D01*
G75*
G02*
X95735000Y-103735000I150000J0D01*
G01*
G37*
G36*
G01*
X94465000Y-103735000D02*
X94765000Y-103735000D01*
G75*
G02*
X94915000Y-103885000I0J-150000D01*
G01*
X94915000Y-105535000D01*
G75*
G02*
X94765000Y-105685000I-150000J0D01*
G01*
X94465000Y-105685000D01*
G75*
G02*
X94315000Y-105535000I0J150000D01*
G01*
X94315000Y-103885000D01*
G75*
G02*
X94465000Y-103735000I150000J0D01*
G01*
G37*
G36*
G01*
X93195000Y-103735000D02*
X93495000Y-103735000D01*
G75*
G02*
X93645000Y-103885000I0J-150000D01*
G01*
X93645000Y-105535000D01*
G75*
G02*
X93495000Y-105685000I-150000J0D01*
G01*
X93195000Y-105685000D01*
G75*
G02*
X93045000Y-105535000I0J150000D01*
G01*
X93045000Y-103885000D01*
G75*
G02*
X93195000Y-103735000I150000J0D01*
G01*
G37*
G36*
G01*
X91925000Y-103735000D02*
X92225000Y-103735000D01*
G75*
G02*
X92375000Y-103885000I0J-150000D01*
G01*
X92375000Y-105535000D01*
G75*
G02*
X92225000Y-105685000I-150000J0D01*
G01*
X91925000Y-105685000D01*
G75*
G02*
X91775000Y-105535000I0J150000D01*
G01*
X91775000Y-103885000D01*
G75*
G02*
X91925000Y-103735000I150000J0D01*
G01*
G37*
G36*
G01*
X90655000Y-103735000D02*
X90955000Y-103735000D01*
G75*
G02*
X91105000Y-103885000I0J-150000D01*
G01*
X91105000Y-105535000D01*
G75*
G02*
X90955000Y-105685000I-150000J0D01*
G01*
X90655000Y-105685000D01*
G75*
G02*
X90505000Y-105535000I0J150000D01*
G01*
X90505000Y-103885000D01*
G75*
G02*
X90655000Y-103735000I150000J0D01*
G01*
G37*
G36*
G01*
X90655000Y-98785000D02*
X90955000Y-98785000D01*
G75*
G02*
X91105000Y-98935000I0J-150000D01*
G01*
X91105000Y-100585000D01*
G75*
G02*
X90955000Y-100735000I-150000J0D01*
G01*
X90655000Y-100735000D01*
G75*
G02*
X90505000Y-100585000I0J150000D01*
G01*
X90505000Y-98935000D01*
G75*
G02*
X90655000Y-98785000I150000J0D01*
G01*
G37*
G36*
G01*
X91925000Y-98785000D02*
X92225000Y-98785000D01*
G75*
G02*
X92375000Y-98935000I0J-150000D01*
G01*
X92375000Y-100585000D01*
G75*
G02*
X92225000Y-100735000I-150000J0D01*
G01*
X91925000Y-100735000D01*
G75*
G02*
X91775000Y-100585000I0J150000D01*
G01*
X91775000Y-98935000D01*
G75*
G02*
X91925000Y-98785000I150000J0D01*
G01*
G37*
G36*
G01*
X93195000Y-98785000D02*
X93495000Y-98785000D01*
G75*
G02*
X93645000Y-98935000I0J-150000D01*
G01*
X93645000Y-100585000D01*
G75*
G02*
X93495000Y-100735000I-150000J0D01*
G01*
X93195000Y-100735000D01*
G75*
G02*
X93045000Y-100585000I0J150000D01*
G01*
X93045000Y-98935000D01*
G75*
G02*
X93195000Y-98785000I150000J0D01*
G01*
G37*
G36*
G01*
X94465000Y-98785000D02*
X94765000Y-98785000D01*
G75*
G02*
X94915000Y-98935000I0J-150000D01*
G01*
X94915000Y-100585000D01*
G75*
G02*
X94765000Y-100735000I-150000J0D01*
G01*
X94465000Y-100735000D01*
G75*
G02*
X94315000Y-100585000I0J150000D01*
G01*
X94315000Y-98935000D01*
G75*
G02*
X94465000Y-98785000I150000J0D01*
G01*
G37*
G36*
G01*
X95735000Y-98785000D02*
X96035000Y-98785000D01*
G75*
G02*
X96185000Y-98935000I0J-150000D01*
G01*
X96185000Y-100585000D01*
G75*
G02*
X96035000Y-100735000I-150000J0D01*
G01*
X95735000Y-100735000D01*
G75*
G02*
X95585000Y-100585000I0J150000D01*
G01*
X95585000Y-98935000D01*
G75*
G02*
X95735000Y-98785000I150000J0D01*
G01*
G37*
G36*
G01*
X97005000Y-98785000D02*
X97305000Y-98785000D01*
G75*
G02*
X97455000Y-98935000I0J-150000D01*
G01*
X97455000Y-100585000D01*
G75*
G02*
X97305000Y-100735000I-150000J0D01*
G01*
X97005000Y-100735000D01*
G75*
G02*
X96855000Y-100585000I0J150000D01*
G01*
X96855000Y-98935000D01*
G75*
G02*
X97005000Y-98785000I150000J0D01*
G01*
G37*
G36*
G01*
X98275000Y-98785000D02*
X98575000Y-98785000D01*
G75*
G02*
X98725000Y-98935000I0J-150000D01*
G01*
X98725000Y-100585000D01*
G75*
G02*
X98575000Y-100735000I-150000J0D01*
G01*
X98275000Y-100735000D01*
G75*
G02*
X98125000Y-100585000I0J150000D01*
G01*
X98125000Y-98935000D01*
G75*
G02*
X98275000Y-98785000I150000J0D01*
G01*
G37*
D14*
X116285000Y-116555000D03*
X116285000Y-117355000D03*
X116285000Y-118155000D03*
X116285000Y-118955000D03*
X116285000Y-119755000D03*
X116285000Y-120555000D03*
X116285000Y-121355000D03*
X116285000Y-122155000D03*
X116285000Y-122955000D03*
X116285000Y-123755000D03*
X116285000Y-124555000D03*
X116285000Y-125355000D03*
X116285000Y-126155000D03*
X116285000Y-126955000D03*
X116285000Y-127755000D03*
X116285000Y-128555000D03*
D15*
X114585000Y-130255000D03*
X113785000Y-130255000D03*
X112985000Y-130255000D03*
X112185000Y-130255000D03*
X111385000Y-130255000D03*
X110585000Y-130255000D03*
X109785000Y-130255000D03*
X108985000Y-130255000D03*
X108185000Y-130255000D03*
X107385000Y-130255000D03*
X106585000Y-130255000D03*
X105785000Y-130255000D03*
X104985000Y-130255000D03*
X104185000Y-130255000D03*
X103385000Y-130255000D03*
X102585000Y-130255000D03*
D14*
X100885000Y-128555000D03*
X100885000Y-127755000D03*
X100885000Y-126955000D03*
X100885000Y-126155000D03*
X100885000Y-125355000D03*
X100885000Y-124555000D03*
X100885000Y-123755000D03*
X100885000Y-122955000D03*
X100885000Y-122155000D03*
X100885000Y-121355000D03*
X100885000Y-120555000D03*
X100885000Y-119755000D03*
X100885000Y-118955000D03*
X100885000Y-118155000D03*
X100885000Y-117355000D03*
X100885000Y-116555000D03*
D15*
X102585000Y-114855000D03*
X103385000Y-114855000D03*
X104185000Y-114855000D03*
X104985000Y-114855000D03*
X105785000Y-114855000D03*
X106585000Y-114855000D03*
X107385000Y-114855000D03*
X108185000Y-114855000D03*
X108985000Y-114855000D03*
X109785000Y-114855000D03*
X110585000Y-114855000D03*
X111385000Y-114855000D03*
X112185000Y-114855000D03*
X112985000Y-114855000D03*
X113785000Y-114855000D03*
X114585000Y-114855000D03*
G36*
G01*
X72530000Y-79365000D02*
X72530000Y-78115000D01*
G75*
G02*
X72780000Y-77865000I250000J0D01*
G01*
X73705000Y-77865000D01*
G75*
G02*
X73955000Y-78115000I0J-250000D01*
G01*
X73955000Y-79365000D01*
G75*
G02*
X73705000Y-79615000I-250000J0D01*
G01*
X72780000Y-79615000D01*
G75*
G02*
X72530000Y-79365000I0J250000D01*
G01*
G37*
G36*
G01*
X69555000Y-79365000D02*
X69555000Y-78115000D01*
G75*
G02*
X69805000Y-77865000I250000J0D01*
G01*
X70730000Y-77865000D01*
G75*
G02*
X70980000Y-78115000I0J-250000D01*
G01*
X70980000Y-79365000D01*
G75*
G02*
X70730000Y-79615000I-250000J0D01*
G01*
X69805000Y-79615000D01*
G75*
G02*
X69555000Y-79365000I0J250000D01*
G01*
G37*
G36*
G01*
X102420000Y-137338750D02*
X102420000Y-138251250D01*
G75*
G02*
X102176250Y-138495000I-243750J0D01*
G01*
X101688750Y-138495000D01*
G75*
G02*
X101445000Y-138251250I0J243750D01*
G01*
X101445000Y-137338750D01*
G75*
G02*
X101688750Y-137095000I243750J0D01*
G01*
X102176250Y-137095000D01*
G75*
G02*
X102420000Y-137338750I0J-243750D01*
G01*
G37*
G36*
G01*
X104295000Y-137338750D02*
X104295000Y-138251250D01*
G75*
G02*
X104051250Y-138495000I-243750J0D01*
G01*
X103563750Y-138495000D01*
G75*
G02*
X103320000Y-138251250I0J243750D01*
G01*
X103320000Y-137338750D01*
G75*
G02*
X103563750Y-137095000I243750J0D01*
G01*
X104051250Y-137095000D01*
G75*
G02*
X104295000Y-137338750I0J-243750D01*
G01*
G37*
G36*
G01*
X73838750Y-83635000D02*
X74751250Y-83635000D01*
G75*
G02*
X74995000Y-83878750I0J-243750D01*
G01*
X74995000Y-84366250D01*
G75*
G02*
X74751250Y-84610000I-243750J0D01*
G01*
X73838750Y-84610000D01*
G75*
G02*
X73595000Y-84366250I0J243750D01*
G01*
X73595000Y-83878750D01*
G75*
G02*
X73838750Y-83635000I243750J0D01*
G01*
G37*
G36*
G01*
X73838750Y-81760000D02*
X74751250Y-81760000D01*
G75*
G02*
X74995000Y-82003750I0J-243750D01*
G01*
X74995000Y-82491250D01*
G75*
G02*
X74751250Y-82735000I-243750J0D01*
G01*
X73838750Y-82735000D01*
G75*
G02*
X73595000Y-82491250I0J243750D01*
G01*
X73595000Y-82003750D01*
G75*
G02*
X73838750Y-81760000I243750J0D01*
G01*
G37*
D16*
X69850000Y-83185000D03*
X69850000Y-87485000D03*
G36*
G01*
X79753750Y-83535000D02*
X80266250Y-83535000D01*
G75*
G02*
X80485000Y-83753750I0J-218750D01*
G01*
X80485000Y-84191250D01*
G75*
G02*
X80266250Y-84410000I-218750J0D01*
G01*
X79753750Y-84410000D01*
G75*
G02*
X79535000Y-84191250I0J218750D01*
G01*
X79535000Y-83753750D01*
G75*
G02*
X79753750Y-83535000I218750J0D01*
G01*
G37*
G36*
G01*
X79753750Y-81960000D02*
X80266250Y-81960000D01*
G75*
G02*
X80485000Y-82178750I0J-218750D01*
G01*
X80485000Y-82616250D01*
G75*
G02*
X80266250Y-82835000I-218750J0D01*
G01*
X79753750Y-82835000D01*
G75*
G02*
X79535000Y-82616250I0J218750D01*
G01*
X79535000Y-82178750D01*
G75*
G02*
X79753750Y-81960000I218750J0D01*
G01*
G37*
G36*
G01*
X81658750Y-83535000D02*
X82171250Y-83535000D01*
G75*
G02*
X82390000Y-83753750I0J-218750D01*
G01*
X82390000Y-84191250D01*
G75*
G02*
X82171250Y-84410000I-218750J0D01*
G01*
X81658750Y-84410000D01*
G75*
G02*
X81440000Y-84191250I0J218750D01*
G01*
X81440000Y-83753750D01*
G75*
G02*
X81658750Y-83535000I218750J0D01*
G01*
G37*
G36*
G01*
X81658750Y-81960000D02*
X82171250Y-81960000D01*
G75*
G02*
X82390000Y-82178750I0J-218750D01*
G01*
X82390000Y-82616250D01*
G75*
G02*
X82171250Y-82835000I-218750J0D01*
G01*
X81658750Y-82835000D01*
G75*
G02*
X81440000Y-82616250I0J218750D01*
G01*
X81440000Y-82178750D01*
G75*
G02*
X81658750Y-81960000I218750J0D01*
G01*
G37*
G36*
G01*
X86103750Y-83535000D02*
X86616250Y-83535000D01*
G75*
G02*
X86835000Y-83753750I0J-218750D01*
G01*
X86835000Y-84191250D01*
G75*
G02*
X86616250Y-84410000I-218750J0D01*
G01*
X86103750Y-84410000D01*
G75*
G02*
X85885000Y-84191250I0J218750D01*
G01*
X85885000Y-83753750D01*
G75*
G02*
X86103750Y-83535000I218750J0D01*
G01*
G37*
G36*
G01*
X86103750Y-81960000D02*
X86616250Y-81960000D01*
G75*
G02*
X86835000Y-82178750I0J-218750D01*
G01*
X86835000Y-82616250D01*
G75*
G02*
X86616250Y-82835000I-218750J0D01*
G01*
X86103750Y-82835000D01*
G75*
G02*
X85885000Y-82616250I0J218750D01*
G01*
X85885000Y-82178750D01*
G75*
G02*
X86103750Y-81960000I218750J0D01*
G01*
G37*
G36*
G01*
X88008750Y-83535000D02*
X88521250Y-83535000D01*
G75*
G02*
X88740000Y-83753750I0J-218750D01*
G01*
X88740000Y-84191250D01*
G75*
G02*
X88521250Y-84410000I-218750J0D01*
G01*
X88008750Y-84410000D01*
G75*
G02*
X87790000Y-84191250I0J218750D01*
G01*
X87790000Y-83753750D01*
G75*
G02*
X88008750Y-83535000I218750J0D01*
G01*
G37*
G36*
G01*
X88008750Y-81960000D02*
X88521250Y-81960000D01*
G75*
G02*
X88740000Y-82178750I0J-218750D01*
G01*
X88740000Y-82616250D01*
G75*
G02*
X88521250Y-82835000I-218750J0D01*
G01*
X88008750Y-82835000D01*
G75*
G02*
X87790000Y-82616250I0J218750D01*
G01*
X87790000Y-82178750D01*
G75*
G02*
X88008750Y-81960000I218750J0D01*
G01*
G37*
G36*
G01*
X91183750Y-83535000D02*
X91696250Y-83535000D01*
G75*
G02*
X91915000Y-83753750I0J-218750D01*
G01*
X91915000Y-84191250D01*
G75*
G02*
X91696250Y-84410000I-218750J0D01*
G01*
X91183750Y-84410000D01*
G75*
G02*
X90965000Y-84191250I0J218750D01*
G01*
X90965000Y-83753750D01*
G75*
G02*
X91183750Y-83535000I218750J0D01*
G01*
G37*
G36*
G01*
X91183750Y-81960000D02*
X91696250Y-81960000D01*
G75*
G02*
X91915000Y-82178750I0J-218750D01*
G01*
X91915000Y-82616250D01*
G75*
G02*
X91696250Y-82835000I-218750J0D01*
G01*
X91183750Y-82835000D01*
G75*
G02*
X90965000Y-82616250I0J218750D01*
G01*
X90965000Y-82178750D01*
G75*
G02*
X91183750Y-81960000I218750J0D01*
G01*
G37*
G36*
G01*
X95628750Y-115285000D02*
X96141250Y-115285000D01*
G75*
G02*
X96360000Y-115503750I0J-218750D01*
G01*
X96360000Y-115941250D01*
G75*
G02*
X96141250Y-116160000I-218750J0D01*
G01*
X95628750Y-116160000D01*
G75*
G02*
X95410000Y-115941250I0J218750D01*
G01*
X95410000Y-115503750D01*
G75*
G02*
X95628750Y-115285000I218750J0D01*
G01*
G37*
G36*
G01*
X95628750Y-113710000D02*
X96141250Y-113710000D01*
G75*
G02*
X96360000Y-113928750I0J-218750D01*
G01*
X96360000Y-114366250D01*
G75*
G02*
X96141250Y-114585000I-218750J0D01*
G01*
X95628750Y-114585000D01*
G75*
G02*
X95410000Y-114366250I0J218750D01*
G01*
X95410000Y-113928750D01*
G75*
G02*
X95628750Y-113710000I218750J0D01*
G01*
G37*
G36*
G01*
X97533750Y-115285000D02*
X98046250Y-115285000D01*
G75*
G02*
X98265000Y-115503750I0J-218750D01*
G01*
X98265000Y-115941250D01*
G75*
G02*
X98046250Y-116160000I-218750J0D01*
G01*
X97533750Y-116160000D01*
G75*
G02*
X97315000Y-115941250I0J218750D01*
G01*
X97315000Y-115503750D01*
G75*
G02*
X97533750Y-115285000I218750J0D01*
G01*
G37*
G36*
G01*
X97533750Y-113710000D02*
X98046250Y-113710000D01*
G75*
G02*
X98265000Y-113928750I0J-218750D01*
G01*
X98265000Y-114366250D01*
G75*
G02*
X98046250Y-114585000I-218750J0D01*
G01*
X97533750Y-114585000D01*
G75*
G02*
X97315000Y-114366250I0J218750D01*
G01*
X97315000Y-113928750D01*
G75*
G02*
X97533750Y-113710000I218750J0D01*
G01*
G37*
G36*
G01*
X126743750Y-83535000D02*
X127256250Y-83535000D01*
G75*
G02*
X127475000Y-83753750I0J-218750D01*
G01*
X127475000Y-84191250D01*
G75*
G02*
X127256250Y-84410000I-218750J0D01*
G01*
X126743750Y-84410000D01*
G75*
G02*
X126525000Y-84191250I0J218750D01*
G01*
X126525000Y-83753750D01*
G75*
G02*
X126743750Y-83535000I218750J0D01*
G01*
G37*
G36*
G01*
X126743750Y-81960000D02*
X127256250Y-81960000D01*
G75*
G02*
X127475000Y-82178750I0J-218750D01*
G01*
X127475000Y-82616250D01*
G75*
G02*
X127256250Y-82835000I-218750J0D01*
G01*
X126743750Y-82835000D01*
G75*
G02*
X126525000Y-82616250I0J218750D01*
G01*
X126525000Y-82178750D01*
G75*
G02*
X126743750Y-81960000I218750J0D01*
G01*
G37*
G36*
G01*
X124838750Y-83535000D02*
X125351250Y-83535000D01*
G75*
G02*
X125570000Y-83753750I0J-218750D01*
G01*
X125570000Y-84191250D01*
G75*
G02*
X125351250Y-84410000I-218750J0D01*
G01*
X124838750Y-84410000D01*
G75*
G02*
X124620000Y-84191250I0J218750D01*
G01*
X124620000Y-83753750D01*
G75*
G02*
X124838750Y-83535000I218750J0D01*
G01*
G37*
G36*
G01*
X124838750Y-81960000D02*
X125351250Y-81960000D01*
G75*
G02*
X125570000Y-82178750I0J-218750D01*
G01*
X125570000Y-82616250D01*
G75*
G02*
X125351250Y-82835000I-218750J0D01*
G01*
X124838750Y-82835000D01*
G75*
G02*
X124620000Y-82616250I0J218750D01*
G01*
X124620000Y-82178750D01*
G75*
G02*
X124838750Y-81960000I218750J0D01*
G01*
G37*
G36*
G01*
X120393750Y-83535000D02*
X120906250Y-83535000D01*
G75*
G02*
X121125000Y-83753750I0J-218750D01*
G01*
X121125000Y-84191250D01*
G75*
G02*
X120906250Y-84410000I-218750J0D01*
G01*
X120393750Y-84410000D01*
G75*
G02*
X120175000Y-84191250I0J218750D01*
G01*
X120175000Y-83753750D01*
G75*
G02*
X120393750Y-83535000I218750J0D01*
G01*
G37*
G36*
G01*
X120393750Y-81960000D02*
X120906250Y-81960000D01*
G75*
G02*
X121125000Y-82178750I0J-218750D01*
G01*
X121125000Y-82616250D01*
G75*
G02*
X120906250Y-82835000I-218750J0D01*
G01*
X120393750Y-82835000D01*
G75*
G02*
X120175000Y-82616250I0J218750D01*
G01*
X120175000Y-82178750D01*
G75*
G02*
X120393750Y-81960000I218750J0D01*
G01*
G37*
G36*
G01*
X118488750Y-83535000D02*
X119001250Y-83535000D01*
G75*
G02*
X119220000Y-83753750I0J-218750D01*
G01*
X119220000Y-84191250D01*
G75*
G02*
X119001250Y-84410000I-218750J0D01*
G01*
X118488750Y-84410000D01*
G75*
G02*
X118270000Y-84191250I0J218750D01*
G01*
X118270000Y-83753750D01*
G75*
G02*
X118488750Y-83535000I218750J0D01*
G01*
G37*
G36*
G01*
X118488750Y-81960000D02*
X119001250Y-81960000D01*
G75*
G02*
X119220000Y-82178750I0J-218750D01*
G01*
X119220000Y-82616250D01*
G75*
G02*
X119001250Y-82835000I-218750J0D01*
G01*
X118488750Y-82835000D01*
G75*
G02*
X118270000Y-82616250I0J218750D01*
G01*
X118270000Y-82178750D01*
G75*
G02*
X118488750Y-81960000I218750J0D01*
G01*
G37*
G36*
G01*
X113408750Y-83535000D02*
X113921250Y-83535000D01*
G75*
G02*
X114140000Y-83753750I0J-218750D01*
G01*
X114140000Y-84191250D01*
G75*
G02*
X113921250Y-84410000I-218750J0D01*
G01*
X113408750Y-84410000D01*
G75*
G02*
X113190000Y-84191250I0J218750D01*
G01*
X113190000Y-83753750D01*
G75*
G02*
X113408750Y-83535000I218750J0D01*
G01*
G37*
G36*
G01*
X113408750Y-81960000D02*
X113921250Y-81960000D01*
G75*
G02*
X114140000Y-82178750I0J-218750D01*
G01*
X114140000Y-82616250D01*
G75*
G02*
X113921250Y-82835000I-218750J0D01*
G01*
X113408750Y-82835000D01*
G75*
G02*
X113190000Y-82616250I0J218750D01*
G01*
X113190000Y-82178750D01*
G75*
G02*
X113408750Y-81960000I218750J0D01*
G01*
G37*
G36*
G01*
X115313750Y-83535000D02*
X115826250Y-83535000D01*
G75*
G02*
X116045000Y-83753750I0J-218750D01*
G01*
X116045000Y-84191250D01*
G75*
G02*
X115826250Y-84410000I-218750J0D01*
G01*
X115313750Y-84410000D01*
G75*
G02*
X115095000Y-84191250I0J218750D01*
G01*
X115095000Y-83753750D01*
G75*
G02*
X115313750Y-83535000I218750J0D01*
G01*
G37*
G36*
G01*
X115313750Y-81960000D02*
X115826250Y-81960000D01*
G75*
G02*
X116045000Y-82178750I0J-218750D01*
G01*
X116045000Y-82616250D01*
G75*
G02*
X115826250Y-82835000I-218750J0D01*
G01*
X115313750Y-82835000D01*
G75*
G02*
X115095000Y-82616250I0J218750D01*
G01*
X115095000Y-82178750D01*
G75*
G02*
X115313750Y-81960000I218750J0D01*
G01*
G37*
G36*
G01*
X107693750Y-83535000D02*
X108206250Y-83535000D01*
G75*
G02*
X108425000Y-83753750I0J-218750D01*
G01*
X108425000Y-84191250D01*
G75*
G02*
X108206250Y-84410000I-218750J0D01*
G01*
X107693750Y-84410000D01*
G75*
G02*
X107475000Y-84191250I0J218750D01*
G01*
X107475000Y-83753750D01*
G75*
G02*
X107693750Y-83535000I218750J0D01*
G01*
G37*
G36*
G01*
X107693750Y-81960000D02*
X108206250Y-81960000D01*
G75*
G02*
X108425000Y-82178750I0J-218750D01*
G01*
X108425000Y-82616250D01*
G75*
G02*
X108206250Y-82835000I-218750J0D01*
G01*
X107693750Y-82835000D01*
G75*
G02*
X107475000Y-82616250I0J218750D01*
G01*
X107475000Y-82178750D01*
G75*
G02*
X107693750Y-81960000I218750J0D01*
G01*
G37*
G36*
G01*
X105788750Y-83535000D02*
X106301250Y-83535000D01*
G75*
G02*
X106520000Y-83753750I0J-218750D01*
G01*
X106520000Y-84191250D01*
G75*
G02*
X106301250Y-84410000I-218750J0D01*
G01*
X105788750Y-84410000D01*
G75*
G02*
X105570000Y-84191250I0J218750D01*
G01*
X105570000Y-83753750D01*
G75*
G02*
X105788750Y-83535000I218750J0D01*
G01*
G37*
G36*
G01*
X105788750Y-81960000D02*
X106301250Y-81960000D01*
G75*
G02*
X106520000Y-82178750I0J-218750D01*
G01*
X106520000Y-82616250D01*
G75*
G02*
X106301250Y-82835000I-218750J0D01*
G01*
X105788750Y-82835000D01*
G75*
G02*
X105570000Y-82616250I0J218750D01*
G01*
X105570000Y-82178750D01*
G75*
G02*
X105788750Y-81960000I218750J0D01*
G01*
G37*
G36*
G01*
X82806250Y-113315000D02*
X82293750Y-113315000D01*
G75*
G02*
X82075000Y-113096250I0J218750D01*
G01*
X82075000Y-112658750D01*
G75*
G02*
X82293750Y-112440000I218750J0D01*
G01*
X82806250Y-112440000D01*
G75*
G02*
X83025000Y-112658750I0J-218750D01*
G01*
X83025000Y-113096250D01*
G75*
G02*
X82806250Y-113315000I-218750J0D01*
G01*
G37*
G36*
G01*
X82806250Y-114890000D02*
X82293750Y-114890000D01*
G75*
G02*
X82075000Y-114671250I0J218750D01*
G01*
X82075000Y-114233750D01*
G75*
G02*
X82293750Y-114015000I218750J0D01*
G01*
X82806250Y-114015000D01*
G75*
G02*
X83025000Y-114233750I0J-218750D01*
G01*
X83025000Y-114671250D01*
G75*
G02*
X82806250Y-114890000I-218750J0D01*
G01*
G37*
G36*
G01*
X77726250Y-113315000D02*
X77213750Y-113315000D01*
G75*
G02*
X76995000Y-113096250I0J218750D01*
G01*
X76995000Y-112658750D01*
G75*
G02*
X77213750Y-112440000I218750J0D01*
G01*
X77726250Y-112440000D01*
G75*
G02*
X77945000Y-112658750I0J-218750D01*
G01*
X77945000Y-113096250D01*
G75*
G02*
X77726250Y-113315000I-218750J0D01*
G01*
G37*
G36*
G01*
X77726250Y-114890000D02*
X77213750Y-114890000D01*
G75*
G02*
X76995000Y-114671250I0J218750D01*
G01*
X76995000Y-114233750D01*
G75*
G02*
X77213750Y-114015000I218750J0D01*
G01*
X77726250Y-114015000D01*
G75*
G02*
X77945000Y-114233750I0J-218750D01*
G01*
X77945000Y-114671250D01*
G75*
G02*
X77726250Y-114890000I-218750J0D01*
G01*
G37*
G36*
G01*
X127256250Y-95535000D02*
X126743750Y-95535000D01*
G75*
G02*
X126525000Y-95316250I0J218750D01*
G01*
X126525000Y-94878750D01*
G75*
G02*
X126743750Y-94660000I218750J0D01*
G01*
X127256250Y-94660000D01*
G75*
G02*
X127475000Y-94878750I0J-218750D01*
G01*
X127475000Y-95316250D01*
G75*
G02*
X127256250Y-95535000I-218750J0D01*
G01*
G37*
G36*
G01*
X127256250Y-97110000D02*
X126743750Y-97110000D01*
G75*
G02*
X126525000Y-96891250I0J218750D01*
G01*
X126525000Y-96453750D01*
G75*
G02*
X126743750Y-96235000I218750J0D01*
G01*
X127256250Y-96235000D01*
G75*
G02*
X127475000Y-96453750I0J-218750D01*
G01*
X127475000Y-96891250D01*
G75*
G02*
X127256250Y-97110000I-218750J0D01*
G01*
G37*
G36*
G01*
X98075000Y-137538750D02*
X98075000Y-138051250D01*
G75*
G02*
X97856250Y-138270000I-218750J0D01*
G01*
X97418750Y-138270000D01*
G75*
G02*
X97200000Y-138051250I0J218750D01*
G01*
X97200000Y-137538750D01*
G75*
G02*
X97418750Y-137320000I218750J0D01*
G01*
X97856250Y-137320000D01*
G75*
G02*
X98075000Y-137538750I0J-218750D01*
G01*
G37*
G36*
G01*
X99650000Y-137538750D02*
X99650000Y-138051250D01*
G75*
G02*
X99431250Y-138270000I-218750J0D01*
G01*
X98993750Y-138270000D01*
G75*
G02*
X98775000Y-138051250I0J218750D01*
G01*
X98775000Y-137538750D01*
G75*
G02*
X98993750Y-137320000I218750J0D01*
G01*
X99431250Y-137320000D01*
G75*
G02*
X99650000Y-137538750I0J-218750D01*
G01*
G37*
G36*
G01*
X74038750Y-88615000D02*
X74551250Y-88615000D01*
G75*
G02*
X74770000Y-88833750I0J-218750D01*
G01*
X74770000Y-89271250D01*
G75*
G02*
X74551250Y-89490000I-218750J0D01*
G01*
X74038750Y-89490000D01*
G75*
G02*
X73820000Y-89271250I0J218750D01*
G01*
X73820000Y-88833750D01*
G75*
G02*
X74038750Y-88615000I218750J0D01*
G01*
G37*
G36*
G01*
X74038750Y-87040000D02*
X74551250Y-87040000D01*
G75*
G02*
X74770000Y-87258750I0J-218750D01*
G01*
X74770000Y-87696250D01*
G75*
G02*
X74551250Y-87915000I-218750J0D01*
G01*
X74038750Y-87915000D01*
G75*
G02*
X73820000Y-87696250I0J218750D01*
G01*
X73820000Y-87258750D01*
G75*
G02*
X74038750Y-87040000I218750J0D01*
G01*
G37*
G36*
G01*
X119730000Y-134241250D02*
X119730000Y-133728750D01*
G75*
G02*
X119948750Y-133510000I218750J0D01*
G01*
X120386250Y-133510000D01*
G75*
G02*
X120605000Y-133728750I0J-218750D01*
G01*
X120605000Y-134241250D01*
G75*
G02*
X120386250Y-134460000I-218750J0D01*
G01*
X119948750Y-134460000D01*
G75*
G02*
X119730000Y-134241250I0J218750D01*
G01*
G37*
G36*
G01*
X118155000Y-134241250D02*
X118155000Y-133728750D01*
G75*
G02*
X118373750Y-133510000I218750J0D01*
G01*
X118811250Y-133510000D01*
G75*
G02*
X119030000Y-133728750I0J-218750D01*
G01*
X119030000Y-134241250D01*
G75*
G02*
X118811250Y-134460000I-218750J0D01*
G01*
X118373750Y-134460000D01*
G75*
G02*
X118155000Y-134241250I0J218750D01*
G01*
G37*
G36*
G01*
X119730000Y-136146250D02*
X119730000Y-135633750D01*
G75*
G02*
X119948750Y-135415000I218750J0D01*
G01*
X120386250Y-135415000D01*
G75*
G02*
X120605000Y-135633750I0J-218750D01*
G01*
X120605000Y-136146250D01*
G75*
G02*
X120386250Y-136365000I-218750J0D01*
G01*
X119948750Y-136365000D01*
G75*
G02*
X119730000Y-136146250I0J218750D01*
G01*
G37*
G36*
G01*
X118155000Y-136146250D02*
X118155000Y-135633750D01*
G75*
G02*
X118373750Y-135415000I218750J0D01*
G01*
X118811250Y-135415000D01*
G75*
G02*
X119030000Y-135633750I0J-218750D01*
G01*
X119030000Y-136146250D01*
G75*
G02*
X118811250Y-136365000I-218750J0D01*
G01*
X118373750Y-136365000D01*
G75*
G02*
X118155000Y-136146250I0J218750D01*
G01*
G37*
G36*
G01*
X146335000Y-107693750D02*
X146335000Y-108206250D01*
G75*
G02*
X146116250Y-108425000I-218750J0D01*
G01*
X145678750Y-108425000D01*
G75*
G02*
X145460000Y-108206250I0J218750D01*
G01*
X145460000Y-107693750D01*
G75*
G02*
X145678750Y-107475000I218750J0D01*
G01*
X146116250Y-107475000D01*
G75*
G02*
X146335000Y-107693750I0J-218750D01*
G01*
G37*
G36*
G01*
X147910000Y-107693750D02*
X147910000Y-108206250D01*
G75*
G02*
X147691250Y-108425000I-218750J0D01*
G01*
X147253750Y-108425000D01*
G75*
G02*
X147035000Y-108206250I0J218750D01*
G01*
X147035000Y-107693750D01*
G75*
G02*
X147253750Y-107475000I218750J0D01*
G01*
X147691250Y-107475000D01*
G75*
G02*
X147910000Y-107693750I0J-218750D01*
G01*
G37*
G36*
G01*
X147035000Y-112016250D02*
X147035000Y-111503750D01*
G75*
G02*
X147253750Y-111285000I218750J0D01*
G01*
X147691250Y-111285000D01*
G75*
G02*
X147910000Y-111503750I0J-218750D01*
G01*
X147910000Y-112016250D01*
G75*
G02*
X147691250Y-112235000I-218750J0D01*
G01*
X147253750Y-112235000D01*
G75*
G02*
X147035000Y-112016250I0J218750D01*
G01*
G37*
G36*
G01*
X145460000Y-112016250D02*
X145460000Y-111503750D01*
G75*
G02*
X145678750Y-111285000I218750J0D01*
G01*
X146116250Y-111285000D01*
G75*
G02*
X146335000Y-111503750I0J-218750D01*
G01*
X146335000Y-112016250D01*
G75*
G02*
X146116250Y-112235000I-218750J0D01*
G01*
X145678750Y-112235000D01*
G75*
G02*
X145460000Y-112016250I0J218750D01*
G01*
G37*
G36*
G01*
X131414000Y-76202250D02*
X131414000Y-75689750D01*
G75*
G02*
X131632750Y-75471000I218750J0D01*
G01*
X132070250Y-75471000D01*
G75*
G02*
X132289000Y-75689750I0J-218750D01*
G01*
X132289000Y-76202250D01*
G75*
G02*
X132070250Y-76421000I-218750J0D01*
G01*
X131632750Y-76421000D01*
G75*
G02*
X131414000Y-76202250I0J218750D01*
G01*
G37*
G36*
G01*
X129839000Y-76202250D02*
X129839000Y-75689750D01*
G75*
G02*
X130057750Y-75471000I218750J0D01*
G01*
X130495250Y-75471000D01*
G75*
G02*
X130714000Y-75689750I0J-218750D01*
G01*
X130714000Y-76202250D01*
G75*
G02*
X130495250Y-76421000I-218750J0D01*
G01*
X130057750Y-76421000D01*
G75*
G02*
X129839000Y-76202250I0J218750D01*
G01*
G37*
G36*
G01*
X79852000Y-76202250D02*
X79852000Y-75689750D01*
G75*
G02*
X80070750Y-75471000I218750J0D01*
G01*
X80508250Y-75471000D01*
G75*
G02*
X80727000Y-75689750I0J-218750D01*
G01*
X80727000Y-76202250D01*
G75*
G02*
X80508250Y-76421000I-218750J0D01*
G01*
X80070750Y-76421000D01*
G75*
G02*
X79852000Y-76202250I0J218750D01*
G01*
G37*
G36*
G01*
X78277000Y-76202250D02*
X78277000Y-75689750D01*
G75*
G02*
X78495750Y-75471000I218750J0D01*
G01*
X78933250Y-75471000D01*
G75*
G02*
X79152000Y-75689750I0J-218750D01*
G01*
X79152000Y-76202250D01*
G75*
G02*
X78933250Y-76421000I-218750J0D01*
G01*
X78495750Y-76421000D01*
G75*
G02*
X78277000Y-76202250I0J218750D01*
G01*
G37*
G36*
G01*
X136570000Y-112016250D02*
X136570000Y-111503750D01*
G75*
G02*
X136788750Y-111285000I218750J0D01*
G01*
X137226250Y-111285000D01*
G75*
G02*
X137445000Y-111503750I0J-218750D01*
G01*
X137445000Y-112016250D01*
G75*
G02*
X137226250Y-112235000I-218750J0D01*
G01*
X136788750Y-112235000D01*
G75*
G02*
X136570000Y-112016250I0J218750D01*
G01*
G37*
G36*
G01*
X138145000Y-112016250D02*
X138145000Y-111503750D01*
G75*
G02*
X138363750Y-111285000I218750J0D01*
G01*
X138801250Y-111285000D01*
G75*
G02*
X139020000Y-111503750I0J-218750D01*
G01*
X139020000Y-112016250D01*
G75*
G02*
X138801250Y-112235000I-218750J0D01*
G01*
X138363750Y-112235000D01*
G75*
G02*
X138145000Y-112016250I0J218750D01*
G01*
G37*
G36*
G01*
X124081250Y-107600000D02*
X123568750Y-107600000D01*
G75*
G02*
X123350000Y-107381250I0J218750D01*
G01*
X123350000Y-106943750D01*
G75*
G02*
X123568750Y-106725000I218750J0D01*
G01*
X124081250Y-106725000D01*
G75*
G02*
X124300000Y-106943750I0J-218750D01*
G01*
X124300000Y-107381250D01*
G75*
G02*
X124081250Y-107600000I-218750J0D01*
G01*
G37*
G36*
G01*
X124081250Y-109175000D02*
X123568750Y-109175000D01*
G75*
G02*
X123350000Y-108956250I0J218750D01*
G01*
X123350000Y-108518750D01*
G75*
G02*
X123568750Y-108300000I218750J0D01*
G01*
X124081250Y-108300000D01*
G75*
G02*
X124300000Y-108518750I0J-218750D01*
G01*
X124300000Y-108956250D01*
G75*
G02*
X124081250Y-109175000I-218750J0D01*
G01*
G37*
G36*
G01*
X100586250Y-91725000D02*
X100073750Y-91725000D01*
G75*
G02*
X99855000Y-91506250I0J218750D01*
G01*
X99855000Y-91068750D01*
G75*
G02*
X100073750Y-90850000I218750J0D01*
G01*
X100586250Y-90850000D01*
G75*
G02*
X100805000Y-91068750I0J-218750D01*
G01*
X100805000Y-91506250D01*
G75*
G02*
X100586250Y-91725000I-218750J0D01*
G01*
G37*
G36*
G01*
X100586250Y-93300000D02*
X100073750Y-93300000D01*
G75*
G02*
X99855000Y-93081250I0J218750D01*
G01*
X99855000Y-92643750D01*
G75*
G02*
X100073750Y-92425000I218750J0D01*
G01*
X100586250Y-92425000D01*
G75*
G02*
X100805000Y-92643750I0J-218750D01*
G01*
X100805000Y-93081250D01*
G75*
G02*
X100586250Y-93300000I-218750J0D01*
G01*
G37*
G36*
G01*
X127256250Y-91725000D02*
X126743750Y-91725000D01*
G75*
G02*
X126525000Y-91506250I0J218750D01*
G01*
X126525000Y-91068750D01*
G75*
G02*
X126743750Y-90850000I218750J0D01*
G01*
X127256250Y-90850000D01*
G75*
G02*
X127475000Y-91068750I0J-218750D01*
G01*
X127475000Y-91506250D01*
G75*
G02*
X127256250Y-91725000I-218750J0D01*
G01*
G37*
G36*
G01*
X127256250Y-93300000D02*
X126743750Y-93300000D01*
G75*
G02*
X126525000Y-93081250I0J218750D01*
G01*
X126525000Y-92643750D01*
G75*
G02*
X126743750Y-92425000I218750J0D01*
G01*
X127256250Y-92425000D01*
G75*
G02*
X127475000Y-92643750I0J-218750D01*
G01*
X127475000Y-93081250D01*
G75*
G02*
X127256250Y-93300000I-218750J0D01*
G01*
G37*
G36*
G01*
X113921250Y-91725000D02*
X113408750Y-91725000D01*
G75*
G02*
X113190000Y-91506250I0J218750D01*
G01*
X113190000Y-91068750D01*
G75*
G02*
X113408750Y-90850000I218750J0D01*
G01*
X113921250Y-90850000D01*
G75*
G02*
X114140000Y-91068750I0J-218750D01*
G01*
X114140000Y-91506250D01*
G75*
G02*
X113921250Y-91725000I-218750J0D01*
G01*
G37*
G36*
G01*
X113921250Y-93300000D02*
X113408750Y-93300000D01*
G75*
G02*
X113190000Y-93081250I0J218750D01*
G01*
X113190000Y-92643750D01*
G75*
G02*
X113408750Y-92425000I218750J0D01*
G01*
X113921250Y-92425000D01*
G75*
G02*
X114140000Y-92643750I0J-218750D01*
G01*
X114140000Y-93081250D01*
G75*
G02*
X113921250Y-93300000I-218750J0D01*
G01*
G37*
G36*
G01*
X100586250Y-103790000D02*
X100073750Y-103790000D01*
G75*
G02*
X99855000Y-103571250I0J218750D01*
G01*
X99855000Y-103133750D01*
G75*
G02*
X100073750Y-102915000I218750J0D01*
G01*
X100586250Y-102915000D01*
G75*
G02*
X100805000Y-103133750I0J-218750D01*
G01*
X100805000Y-103571250D01*
G75*
G02*
X100586250Y-103790000I-218750J0D01*
G01*
G37*
G36*
G01*
X100586250Y-105365000D02*
X100073750Y-105365000D01*
G75*
G02*
X99855000Y-105146250I0J218750D01*
G01*
X99855000Y-104708750D01*
G75*
G02*
X100073750Y-104490000I218750J0D01*
G01*
X100586250Y-104490000D01*
G75*
G02*
X100805000Y-104708750I0J-218750D01*
G01*
X100805000Y-105146250D01*
G75*
G02*
X100586250Y-105365000I-218750J0D01*
G01*
G37*
G36*
G01*
X87251250Y-91725000D02*
X86738750Y-91725000D01*
G75*
G02*
X86520000Y-91506250I0J218750D01*
G01*
X86520000Y-91068750D01*
G75*
G02*
X86738750Y-90850000I218750J0D01*
G01*
X87251250Y-90850000D01*
G75*
G02*
X87470000Y-91068750I0J-218750D01*
G01*
X87470000Y-91506250D01*
G75*
G02*
X87251250Y-91725000I-218750J0D01*
G01*
G37*
G36*
G01*
X87251250Y-93300000D02*
X86738750Y-93300000D01*
G75*
G02*
X86520000Y-93081250I0J218750D01*
G01*
X86520000Y-92643750D01*
G75*
G02*
X86738750Y-92425000I218750J0D01*
G01*
X87251250Y-92425000D01*
G75*
G02*
X87470000Y-92643750I0J-218750D01*
G01*
X87470000Y-93081250D01*
G75*
G02*
X87251250Y-93300000I-218750J0D01*
G01*
G37*
G36*
G01*
X119123750Y-120365000D02*
X119636250Y-120365000D01*
G75*
G02*
X119855000Y-120583750I0J-218750D01*
G01*
X119855000Y-121021250D01*
G75*
G02*
X119636250Y-121240000I-218750J0D01*
G01*
X119123750Y-121240000D01*
G75*
G02*
X118905000Y-121021250I0J218750D01*
G01*
X118905000Y-120583750D01*
G75*
G02*
X119123750Y-120365000I218750J0D01*
G01*
G37*
G36*
G01*
X119123750Y-118790000D02*
X119636250Y-118790000D01*
G75*
G02*
X119855000Y-119008750I0J-218750D01*
G01*
X119855000Y-119446250D01*
G75*
G02*
X119636250Y-119665000I-218750J0D01*
G01*
X119123750Y-119665000D01*
G75*
G02*
X118905000Y-119446250I0J218750D01*
G01*
X118905000Y-119008750D01*
G75*
G02*
X119123750Y-118790000I218750J0D01*
G01*
G37*
G36*
G01*
X119123750Y-125445000D02*
X119636250Y-125445000D01*
G75*
G02*
X119855000Y-125663750I0J-218750D01*
G01*
X119855000Y-126101250D01*
G75*
G02*
X119636250Y-126320000I-218750J0D01*
G01*
X119123750Y-126320000D01*
G75*
G02*
X118905000Y-126101250I0J218750D01*
G01*
X118905000Y-125663750D01*
G75*
G02*
X119123750Y-125445000I218750J0D01*
G01*
G37*
G36*
G01*
X119123750Y-123870000D02*
X119636250Y-123870000D01*
G75*
G02*
X119855000Y-124088750I0J-218750D01*
G01*
X119855000Y-124526250D01*
G75*
G02*
X119636250Y-124745000I-218750J0D01*
G01*
X119123750Y-124745000D01*
G75*
G02*
X118905000Y-124526250I0J218750D01*
G01*
X118905000Y-124088750D01*
G75*
G02*
X119123750Y-123870000I218750J0D01*
G01*
G37*
G36*
G01*
X111410000Y-133093750D02*
X111410000Y-133606250D01*
G75*
G02*
X111191250Y-133825000I-218750J0D01*
G01*
X110753750Y-133825000D01*
G75*
G02*
X110535000Y-133606250I0J218750D01*
G01*
X110535000Y-133093750D01*
G75*
G02*
X110753750Y-132875000I218750J0D01*
G01*
X111191250Y-132875000D01*
G75*
G02*
X111410000Y-133093750I0J-218750D01*
G01*
G37*
G36*
G01*
X112985000Y-133093750D02*
X112985000Y-133606250D01*
G75*
G02*
X112766250Y-133825000I-218750J0D01*
G01*
X112328750Y-133825000D01*
G75*
G02*
X112110000Y-133606250I0J218750D01*
G01*
X112110000Y-133093750D01*
G75*
G02*
X112328750Y-132875000I218750J0D01*
G01*
X112766250Y-132875000D01*
G75*
G02*
X112985000Y-133093750I0J-218750D01*
G01*
G37*
G36*
G01*
X101885000Y-133093750D02*
X101885000Y-133606250D01*
G75*
G02*
X101666250Y-133825000I-218750J0D01*
G01*
X101228750Y-133825000D01*
G75*
G02*
X101010000Y-133606250I0J218750D01*
G01*
X101010000Y-133093750D01*
G75*
G02*
X101228750Y-132875000I218750J0D01*
G01*
X101666250Y-132875000D01*
G75*
G02*
X101885000Y-133093750I0J-218750D01*
G01*
G37*
G36*
G01*
X103460000Y-133093750D02*
X103460000Y-133606250D01*
G75*
G02*
X103241250Y-133825000I-218750J0D01*
G01*
X102803750Y-133825000D01*
G75*
G02*
X102585000Y-133606250I0J218750D01*
G01*
X102585000Y-133093750D01*
G75*
G02*
X102803750Y-132875000I218750J0D01*
G01*
X103241250Y-132875000D01*
G75*
G02*
X103460000Y-133093750I0J-218750D01*
G01*
G37*
G36*
G01*
X98046250Y-121824000D02*
X97533750Y-121824000D01*
G75*
G02*
X97315000Y-121605250I0J218750D01*
G01*
X97315000Y-121167750D01*
G75*
G02*
X97533750Y-120949000I218750J0D01*
G01*
X98046250Y-120949000D01*
G75*
G02*
X98265000Y-121167750I0J-218750D01*
G01*
X98265000Y-121605250D01*
G75*
G02*
X98046250Y-121824000I-218750J0D01*
G01*
G37*
G36*
G01*
X98046250Y-123399000D02*
X97533750Y-123399000D01*
G75*
G02*
X97315000Y-123180250I0J218750D01*
G01*
X97315000Y-122742750D01*
G75*
G02*
X97533750Y-122524000I218750J0D01*
G01*
X98046250Y-122524000D01*
G75*
G02*
X98265000Y-122742750I0J-218750D01*
G01*
X98265000Y-123180250D01*
G75*
G02*
X98046250Y-123399000I-218750J0D01*
G01*
G37*
G36*
G01*
X102585000Y-112016250D02*
X102585000Y-111503750D01*
G75*
G02*
X102803750Y-111285000I218750J0D01*
G01*
X103241250Y-111285000D01*
G75*
G02*
X103460000Y-111503750I0J-218750D01*
G01*
X103460000Y-112016250D01*
G75*
G02*
X103241250Y-112235000I-218750J0D01*
G01*
X102803750Y-112235000D01*
G75*
G02*
X102585000Y-112016250I0J218750D01*
G01*
G37*
G36*
G01*
X101010000Y-112016250D02*
X101010000Y-111503750D01*
G75*
G02*
X101228750Y-111285000I218750J0D01*
G01*
X101666250Y-111285000D01*
G75*
G02*
X101885000Y-111503750I0J-218750D01*
G01*
X101885000Y-112016250D01*
G75*
G02*
X101666250Y-112235000I-218750J0D01*
G01*
X101228750Y-112235000D01*
G75*
G02*
X101010000Y-112016250I0J218750D01*
G01*
G37*
G36*
G01*
X142690000Y-112216250D02*
X142690000Y-111303750D01*
G75*
G02*
X142933750Y-111060000I243750J0D01*
G01*
X143421250Y-111060000D01*
G75*
G02*
X143665000Y-111303750I0J-243750D01*
G01*
X143665000Y-112216250D01*
G75*
G02*
X143421250Y-112460000I-243750J0D01*
G01*
X142933750Y-112460000D01*
G75*
G02*
X142690000Y-112216250I0J243750D01*
G01*
G37*
G36*
G01*
X140815000Y-112216250D02*
X140815000Y-111303750D01*
G75*
G02*
X141058750Y-111060000I243750J0D01*
G01*
X141546250Y-111060000D01*
G75*
G02*
X141790000Y-111303750I0J-243750D01*
G01*
X141790000Y-112216250D01*
G75*
G02*
X141546250Y-112460000I-243750J0D01*
G01*
X141058750Y-112460000D01*
G75*
G02*
X140815000Y-112216250I0J243750D01*
G01*
G37*
G36*
G01*
X80466250Y-113215000D02*
X79553750Y-113215000D01*
G75*
G02*
X79310000Y-112971250I0J243750D01*
G01*
X79310000Y-112483750D01*
G75*
G02*
X79553750Y-112240000I243750J0D01*
G01*
X80466250Y-112240000D01*
G75*
G02*
X80710000Y-112483750I0J-243750D01*
G01*
X80710000Y-112971250D01*
G75*
G02*
X80466250Y-113215000I-243750J0D01*
G01*
G37*
G36*
G01*
X80466250Y-115090000D02*
X79553750Y-115090000D01*
G75*
G02*
X79310000Y-114846250I0J243750D01*
G01*
X79310000Y-114358750D01*
G75*
G02*
X79553750Y-114115000I243750J0D01*
G01*
X80466250Y-114115000D01*
G75*
G02*
X80710000Y-114358750I0J-243750D01*
G01*
X80710000Y-114846250D01*
G75*
G02*
X80466250Y-115090000I-243750J0D01*
G01*
G37*
G36*
G01*
X74110000Y-114756250D02*
X74110000Y-113843750D01*
G75*
G02*
X74353750Y-113600000I243750J0D01*
G01*
X74841250Y-113600000D01*
G75*
G02*
X75085000Y-113843750I0J-243750D01*
G01*
X75085000Y-114756250D01*
G75*
G02*
X74841250Y-115000000I-243750J0D01*
G01*
X74353750Y-115000000D01*
G75*
G02*
X74110000Y-114756250I0J243750D01*
G01*
G37*
G36*
G01*
X72235000Y-114756250D02*
X72235000Y-113843750D01*
G75*
G02*
X72478750Y-113600000I243750J0D01*
G01*
X72966250Y-113600000D01*
G75*
G02*
X73210000Y-113843750I0J-243750D01*
G01*
X73210000Y-114756250D01*
G75*
G02*
X72966250Y-115000000I-243750J0D01*
G01*
X72478750Y-115000000D01*
G75*
G02*
X72235000Y-114756250I0J243750D01*
G01*
G37*
G36*
G01*
X82093750Y-109670000D02*
X83006250Y-109670000D01*
G75*
G02*
X83250000Y-109913750I0J-243750D01*
G01*
X83250000Y-110401250D01*
G75*
G02*
X83006250Y-110645000I-243750J0D01*
G01*
X82093750Y-110645000D01*
G75*
G02*
X81850000Y-110401250I0J243750D01*
G01*
X81850000Y-109913750D01*
G75*
G02*
X82093750Y-109670000I243750J0D01*
G01*
G37*
G36*
G01*
X82093750Y-107795000D02*
X83006250Y-107795000D01*
G75*
G02*
X83250000Y-108038750I0J-243750D01*
G01*
X83250000Y-108526250D01*
G75*
G02*
X83006250Y-108770000I-243750J0D01*
G01*
X82093750Y-108770000D01*
G75*
G02*
X81850000Y-108526250I0J243750D01*
G01*
X81850000Y-108038750D01*
G75*
G02*
X82093750Y-107795000I243750J0D01*
G01*
G37*
G36*
G01*
X71933750Y-109670000D02*
X72846250Y-109670000D01*
G75*
G02*
X73090000Y-109913750I0J-243750D01*
G01*
X73090000Y-110401250D01*
G75*
G02*
X72846250Y-110645000I-243750J0D01*
G01*
X71933750Y-110645000D01*
G75*
G02*
X71690000Y-110401250I0J243750D01*
G01*
X71690000Y-109913750D01*
G75*
G02*
X71933750Y-109670000I243750J0D01*
G01*
G37*
G36*
G01*
X71933750Y-107795000D02*
X72846250Y-107795000D01*
G75*
G02*
X73090000Y-108038750I0J-243750D01*
G01*
X73090000Y-108526250D01*
G75*
G02*
X72846250Y-108770000I-243750J0D01*
G01*
X71933750Y-108770000D01*
G75*
G02*
X71690000Y-108526250I0J243750D01*
G01*
X71690000Y-108038750D01*
G75*
G02*
X71933750Y-107795000I243750J0D01*
G01*
G37*
G36*
G01*
X151508750Y-108300000D02*
X152021250Y-108300000D01*
G75*
G02*
X152240000Y-108518750I0J-218750D01*
G01*
X152240000Y-108956250D01*
G75*
G02*
X152021250Y-109175000I-218750J0D01*
G01*
X151508750Y-109175000D01*
G75*
G02*
X151290000Y-108956250I0J218750D01*
G01*
X151290000Y-108518750D01*
G75*
G02*
X151508750Y-108300000I218750J0D01*
G01*
G37*
G36*
G01*
X151508750Y-106725000D02*
X152021250Y-106725000D01*
G75*
G02*
X152240000Y-106943750I0J-218750D01*
G01*
X152240000Y-107381250D01*
G75*
G02*
X152021250Y-107600000I-218750J0D01*
G01*
X151508750Y-107600000D01*
G75*
G02*
X151290000Y-107381250I0J218750D01*
G01*
X151290000Y-106943750D01*
G75*
G02*
X151508750Y-106725000I218750J0D01*
G01*
G37*
G36*
G01*
X142590000Y-108206250D02*
X142590000Y-107693750D01*
G75*
G02*
X142808750Y-107475000I218750J0D01*
G01*
X143246250Y-107475000D01*
G75*
G02*
X143465000Y-107693750I0J-218750D01*
G01*
X143465000Y-108206250D01*
G75*
G02*
X143246250Y-108425000I-218750J0D01*
G01*
X142808750Y-108425000D01*
G75*
G02*
X142590000Y-108206250I0J218750D01*
G01*
G37*
G36*
G01*
X141015000Y-108206250D02*
X141015000Y-107693750D01*
G75*
G02*
X141233750Y-107475000I218750J0D01*
G01*
X141671250Y-107475000D01*
G75*
G02*
X141890000Y-107693750I0J-218750D01*
G01*
X141890000Y-108206250D01*
G75*
G02*
X141671250Y-108425000I-218750J0D01*
G01*
X141233750Y-108425000D01*
G75*
G02*
X141015000Y-108206250I0J218750D01*
G01*
G37*
G36*
G01*
X146335000Y-109598750D02*
X146335000Y-110111250D01*
G75*
G02*
X146116250Y-110330000I-218750J0D01*
G01*
X145678750Y-110330000D01*
G75*
G02*
X145460000Y-110111250I0J218750D01*
G01*
X145460000Y-109598750D01*
G75*
G02*
X145678750Y-109380000I218750J0D01*
G01*
X146116250Y-109380000D01*
G75*
G02*
X146335000Y-109598750I0J-218750D01*
G01*
G37*
G36*
G01*
X147910000Y-109598750D02*
X147910000Y-110111250D01*
G75*
G02*
X147691250Y-110330000I-218750J0D01*
G01*
X147253750Y-110330000D01*
G75*
G02*
X147035000Y-110111250I0J218750D01*
G01*
X147035000Y-109598750D01*
G75*
G02*
X147253750Y-109380000I218750J0D01*
G01*
X147691250Y-109380000D01*
G75*
G02*
X147910000Y-109598750I0J-218750D01*
G01*
G37*
G36*
G01*
X153491250Y-99880000D02*
X152578750Y-99880000D01*
G75*
G02*
X152335000Y-99636250I0J243750D01*
G01*
X152335000Y-99148750D01*
G75*
G02*
X152578750Y-98905000I243750J0D01*
G01*
X153491250Y-98905000D01*
G75*
G02*
X153735000Y-99148750I0J-243750D01*
G01*
X153735000Y-99636250D01*
G75*
G02*
X153491250Y-99880000I-243750J0D01*
G01*
G37*
G36*
G01*
X153491250Y-101755000D02*
X152578750Y-101755000D01*
G75*
G02*
X152335000Y-101511250I0J243750D01*
G01*
X152335000Y-101023750D01*
G75*
G02*
X152578750Y-100780000I243750J0D01*
G01*
X153491250Y-100780000D01*
G75*
G02*
X153735000Y-101023750I0J-243750D01*
G01*
X153735000Y-101511250D01*
G75*
G02*
X153491250Y-101755000I-243750J0D01*
G01*
G37*
G36*
G01*
X152778750Y-77820000D02*
X153291250Y-77820000D01*
G75*
G02*
X153510000Y-78038750I0J-218750D01*
G01*
X153510000Y-78476250D01*
G75*
G02*
X153291250Y-78695000I-218750J0D01*
G01*
X152778750Y-78695000D01*
G75*
G02*
X152560000Y-78476250I0J218750D01*
G01*
X152560000Y-78038750D01*
G75*
G02*
X152778750Y-77820000I218750J0D01*
G01*
G37*
G36*
G01*
X152778750Y-76245000D02*
X153291250Y-76245000D01*
G75*
G02*
X153510000Y-76463750I0J-218750D01*
G01*
X153510000Y-76901250D01*
G75*
G02*
X153291250Y-77120000I-218750J0D01*
G01*
X152778750Y-77120000D01*
G75*
G02*
X152560000Y-76901250I0J218750D01*
G01*
X152560000Y-76463750D01*
G75*
G02*
X152778750Y-76245000I218750J0D01*
G01*
G37*
G36*
G01*
X153291250Y-72675000D02*
X152778750Y-72675000D01*
G75*
G02*
X152560000Y-72456250I0J218750D01*
G01*
X152560000Y-72018750D01*
G75*
G02*
X152778750Y-71800000I218750J0D01*
G01*
X153291250Y-71800000D01*
G75*
G02*
X153510000Y-72018750I0J-218750D01*
G01*
X153510000Y-72456250D01*
G75*
G02*
X153291250Y-72675000I-218750J0D01*
G01*
G37*
G36*
G01*
X153291250Y-74250000D02*
X152778750Y-74250000D01*
G75*
G02*
X152560000Y-74031250I0J218750D01*
G01*
X152560000Y-73593750D01*
G75*
G02*
X152778750Y-73375000I218750J0D01*
G01*
X153291250Y-73375000D01*
G75*
G02*
X153510000Y-73593750I0J-218750D01*
G01*
X153510000Y-74031250D01*
G75*
G02*
X153291250Y-74250000I-218750J0D01*
G01*
G37*
G36*
G01*
X152778750Y-84170000D02*
X153291250Y-84170000D01*
G75*
G02*
X153510000Y-84388750I0J-218750D01*
G01*
X153510000Y-84826250D01*
G75*
G02*
X153291250Y-85045000I-218750J0D01*
G01*
X152778750Y-85045000D01*
G75*
G02*
X152560000Y-84826250I0J218750D01*
G01*
X152560000Y-84388750D01*
G75*
G02*
X152778750Y-84170000I218750J0D01*
G01*
G37*
G36*
G01*
X152778750Y-82595000D02*
X153291250Y-82595000D01*
G75*
G02*
X153510000Y-82813750I0J-218750D01*
G01*
X153510000Y-83251250D01*
G75*
G02*
X153291250Y-83470000I-218750J0D01*
G01*
X152778750Y-83470000D01*
G75*
G02*
X152560000Y-83251250I0J218750D01*
G01*
X152560000Y-82813750D01*
G75*
G02*
X152778750Y-82595000I218750J0D01*
G01*
G37*
G36*
G01*
X137538750Y-80995000D02*
X138051250Y-80995000D01*
G75*
G02*
X138270000Y-81213750I0J-218750D01*
G01*
X138270000Y-81651250D01*
G75*
G02*
X138051250Y-81870000I-218750J0D01*
G01*
X137538750Y-81870000D01*
G75*
G02*
X137320000Y-81651250I0J218750D01*
G01*
X137320000Y-81213750D01*
G75*
G02*
X137538750Y-80995000I218750J0D01*
G01*
G37*
G36*
G01*
X137538750Y-79420000D02*
X138051250Y-79420000D01*
G75*
G02*
X138270000Y-79638750I0J-218750D01*
G01*
X138270000Y-80076250D01*
G75*
G02*
X138051250Y-80295000I-218750J0D01*
G01*
X137538750Y-80295000D01*
G75*
G02*
X137320000Y-80076250I0J218750D01*
G01*
X137320000Y-79638750D01*
G75*
G02*
X137538750Y-79420000I218750J0D01*
G01*
G37*
G36*
G01*
X140078750Y-80995000D02*
X140591250Y-80995000D01*
G75*
G02*
X140810000Y-81213750I0J-218750D01*
G01*
X140810000Y-81651250D01*
G75*
G02*
X140591250Y-81870000I-218750J0D01*
G01*
X140078750Y-81870000D01*
G75*
G02*
X139860000Y-81651250I0J218750D01*
G01*
X139860000Y-81213750D01*
G75*
G02*
X140078750Y-80995000I218750J0D01*
G01*
G37*
G36*
G01*
X140078750Y-79420000D02*
X140591250Y-79420000D01*
G75*
G02*
X140810000Y-79638750I0J-218750D01*
G01*
X140810000Y-80076250D01*
G75*
G02*
X140591250Y-80295000I-218750J0D01*
G01*
X140078750Y-80295000D01*
G75*
G02*
X139860000Y-80076250I0J218750D01*
G01*
X139860000Y-79638750D01*
G75*
G02*
X140078750Y-79420000I218750J0D01*
G01*
G37*
G36*
G01*
X150238750Y-80995000D02*
X150751250Y-80995000D01*
G75*
G02*
X150970000Y-81213750I0J-218750D01*
G01*
X150970000Y-81651250D01*
G75*
G02*
X150751250Y-81870000I-218750J0D01*
G01*
X150238750Y-81870000D01*
G75*
G02*
X150020000Y-81651250I0J218750D01*
G01*
X150020000Y-81213750D01*
G75*
G02*
X150238750Y-80995000I218750J0D01*
G01*
G37*
G36*
G01*
X150238750Y-79420000D02*
X150751250Y-79420000D01*
G75*
G02*
X150970000Y-79638750I0J-218750D01*
G01*
X150970000Y-80076250D01*
G75*
G02*
X150751250Y-80295000I-218750J0D01*
G01*
X150238750Y-80295000D01*
G75*
G02*
X150020000Y-80076250I0J218750D01*
G01*
X150020000Y-79638750D01*
G75*
G02*
X150238750Y-79420000I218750J0D01*
G01*
G37*
G36*
G01*
X139350000Y-103248750D02*
X139350000Y-103761250D01*
G75*
G02*
X139131250Y-103980000I-218750J0D01*
G01*
X138693750Y-103980000D01*
G75*
G02*
X138475000Y-103761250I0J218750D01*
G01*
X138475000Y-103248750D01*
G75*
G02*
X138693750Y-103030000I218750J0D01*
G01*
X139131250Y-103030000D01*
G75*
G02*
X139350000Y-103248750I0J-218750D01*
G01*
G37*
G36*
G01*
X140925000Y-103248750D02*
X140925000Y-103761250D01*
G75*
G02*
X140706250Y-103980000I-218750J0D01*
G01*
X140268750Y-103980000D01*
G75*
G02*
X140050000Y-103761250I0J218750D01*
G01*
X140050000Y-103248750D01*
G75*
G02*
X140268750Y-103030000I218750J0D01*
G01*
X140706250Y-103030000D01*
G75*
G02*
X140925000Y-103248750I0J-218750D01*
G01*
G37*
G36*
G01*
X137538750Y-92425000D02*
X138051250Y-92425000D01*
G75*
G02*
X138270000Y-92643750I0J-218750D01*
G01*
X138270000Y-93081250D01*
G75*
G02*
X138051250Y-93300000I-218750J0D01*
G01*
X137538750Y-93300000D01*
G75*
G02*
X137320000Y-93081250I0J218750D01*
G01*
X137320000Y-92643750D01*
G75*
G02*
X137538750Y-92425000I218750J0D01*
G01*
G37*
G36*
G01*
X137538750Y-90850000D02*
X138051250Y-90850000D01*
G75*
G02*
X138270000Y-91068750I0J-218750D01*
G01*
X138270000Y-91506250D01*
G75*
G02*
X138051250Y-91725000I-218750J0D01*
G01*
X137538750Y-91725000D01*
G75*
G02*
X137320000Y-91506250I0J218750D01*
G01*
X137320000Y-91068750D01*
G75*
G02*
X137538750Y-90850000I218750J0D01*
G01*
G37*
G36*
G01*
X138051250Y-97440000D02*
X137538750Y-97440000D01*
G75*
G02*
X137320000Y-97221250I0J218750D01*
G01*
X137320000Y-96783750D01*
G75*
G02*
X137538750Y-96565000I218750J0D01*
G01*
X138051250Y-96565000D01*
G75*
G02*
X138270000Y-96783750I0J-218750D01*
G01*
X138270000Y-97221250D01*
G75*
G02*
X138051250Y-97440000I-218750J0D01*
G01*
G37*
G36*
G01*
X138051250Y-99015000D02*
X137538750Y-99015000D01*
G75*
G02*
X137320000Y-98796250I0J218750D01*
G01*
X137320000Y-98358750D01*
G75*
G02*
X137538750Y-98140000I218750J0D01*
G01*
X138051250Y-98140000D01*
G75*
G02*
X138270000Y-98358750I0J-218750D01*
G01*
X138270000Y-98796250D01*
G75*
G02*
X138051250Y-99015000I-218750J0D01*
G01*
G37*
G36*
G01*
X133000000Y-101978750D02*
X133000000Y-102491250D01*
G75*
G02*
X132781250Y-102710000I-218750J0D01*
G01*
X132343750Y-102710000D01*
G75*
G02*
X132125000Y-102491250I0J218750D01*
G01*
X132125000Y-101978750D01*
G75*
G02*
X132343750Y-101760000I218750J0D01*
G01*
X132781250Y-101760000D01*
G75*
G02*
X133000000Y-101978750I0J-218750D01*
G01*
G37*
G36*
G01*
X134575000Y-101978750D02*
X134575000Y-102491250D01*
G75*
G02*
X134356250Y-102710000I-218750J0D01*
G01*
X133918750Y-102710000D01*
G75*
G02*
X133700000Y-102491250I0J218750D01*
G01*
X133700000Y-101978750D01*
G75*
G02*
X133918750Y-101760000I218750J0D01*
G01*
X134356250Y-101760000D01*
G75*
G02*
X134575000Y-101978750I0J-218750D01*
G01*
G37*
G36*
G01*
X133000000Y-88008750D02*
X133000000Y-88521250D01*
G75*
G02*
X132781250Y-88740000I-218750J0D01*
G01*
X132343750Y-88740000D01*
G75*
G02*
X132125000Y-88521250I0J218750D01*
G01*
X132125000Y-88008750D01*
G75*
G02*
X132343750Y-87790000I218750J0D01*
G01*
X132781250Y-87790000D01*
G75*
G02*
X133000000Y-88008750I0J-218750D01*
G01*
G37*
G36*
G01*
X134575000Y-88008750D02*
X134575000Y-88521250D01*
G75*
G02*
X134356250Y-88740000I-218750J0D01*
G01*
X133918750Y-88740000D01*
G75*
G02*
X133700000Y-88521250I0J218750D01*
G01*
X133700000Y-88008750D01*
G75*
G02*
X133918750Y-87790000I218750J0D01*
G01*
X134356250Y-87790000D01*
G75*
G02*
X134575000Y-88008750I0J-218750D01*
G01*
G37*
G36*
G01*
X138051250Y-87915000D02*
X137538750Y-87915000D01*
G75*
G02*
X137320000Y-87696250I0J218750D01*
G01*
X137320000Y-87258750D01*
G75*
G02*
X137538750Y-87040000I218750J0D01*
G01*
X138051250Y-87040000D01*
G75*
G02*
X138270000Y-87258750I0J-218750D01*
G01*
X138270000Y-87696250D01*
G75*
G02*
X138051250Y-87915000I-218750J0D01*
G01*
G37*
G36*
G01*
X138051250Y-89490000D02*
X137538750Y-89490000D01*
G75*
G02*
X137320000Y-89271250I0J218750D01*
G01*
X137320000Y-88833750D01*
G75*
G02*
X137538750Y-88615000I218750J0D01*
G01*
X138051250Y-88615000D01*
G75*
G02*
X138270000Y-88833750I0J-218750D01*
G01*
X138270000Y-89271250D01*
G75*
G02*
X138051250Y-89490000I-218750J0D01*
G01*
G37*
G36*
G01*
X137538750Y-84805000D02*
X138051250Y-84805000D01*
G75*
G02*
X138270000Y-85023750I0J-218750D01*
G01*
X138270000Y-85461250D01*
G75*
G02*
X138051250Y-85680000I-218750J0D01*
G01*
X137538750Y-85680000D01*
G75*
G02*
X137320000Y-85461250I0J218750D01*
G01*
X137320000Y-85023750D01*
G75*
G02*
X137538750Y-84805000I218750J0D01*
G01*
G37*
G36*
G01*
X137538750Y-83230000D02*
X138051250Y-83230000D01*
G75*
G02*
X138270000Y-83448750I0J-218750D01*
G01*
X138270000Y-83886250D01*
G75*
G02*
X138051250Y-84105000I-218750J0D01*
G01*
X137538750Y-84105000D01*
G75*
G02*
X137320000Y-83886250I0J218750D01*
G01*
X137320000Y-83448750D01*
G75*
G02*
X137538750Y-83230000I218750J0D01*
G01*
G37*
G36*
G01*
X135511250Y-80295000D02*
X134998750Y-80295000D01*
G75*
G02*
X134780000Y-80076250I0J218750D01*
G01*
X134780000Y-79638750D01*
G75*
G02*
X134998750Y-79420000I218750J0D01*
G01*
X135511250Y-79420000D01*
G75*
G02*
X135730000Y-79638750I0J-218750D01*
G01*
X135730000Y-80076250D01*
G75*
G02*
X135511250Y-80295000I-218750J0D01*
G01*
G37*
G36*
G01*
X135511250Y-81870000D02*
X134998750Y-81870000D01*
G75*
G02*
X134780000Y-81651250I0J218750D01*
G01*
X134780000Y-81213750D01*
G75*
G02*
X134998750Y-80995000I218750J0D01*
G01*
X135511250Y-80995000D01*
G75*
G02*
X135730000Y-81213750I0J-218750D01*
G01*
X135730000Y-81651250D01*
G75*
G02*
X135511250Y-81870000I-218750J0D01*
G01*
G37*
G36*
G01*
X145158750Y-80995000D02*
X145671250Y-80995000D01*
G75*
G02*
X145890000Y-81213750I0J-218750D01*
G01*
X145890000Y-81651250D01*
G75*
G02*
X145671250Y-81870000I-218750J0D01*
G01*
X145158750Y-81870000D01*
G75*
G02*
X144940000Y-81651250I0J218750D01*
G01*
X144940000Y-81213750D01*
G75*
G02*
X145158750Y-80995000I218750J0D01*
G01*
G37*
G36*
G01*
X145158750Y-79420000D02*
X145671250Y-79420000D01*
G75*
G02*
X145890000Y-79638750I0J-218750D01*
G01*
X145890000Y-80076250D01*
G75*
G02*
X145671250Y-80295000I-218750J0D01*
G01*
X145158750Y-80295000D01*
G75*
G02*
X144940000Y-80076250I0J218750D01*
G01*
X144940000Y-79638750D01*
G75*
G02*
X145158750Y-79420000I218750J0D01*
G01*
G37*
G36*
G01*
X142618750Y-80995000D02*
X143131250Y-80995000D01*
G75*
G02*
X143350000Y-81213750I0J-218750D01*
G01*
X143350000Y-81651250D01*
G75*
G02*
X143131250Y-81870000I-218750J0D01*
G01*
X142618750Y-81870000D01*
G75*
G02*
X142400000Y-81651250I0J218750D01*
G01*
X142400000Y-81213750D01*
G75*
G02*
X142618750Y-80995000I218750J0D01*
G01*
G37*
G36*
G01*
X142618750Y-79420000D02*
X143131250Y-79420000D01*
G75*
G02*
X143350000Y-79638750I0J-218750D01*
G01*
X143350000Y-80076250D01*
G75*
G02*
X143131250Y-80295000I-218750J0D01*
G01*
X142618750Y-80295000D01*
G75*
G02*
X142400000Y-80076250I0J218750D01*
G01*
X142400000Y-79638750D01*
G75*
G02*
X142618750Y-79420000I218750J0D01*
G01*
G37*
G36*
G01*
X148211250Y-80295000D02*
X147698750Y-80295000D01*
G75*
G02*
X147480000Y-80076250I0J218750D01*
G01*
X147480000Y-79638750D01*
G75*
G02*
X147698750Y-79420000I218750J0D01*
G01*
X148211250Y-79420000D01*
G75*
G02*
X148430000Y-79638750I0J-218750D01*
G01*
X148430000Y-80076250D01*
G75*
G02*
X148211250Y-80295000I-218750J0D01*
G01*
G37*
G36*
G01*
X148211250Y-81870000D02*
X147698750Y-81870000D01*
G75*
G02*
X147480000Y-81651250I0J218750D01*
G01*
X147480000Y-81213750D01*
G75*
G02*
X147698750Y-80995000I218750J0D01*
G01*
X148211250Y-80995000D01*
G75*
G02*
X148430000Y-81213750I0J-218750D01*
G01*
X148430000Y-81651250D01*
G75*
G02*
X148211250Y-81870000I-218750J0D01*
G01*
G37*
M02*
