M48
; DRILL file {KiCad (5.1.6)-1} date 05/12/21 21:13:47
; FORMAT={-:-/ absolute / metric / decimal}
; #@! TF.CreationDate,2021-05-12T21:13:47-05:00
; #@! TF.GenerationSoftware,Kicad,Pcbnew,(5.1.6)-1
; #@! TF.FileFunction,Plated,1,2,PTH
FMAT,2
METRIC
T1C0.400
T2C0.800
T3C0.890
T4C0.900
T5C1.000
T6C1.200
T7C1.400
T8C1.600
T9C3.000
T10C3.200
%
G90
G05
T1
X71.12Y-109.855
X73.025Y-100.965
X73.025Y-102.235
X73.025Y-103.505
X73.66Y-99.695
X74.295Y-100.965
X74.295Y-102.235
X74.295Y-103.505
X74.93Y-98.425
X74.93Y-99.695
X75.565Y-81.915
X75.692Y-114.3
X76.2Y-86.995
X76.2Y-98.425
X76.2Y-99.695
X77.47Y-85.725
X77.47Y-98.425
X77.47Y-99.695
X77.47Y-109.855
X78.74Y-94.615
X78.74Y-98.425
X78.74Y-99.695
X80.01Y-85.725
X80.01Y-98.425
X80.01Y-99.695
X80.01Y-111.125
X80.645Y-100.965
X80.645Y-102.235
X80.645Y-103.505
X81.28Y-99.695
X81.28Y-109.855
X81.534Y-75.438
X81.915Y-100.965
X81.915Y-102.235
X81.915Y-103.505
X82.55Y-94.615
X82.55Y-111.76
X83.185Y-82.55
X83.185Y-123.19
X84.455Y-85.725
X86.36Y-81.28
X86.36Y-106.045
X86.36Y-113.665
X86.995Y-90.17
X86.995Y-106.68
X86.995Y-113.03
X87.63Y-106.045
X87.63Y-113.665
X88.265Y-81.28
X88.265Y-106.68
X88.265Y-114.3
X89.281Y-131.318
X89.281Y-134.366
X89.535Y-86.995
X90.17Y-113.03
X90.614Y-129.476
X90.805Y-85.725
X90.805Y-100.965
X90.805Y-113.665
X91.059Y-130.175
X91.44Y-81.28
X91.44Y-95.885
X91.44Y-106.68
X91.44Y-113.03
X91.567Y-130.81
X92.075Y-95.25
X92.075Y-103.378
X92.075Y-113.665
X92.456Y-102.108
X92.71Y-94.615
X92.71Y-113.03
X93.345Y-102.87
X93.345Y-113.665
X93.98Y-94.615
X93.98Y-113.03
X94.615Y-113.665
X95.25Y-113.03
X95.25Y-120.396
X95.25Y-123.825
X95.885Y-95.25
X96.52Y-94.615
X96.837Y-113.855
X97.155Y-97.155
X97.155Y-106.68
X97.536Y-120.396
X97.79Y-102.235
X97.79Y-107.315
X99.06Y-115.316
X99.187Y-127.762
X99.187Y-128.588
X100.33Y-90.17
X100.33Y-102.235
X100.33Y-133.35
X101.092Y-113.284
X101.346Y-130.81
X102.235Y-132.08
X102.87Y-86.995
X102.87Y-110.744
X102.87Y-121.92
X103.505Y-85.725
X103.822Y-136.334
X104.14Y-116.84
X105.41Y-94.615
X105.791Y-131.953
X106.045Y-81.28
X106.045Y-89.535
X106.68Y-107.95
X106.68Y-131.953
X107.315Y-85.725
X107.315Y-90.805
X107.315Y-107.315
X107.442Y-96.266
X107.95Y-81.28
X107.95Y-107.95
X108.204Y-135.636
X108.458Y-96.266
X108.585Y-107.315
X108.966Y-99.441
X109.22Y-91.44
X109.855Y-94.615
X110.49Y-95.25
X111.01Y-132.322
X111.125Y-85.725
X111.506Y-128.27
X113.665Y-81.28
X113.665Y-90.17
X114.3Y-120.015
X114.3Y-126.365
X114.935Y-94.615
X114.935Y-95.885
X114.935Y-102.235
X114.935Y-103.505
X115.57Y-81.28
X116.205Y-86.995
X117.475Y-85.725
X117.856Y-120.396
X117.983Y-130.937
X118.745Y-94.615
X118.745Y-106.68
X118.872Y-116.078
X119.126Y-132.08
X119.38Y-85.725
X119.38Y-106.045
X120.015Y-95.25
X120.015Y-105.41
X120.65Y-94.615
X120.65Y-104.775
X120.65Y-122.301
X120.65Y-123.19
X120.65Y-125.73
X121.285Y-105.41
X121.412Y-117.602
X121.92Y-81.28
X121.92Y-127.762
X122.555Y-94.615
X122.555Y-96.52
X122.555Y-127.127
X123.317Y-119.634
X123.317Y-120.65
X123.825Y-85.725
X123.825Y-96.52
X123.825Y-97.79
X123.825Y-106.045
X124.46Y-132.715
X124.714Y-123.825
X125.095Y-130.81
X125.095Y-133.985
X125.476Y-81.28
X125.857Y-113.284
X125.857Y-124.714
X126.365Y-130.81
X126.746Y-113.284
X127.0Y-90.17
X127.254Y-81.28
X131.826Y-116.84
X132.842Y-75.946
X135.128Y-89.408
X135.128Y-101.092
X136.652Y-92.202
X136.652Y-97.028
X137.795Y-78.74
X137.795Y-86.36
X137.795Y-103.505
X138.43Y-116.84
X139.065Y-88.265
X139.7Y-111.76
X140.335Y-78.74
X142.748Y-95.25
X142.875Y-78.74
X142.875Y-88.265
X142.875Y-92.075
X143.129Y-110.363
X143.51Y-82.55
X146.05Y-102.87
X146.05Y-105.41
X146.685Y-79.883
X147.955Y-88.265
X148.59Y-99.695
X151.765Y-88.265
X153.035Y-81.915
X153.035Y-97.79
X153.67Y-91.44
X153.67Y-93.345
T2
X67.945Y-111.8
X67.945Y-114.3
X78.74Y-78.74
X81.28Y-78.74
X83.82Y-78.74
X86.36Y-78.74
X88.9Y-78.74
X91.44Y-78.74
X93.98Y-78.74
X96.52Y-78.74
X99.06Y-78.74
X101.6Y-78.74
X107.95Y-78.74
X110.49Y-78.74
X113.03Y-78.74
X115.57Y-78.74
X118.11Y-78.74
X120.65Y-78.74
X123.19Y-78.74
X125.73Y-78.74
X128.27Y-78.74
X130.81Y-78.74
X133.35Y-92.783
X133.35Y-97.663
T3
X136.33Y-63.48
X138.87Y-61.96
X146.44Y-63.48
X148.98Y-61.96
T4
X89.1Y-73.0
X90.48Y-70.46
X91.86Y-73.0
X93.24Y-70.46
X94.62Y-73.0
X96.0Y-70.46
X97.38Y-73.0
X98.76Y-70.46
X100.14Y-73.0
X101.52Y-70.46
X102.9Y-73.0
X104.28Y-70.46
X105.66Y-73.0
X107.04Y-70.46
X108.42Y-73.0
X109.8Y-70.46
X111.18Y-73.0
X112.56Y-70.46
X113.94Y-73.0
X115.32Y-70.46
X116.7Y-73.0
X118.08Y-70.46
X119.46Y-73.0
X120.84Y-70.46
X122.22Y-73.0
X138.21Y-75.74
X139.48Y-73.2
X140.75Y-75.74
X142.02Y-73.2
X143.29Y-75.74
X144.56Y-73.2
X145.83Y-75.74
X147.1Y-73.2
T5
X128.905Y-106.045
X128.905Y-108.585
X131.445Y-106.045
X131.445Y-108.585
X74.295Y-93.98
X106.045Y-133.985
X133.985Y-106.045
X133.985Y-108.585
T6
X84.125Y-136.7
X91.875Y-136.7
X72.39Y-117.475
X74.93Y-117.475
X77.47Y-117.475
T7
X84.275Y-132.9
X91.725Y-132.9
T8
X134.88Y-69.91
X150.43Y-69.91
T9
X72.5Y-67.7
T10
X82.14Y-71.73
X129.18Y-71.73
X72.5Y-73.7
T0
M30
