%FSLAX45Y45*%
G04 Gerber Fmt 4.5, Leading zero omitted, Abs format (unit mm)*
G04 Created by KiCad (PCBNEW (5.1.6)-1) date 2021-05-12 21:13:57*
%MOMM*%
%LPD*%
G01*
G04 APERTURE LIST*
%TA.AperFunction,Profile*%
%ADD10C,0.150000*%
%TD*%
%ADD11C,0.200000*%
%ADD12C,0.300000*%
G04 APERTURE END LIST*
D10*
X8100000Y-14000000D02*
X6000000Y-14000000D01*
X9350000Y-13850000D02*
X9500000Y-14000000D01*
X8250000Y-13850000D02*
X9350000Y-13850000D01*
X8250000Y-13850000D02*
X8100000Y-14000000D01*
X16000000Y-6000000D02*
X16000000Y-14000000D01*
X9500000Y-14000000D02*
X16000000Y-14000000D01*
X6000000Y-6000000D02*
X6000000Y-14000000D01*
X6000000Y-6000000D02*
X16000000Y-6000000D01*
D11*
X7092000Y-10965500D02*
X7132000Y-11005500D01*
X7132000Y-10965500D02*
X7092000Y-11005500D01*
X7282500Y-10076500D02*
X7322500Y-10116500D01*
X7322500Y-10076500D02*
X7282500Y-10116500D01*
X7282500Y-10203500D02*
X7322500Y-10243500D01*
X7322500Y-10203500D02*
X7282500Y-10243500D01*
X7282500Y-10330500D02*
X7322500Y-10370500D01*
X7322500Y-10330500D02*
X7282500Y-10370500D01*
X7346000Y-9949500D02*
X7386000Y-9989500D01*
X7386000Y-9949500D02*
X7346000Y-9989500D01*
X7409500Y-10076500D02*
X7449500Y-10116500D01*
X7449500Y-10076500D02*
X7409500Y-10116500D01*
X7409500Y-10203500D02*
X7449500Y-10243500D01*
X7449500Y-10203500D02*
X7409500Y-10243500D01*
X7409500Y-10330500D02*
X7449500Y-10370500D01*
X7449500Y-10330500D02*
X7409500Y-10370500D01*
X7473000Y-9822500D02*
X7513000Y-9862500D01*
X7513000Y-9822500D02*
X7473000Y-9862500D01*
X7473000Y-9949500D02*
X7513000Y-9989500D01*
X7513000Y-9949500D02*
X7473000Y-9989500D01*
X7536500Y-8171500D02*
X7576500Y-8211500D01*
X7576500Y-8171500D02*
X7536500Y-8211500D01*
X7549200Y-11410000D02*
X7589200Y-11450000D01*
X7589200Y-11410000D02*
X7549200Y-11450000D01*
X7600000Y-8679500D02*
X7640000Y-8719500D01*
X7640000Y-8679500D02*
X7600000Y-8719500D01*
X7600000Y-9822500D02*
X7640000Y-9862500D01*
X7640000Y-9822500D02*
X7600000Y-9862500D01*
X7600000Y-9949500D02*
X7640000Y-9989500D01*
X7640000Y-9949500D02*
X7600000Y-9989500D01*
X7727000Y-8552500D02*
X7767000Y-8592500D01*
X7767000Y-8552500D02*
X7727000Y-8592500D01*
X7727000Y-9822500D02*
X7767000Y-9862500D01*
X7767000Y-9822500D02*
X7727000Y-9862500D01*
X7727000Y-9949500D02*
X7767000Y-9989500D01*
X7767000Y-9949500D02*
X7727000Y-9989500D01*
X7727000Y-10965500D02*
X7767000Y-11005500D01*
X7767000Y-10965500D02*
X7727000Y-11005500D01*
X7854000Y-9441500D02*
X7894000Y-9481500D01*
X7894000Y-9441500D02*
X7854000Y-9481500D01*
X7854000Y-9822500D02*
X7894000Y-9862500D01*
X7894000Y-9822500D02*
X7854000Y-9862500D01*
X7854000Y-9949500D02*
X7894000Y-9989500D01*
X7894000Y-9949500D02*
X7854000Y-9989500D01*
X7981000Y-8552500D02*
X8021000Y-8592500D01*
X8021000Y-8552500D02*
X7981000Y-8592500D01*
X7981000Y-9822500D02*
X8021000Y-9862500D01*
X8021000Y-9822500D02*
X7981000Y-9862500D01*
X7981000Y-9949500D02*
X8021000Y-9989500D01*
X8021000Y-9949500D02*
X7981000Y-9989500D01*
X7981000Y-11092500D02*
X8021000Y-11132500D01*
X8021000Y-11092500D02*
X7981000Y-11132500D01*
X8044500Y-10076500D02*
X8084500Y-10116500D01*
X8084500Y-10076500D02*
X8044500Y-10116500D01*
X8044500Y-10203500D02*
X8084500Y-10243500D01*
X8084500Y-10203500D02*
X8044500Y-10243500D01*
X8044500Y-10330500D02*
X8084500Y-10370500D01*
X8084500Y-10330500D02*
X8044500Y-10370500D01*
X8108000Y-9949500D02*
X8148000Y-9989500D01*
X8148000Y-9949500D02*
X8108000Y-9989500D01*
X8108000Y-10965500D02*
X8148000Y-11005500D01*
X8148000Y-10965500D02*
X8108000Y-11005500D01*
X8133400Y-7523800D02*
X8173400Y-7563800D01*
X8173400Y-7523800D02*
X8133400Y-7563800D01*
X8171500Y-10076500D02*
X8211500Y-10116500D01*
X8211500Y-10076500D02*
X8171500Y-10116500D01*
X8171500Y-10203500D02*
X8211500Y-10243500D01*
X8211500Y-10203500D02*
X8171500Y-10243500D01*
X8171500Y-10330500D02*
X8211500Y-10370500D01*
X8211500Y-10330500D02*
X8171500Y-10370500D01*
X8235000Y-9441500D02*
X8275000Y-9481500D01*
X8275000Y-9441500D02*
X8235000Y-9481500D01*
X8235000Y-11156000D02*
X8275000Y-11196000D01*
X8275000Y-11156000D02*
X8235000Y-11196000D01*
X8298500Y-8235000D02*
X8338500Y-8275000D01*
X8338500Y-8235000D02*
X8298500Y-8275000D01*
X8298500Y-12299000D02*
X8338500Y-12339000D01*
X8338500Y-12299000D02*
X8298500Y-12339000D01*
X8425500Y-8552500D02*
X8465500Y-8592500D01*
X8465500Y-8552500D02*
X8425500Y-8592500D01*
X8616000Y-8108000D02*
X8656000Y-8148000D01*
X8656000Y-8108000D02*
X8616000Y-8148000D01*
X8616000Y-10584500D02*
X8656000Y-10624500D01*
X8656000Y-10584500D02*
X8616000Y-10624500D01*
X8616000Y-11346500D02*
X8656000Y-11386500D01*
X8656000Y-11346500D02*
X8616000Y-11386500D01*
X8679500Y-8997000D02*
X8719500Y-9037000D01*
X8719500Y-8997000D02*
X8679500Y-9037000D01*
X8679500Y-10648000D02*
X8719500Y-10688000D01*
X8719500Y-10648000D02*
X8679500Y-10688000D01*
X8679500Y-11283000D02*
X8719500Y-11323000D01*
X8719500Y-11283000D02*
X8679500Y-11323000D01*
X8743000Y-10584500D02*
X8783000Y-10624500D01*
X8783000Y-10584500D02*
X8743000Y-10624500D01*
X8743000Y-11346500D02*
X8783000Y-11386500D01*
X8783000Y-11346500D02*
X8743000Y-11386500D01*
X8806500Y-8108000D02*
X8846500Y-8148000D01*
X8846500Y-8108000D02*
X8806500Y-8148000D01*
X8806500Y-10648000D02*
X8846500Y-10688000D01*
X8846500Y-10648000D02*
X8806500Y-10688000D01*
X8806500Y-11410000D02*
X8846500Y-11450000D01*
X8846500Y-11410000D02*
X8806500Y-11450000D01*
X8908100Y-13111800D02*
X8948100Y-13151800D01*
X8948100Y-13111800D02*
X8908100Y-13151800D01*
X8908100Y-13416600D02*
X8948100Y-13456600D01*
X8948100Y-13416600D02*
X8908100Y-13456600D01*
X8933500Y-8679500D02*
X8973500Y-8719500D01*
X8973500Y-8679500D02*
X8933500Y-8719500D01*
X8997000Y-11283000D02*
X9037000Y-11323000D01*
X9037000Y-11283000D02*
X8997000Y-11323000D01*
X9041450Y-12927650D02*
X9081450Y-12967650D01*
X9081450Y-12927650D02*
X9041450Y-12967650D01*
X9060500Y-8552500D02*
X9100500Y-8592500D01*
X9100500Y-8552500D02*
X9060500Y-8592500D01*
X9060500Y-10076500D02*
X9100500Y-10116500D01*
X9100500Y-10076500D02*
X9060500Y-10116500D01*
X9060500Y-11346500D02*
X9100500Y-11386500D01*
X9100500Y-11346500D02*
X9060500Y-11386500D01*
X9085900Y-12997500D02*
X9125900Y-13037500D01*
X9125900Y-12997500D02*
X9085900Y-13037500D01*
X9124000Y-8108000D02*
X9164000Y-8148000D01*
X9164000Y-8108000D02*
X9124000Y-8148000D01*
X9124000Y-9568500D02*
X9164000Y-9608500D01*
X9164000Y-9568500D02*
X9124000Y-9608500D01*
X9124000Y-10648000D02*
X9164000Y-10688000D01*
X9164000Y-10648000D02*
X9124000Y-10688000D01*
X9124000Y-11283000D02*
X9164000Y-11323000D01*
X9164000Y-11283000D02*
X9124000Y-11323000D01*
X9136700Y-13061000D02*
X9176700Y-13101000D01*
X9176700Y-13061000D02*
X9136700Y-13101000D01*
X9187500Y-9505000D02*
X9227500Y-9545000D01*
X9227500Y-9505000D02*
X9187500Y-9545000D01*
X9187500Y-10317800D02*
X9227500Y-10357800D01*
X9227500Y-10317800D02*
X9187500Y-10357800D01*
X9187500Y-11346500D02*
X9227500Y-11386500D01*
X9227500Y-11346500D02*
X9187500Y-11386500D01*
X9225600Y-10190800D02*
X9265600Y-10230800D01*
X9265600Y-10190800D02*
X9225600Y-10230800D01*
X9251000Y-9441500D02*
X9291000Y-9481500D01*
X9291000Y-9441500D02*
X9251000Y-9481500D01*
X9251000Y-11283000D02*
X9291000Y-11323000D01*
X9291000Y-11283000D02*
X9251000Y-11323000D01*
X9314500Y-10267000D02*
X9354500Y-10307000D01*
X9354500Y-10267000D02*
X9314500Y-10307000D01*
X9314500Y-11346500D02*
X9354500Y-11386500D01*
X9354500Y-11346500D02*
X9314500Y-11386500D01*
X9378000Y-9441500D02*
X9418000Y-9481500D01*
X9418000Y-9441500D02*
X9378000Y-9481500D01*
X9378000Y-11283000D02*
X9418000Y-11323000D01*
X9418000Y-11283000D02*
X9378000Y-11323000D01*
X9441500Y-11346500D02*
X9481500Y-11386500D01*
X9481500Y-11346500D02*
X9441500Y-11386500D01*
X9505000Y-11283000D02*
X9545000Y-11323000D01*
X9545000Y-11283000D02*
X9505000Y-11323000D01*
X9505000Y-12019600D02*
X9545000Y-12059600D01*
X9545000Y-12019600D02*
X9505000Y-12059600D01*
X9505000Y-12362500D02*
X9545000Y-12402500D01*
X9545000Y-12362500D02*
X9505000Y-12402500D01*
X9568500Y-9505000D02*
X9608500Y-9545000D01*
X9608500Y-9505000D02*
X9568500Y-9545000D01*
X9632000Y-9441500D02*
X9672000Y-9481500D01*
X9672000Y-9441500D02*
X9632000Y-9481500D01*
X9663750Y-11365550D02*
X9703750Y-11405550D01*
X9703750Y-11365550D02*
X9663750Y-11405550D01*
X9695500Y-9695500D02*
X9735500Y-9735500D01*
X9735500Y-9695500D02*
X9695500Y-9735500D01*
X9695500Y-10648000D02*
X9735500Y-10688000D01*
X9735500Y-10648000D02*
X9695500Y-10688000D01*
X9733600Y-12019600D02*
X9773600Y-12059600D01*
X9773600Y-12019600D02*
X9733600Y-12059600D01*
X9759000Y-10203500D02*
X9799000Y-10243500D01*
X9799000Y-10203500D02*
X9759000Y-10243500D01*
X9759000Y-10711500D02*
X9799000Y-10751500D01*
X9799000Y-10711500D02*
X9759000Y-10751500D01*
X9886000Y-11511600D02*
X9926000Y-11551600D01*
X9926000Y-11511600D02*
X9886000Y-11551600D01*
X9898700Y-12756200D02*
X9938700Y-12796200D01*
X9938700Y-12756200D02*
X9898700Y-12796200D01*
X9898700Y-12838750D02*
X9938700Y-12878750D01*
X9938700Y-12838750D02*
X9898700Y-12878750D01*
X10013000Y-8997000D02*
X10053000Y-9037000D01*
X10053000Y-8997000D02*
X10013000Y-9037000D01*
X10013000Y-10203500D02*
X10053000Y-10243500D01*
X10053000Y-10203500D02*
X10013000Y-10243500D01*
X10013000Y-13315000D02*
X10053000Y-13355000D01*
X10053000Y-13315000D02*
X10013000Y-13355000D01*
X10089200Y-11308400D02*
X10129200Y-11348400D01*
X10129200Y-11308400D02*
X10089200Y-11348400D01*
X10114600Y-13061000D02*
X10154600Y-13101000D01*
X10154600Y-13061000D02*
X10114600Y-13101000D01*
X10203500Y-13188000D02*
X10243500Y-13228000D01*
X10243500Y-13188000D02*
X10203500Y-13228000D01*
X10267000Y-8679500D02*
X10307000Y-8719500D01*
X10307000Y-8679500D02*
X10267000Y-8719500D01*
X10267000Y-11054400D02*
X10307000Y-11094400D01*
X10307000Y-11054400D02*
X10267000Y-11094400D01*
X10267000Y-12172000D02*
X10307000Y-12212000D01*
X10307000Y-12172000D02*
X10267000Y-12212000D01*
X10330500Y-8552500D02*
X10370500Y-8592500D01*
X10370500Y-8552500D02*
X10330500Y-8592500D01*
X10362250Y-13613450D02*
X10402250Y-13653450D01*
X10402250Y-13613450D02*
X10362250Y-13653450D01*
X10394000Y-11664000D02*
X10434000Y-11704000D01*
X10434000Y-11664000D02*
X10394000Y-11704000D01*
X10521000Y-9441500D02*
X10561000Y-9481500D01*
X10561000Y-9441500D02*
X10521000Y-9481500D01*
X10559100Y-13175300D02*
X10599100Y-13215300D01*
X10599100Y-13175300D02*
X10559100Y-13215300D01*
X10584500Y-8108000D02*
X10624500Y-8148000D01*
X10624500Y-8108000D02*
X10584500Y-8148000D01*
X10584500Y-8933500D02*
X10624500Y-8973500D01*
X10624500Y-8933500D02*
X10584500Y-8973500D01*
X10648000Y-10775000D02*
X10688000Y-10815000D01*
X10688000Y-10775000D02*
X10648000Y-10815000D01*
X10648000Y-13175300D02*
X10688000Y-13215300D01*
X10688000Y-13175300D02*
X10648000Y-13215300D01*
X10711500Y-8552500D02*
X10751500Y-8592500D01*
X10751500Y-8552500D02*
X10711500Y-8592500D01*
X10711500Y-9060500D02*
X10751500Y-9100500D01*
X10751500Y-9060500D02*
X10711500Y-9100500D01*
X10711500Y-10711500D02*
X10751500Y-10751500D01*
X10751500Y-10711500D02*
X10711500Y-10751500D01*
X10724200Y-9606600D02*
X10764200Y-9646600D01*
X10764200Y-9606600D02*
X10724200Y-9646600D01*
X10775000Y-8108000D02*
X10815000Y-8148000D01*
X10815000Y-8108000D02*
X10775000Y-8148000D01*
X10775000Y-10775000D02*
X10815000Y-10815000D01*
X10815000Y-10775000D02*
X10775000Y-10815000D01*
X10800400Y-13543600D02*
X10840400Y-13583600D01*
X10840400Y-13543600D02*
X10800400Y-13583600D01*
X10825800Y-9606600D02*
X10865800Y-9646600D01*
X10865800Y-9606600D02*
X10825800Y-9646600D01*
X10838500Y-10711500D02*
X10878500Y-10751500D01*
X10878500Y-10711500D02*
X10838500Y-10751500D01*
X10876600Y-9924100D02*
X10916600Y-9964100D01*
X10916600Y-9924100D02*
X10876600Y-9964100D01*
X10902000Y-9124000D02*
X10942000Y-9164000D01*
X10942000Y-9124000D02*
X10902000Y-9164000D01*
X10965500Y-9441500D02*
X11005500Y-9481500D01*
X11005500Y-9441500D02*
X10965500Y-9481500D01*
X11029000Y-9505000D02*
X11069000Y-9545000D01*
X11069000Y-9505000D02*
X11029000Y-9545000D01*
X11081000Y-13212200D02*
X11121000Y-13252200D01*
X11121000Y-13212200D02*
X11081000Y-13252200D01*
X11092500Y-8552500D02*
X11132500Y-8592500D01*
X11132500Y-8552500D02*
X11092500Y-8592500D01*
X11130600Y-12807000D02*
X11170600Y-12847000D01*
X11170600Y-12807000D02*
X11130600Y-12847000D01*
X11346500Y-8108000D02*
X11386500Y-8148000D01*
X11386500Y-8108000D02*
X11346500Y-8148000D01*
X11346500Y-8997000D02*
X11386500Y-9037000D01*
X11386500Y-8997000D02*
X11346500Y-9037000D01*
X11410000Y-11981500D02*
X11450000Y-12021500D01*
X11450000Y-11981500D02*
X11410000Y-12021500D01*
X11410000Y-12616500D02*
X11450000Y-12656500D01*
X11450000Y-12616500D02*
X11410000Y-12656500D01*
X11473500Y-9441500D02*
X11513500Y-9481500D01*
X11513500Y-9441500D02*
X11473500Y-9481500D01*
X11473500Y-9568500D02*
X11513500Y-9608500D01*
X11513500Y-9568500D02*
X11473500Y-9608500D01*
X11473500Y-10203500D02*
X11513500Y-10243500D01*
X11513500Y-10203500D02*
X11473500Y-10243500D01*
X11473500Y-10330500D02*
X11513500Y-10370500D01*
X11513500Y-10330500D02*
X11473500Y-10370500D01*
X11537000Y-8108000D02*
X11577000Y-8148000D01*
X11577000Y-8108000D02*
X11537000Y-8148000D01*
X11600500Y-8679500D02*
X11640500Y-8719500D01*
X11640500Y-8679500D02*
X11600500Y-8719500D01*
X11727500Y-8552500D02*
X11767500Y-8592500D01*
X11767500Y-8552500D02*
X11727500Y-8592500D01*
X11765600Y-12019600D02*
X11805600Y-12059600D01*
X11805600Y-12019600D02*
X11765600Y-12059600D01*
X11778300Y-13073700D02*
X11818300Y-13113700D01*
X11818300Y-13073700D02*
X11778300Y-13113700D01*
X11854500Y-9441500D02*
X11894500Y-9481500D01*
X11894500Y-9441500D02*
X11854500Y-9481500D01*
X11854500Y-10648000D02*
X11894500Y-10688000D01*
X11894500Y-10648000D02*
X11854500Y-10688000D01*
X11867200Y-11587800D02*
X11907200Y-11627800D01*
X11907200Y-11587800D02*
X11867200Y-11627800D01*
X11892600Y-13188000D02*
X11932600Y-13228000D01*
X11932600Y-13188000D02*
X11892600Y-13228000D01*
X11918000Y-8552500D02*
X11958000Y-8592500D01*
X11958000Y-8552500D02*
X11918000Y-8592500D01*
X11918000Y-10584500D02*
X11958000Y-10624500D01*
X11958000Y-10584500D02*
X11918000Y-10624500D01*
X11981500Y-9505000D02*
X12021500Y-9545000D01*
X12021500Y-9505000D02*
X11981500Y-9545000D01*
X11981500Y-10521000D02*
X12021500Y-10561000D01*
X12021500Y-10521000D02*
X11981500Y-10561000D01*
X12045000Y-9441500D02*
X12085000Y-9481500D01*
X12085000Y-9441500D02*
X12045000Y-9481500D01*
X12045000Y-10457500D02*
X12085000Y-10497500D01*
X12085000Y-10457500D02*
X12045000Y-10497500D01*
X12045000Y-12210100D02*
X12085000Y-12250100D01*
X12085000Y-12210100D02*
X12045000Y-12250100D01*
X12045000Y-12299000D02*
X12085000Y-12339000D01*
X12085000Y-12299000D02*
X12045000Y-12339000D01*
X12045000Y-12553000D02*
X12085000Y-12593000D01*
X12085000Y-12553000D02*
X12045000Y-12593000D01*
X12108500Y-10521000D02*
X12148500Y-10561000D01*
X12148500Y-10521000D02*
X12108500Y-10561000D01*
X12121200Y-11740200D02*
X12161200Y-11780200D01*
X12161200Y-11740200D02*
X12121200Y-11780200D01*
X12172000Y-8108000D02*
X12212000Y-8148000D01*
X12212000Y-8108000D02*
X12172000Y-8148000D01*
X12172000Y-12756200D02*
X12212000Y-12796200D01*
X12212000Y-12756200D02*
X12172000Y-12796200D01*
X12235500Y-9441500D02*
X12275500Y-9481500D01*
X12275500Y-9441500D02*
X12235500Y-9481500D01*
X12235500Y-9632000D02*
X12275500Y-9672000D01*
X12275500Y-9632000D02*
X12235500Y-9672000D01*
X12235500Y-12692700D02*
X12275500Y-12732700D01*
X12275500Y-12692700D02*
X12235500Y-12732700D01*
X12311700Y-11943400D02*
X12351700Y-11983400D01*
X12351700Y-11943400D02*
X12311700Y-11983400D01*
X12311700Y-12045000D02*
X12351700Y-12085000D01*
X12351700Y-12045000D02*
X12311700Y-12085000D01*
X12362500Y-8552500D02*
X12402500Y-8592500D01*
X12402500Y-8552500D02*
X12362500Y-8592500D01*
X12362500Y-9632000D02*
X12402500Y-9672000D01*
X12402500Y-9632000D02*
X12362500Y-9672000D01*
X12362500Y-9759000D02*
X12402500Y-9799000D01*
X12402500Y-9759000D02*
X12362500Y-9799000D01*
X12362500Y-10584500D02*
X12402500Y-10624500D01*
X12402500Y-10584500D02*
X12362500Y-10624500D01*
X12426000Y-13251500D02*
X12466000Y-13291500D01*
X12466000Y-13251500D02*
X12426000Y-13291500D01*
X12451400Y-12362500D02*
X12491400Y-12402500D01*
X12491400Y-12362500D02*
X12451400Y-12402500D01*
X12489500Y-13061000D02*
X12529500Y-13101000D01*
X12529500Y-13061000D02*
X12489500Y-13101000D01*
X12489500Y-13378500D02*
X12529500Y-13418500D01*
X12529500Y-13378500D02*
X12489500Y-13418500D01*
X12527600Y-8108000D02*
X12567600Y-8148000D01*
X12567600Y-8108000D02*
X12527600Y-8148000D01*
X12565700Y-11308400D02*
X12605700Y-11348400D01*
X12605700Y-11308400D02*
X12565700Y-11348400D01*
X12565700Y-12451400D02*
X12605700Y-12491400D01*
X12605700Y-12451400D02*
X12565700Y-12491400D01*
X12616500Y-13061000D02*
X12656500Y-13101000D01*
X12656500Y-13061000D02*
X12616500Y-13101000D01*
X12654600Y-11308400D02*
X12694600Y-11348400D01*
X12694600Y-11308400D02*
X12654600Y-11348400D01*
X12680000Y-8997000D02*
X12720000Y-9037000D01*
X12720000Y-8997000D02*
X12680000Y-9037000D01*
X12705400Y-8108000D02*
X12745400Y-8148000D01*
X12745400Y-8108000D02*
X12705400Y-8148000D01*
X13162600Y-11664000D02*
X13202600Y-11704000D01*
X13202600Y-11664000D02*
X13162600Y-11704000D01*
X13264200Y-7574600D02*
X13304200Y-7614600D01*
X13304200Y-7574600D02*
X13264200Y-7614600D01*
X13492800Y-8920800D02*
X13532800Y-8960800D01*
X13532800Y-8920800D02*
X13492800Y-8960800D01*
X13492800Y-10089200D02*
X13532800Y-10129200D01*
X13532800Y-10089200D02*
X13492800Y-10129200D01*
X13645200Y-9200200D02*
X13685200Y-9240200D01*
X13685200Y-9200200D02*
X13645200Y-9240200D01*
X13645200Y-9682800D02*
X13685200Y-9722800D01*
X13685200Y-9682800D02*
X13645200Y-9722800D01*
X13759500Y-7854000D02*
X13799500Y-7894000D01*
X13799500Y-7854000D02*
X13759500Y-7894000D01*
X13759500Y-8616000D02*
X13799500Y-8656000D01*
X13799500Y-8616000D02*
X13759500Y-8656000D01*
X13759500Y-10330500D02*
X13799500Y-10370500D01*
X13799500Y-10330500D02*
X13759500Y-10370500D01*
X13823000Y-11664000D02*
X13863000Y-11704000D01*
X13863000Y-11664000D02*
X13823000Y-11704000D01*
X13886500Y-8806500D02*
X13926500Y-8846500D01*
X13926500Y-8806500D02*
X13886500Y-8846500D01*
X13950000Y-11156000D02*
X13990000Y-11196000D01*
X13990000Y-11156000D02*
X13950000Y-11196000D01*
X14013500Y-7854000D02*
X14053500Y-7894000D01*
X14053500Y-7854000D02*
X14013500Y-7894000D01*
X14254800Y-9505000D02*
X14294800Y-9545000D01*
X14294800Y-9505000D02*
X14254800Y-9545000D01*
X14267500Y-7854000D02*
X14307500Y-7894000D01*
X14307500Y-7854000D02*
X14267500Y-7894000D01*
X14267500Y-8806500D02*
X14307500Y-8846500D01*
X14307500Y-8806500D02*
X14267500Y-8846500D01*
X14267500Y-9187500D02*
X14307500Y-9227500D01*
X14307500Y-9187500D02*
X14267500Y-9227500D01*
X14292900Y-11016300D02*
X14332900Y-11056300D01*
X14332900Y-11016300D02*
X14292900Y-11056300D01*
X14331000Y-8235000D02*
X14371000Y-8275000D01*
X14371000Y-8235000D02*
X14331000Y-8275000D01*
X14585000Y-10267000D02*
X14625000Y-10307000D01*
X14625000Y-10267000D02*
X14585000Y-10307000D01*
X14585000Y-10521000D02*
X14625000Y-10561000D01*
X14625000Y-10521000D02*
X14585000Y-10561000D01*
X14648500Y-7968300D02*
X14688500Y-8008300D01*
X14688500Y-7968300D02*
X14648500Y-8008300D01*
X14775500Y-8806500D02*
X14815500Y-8846500D01*
X14815500Y-8806500D02*
X14775500Y-8846500D01*
X14839000Y-9949500D02*
X14879000Y-9989500D01*
X14879000Y-9949500D02*
X14839000Y-9989500D01*
X15156500Y-8806500D02*
X15196500Y-8846500D01*
X15196500Y-8806500D02*
X15156500Y-8846500D01*
X15283500Y-8171500D02*
X15323500Y-8211500D01*
X15323500Y-8171500D02*
X15283500Y-8211500D01*
X15283500Y-9759000D02*
X15323500Y-9799000D01*
X15323500Y-9759000D02*
X15283500Y-9799000D01*
X15347000Y-9124000D02*
X15387000Y-9164000D01*
X15387000Y-9124000D02*
X15347000Y-9164000D01*
X15347000Y-9314500D02*
X15387000Y-9354500D01*
X15387000Y-9314500D02*
X15347000Y-9354500D01*
X6834500Y-11180000D02*
G75*
G03*
X6834500Y-11180000I-40000J0D01*
G01*
X6834500Y-11430000D02*
G75*
G03*
X6834500Y-11430000I-40000J0D01*
G01*
X7914000Y-7874000D02*
G75*
G03*
X7914000Y-7874000I-40000J0D01*
G01*
X8168000Y-7874000D02*
G75*
G03*
X8168000Y-7874000I-40000J0D01*
G01*
X8422000Y-7874000D02*
G75*
G03*
X8422000Y-7874000I-40000J0D01*
G01*
X8676000Y-7874000D02*
G75*
G03*
X8676000Y-7874000I-40000J0D01*
G01*
X8930000Y-7874000D02*
G75*
G03*
X8930000Y-7874000I-40000J0D01*
G01*
X9184000Y-7874000D02*
G75*
G03*
X9184000Y-7874000I-40000J0D01*
G01*
X9438000Y-7874000D02*
G75*
G03*
X9438000Y-7874000I-40000J0D01*
G01*
X9692000Y-7874000D02*
G75*
G03*
X9692000Y-7874000I-40000J0D01*
G01*
X9946000Y-7874000D02*
G75*
G03*
X9946000Y-7874000I-40000J0D01*
G01*
X10200000Y-7874000D02*
G75*
G03*
X10200000Y-7874000I-40000J0D01*
G01*
X10835000Y-7874000D02*
G75*
G03*
X10835000Y-7874000I-40000J0D01*
G01*
X11089000Y-7874000D02*
G75*
G03*
X11089000Y-7874000I-40000J0D01*
G01*
X11343000Y-7874000D02*
G75*
G03*
X11343000Y-7874000I-40000J0D01*
G01*
X11597000Y-7874000D02*
G75*
G03*
X11597000Y-7874000I-40000J0D01*
G01*
X11851000Y-7874000D02*
G75*
G03*
X11851000Y-7874000I-40000J0D01*
G01*
X12105000Y-7874000D02*
G75*
G03*
X12105000Y-7874000I-40000J0D01*
G01*
X12359000Y-7874000D02*
G75*
G03*
X12359000Y-7874000I-40000J0D01*
G01*
X12613000Y-7874000D02*
G75*
G03*
X12613000Y-7874000I-40000J0D01*
G01*
X12867000Y-7874000D02*
G75*
G03*
X12867000Y-7874000I-40000J0D01*
G01*
X13121000Y-7874000D02*
G75*
G03*
X13121000Y-7874000I-40000J0D01*
G01*
X13375000Y-9278300D02*
G75*
G03*
X13375000Y-9278300I-40000J0D01*
G01*
X13375000Y-9766300D02*
G75*
G03*
X13375000Y-9766300I-40000J0D01*
G01*
X13633000Y-6303500D02*
X13633000Y-6392500D01*
X13588500Y-6348000D02*
X13677500Y-6348000D01*
X13887000Y-6151500D02*
X13887000Y-6240500D01*
X13842500Y-6196000D02*
X13931500Y-6196000D01*
X14644000Y-6303500D02*
X14644000Y-6392500D01*
X14599500Y-6348000D02*
X14688500Y-6348000D01*
X14898000Y-6151500D02*
X14898000Y-6240500D01*
X14853500Y-6196000D02*
X14942500Y-6196000D01*
X8941820Y-7331820D02*
X8941820Y-7268180D01*
X8878180Y-7268180D01*
X8878180Y-7331820D01*
X8941820Y-7331820D01*
X9079820Y-7077820D02*
X9079820Y-7014180D01*
X9016180Y-7014180D01*
X9016180Y-7077820D01*
X9079820Y-7077820D01*
X9217820Y-7331820D02*
X9217820Y-7268180D01*
X9154180Y-7268180D01*
X9154180Y-7331820D01*
X9217820Y-7331820D01*
X9355820Y-7077820D02*
X9355820Y-7014180D01*
X9292180Y-7014180D01*
X9292180Y-7077820D01*
X9355820Y-7077820D01*
X9493820Y-7331820D02*
X9493820Y-7268180D01*
X9430180Y-7268180D01*
X9430180Y-7331820D01*
X9493820Y-7331820D01*
X9631820Y-7077820D02*
X9631820Y-7014180D01*
X9568180Y-7014180D01*
X9568180Y-7077820D01*
X9631820Y-7077820D01*
X9769820Y-7331820D02*
X9769820Y-7268180D01*
X9706180Y-7268180D01*
X9706180Y-7331820D01*
X9769820Y-7331820D01*
X9907820Y-7077820D02*
X9907820Y-7014180D01*
X9844180Y-7014180D01*
X9844180Y-7077820D01*
X9907820Y-7077820D01*
X10045820Y-7331820D02*
X10045820Y-7268180D01*
X9982180Y-7268180D01*
X9982180Y-7331820D01*
X10045820Y-7331820D01*
X10183820Y-7077820D02*
X10183820Y-7014180D01*
X10120180Y-7014180D01*
X10120180Y-7077820D01*
X10183820Y-7077820D01*
X10321820Y-7331820D02*
X10321820Y-7268180D01*
X10258180Y-7268180D01*
X10258180Y-7331820D01*
X10321820Y-7331820D01*
X10459820Y-7077820D02*
X10459820Y-7014180D01*
X10396180Y-7014180D01*
X10396180Y-7077820D01*
X10459820Y-7077820D01*
X10597820Y-7331820D02*
X10597820Y-7268180D01*
X10534180Y-7268180D01*
X10534180Y-7331820D01*
X10597820Y-7331820D01*
X10735820Y-7077820D02*
X10735820Y-7014180D01*
X10672180Y-7014180D01*
X10672180Y-7077820D01*
X10735820Y-7077820D01*
X10873820Y-7331820D02*
X10873820Y-7268180D01*
X10810180Y-7268180D01*
X10810180Y-7331820D01*
X10873820Y-7331820D01*
X11011820Y-7077820D02*
X11011820Y-7014180D01*
X10948180Y-7014180D01*
X10948180Y-7077820D01*
X11011820Y-7077820D01*
X11149820Y-7331820D02*
X11149820Y-7268180D01*
X11086180Y-7268180D01*
X11086180Y-7331820D01*
X11149820Y-7331820D01*
X11287820Y-7077820D02*
X11287820Y-7014180D01*
X11224180Y-7014180D01*
X11224180Y-7077820D01*
X11287820Y-7077820D01*
X11425820Y-7331820D02*
X11425820Y-7268180D01*
X11362180Y-7268180D01*
X11362180Y-7331820D01*
X11425820Y-7331820D01*
X11563820Y-7077820D02*
X11563820Y-7014180D01*
X11500180Y-7014180D01*
X11500180Y-7077820D01*
X11563820Y-7077820D01*
X11701820Y-7331820D02*
X11701820Y-7268180D01*
X11638180Y-7268180D01*
X11638180Y-7331820D01*
X11701820Y-7331820D01*
X11839820Y-7077820D02*
X11839820Y-7014180D01*
X11776180Y-7014180D01*
X11776180Y-7077820D01*
X11839820Y-7077820D01*
X11977820Y-7331820D02*
X11977820Y-7268180D01*
X11914180Y-7268180D01*
X11914180Y-7331820D01*
X11977820Y-7331820D01*
X12115820Y-7077820D02*
X12115820Y-7014180D01*
X12052180Y-7014180D01*
X12052180Y-7077820D01*
X12115820Y-7077820D01*
X12253820Y-7331820D02*
X12253820Y-7268180D01*
X12190180Y-7268180D01*
X12190180Y-7331820D01*
X12253820Y-7331820D01*
X13852820Y-7605820D02*
X13852820Y-7542180D01*
X13789180Y-7542180D01*
X13789180Y-7605820D01*
X13852820Y-7605820D01*
X13979820Y-7351820D02*
X13979820Y-7288180D01*
X13916180Y-7288180D01*
X13916180Y-7351820D01*
X13979820Y-7351820D01*
X14106820Y-7605820D02*
X14106820Y-7542180D01*
X14043180Y-7542180D01*
X14043180Y-7605820D01*
X14106820Y-7605820D01*
X14233820Y-7351820D02*
X14233820Y-7288180D01*
X14170180Y-7288180D01*
X14170180Y-7351820D01*
X14233820Y-7351820D01*
X14360820Y-7605820D02*
X14360820Y-7542180D01*
X14297180Y-7542180D01*
X14297180Y-7605820D01*
X14360820Y-7605820D01*
X14487820Y-7351820D02*
X14487820Y-7288180D01*
X14424180Y-7288180D01*
X14424180Y-7351820D01*
X14487820Y-7351820D01*
X14614820Y-7605820D02*
X14614820Y-7542180D01*
X14551180Y-7542180D01*
X14551180Y-7605820D01*
X14614820Y-7605820D01*
X14741820Y-7351820D02*
X14741820Y-7288180D01*
X14678180Y-7288180D01*
X14678180Y-7351820D01*
X14741820Y-7351820D01*
X12890500Y-10654500D02*
X12940500Y-10604500D01*
X12890500Y-10554500D01*
X12840500Y-10604500D01*
X12890500Y-10654500D01*
X12890500Y-10908500D02*
X12940500Y-10858500D01*
X12890500Y-10808500D01*
X12840500Y-10858500D01*
X12890500Y-10908500D01*
X13144500Y-10654500D02*
X13194500Y-10604500D01*
X13144500Y-10554500D01*
X13094500Y-10604500D01*
X13144500Y-10654500D01*
X13144500Y-10908500D02*
X13194500Y-10858500D01*
X13144500Y-10808500D01*
X13094500Y-10858500D01*
X13144500Y-10908500D01*
X7429500Y-9448000D02*
X7479500Y-9398000D01*
X7429500Y-9348000D01*
X7379500Y-9398000D01*
X7429500Y-9448000D01*
X10604500Y-13448500D02*
X10654500Y-13398500D01*
X10604500Y-13348500D01*
X10554500Y-13398500D01*
X10604500Y-13448500D01*
X13398500Y-10654500D02*
X13448500Y-10604500D01*
X13398500Y-10554500D01*
X13348500Y-10604500D01*
X13398500Y-10654500D01*
X13398500Y-10908500D02*
X13448500Y-10858500D01*
X13398500Y-10808500D01*
X13348500Y-10858500D01*
X13398500Y-10908500D01*
X8352500Y-13610000D02*
X8472500Y-13730000D01*
X8472500Y-13610000D02*
X8352500Y-13730000D01*
X8472500Y-13670000D02*
G75*
G03*
X8472500Y-13670000I-60000J0D01*
G01*
X9127500Y-13610000D02*
X9247500Y-13730000D01*
X9247500Y-13610000D02*
X9127500Y-13730000D01*
X9247500Y-13670000D02*
G75*
G03*
X9247500Y-13670000I-60000J0D01*
G01*
X7179000Y-11687500D02*
X7299000Y-11807500D01*
X7299000Y-11687500D02*
X7179000Y-11807500D01*
X7299000Y-11747500D02*
G75*
G03*
X7299000Y-11747500I-60000J0D01*
G01*
X7433000Y-11687500D02*
X7553000Y-11807500D01*
X7553000Y-11687500D02*
X7433000Y-11807500D01*
X7553000Y-11747500D02*
G75*
G03*
X7553000Y-11747500I-60000J0D01*
G01*
X7687000Y-11687500D02*
X7807000Y-11807500D01*
X7807000Y-11687500D02*
X7687000Y-11807500D01*
X7807000Y-11747500D02*
G75*
G03*
X7807000Y-11747500I-60000J0D01*
G01*
X8357500Y-13220000D02*
X8497500Y-13360000D01*
X8497500Y-13220000D02*
X8357500Y-13360000D01*
X8427500Y-13220000D02*
X8427500Y-13360000D01*
X8357500Y-13290000D02*
X8497500Y-13290000D01*
X9102500Y-13220000D02*
X9242500Y-13360000D01*
X9242500Y-13220000D02*
X9102500Y-13360000D01*
X9172500Y-13220000D02*
X9172500Y-13360000D01*
X9102500Y-13290000D02*
X9242500Y-13290000D01*
X13408000Y-6911000D02*
X13568000Y-7071000D01*
X13568000Y-6911000D02*
X13408000Y-7071000D01*
X13544569Y-7047569D02*
X13544569Y-6934431D01*
X13431431Y-6934431D01*
X13431431Y-7047569D01*
X13544569Y-7047569D01*
X14963000Y-6911000D02*
X15123000Y-7071000D01*
X15123000Y-6911000D02*
X14963000Y-7071000D01*
X15099569Y-7047569D02*
X15099569Y-6934431D01*
X14986431Y-6934431D01*
X14986431Y-7047569D01*
X15099569Y-7047569D01*
X7100000Y-6620000D02*
X7400000Y-6920000D01*
X7400000Y-6620000D02*
X7100000Y-6920000D01*
X7250000Y-6920000D02*
X7400000Y-6770000D01*
X7250000Y-6620000D01*
X7100000Y-6770000D01*
X7250000Y-6920000D01*
X8214000Y-7013000D02*
X8214000Y-7333000D01*
X8054000Y-7173000D02*
X8374000Y-7173000D01*
X8374000Y-7173000D02*
G75*
G03*
X8374000Y-7173000I-160000J0D01*
G01*
X12918000Y-7013000D02*
X12918000Y-7333000D01*
X12758000Y-7173000D02*
X13078000Y-7173000D01*
X13078000Y-7173000D02*
G75*
G03*
X13078000Y-7173000I-160000J0D01*
G01*
X7250000Y-7210000D02*
X7250000Y-7530000D01*
X7090000Y-7370000D02*
X7410000Y-7370000D01*
X7410000Y-7370000D02*
G75*
G03*
X7410000Y-7370000I-160000J0D01*
G01*
D12*
X6278928Y-14473214D02*
X6278928Y-14173214D01*
X6350357Y-14173214D01*
X6393214Y-14187500D01*
X6421786Y-14216071D01*
X6436071Y-14244643D01*
X6450357Y-14301786D01*
X6450357Y-14344643D01*
X6436071Y-14401786D01*
X6421786Y-14430357D01*
X6393214Y-14458929D01*
X6350357Y-14473214D01*
X6278928Y-14473214D01*
X6578928Y-14473214D02*
X6578928Y-14273214D01*
X6578928Y-14330357D02*
X6593214Y-14301786D01*
X6607500Y-14287500D01*
X6636071Y-14273214D01*
X6664643Y-14273214D01*
X6764643Y-14473214D02*
X6764643Y-14273214D01*
X6764643Y-14173214D02*
X6750357Y-14187500D01*
X6764643Y-14201786D01*
X6778928Y-14187500D01*
X6764643Y-14173214D01*
X6764643Y-14201786D01*
X6950357Y-14473214D02*
X6921786Y-14458929D01*
X6907500Y-14430357D01*
X6907500Y-14173214D01*
X7107500Y-14473214D02*
X7078928Y-14458929D01*
X7064643Y-14430357D01*
X7064643Y-14173214D01*
X7450357Y-14473214D02*
X7450357Y-14173214D01*
X7550357Y-14387500D01*
X7650357Y-14173214D01*
X7650357Y-14473214D01*
X7921786Y-14473214D02*
X7921786Y-14316071D01*
X7907500Y-14287500D01*
X7878928Y-14273214D01*
X7821786Y-14273214D01*
X7793214Y-14287500D01*
X7921786Y-14458929D02*
X7893214Y-14473214D01*
X7821786Y-14473214D01*
X7793214Y-14458929D01*
X7778928Y-14430357D01*
X7778928Y-14401786D01*
X7793214Y-14373214D01*
X7821786Y-14358929D01*
X7893214Y-14358929D01*
X7921786Y-14344643D01*
X8064643Y-14273214D02*
X8064643Y-14573214D01*
X8064643Y-14287500D02*
X8093214Y-14273214D01*
X8150357Y-14273214D01*
X8178928Y-14287500D01*
X8193214Y-14301786D01*
X8207500Y-14330357D01*
X8207500Y-14416071D01*
X8193214Y-14444643D01*
X8178928Y-14458929D01*
X8150357Y-14473214D01*
X8093214Y-14473214D01*
X8064643Y-14458929D01*
X8336071Y-14444643D02*
X8350357Y-14458929D01*
X8336071Y-14473214D01*
X8321786Y-14458929D01*
X8336071Y-14444643D01*
X8336071Y-14473214D01*
X8336071Y-14287500D02*
X8350357Y-14301786D01*
X8336071Y-14316071D01*
X8321786Y-14301786D01*
X8336071Y-14287500D01*
X8336071Y-14316071D01*
X5952500Y-14947500D02*
X5992500Y-14987500D01*
X5992500Y-14947500D02*
X5952500Y-14987500D01*
X6336071Y-14803214D02*
X6364643Y-14803214D01*
X6393214Y-14817500D01*
X6407500Y-14831786D01*
X6421786Y-14860357D01*
X6436071Y-14917500D01*
X6436071Y-14988929D01*
X6421786Y-15046071D01*
X6407500Y-15074643D01*
X6393214Y-15088929D01*
X6364643Y-15103214D01*
X6336071Y-15103214D01*
X6307500Y-15088929D01*
X6293214Y-15074643D01*
X6278928Y-15046071D01*
X6264643Y-14988929D01*
X6264643Y-14917500D01*
X6278928Y-14860357D01*
X6293214Y-14831786D01*
X6307500Y-14817500D01*
X6336071Y-14803214D01*
X6564643Y-15074643D02*
X6578928Y-15088929D01*
X6564643Y-15103214D01*
X6550357Y-15088929D01*
X6564643Y-15074643D01*
X6564643Y-15103214D01*
X6836071Y-14903214D02*
X6836071Y-15103214D01*
X6764643Y-14788929D02*
X6693214Y-15003214D01*
X6878928Y-15003214D01*
X7050357Y-14803214D02*
X7078928Y-14803214D01*
X7107500Y-14817500D01*
X7121786Y-14831786D01*
X7136071Y-14860357D01*
X7150357Y-14917500D01*
X7150357Y-14988929D01*
X7136071Y-15046071D01*
X7121786Y-15074643D01*
X7107500Y-15088929D01*
X7078928Y-15103214D01*
X7050357Y-15103214D01*
X7021786Y-15088929D01*
X7007500Y-15074643D01*
X6993214Y-15046071D01*
X6978928Y-14988929D01*
X6978928Y-14917500D01*
X6993214Y-14860357D01*
X7007500Y-14831786D01*
X7021786Y-14817500D01*
X7050357Y-14803214D01*
X7278928Y-15103214D02*
X7278928Y-14903214D01*
X7278928Y-14931786D02*
X7293214Y-14917500D01*
X7321786Y-14903214D01*
X7364643Y-14903214D01*
X7393214Y-14917500D01*
X7407500Y-14946071D01*
X7407500Y-15103214D01*
X7407500Y-14946071D02*
X7421786Y-14917500D01*
X7450357Y-14903214D01*
X7493214Y-14903214D01*
X7521786Y-14917500D01*
X7536071Y-14946071D01*
X7536071Y-15103214D01*
X7678928Y-15103214D02*
X7678928Y-14903214D01*
X7678928Y-14931786D02*
X7693214Y-14917500D01*
X7721786Y-14903214D01*
X7764643Y-14903214D01*
X7793214Y-14917500D01*
X7807500Y-14946071D01*
X7807500Y-15103214D01*
X7807500Y-14946071D02*
X7821786Y-14917500D01*
X7850357Y-14903214D01*
X7893214Y-14903214D01*
X7921786Y-14917500D01*
X7936071Y-14946071D01*
X7936071Y-15103214D01*
X8521786Y-14788929D02*
X8264643Y-15174643D01*
X8907500Y-14803214D02*
X8936071Y-14803214D01*
X8964643Y-14817500D01*
X8978928Y-14831786D01*
X8993214Y-14860357D01*
X9007500Y-14917500D01*
X9007500Y-14988929D01*
X8993214Y-15046071D01*
X8978928Y-15074643D01*
X8964643Y-15088929D01*
X8936071Y-15103214D01*
X8907500Y-15103214D01*
X8878928Y-15088929D01*
X8864643Y-15074643D01*
X8850357Y-15046071D01*
X8836071Y-14988929D01*
X8836071Y-14917500D01*
X8850357Y-14860357D01*
X8864643Y-14831786D01*
X8878928Y-14817500D01*
X8907500Y-14803214D01*
X9136071Y-15074643D02*
X9150357Y-15088929D01*
X9136071Y-15103214D01*
X9121786Y-15088929D01*
X9136071Y-15074643D01*
X9136071Y-15103214D01*
X9336071Y-14803214D02*
X9364643Y-14803214D01*
X9393214Y-14817500D01*
X9407500Y-14831786D01*
X9421786Y-14860357D01*
X9436071Y-14917500D01*
X9436071Y-14988929D01*
X9421786Y-15046071D01*
X9407500Y-15074643D01*
X9393214Y-15088929D01*
X9364643Y-15103214D01*
X9336071Y-15103214D01*
X9307500Y-15088929D01*
X9293214Y-15074643D01*
X9278928Y-15046071D01*
X9264643Y-14988929D01*
X9264643Y-14917500D01*
X9278928Y-14860357D01*
X9293214Y-14831786D01*
X9307500Y-14817500D01*
X9336071Y-14803214D01*
X9721786Y-15103214D02*
X9550357Y-15103214D01*
X9636071Y-15103214D02*
X9636071Y-14803214D01*
X9607500Y-14846071D01*
X9578928Y-14874643D01*
X9550357Y-14888929D01*
X9978928Y-14803214D02*
X9921786Y-14803214D01*
X9893214Y-14817500D01*
X9878928Y-14831786D01*
X9850357Y-14874643D01*
X9836071Y-14931786D01*
X9836071Y-15046071D01*
X9850357Y-15074643D01*
X9864643Y-15088929D01*
X9893214Y-15103214D01*
X9950357Y-15103214D01*
X9978928Y-15088929D01*
X9993214Y-15074643D01*
X10007500Y-15046071D01*
X10007500Y-14974643D01*
X9993214Y-14946071D01*
X9978928Y-14931786D01*
X9950357Y-14917500D01*
X9893214Y-14917500D01*
X9864643Y-14931786D01*
X9850357Y-14946071D01*
X9836071Y-14974643D01*
X10121786Y-14803214D02*
X10121786Y-14860357D01*
X10236071Y-14803214D02*
X10236071Y-14860357D01*
X10678928Y-15217500D02*
X10664643Y-15203214D01*
X10636071Y-15160357D01*
X10621786Y-15131786D01*
X10607500Y-15088929D01*
X10593214Y-15017500D01*
X10593214Y-14960357D01*
X10607500Y-14888929D01*
X10621786Y-14846071D01*
X10636071Y-14817500D01*
X10664643Y-14774643D01*
X10678928Y-14760357D01*
X10778928Y-14831786D02*
X10793214Y-14817500D01*
X10821786Y-14803214D01*
X10893214Y-14803214D01*
X10921786Y-14817500D01*
X10936071Y-14831786D01*
X10950357Y-14860357D01*
X10950357Y-14888929D01*
X10936071Y-14931786D01*
X10764643Y-15103214D01*
X10950357Y-15103214D01*
X11136071Y-14803214D02*
X11164643Y-14803214D01*
X11193214Y-14817500D01*
X11207500Y-14831786D01*
X11221786Y-14860357D01*
X11236071Y-14917500D01*
X11236071Y-14988929D01*
X11221786Y-15046071D01*
X11207500Y-15074643D01*
X11193214Y-15088929D01*
X11164643Y-15103214D01*
X11136071Y-15103214D01*
X11107500Y-15088929D01*
X11093214Y-15074643D01*
X11078928Y-15046071D01*
X11064643Y-14988929D01*
X11064643Y-14917500D01*
X11078928Y-14860357D01*
X11093214Y-14831786D01*
X11107500Y-14817500D01*
X11136071Y-14803214D01*
X11336071Y-14803214D02*
X11521786Y-14803214D01*
X11421786Y-14917500D01*
X11464643Y-14917500D01*
X11493214Y-14931786D01*
X11507500Y-14946071D01*
X11521786Y-14974643D01*
X11521786Y-15046071D01*
X11507500Y-15074643D01*
X11493214Y-15088929D01*
X11464643Y-15103214D01*
X11378928Y-15103214D01*
X11350357Y-15088929D01*
X11336071Y-15074643D01*
X11878928Y-15103214D02*
X11878928Y-14803214D01*
X12007500Y-15103214D02*
X12007500Y-14946071D01*
X11993214Y-14917500D01*
X11964643Y-14903214D01*
X11921786Y-14903214D01*
X11893214Y-14917500D01*
X11878928Y-14931786D01*
X12193214Y-15103214D02*
X12164643Y-15088929D01*
X12150357Y-15074643D01*
X12136071Y-15046071D01*
X12136071Y-14960357D01*
X12150357Y-14931786D01*
X12164643Y-14917500D01*
X12193214Y-14903214D01*
X12236071Y-14903214D01*
X12264643Y-14917500D01*
X12278928Y-14931786D01*
X12293214Y-14960357D01*
X12293214Y-15046071D01*
X12278928Y-15074643D01*
X12264643Y-15088929D01*
X12236071Y-15103214D01*
X12193214Y-15103214D01*
X12464643Y-15103214D02*
X12436071Y-15088929D01*
X12421786Y-15060357D01*
X12421786Y-14803214D01*
X12693214Y-15088929D02*
X12664643Y-15103214D01*
X12607500Y-15103214D01*
X12578928Y-15088929D01*
X12564643Y-15060357D01*
X12564643Y-14946071D01*
X12578928Y-14917500D01*
X12607500Y-14903214D01*
X12664643Y-14903214D01*
X12693214Y-14917500D01*
X12707500Y-14946071D01*
X12707500Y-14974643D01*
X12564643Y-15003214D01*
X12821786Y-15088929D02*
X12850357Y-15103214D01*
X12907500Y-15103214D01*
X12936071Y-15088929D01*
X12950357Y-15060357D01*
X12950357Y-15046071D01*
X12936071Y-15017500D01*
X12907500Y-15003214D01*
X12864643Y-15003214D01*
X12836071Y-14988929D01*
X12821786Y-14960357D01*
X12821786Y-14946071D01*
X12836071Y-14917500D01*
X12864643Y-14903214D01*
X12907500Y-14903214D01*
X12936071Y-14917500D01*
X13050357Y-15217500D02*
X13064643Y-15203214D01*
X13093214Y-15160357D01*
X13107500Y-15131786D01*
X13121786Y-15088929D01*
X13136071Y-15017500D01*
X13136071Y-14960357D01*
X13121786Y-14888929D01*
X13107500Y-14846071D01*
X13093214Y-14817500D01*
X13064643Y-14774643D01*
X13050357Y-14760357D01*
X5992500Y-15363500D02*
G75*
G03*
X5992500Y-15363500I-40000J0D01*
G01*
X6336071Y-15199214D02*
X6364643Y-15199214D01*
X6393214Y-15213500D01*
X6407500Y-15227786D01*
X6421786Y-15256357D01*
X6436071Y-15313500D01*
X6436071Y-15384929D01*
X6421786Y-15442071D01*
X6407500Y-15470643D01*
X6393214Y-15484929D01*
X6364643Y-15499214D01*
X6336071Y-15499214D01*
X6307500Y-15484929D01*
X6293214Y-15470643D01*
X6278928Y-15442071D01*
X6264643Y-15384929D01*
X6264643Y-15313500D01*
X6278928Y-15256357D01*
X6293214Y-15227786D01*
X6307500Y-15213500D01*
X6336071Y-15199214D01*
X6564643Y-15470643D02*
X6578928Y-15484929D01*
X6564643Y-15499214D01*
X6550357Y-15484929D01*
X6564643Y-15470643D01*
X6564643Y-15499214D01*
X6750357Y-15327786D02*
X6721786Y-15313500D01*
X6707500Y-15299214D01*
X6693214Y-15270643D01*
X6693214Y-15256357D01*
X6707500Y-15227786D01*
X6721786Y-15213500D01*
X6750357Y-15199214D01*
X6807500Y-15199214D01*
X6836071Y-15213500D01*
X6850357Y-15227786D01*
X6864643Y-15256357D01*
X6864643Y-15270643D01*
X6850357Y-15299214D01*
X6836071Y-15313500D01*
X6807500Y-15327786D01*
X6750357Y-15327786D01*
X6721786Y-15342071D01*
X6707500Y-15356357D01*
X6693214Y-15384929D01*
X6693214Y-15442071D01*
X6707500Y-15470643D01*
X6721786Y-15484929D01*
X6750357Y-15499214D01*
X6807500Y-15499214D01*
X6836071Y-15484929D01*
X6850357Y-15470643D01*
X6864643Y-15442071D01*
X6864643Y-15384929D01*
X6850357Y-15356357D01*
X6836071Y-15342071D01*
X6807500Y-15327786D01*
X7050357Y-15199214D02*
X7078928Y-15199214D01*
X7107500Y-15213500D01*
X7121786Y-15227786D01*
X7136071Y-15256357D01*
X7150357Y-15313500D01*
X7150357Y-15384929D01*
X7136071Y-15442071D01*
X7121786Y-15470643D01*
X7107500Y-15484929D01*
X7078928Y-15499214D01*
X7050357Y-15499214D01*
X7021786Y-15484929D01*
X7007500Y-15470643D01*
X6993214Y-15442071D01*
X6978928Y-15384929D01*
X6978928Y-15313500D01*
X6993214Y-15256357D01*
X7007500Y-15227786D01*
X7021786Y-15213500D01*
X7050357Y-15199214D01*
X7278928Y-15499214D02*
X7278928Y-15299214D01*
X7278928Y-15327786D02*
X7293214Y-15313500D01*
X7321786Y-15299214D01*
X7364643Y-15299214D01*
X7393214Y-15313500D01*
X7407500Y-15342071D01*
X7407500Y-15499214D01*
X7407500Y-15342071D02*
X7421786Y-15313500D01*
X7450357Y-15299214D01*
X7493214Y-15299214D01*
X7521786Y-15313500D01*
X7536071Y-15342071D01*
X7536071Y-15499214D01*
X7678928Y-15499214D02*
X7678928Y-15299214D01*
X7678928Y-15327786D02*
X7693214Y-15313500D01*
X7721786Y-15299214D01*
X7764643Y-15299214D01*
X7793214Y-15313500D01*
X7807500Y-15342071D01*
X7807500Y-15499214D01*
X7807500Y-15342071D02*
X7821786Y-15313500D01*
X7850357Y-15299214D01*
X7893214Y-15299214D01*
X7921786Y-15313500D01*
X7936071Y-15342071D01*
X7936071Y-15499214D01*
X8521786Y-15184929D02*
X8264643Y-15570643D01*
X8907500Y-15199214D02*
X8936071Y-15199214D01*
X8964643Y-15213500D01*
X8978928Y-15227786D01*
X8993214Y-15256357D01*
X9007500Y-15313500D01*
X9007500Y-15384929D01*
X8993214Y-15442071D01*
X8978928Y-15470643D01*
X8964643Y-15484929D01*
X8936071Y-15499214D01*
X8907500Y-15499214D01*
X8878928Y-15484929D01*
X8864643Y-15470643D01*
X8850357Y-15442071D01*
X8836071Y-15384929D01*
X8836071Y-15313500D01*
X8850357Y-15256357D01*
X8864643Y-15227786D01*
X8878928Y-15213500D01*
X8907500Y-15199214D01*
X9136071Y-15470643D02*
X9150357Y-15484929D01*
X9136071Y-15499214D01*
X9121786Y-15484929D01*
X9136071Y-15470643D01*
X9136071Y-15499214D01*
X9336071Y-15199214D02*
X9364643Y-15199214D01*
X9393214Y-15213500D01*
X9407500Y-15227786D01*
X9421786Y-15256357D01*
X9436071Y-15313500D01*
X9436071Y-15384929D01*
X9421786Y-15442071D01*
X9407500Y-15470643D01*
X9393214Y-15484929D01*
X9364643Y-15499214D01*
X9336071Y-15499214D01*
X9307500Y-15484929D01*
X9293214Y-15470643D01*
X9278928Y-15442071D01*
X9264643Y-15384929D01*
X9264643Y-15313500D01*
X9278928Y-15256357D01*
X9293214Y-15227786D01*
X9307500Y-15213500D01*
X9336071Y-15199214D01*
X9536071Y-15199214D02*
X9721786Y-15199214D01*
X9621786Y-15313500D01*
X9664643Y-15313500D01*
X9693214Y-15327786D01*
X9707500Y-15342071D01*
X9721786Y-15370643D01*
X9721786Y-15442071D01*
X9707500Y-15470643D01*
X9693214Y-15484929D01*
X9664643Y-15499214D01*
X9578928Y-15499214D01*
X9550357Y-15484929D01*
X9536071Y-15470643D01*
X10007500Y-15499214D02*
X9836071Y-15499214D01*
X9921786Y-15499214D02*
X9921786Y-15199214D01*
X9893214Y-15242071D01*
X9864643Y-15270643D01*
X9836071Y-15284929D01*
X10121786Y-15199214D02*
X10121786Y-15256357D01*
X10236071Y-15199214D02*
X10236071Y-15256357D01*
X10678928Y-15613500D02*
X10664643Y-15599214D01*
X10636071Y-15556357D01*
X10621786Y-15527786D01*
X10607500Y-15484929D01*
X10593214Y-15413500D01*
X10593214Y-15356357D01*
X10607500Y-15284929D01*
X10621786Y-15242071D01*
X10636071Y-15213500D01*
X10664643Y-15170643D01*
X10678928Y-15156357D01*
X10778928Y-15227786D02*
X10793214Y-15213500D01*
X10821786Y-15199214D01*
X10893214Y-15199214D01*
X10921786Y-15213500D01*
X10936071Y-15227786D01*
X10950357Y-15256357D01*
X10950357Y-15284929D01*
X10936071Y-15327786D01*
X10764643Y-15499214D01*
X10950357Y-15499214D01*
X11207500Y-15299214D02*
X11207500Y-15499214D01*
X11136071Y-15184929D02*
X11064643Y-15399214D01*
X11250357Y-15399214D01*
X11593214Y-15499214D02*
X11593214Y-15199214D01*
X11721786Y-15499214D02*
X11721786Y-15342071D01*
X11707500Y-15313500D01*
X11678928Y-15299214D01*
X11636071Y-15299214D01*
X11607500Y-15313500D01*
X11593214Y-15327786D01*
X11907500Y-15499214D02*
X11878928Y-15484929D01*
X11864643Y-15470643D01*
X11850357Y-15442071D01*
X11850357Y-15356357D01*
X11864643Y-15327786D01*
X11878928Y-15313500D01*
X11907500Y-15299214D01*
X11950357Y-15299214D01*
X11978928Y-15313500D01*
X11993214Y-15327786D01*
X12007500Y-15356357D01*
X12007500Y-15442071D01*
X11993214Y-15470643D01*
X11978928Y-15484929D01*
X11950357Y-15499214D01*
X11907500Y-15499214D01*
X12178928Y-15499214D02*
X12150357Y-15484929D01*
X12136071Y-15456357D01*
X12136071Y-15199214D01*
X12407500Y-15484929D02*
X12378928Y-15499214D01*
X12321786Y-15499214D01*
X12293214Y-15484929D01*
X12278928Y-15456357D01*
X12278928Y-15342071D01*
X12293214Y-15313500D01*
X12321786Y-15299214D01*
X12378928Y-15299214D01*
X12407500Y-15313500D01*
X12421786Y-15342071D01*
X12421786Y-15370643D01*
X12278928Y-15399214D01*
X12536071Y-15484929D02*
X12564643Y-15499214D01*
X12621786Y-15499214D01*
X12650357Y-15484929D01*
X12664643Y-15456357D01*
X12664643Y-15442071D01*
X12650357Y-15413500D01*
X12621786Y-15399214D01*
X12578928Y-15399214D01*
X12550357Y-15384929D01*
X12536071Y-15356357D01*
X12536071Y-15342071D01*
X12550357Y-15313500D01*
X12578928Y-15299214D01*
X12621786Y-15299214D01*
X12650357Y-15313500D01*
X12764643Y-15613500D02*
X12778928Y-15599214D01*
X12807500Y-15556357D01*
X12821786Y-15527786D01*
X12836071Y-15484929D01*
X12850357Y-15413500D01*
X12850357Y-15356357D01*
X12836071Y-15284929D01*
X12821786Y-15242071D01*
X12807500Y-15213500D01*
X12778928Y-15170643D01*
X12764643Y-15156357D01*
X5948000Y-15715000D02*
X5948000Y-15804000D01*
X5903500Y-15759500D02*
X5992500Y-15759500D01*
X6336071Y-15595214D02*
X6364643Y-15595214D01*
X6393214Y-15609500D01*
X6407500Y-15623786D01*
X6421786Y-15652357D01*
X6436071Y-15709500D01*
X6436071Y-15780929D01*
X6421786Y-15838071D01*
X6407500Y-15866643D01*
X6393214Y-15880929D01*
X6364643Y-15895214D01*
X6336071Y-15895214D01*
X6307500Y-15880929D01*
X6293214Y-15866643D01*
X6278928Y-15838071D01*
X6264643Y-15780929D01*
X6264643Y-15709500D01*
X6278928Y-15652357D01*
X6293214Y-15623786D01*
X6307500Y-15609500D01*
X6336071Y-15595214D01*
X6564643Y-15866643D02*
X6578928Y-15880929D01*
X6564643Y-15895214D01*
X6550357Y-15880929D01*
X6564643Y-15866643D01*
X6564643Y-15895214D01*
X6750357Y-15723786D02*
X6721786Y-15709500D01*
X6707500Y-15695214D01*
X6693214Y-15666643D01*
X6693214Y-15652357D01*
X6707500Y-15623786D01*
X6721786Y-15609500D01*
X6750357Y-15595214D01*
X6807500Y-15595214D01*
X6836071Y-15609500D01*
X6850357Y-15623786D01*
X6864643Y-15652357D01*
X6864643Y-15666643D01*
X6850357Y-15695214D01*
X6836071Y-15709500D01*
X6807500Y-15723786D01*
X6750357Y-15723786D01*
X6721786Y-15738071D01*
X6707500Y-15752357D01*
X6693214Y-15780929D01*
X6693214Y-15838071D01*
X6707500Y-15866643D01*
X6721786Y-15880929D01*
X6750357Y-15895214D01*
X6807500Y-15895214D01*
X6836071Y-15880929D01*
X6850357Y-15866643D01*
X6864643Y-15838071D01*
X6864643Y-15780929D01*
X6850357Y-15752357D01*
X6836071Y-15738071D01*
X6807500Y-15723786D01*
X7007500Y-15895214D02*
X7064643Y-15895214D01*
X7093214Y-15880929D01*
X7107500Y-15866643D01*
X7136071Y-15823786D01*
X7150357Y-15766643D01*
X7150357Y-15652357D01*
X7136071Y-15623786D01*
X7121786Y-15609500D01*
X7093214Y-15595214D01*
X7036071Y-15595214D01*
X7007500Y-15609500D01*
X6993214Y-15623786D01*
X6978928Y-15652357D01*
X6978928Y-15723786D01*
X6993214Y-15752357D01*
X7007500Y-15766643D01*
X7036071Y-15780929D01*
X7093214Y-15780929D01*
X7121786Y-15766643D01*
X7136071Y-15752357D01*
X7150357Y-15723786D01*
X7278928Y-15895214D02*
X7278928Y-15695214D01*
X7278928Y-15723786D02*
X7293214Y-15709500D01*
X7321786Y-15695214D01*
X7364643Y-15695214D01*
X7393214Y-15709500D01*
X7407500Y-15738071D01*
X7407500Y-15895214D01*
X7407500Y-15738071D02*
X7421786Y-15709500D01*
X7450357Y-15695214D01*
X7493214Y-15695214D01*
X7521786Y-15709500D01*
X7536071Y-15738071D01*
X7536071Y-15895214D01*
X7678928Y-15895214D02*
X7678928Y-15695214D01*
X7678928Y-15723786D02*
X7693214Y-15709500D01*
X7721786Y-15695214D01*
X7764643Y-15695214D01*
X7793214Y-15709500D01*
X7807500Y-15738071D01*
X7807500Y-15895214D01*
X7807500Y-15738071D02*
X7821786Y-15709500D01*
X7850357Y-15695214D01*
X7893214Y-15695214D01*
X7921786Y-15709500D01*
X7936071Y-15738071D01*
X7936071Y-15895214D01*
X8521786Y-15580929D02*
X8264643Y-15966643D01*
X8907500Y-15595214D02*
X8936071Y-15595214D01*
X8964643Y-15609500D01*
X8978928Y-15623786D01*
X8993214Y-15652357D01*
X9007500Y-15709500D01*
X9007500Y-15780929D01*
X8993214Y-15838071D01*
X8978928Y-15866643D01*
X8964643Y-15880929D01*
X8936071Y-15895214D01*
X8907500Y-15895214D01*
X8878928Y-15880929D01*
X8864643Y-15866643D01*
X8850357Y-15838071D01*
X8836071Y-15780929D01*
X8836071Y-15709500D01*
X8850357Y-15652357D01*
X8864643Y-15623786D01*
X8878928Y-15609500D01*
X8907500Y-15595214D01*
X9136071Y-15866643D02*
X9150357Y-15880929D01*
X9136071Y-15895214D01*
X9121786Y-15880929D01*
X9136071Y-15866643D01*
X9136071Y-15895214D01*
X9336071Y-15595214D02*
X9364643Y-15595214D01*
X9393214Y-15609500D01*
X9407500Y-15623786D01*
X9421786Y-15652357D01*
X9436071Y-15709500D01*
X9436071Y-15780929D01*
X9421786Y-15838071D01*
X9407500Y-15866643D01*
X9393214Y-15880929D01*
X9364643Y-15895214D01*
X9336071Y-15895214D01*
X9307500Y-15880929D01*
X9293214Y-15866643D01*
X9278928Y-15838071D01*
X9264643Y-15780929D01*
X9264643Y-15709500D01*
X9278928Y-15652357D01*
X9293214Y-15623786D01*
X9307500Y-15609500D01*
X9336071Y-15595214D01*
X9536071Y-15595214D02*
X9721786Y-15595214D01*
X9621786Y-15709500D01*
X9664643Y-15709500D01*
X9693214Y-15723786D01*
X9707500Y-15738071D01*
X9721786Y-15766643D01*
X9721786Y-15838071D01*
X9707500Y-15866643D01*
X9693214Y-15880929D01*
X9664643Y-15895214D01*
X9578928Y-15895214D01*
X9550357Y-15880929D01*
X9536071Y-15866643D01*
X9993214Y-15595214D02*
X9850357Y-15595214D01*
X9836071Y-15738071D01*
X9850357Y-15723786D01*
X9878928Y-15709500D01*
X9950357Y-15709500D01*
X9978928Y-15723786D01*
X9993214Y-15738071D01*
X10007500Y-15766643D01*
X10007500Y-15838071D01*
X9993214Y-15866643D01*
X9978928Y-15880929D01*
X9950357Y-15895214D01*
X9878928Y-15895214D01*
X9850357Y-15880929D01*
X9836071Y-15866643D01*
X10121786Y-15595214D02*
X10121786Y-15652357D01*
X10236071Y-15595214D02*
X10236071Y-15652357D01*
X10678928Y-16009500D02*
X10664643Y-15995214D01*
X10636071Y-15952357D01*
X10621786Y-15923786D01*
X10607500Y-15880929D01*
X10593214Y-15809500D01*
X10593214Y-15752357D01*
X10607500Y-15680929D01*
X10621786Y-15638071D01*
X10636071Y-15609500D01*
X10664643Y-15566643D01*
X10678928Y-15552357D01*
X10921786Y-15695214D02*
X10921786Y-15895214D01*
X10850357Y-15580929D02*
X10778928Y-15795214D01*
X10964643Y-15795214D01*
X11307500Y-15895214D02*
X11307500Y-15595214D01*
X11436071Y-15895214D02*
X11436071Y-15738071D01*
X11421786Y-15709500D01*
X11393214Y-15695214D01*
X11350357Y-15695214D01*
X11321786Y-15709500D01*
X11307500Y-15723786D01*
X11621786Y-15895214D02*
X11593214Y-15880929D01*
X11578928Y-15866643D01*
X11564643Y-15838071D01*
X11564643Y-15752357D01*
X11578928Y-15723786D01*
X11593214Y-15709500D01*
X11621786Y-15695214D01*
X11664643Y-15695214D01*
X11693214Y-15709500D01*
X11707500Y-15723786D01*
X11721786Y-15752357D01*
X11721786Y-15838071D01*
X11707500Y-15866643D01*
X11693214Y-15880929D01*
X11664643Y-15895214D01*
X11621786Y-15895214D01*
X11893214Y-15895214D02*
X11864643Y-15880929D01*
X11850357Y-15852357D01*
X11850357Y-15595214D01*
X12121786Y-15880929D02*
X12093214Y-15895214D01*
X12036071Y-15895214D01*
X12007500Y-15880929D01*
X11993214Y-15852357D01*
X11993214Y-15738071D01*
X12007500Y-15709500D01*
X12036071Y-15695214D01*
X12093214Y-15695214D01*
X12121786Y-15709500D01*
X12136071Y-15738071D01*
X12136071Y-15766643D01*
X11993214Y-15795214D01*
X12250357Y-15880929D02*
X12278928Y-15895214D01*
X12336071Y-15895214D01*
X12364643Y-15880929D01*
X12378928Y-15852357D01*
X12378928Y-15838071D01*
X12364643Y-15809500D01*
X12336071Y-15795214D01*
X12293214Y-15795214D01*
X12264643Y-15780929D01*
X12250357Y-15752357D01*
X12250357Y-15738071D01*
X12264643Y-15709500D01*
X12293214Y-15695214D01*
X12336071Y-15695214D01*
X12364643Y-15709500D01*
X12478928Y-16009500D02*
X12493214Y-15995214D01*
X12521786Y-15952357D01*
X12536071Y-15923786D01*
X12550357Y-15880929D01*
X12564643Y-15809500D01*
X12564643Y-15752357D01*
X12550357Y-15680929D01*
X12536071Y-15638071D01*
X12521786Y-15609500D01*
X12493214Y-15566643D01*
X12478928Y-15552357D01*
X5979320Y-16187320D02*
X5979320Y-16123680D01*
X5915680Y-16123680D01*
X5915680Y-16187320D01*
X5979320Y-16187320D01*
X6336071Y-15991214D02*
X6364643Y-15991214D01*
X6393214Y-16005500D01*
X6407500Y-16019786D01*
X6421786Y-16048357D01*
X6436071Y-16105500D01*
X6436071Y-16176929D01*
X6421786Y-16234071D01*
X6407500Y-16262643D01*
X6393214Y-16276929D01*
X6364643Y-16291214D01*
X6336071Y-16291214D01*
X6307500Y-16276929D01*
X6293214Y-16262643D01*
X6278928Y-16234071D01*
X6264643Y-16176929D01*
X6264643Y-16105500D01*
X6278928Y-16048357D01*
X6293214Y-16019786D01*
X6307500Y-16005500D01*
X6336071Y-15991214D01*
X6564643Y-16262643D02*
X6578928Y-16276929D01*
X6564643Y-16291214D01*
X6550357Y-16276929D01*
X6564643Y-16262643D01*
X6564643Y-16291214D01*
X6721786Y-16291214D02*
X6778928Y-16291214D01*
X6807500Y-16276929D01*
X6821786Y-16262643D01*
X6850357Y-16219786D01*
X6864643Y-16162643D01*
X6864643Y-16048357D01*
X6850357Y-16019786D01*
X6836071Y-16005500D01*
X6807500Y-15991214D01*
X6750357Y-15991214D01*
X6721786Y-16005500D01*
X6707500Y-16019786D01*
X6693214Y-16048357D01*
X6693214Y-16119786D01*
X6707500Y-16148357D01*
X6721786Y-16162643D01*
X6750357Y-16176929D01*
X6807500Y-16176929D01*
X6836071Y-16162643D01*
X6850357Y-16148357D01*
X6864643Y-16119786D01*
X7050357Y-15991214D02*
X7078928Y-15991214D01*
X7107500Y-16005500D01*
X7121786Y-16019786D01*
X7136071Y-16048357D01*
X7150357Y-16105500D01*
X7150357Y-16176929D01*
X7136071Y-16234071D01*
X7121786Y-16262643D01*
X7107500Y-16276929D01*
X7078928Y-16291214D01*
X7050357Y-16291214D01*
X7021786Y-16276929D01*
X7007500Y-16262643D01*
X6993214Y-16234071D01*
X6978928Y-16176929D01*
X6978928Y-16105500D01*
X6993214Y-16048357D01*
X7007500Y-16019786D01*
X7021786Y-16005500D01*
X7050357Y-15991214D01*
X7278928Y-16291214D02*
X7278928Y-16091214D01*
X7278928Y-16119786D02*
X7293214Y-16105500D01*
X7321786Y-16091214D01*
X7364643Y-16091214D01*
X7393214Y-16105500D01*
X7407500Y-16134071D01*
X7407500Y-16291214D01*
X7407500Y-16134071D02*
X7421786Y-16105500D01*
X7450357Y-16091214D01*
X7493214Y-16091214D01*
X7521786Y-16105500D01*
X7536071Y-16134071D01*
X7536071Y-16291214D01*
X7678928Y-16291214D02*
X7678928Y-16091214D01*
X7678928Y-16119786D02*
X7693214Y-16105500D01*
X7721786Y-16091214D01*
X7764643Y-16091214D01*
X7793214Y-16105500D01*
X7807500Y-16134071D01*
X7807500Y-16291214D01*
X7807500Y-16134071D02*
X7821786Y-16105500D01*
X7850357Y-16091214D01*
X7893214Y-16091214D01*
X7921786Y-16105500D01*
X7936071Y-16134071D01*
X7936071Y-16291214D01*
X8521786Y-15976929D02*
X8264643Y-16362643D01*
X8907500Y-15991214D02*
X8936071Y-15991214D01*
X8964643Y-16005500D01*
X8978928Y-16019786D01*
X8993214Y-16048357D01*
X9007500Y-16105500D01*
X9007500Y-16176929D01*
X8993214Y-16234071D01*
X8978928Y-16262643D01*
X8964643Y-16276929D01*
X8936071Y-16291214D01*
X8907500Y-16291214D01*
X8878928Y-16276929D01*
X8864643Y-16262643D01*
X8850357Y-16234071D01*
X8836071Y-16176929D01*
X8836071Y-16105500D01*
X8850357Y-16048357D01*
X8864643Y-16019786D01*
X8878928Y-16005500D01*
X8907500Y-15991214D01*
X9136071Y-16262643D02*
X9150357Y-16276929D01*
X9136071Y-16291214D01*
X9121786Y-16276929D01*
X9136071Y-16262643D01*
X9136071Y-16291214D01*
X9336071Y-15991214D02*
X9364643Y-15991214D01*
X9393214Y-16005500D01*
X9407500Y-16019786D01*
X9421786Y-16048357D01*
X9436071Y-16105500D01*
X9436071Y-16176929D01*
X9421786Y-16234071D01*
X9407500Y-16262643D01*
X9393214Y-16276929D01*
X9364643Y-16291214D01*
X9336071Y-16291214D01*
X9307500Y-16276929D01*
X9293214Y-16262643D01*
X9278928Y-16234071D01*
X9264643Y-16176929D01*
X9264643Y-16105500D01*
X9278928Y-16048357D01*
X9293214Y-16019786D01*
X9307500Y-16005500D01*
X9336071Y-15991214D01*
X9536071Y-15991214D02*
X9721786Y-15991214D01*
X9621786Y-16105500D01*
X9664643Y-16105500D01*
X9693214Y-16119786D01*
X9707500Y-16134071D01*
X9721786Y-16162643D01*
X9721786Y-16234071D01*
X9707500Y-16262643D01*
X9693214Y-16276929D01*
X9664643Y-16291214D01*
X9578928Y-16291214D01*
X9550357Y-16276929D01*
X9536071Y-16262643D01*
X9993214Y-15991214D02*
X9850357Y-15991214D01*
X9836071Y-16134071D01*
X9850357Y-16119786D01*
X9878928Y-16105500D01*
X9950357Y-16105500D01*
X9978928Y-16119786D01*
X9993214Y-16134071D01*
X10007500Y-16162643D01*
X10007500Y-16234071D01*
X9993214Y-16262643D01*
X9978928Y-16276929D01*
X9950357Y-16291214D01*
X9878928Y-16291214D01*
X9850357Y-16276929D01*
X9836071Y-16262643D01*
X10121786Y-15991214D02*
X10121786Y-16048357D01*
X10236071Y-15991214D02*
X10236071Y-16048357D01*
X10678928Y-16405500D02*
X10664643Y-16391214D01*
X10636071Y-16348357D01*
X10621786Y-16319786D01*
X10607500Y-16276929D01*
X10593214Y-16205500D01*
X10593214Y-16148357D01*
X10607500Y-16076929D01*
X10621786Y-16034071D01*
X10636071Y-16005500D01*
X10664643Y-15962643D01*
X10678928Y-15948357D01*
X10764643Y-15991214D02*
X10950357Y-15991214D01*
X10850357Y-16105500D01*
X10893214Y-16105500D01*
X10921786Y-16119786D01*
X10936071Y-16134071D01*
X10950357Y-16162643D01*
X10950357Y-16234071D01*
X10936071Y-16262643D01*
X10921786Y-16276929D01*
X10893214Y-16291214D01*
X10807500Y-16291214D01*
X10778928Y-16276929D01*
X10764643Y-16262643D01*
X11050357Y-15991214D02*
X11236071Y-15991214D01*
X11136071Y-16105500D01*
X11178928Y-16105500D01*
X11207500Y-16119786D01*
X11221786Y-16134071D01*
X11236071Y-16162643D01*
X11236071Y-16234071D01*
X11221786Y-16262643D01*
X11207500Y-16276929D01*
X11178928Y-16291214D01*
X11093214Y-16291214D01*
X11064643Y-16276929D01*
X11050357Y-16262643D01*
X11593214Y-16291214D02*
X11593214Y-15991214D01*
X11721786Y-16291214D02*
X11721786Y-16134071D01*
X11707500Y-16105500D01*
X11678928Y-16091214D01*
X11636071Y-16091214D01*
X11607500Y-16105500D01*
X11593214Y-16119786D01*
X11907500Y-16291214D02*
X11878928Y-16276929D01*
X11864643Y-16262643D01*
X11850357Y-16234071D01*
X11850357Y-16148357D01*
X11864643Y-16119786D01*
X11878928Y-16105500D01*
X11907500Y-16091214D01*
X11950357Y-16091214D01*
X11978928Y-16105500D01*
X11993214Y-16119786D01*
X12007500Y-16148357D01*
X12007500Y-16234071D01*
X11993214Y-16262643D01*
X11978928Y-16276929D01*
X11950357Y-16291214D01*
X11907500Y-16291214D01*
X12178928Y-16291214D02*
X12150357Y-16276929D01*
X12136071Y-16248357D01*
X12136071Y-15991214D01*
X12407500Y-16276929D02*
X12378928Y-16291214D01*
X12321786Y-16291214D01*
X12293214Y-16276929D01*
X12278928Y-16248357D01*
X12278928Y-16134071D01*
X12293214Y-16105500D01*
X12321786Y-16091214D01*
X12378928Y-16091214D01*
X12407500Y-16105500D01*
X12421786Y-16134071D01*
X12421786Y-16162643D01*
X12278928Y-16191214D01*
X12536071Y-16276929D02*
X12564643Y-16291214D01*
X12621786Y-16291214D01*
X12650357Y-16276929D01*
X12664643Y-16248357D01*
X12664643Y-16234071D01*
X12650357Y-16205500D01*
X12621786Y-16191214D01*
X12578928Y-16191214D01*
X12550357Y-16176929D01*
X12536071Y-16148357D01*
X12536071Y-16134071D01*
X12550357Y-16105500D01*
X12578928Y-16091214D01*
X12621786Y-16091214D01*
X12650357Y-16105500D01*
X12764643Y-16405500D02*
X12778928Y-16391214D01*
X12807500Y-16348357D01*
X12821786Y-16319786D01*
X12836071Y-16276929D01*
X12850357Y-16205500D01*
X12850357Y-16148357D01*
X12836071Y-16076929D01*
X12821786Y-16034071D01*
X12807500Y-16005500D01*
X12778928Y-15962643D01*
X12764643Y-15948357D01*
X5942500Y-16601500D02*
X5992500Y-16551500D01*
X5942500Y-16501500D01*
X5892500Y-16551500D01*
X5942500Y-16601500D01*
X6436071Y-16687214D02*
X6264643Y-16687214D01*
X6350357Y-16687214D02*
X6350357Y-16387214D01*
X6321786Y-16430071D01*
X6293214Y-16458643D01*
X6264643Y-16472929D01*
X6564643Y-16658643D02*
X6578928Y-16672929D01*
X6564643Y-16687214D01*
X6550357Y-16672929D01*
X6564643Y-16658643D01*
X6564643Y-16687214D01*
X6764643Y-16387214D02*
X6793214Y-16387214D01*
X6821786Y-16401500D01*
X6836071Y-16415786D01*
X6850357Y-16444357D01*
X6864643Y-16501500D01*
X6864643Y-16572929D01*
X6850357Y-16630071D01*
X6836071Y-16658643D01*
X6821786Y-16672929D01*
X6793214Y-16687214D01*
X6764643Y-16687214D01*
X6736071Y-16672929D01*
X6721786Y-16658643D01*
X6707500Y-16630071D01*
X6693214Y-16572929D01*
X6693214Y-16501500D01*
X6707500Y-16444357D01*
X6721786Y-16415786D01*
X6736071Y-16401500D01*
X6764643Y-16387214D01*
X7050357Y-16387214D02*
X7078928Y-16387214D01*
X7107500Y-16401500D01*
X7121786Y-16415786D01*
X7136071Y-16444357D01*
X7150357Y-16501500D01*
X7150357Y-16572929D01*
X7136071Y-16630071D01*
X7121786Y-16658643D01*
X7107500Y-16672929D01*
X7078928Y-16687214D01*
X7050357Y-16687214D01*
X7021786Y-16672929D01*
X7007500Y-16658643D01*
X6993214Y-16630071D01*
X6978928Y-16572929D01*
X6978928Y-16501500D01*
X6993214Y-16444357D01*
X7007500Y-16415786D01*
X7021786Y-16401500D01*
X7050357Y-16387214D01*
X7278928Y-16687214D02*
X7278928Y-16487214D01*
X7278928Y-16515786D02*
X7293214Y-16501500D01*
X7321786Y-16487214D01*
X7364643Y-16487214D01*
X7393214Y-16501500D01*
X7407500Y-16530071D01*
X7407500Y-16687214D01*
X7407500Y-16530071D02*
X7421786Y-16501500D01*
X7450357Y-16487214D01*
X7493214Y-16487214D01*
X7521786Y-16501500D01*
X7536071Y-16530071D01*
X7536071Y-16687214D01*
X7678928Y-16687214D02*
X7678928Y-16487214D01*
X7678928Y-16515786D02*
X7693214Y-16501500D01*
X7721786Y-16487214D01*
X7764643Y-16487214D01*
X7793214Y-16501500D01*
X7807500Y-16530071D01*
X7807500Y-16687214D01*
X7807500Y-16530071D02*
X7821786Y-16501500D01*
X7850357Y-16487214D01*
X7893214Y-16487214D01*
X7921786Y-16501500D01*
X7936071Y-16530071D01*
X7936071Y-16687214D01*
X8521786Y-16372929D02*
X8264643Y-16758643D01*
X8907500Y-16387214D02*
X8936071Y-16387214D01*
X8964643Y-16401500D01*
X8978928Y-16415786D01*
X8993214Y-16444357D01*
X9007500Y-16501500D01*
X9007500Y-16572929D01*
X8993214Y-16630071D01*
X8978928Y-16658643D01*
X8964643Y-16672929D01*
X8936071Y-16687214D01*
X8907500Y-16687214D01*
X8878928Y-16672929D01*
X8864643Y-16658643D01*
X8850357Y-16630071D01*
X8836071Y-16572929D01*
X8836071Y-16501500D01*
X8850357Y-16444357D01*
X8864643Y-16415786D01*
X8878928Y-16401500D01*
X8907500Y-16387214D01*
X9136071Y-16658643D02*
X9150357Y-16672929D01*
X9136071Y-16687214D01*
X9121786Y-16672929D01*
X9136071Y-16658643D01*
X9136071Y-16687214D01*
X9336071Y-16387214D02*
X9364643Y-16387214D01*
X9393214Y-16401500D01*
X9407500Y-16415786D01*
X9421786Y-16444357D01*
X9436071Y-16501500D01*
X9436071Y-16572929D01*
X9421786Y-16630071D01*
X9407500Y-16658643D01*
X9393214Y-16672929D01*
X9364643Y-16687214D01*
X9336071Y-16687214D01*
X9307500Y-16672929D01*
X9293214Y-16658643D01*
X9278928Y-16630071D01*
X9264643Y-16572929D01*
X9264643Y-16501500D01*
X9278928Y-16444357D01*
X9293214Y-16415786D01*
X9307500Y-16401500D01*
X9336071Y-16387214D01*
X9536071Y-16387214D02*
X9721786Y-16387214D01*
X9621786Y-16501500D01*
X9664643Y-16501500D01*
X9693214Y-16515786D01*
X9707500Y-16530071D01*
X9721786Y-16558643D01*
X9721786Y-16630071D01*
X9707500Y-16658643D01*
X9693214Y-16672929D01*
X9664643Y-16687214D01*
X9578928Y-16687214D01*
X9550357Y-16672929D01*
X9536071Y-16658643D01*
X9864643Y-16687214D02*
X9921786Y-16687214D01*
X9950357Y-16672929D01*
X9964643Y-16658643D01*
X9993214Y-16615786D01*
X10007500Y-16558643D01*
X10007500Y-16444357D01*
X9993214Y-16415786D01*
X9978928Y-16401500D01*
X9950357Y-16387214D01*
X9893214Y-16387214D01*
X9864643Y-16401500D01*
X9850357Y-16415786D01*
X9836071Y-16444357D01*
X9836071Y-16515786D01*
X9850357Y-16544357D01*
X9864643Y-16558643D01*
X9893214Y-16572929D01*
X9950357Y-16572929D01*
X9978928Y-16558643D01*
X9993214Y-16544357D01*
X10007500Y-16515786D01*
X10121786Y-16387214D02*
X10121786Y-16444357D01*
X10236071Y-16387214D02*
X10236071Y-16444357D01*
X10678928Y-16801500D02*
X10664643Y-16787214D01*
X10636071Y-16744357D01*
X10621786Y-16715786D01*
X10607500Y-16672929D01*
X10593214Y-16601500D01*
X10593214Y-16544357D01*
X10607500Y-16472929D01*
X10621786Y-16430071D01*
X10636071Y-16401500D01*
X10664643Y-16358643D01*
X10678928Y-16344357D01*
X10836071Y-16515786D02*
X10807500Y-16501500D01*
X10793214Y-16487214D01*
X10778928Y-16458643D01*
X10778928Y-16444357D01*
X10793214Y-16415786D01*
X10807500Y-16401500D01*
X10836071Y-16387214D01*
X10893214Y-16387214D01*
X10921786Y-16401500D01*
X10936071Y-16415786D01*
X10950357Y-16444357D01*
X10950357Y-16458643D01*
X10936071Y-16487214D01*
X10921786Y-16501500D01*
X10893214Y-16515786D01*
X10836071Y-16515786D01*
X10807500Y-16530071D01*
X10793214Y-16544357D01*
X10778928Y-16572929D01*
X10778928Y-16630071D01*
X10793214Y-16658643D01*
X10807500Y-16672929D01*
X10836071Y-16687214D01*
X10893214Y-16687214D01*
X10921786Y-16672929D01*
X10936071Y-16658643D01*
X10950357Y-16630071D01*
X10950357Y-16572929D01*
X10936071Y-16544357D01*
X10921786Y-16530071D01*
X10893214Y-16515786D01*
X11307500Y-16687214D02*
X11307500Y-16387214D01*
X11436071Y-16687214D02*
X11436071Y-16530071D01*
X11421786Y-16501500D01*
X11393214Y-16487214D01*
X11350357Y-16487214D01*
X11321786Y-16501500D01*
X11307500Y-16515786D01*
X11621786Y-16687214D02*
X11593214Y-16672929D01*
X11578928Y-16658643D01*
X11564643Y-16630071D01*
X11564643Y-16544357D01*
X11578928Y-16515786D01*
X11593214Y-16501500D01*
X11621786Y-16487214D01*
X11664643Y-16487214D01*
X11693214Y-16501500D01*
X11707500Y-16515786D01*
X11721786Y-16544357D01*
X11721786Y-16630071D01*
X11707500Y-16658643D01*
X11693214Y-16672929D01*
X11664643Y-16687214D01*
X11621786Y-16687214D01*
X11893214Y-16687214D02*
X11864643Y-16672929D01*
X11850357Y-16644357D01*
X11850357Y-16387214D01*
X12121786Y-16672929D02*
X12093214Y-16687214D01*
X12036071Y-16687214D01*
X12007500Y-16672929D01*
X11993214Y-16644357D01*
X11993214Y-16530071D01*
X12007500Y-16501500D01*
X12036071Y-16487214D01*
X12093214Y-16487214D01*
X12121786Y-16501500D01*
X12136071Y-16530071D01*
X12136071Y-16558643D01*
X11993214Y-16587214D01*
X12250357Y-16672929D02*
X12278928Y-16687214D01*
X12336071Y-16687214D01*
X12364643Y-16672929D01*
X12378928Y-16644357D01*
X12378928Y-16630071D01*
X12364643Y-16601500D01*
X12336071Y-16587214D01*
X12293214Y-16587214D01*
X12264643Y-16572929D01*
X12250357Y-16544357D01*
X12250357Y-16530071D01*
X12264643Y-16501500D01*
X12293214Y-16487214D01*
X12336071Y-16487214D01*
X12364643Y-16501500D01*
X12478928Y-16801500D02*
X12493214Y-16787214D01*
X12521786Y-16744357D01*
X12536071Y-16715786D01*
X12550357Y-16672929D01*
X12564643Y-16601500D01*
X12564643Y-16544357D01*
X12550357Y-16472929D01*
X12536071Y-16430071D01*
X12521786Y-16401500D01*
X12493214Y-16358643D01*
X12478928Y-16344357D01*
X5872500Y-16887500D02*
X5992500Y-17007500D01*
X5992500Y-16887500D02*
X5872500Y-17007500D01*
X5992500Y-16947500D02*
G75*
G03*
X5992500Y-16947500I-60000J0D01*
G01*
X6436071Y-17083214D02*
X6264643Y-17083214D01*
X6350357Y-17083214D02*
X6350357Y-16783214D01*
X6321786Y-16826072D01*
X6293214Y-16854643D01*
X6264643Y-16868929D01*
X6564643Y-17054643D02*
X6578928Y-17068929D01*
X6564643Y-17083214D01*
X6550357Y-17068929D01*
X6564643Y-17054643D01*
X6564643Y-17083214D01*
X6693214Y-16811786D02*
X6707500Y-16797500D01*
X6736071Y-16783214D01*
X6807500Y-16783214D01*
X6836071Y-16797500D01*
X6850357Y-16811786D01*
X6864643Y-16840357D01*
X6864643Y-16868929D01*
X6850357Y-16911786D01*
X6678928Y-17083214D01*
X6864643Y-17083214D01*
X7050357Y-16783214D02*
X7078928Y-16783214D01*
X7107500Y-16797500D01*
X7121786Y-16811786D01*
X7136071Y-16840357D01*
X7150357Y-16897500D01*
X7150357Y-16968929D01*
X7136071Y-17026072D01*
X7121786Y-17054643D01*
X7107500Y-17068929D01*
X7078928Y-17083214D01*
X7050357Y-17083214D01*
X7021786Y-17068929D01*
X7007500Y-17054643D01*
X6993214Y-17026072D01*
X6978928Y-16968929D01*
X6978928Y-16897500D01*
X6993214Y-16840357D01*
X7007500Y-16811786D01*
X7021786Y-16797500D01*
X7050357Y-16783214D01*
X7278928Y-17083214D02*
X7278928Y-16883214D01*
X7278928Y-16911786D02*
X7293214Y-16897500D01*
X7321786Y-16883214D01*
X7364643Y-16883214D01*
X7393214Y-16897500D01*
X7407500Y-16926072D01*
X7407500Y-17083214D01*
X7407500Y-16926072D02*
X7421786Y-16897500D01*
X7450357Y-16883214D01*
X7493214Y-16883214D01*
X7521786Y-16897500D01*
X7536071Y-16926072D01*
X7536071Y-17083214D01*
X7678928Y-17083214D02*
X7678928Y-16883214D01*
X7678928Y-16911786D02*
X7693214Y-16897500D01*
X7721786Y-16883214D01*
X7764643Y-16883214D01*
X7793214Y-16897500D01*
X7807500Y-16926072D01*
X7807500Y-17083214D01*
X7807500Y-16926072D02*
X7821786Y-16897500D01*
X7850357Y-16883214D01*
X7893214Y-16883214D01*
X7921786Y-16897500D01*
X7936071Y-16926072D01*
X7936071Y-17083214D01*
X8521786Y-16768929D02*
X8264643Y-17154643D01*
X8907500Y-16783214D02*
X8936071Y-16783214D01*
X8964643Y-16797500D01*
X8978928Y-16811786D01*
X8993214Y-16840357D01*
X9007500Y-16897500D01*
X9007500Y-16968929D01*
X8993214Y-17026072D01*
X8978928Y-17054643D01*
X8964643Y-17068929D01*
X8936071Y-17083214D01*
X8907500Y-17083214D01*
X8878928Y-17068929D01*
X8864643Y-17054643D01*
X8850357Y-17026072D01*
X8836071Y-16968929D01*
X8836071Y-16897500D01*
X8850357Y-16840357D01*
X8864643Y-16811786D01*
X8878928Y-16797500D01*
X8907500Y-16783214D01*
X9136071Y-17054643D02*
X9150357Y-17068929D01*
X9136071Y-17083214D01*
X9121786Y-17068929D01*
X9136071Y-17054643D01*
X9136071Y-17083214D01*
X9336071Y-16783214D02*
X9364643Y-16783214D01*
X9393214Y-16797500D01*
X9407500Y-16811786D01*
X9421786Y-16840357D01*
X9436071Y-16897500D01*
X9436071Y-16968929D01*
X9421786Y-17026072D01*
X9407500Y-17054643D01*
X9393214Y-17068929D01*
X9364643Y-17083214D01*
X9336071Y-17083214D01*
X9307500Y-17068929D01*
X9293214Y-17054643D01*
X9278928Y-17026072D01*
X9264643Y-16968929D01*
X9264643Y-16897500D01*
X9278928Y-16840357D01*
X9293214Y-16811786D01*
X9307500Y-16797500D01*
X9336071Y-16783214D01*
X9693214Y-16883214D02*
X9693214Y-17083214D01*
X9621786Y-16768929D02*
X9550357Y-16983214D01*
X9736071Y-16983214D01*
X9821786Y-16783214D02*
X10021786Y-16783214D01*
X9893214Y-17083214D01*
X10121786Y-16783214D02*
X10121786Y-16840357D01*
X10236071Y-16783214D02*
X10236071Y-16840357D01*
X10678928Y-17197500D02*
X10664643Y-17183214D01*
X10636071Y-17140357D01*
X10621786Y-17111786D01*
X10607500Y-17068929D01*
X10593214Y-16997500D01*
X10593214Y-16940357D01*
X10607500Y-16868929D01*
X10621786Y-16826072D01*
X10636071Y-16797500D01*
X10664643Y-16754643D01*
X10678928Y-16740357D01*
X10936071Y-16783214D02*
X10793214Y-16783214D01*
X10778928Y-16926072D01*
X10793214Y-16911786D01*
X10821786Y-16897500D01*
X10893214Y-16897500D01*
X10921786Y-16911786D01*
X10936071Y-16926072D01*
X10950357Y-16954643D01*
X10950357Y-17026072D01*
X10936071Y-17054643D01*
X10921786Y-17068929D01*
X10893214Y-17083214D01*
X10821786Y-17083214D01*
X10793214Y-17068929D01*
X10778928Y-17054643D01*
X11307500Y-17083214D02*
X11307500Y-16783214D01*
X11436071Y-17083214D02*
X11436071Y-16926072D01*
X11421786Y-16897500D01*
X11393214Y-16883214D01*
X11350357Y-16883214D01*
X11321786Y-16897500D01*
X11307500Y-16911786D01*
X11621786Y-17083214D02*
X11593214Y-17068929D01*
X11578928Y-17054643D01*
X11564643Y-17026072D01*
X11564643Y-16940357D01*
X11578928Y-16911786D01*
X11593214Y-16897500D01*
X11621786Y-16883214D01*
X11664643Y-16883214D01*
X11693214Y-16897500D01*
X11707500Y-16911786D01*
X11721786Y-16940357D01*
X11721786Y-17026072D01*
X11707500Y-17054643D01*
X11693214Y-17068929D01*
X11664643Y-17083214D01*
X11621786Y-17083214D01*
X11893214Y-17083214D02*
X11864643Y-17068929D01*
X11850357Y-17040357D01*
X11850357Y-16783214D01*
X12121786Y-17068929D02*
X12093214Y-17083214D01*
X12036071Y-17083214D01*
X12007500Y-17068929D01*
X11993214Y-17040357D01*
X11993214Y-16926072D01*
X12007500Y-16897500D01*
X12036071Y-16883214D01*
X12093214Y-16883214D01*
X12121786Y-16897500D01*
X12136071Y-16926072D01*
X12136071Y-16954643D01*
X11993214Y-16983214D01*
X12250357Y-17068929D02*
X12278928Y-17083214D01*
X12336071Y-17083214D01*
X12364643Y-17068929D01*
X12378928Y-17040357D01*
X12378928Y-17026072D01*
X12364643Y-16997500D01*
X12336071Y-16983214D01*
X12293214Y-16983214D01*
X12264643Y-16968929D01*
X12250357Y-16940357D01*
X12250357Y-16926072D01*
X12264643Y-16897500D01*
X12293214Y-16883214D01*
X12336071Y-16883214D01*
X12364643Y-16897500D01*
X12478928Y-17197500D02*
X12493214Y-17183214D01*
X12521786Y-17140357D01*
X12536071Y-17111786D01*
X12550357Y-17068929D01*
X12564643Y-16997500D01*
X12564643Y-16940357D01*
X12550357Y-16868929D01*
X12536071Y-16826072D01*
X12521786Y-16797500D01*
X12493214Y-16754643D01*
X12478928Y-16740357D01*
X5852500Y-17273500D02*
X5992500Y-17413500D01*
X5992500Y-17273500D02*
X5852500Y-17413500D01*
X5922500Y-17273500D02*
X5922500Y-17413500D01*
X5852500Y-17343500D02*
X5992500Y-17343500D01*
X6436071Y-17479214D02*
X6264643Y-17479214D01*
X6350357Y-17479214D02*
X6350357Y-17179214D01*
X6321786Y-17222072D01*
X6293214Y-17250643D01*
X6264643Y-17264929D01*
X6564643Y-17450643D02*
X6578928Y-17464929D01*
X6564643Y-17479214D01*
X6550357Y-17464929D01*
X6564643Y-17450643D01*
X6564643Y-17479214D01*
X6836071Y-17279214D02*
X6836071Y-17479214D01*
X6764643Y-17164929D02*
X6693214Y-17379214D01*
X6878928Y-17379214D01*
X7050357Y-17179214D02*
X7078928Y-17179214D01*
X7107500Y-17193500D01*
X7121786Y-17207786D01*
X7136071Y-17236357D01*
X7150357Y-17293500D01*
X7150357Y-17364929D01*
X7136071Y-17422072D01*
X7121786Y-17450643D01*
X7107500Y-17464929D01*
X7078928Y-17479214D01*
X7050357Y-17479214D01*
X7021786Y-17464929D01*
X7007500Y-17450643D01*
X6993214Y-17422072D01*
X6978928Y-17364929D01*
X6978928Y-17293500D01*
X6993214Y-17236357D01*
X7007500Y-17207786D01*
X7021786Y-17193500D01*
X7050357Y-17179214D01*
X7278928Y-17479214D02*
X7278928Y-17279214D01*
X7278928Y-17307786D02*
X7293214Y-17293500D01*
X7321786Y-17279214D01*
X7364643Y-17279214D01*
X7393214Y-17293500D01*
X7407500Y-17322072D01*
X7407500Y-17479214D01*
X7407500Y-17322072D02*
X7421786Y-17293500D01*
X7450357Y-17279214D01*
X7493214Y-17279214D01*
X7521786Y-17293500D01*
X7536071Y-17322072D01*
X7536071Y-17479214D01*
X7678928Y-17479214D02*
X7678928Y-17279214D01*
X7678928Y-17307786D02*
X7693214Y-17293500D01*
X7721786Y-17279214D01*
X7764643Y-17279214D01*
X7793214Y-17293500D01*
X7807500Y-17322072D01*
X7807500Y-17479214D01*
X7807500Y-17322072D02*
X7821786Y-17293500D01*
X7850357Y-17279214D01*
X7893214Y-17279214D01*
X7921786Y-17293500D01*
X7936071Y-17322072D01*
X7936071Y-17479214D01*
X8521786Y-17164929D02*
X8264643Y-17550643D01*
X8907500Y-17179214D02*
X8936071Y-17179214D01*
X8964643Y-17193500D01*
X8978928Y-17207786D01*
X8993214Y-17236357D01*
X9007500Y-17293500D01*
X9007500Y-17364929D01*
X8993214Y-17422072D01*
X8978928Y-17450643D01*
X8964643Y-17464929D01*
X8936071Y-17479214D01*
X8907500Y-17479214D01*
X8878928Y-17464929D01*
X8864643Y-17450643D01*
X8850357Y-17422072D01*
X8836071Y-17364929D01*
X8836071Y-17293500D01*
X8850357Y-17236357D01*
X8864643Y-17207786D01*
X8878928Y-17193500D01*
X8907500Y-17179214D01*
X9136071Y-17450643D02*
X9150357Y-17464929D01*
X9136071Y-17479214D01*
X9121786Y-17464929D01*
X9136071Y-17450643D01*
X9136071Y-17479214D01*
X9336071Y-17179214D02*
X9364643Y-17179214D01*
X9393214Y-17193500D01*
X9407500Y-17207786D01*
X9421786Y-17236357D01*
X9436071Y-17293500D01*
X9436071Y-17364929D01*
X9421786Y-17422072D01*
X9407500Y-17450643D01*
X9393214Y-17464929D01*
X9364643Y-17479214D01*
X9336071Y-17479214D01*
X9307500Y-17464929D01*
X9293214Y-17450643D01*
X9278928Y-17422072D01*
X9264643Y-17364929D01*
X9264643Y-17293500D01*
X9278928Y-17236357D01*
X9293214Y-17207786D01*
X9307500Y-17193500D01*
X9336071Y-17179214D01*
X9707500Y-17179214D02*
X9564643Y-17179214D01*
X9550357Y-17322072D01*
X9564643Y-17307786D01*
X9593214Y-17293500D01*
X9664643Y-17293500D01*
X9693214Y-17307786D01*
X9707500Y-17322072D01*
X9721786Y-17350643D01*
X9721786Y-17422072D01*
X9707500Y-17450643D01*
X9693214Y-17464929D01*
X9664643Y-17479214D01*
X9593214Y-17479214D01*
X9564643Y-17464929D01*
X9550357Y-17450643D01*
X9993214Y-17179214D02*
X9850357Y-17179214D01*
X9836071Y-17322072D01*
X9850357Y-17307786D01*
X9878928Y-17293500D01*
X9950357Y-17293500D01*
X9978928Y-17307786D01*
X9993214Y-17322072D01*
X10007500Y-17350643D01*
X10007500Y-17422072D01*
X9993214Y-17450643D01*
X9978928Y-17464929D01*
X9950357Y-17479214D01*
X9878928Y-17479214D01*
X9850357Y-17464929D01*
X9836071Y-17450643D01*
X10121786Y-17179214D02*
X10121786Y-17236357D01*
X10236071Y-17179214D02*
X10236071Y-17236357D01*
X10678928Y-17593500D02*
X10664643Y-17579214D01*
X10636071Y-17536357D01*
X10621786Y-17507786D01*
X10607500Y-17464929D01*
X10593214Y-17393500D01*
X10593214Y-17336357D01*
X10607500Y-17264929D01*
X10621786Y-17222072D01*
X10636071Y-17193500D01*
X10664643Y-17150643D01*
X10678928Y-17136357D01*
X10778928Y-17207786D02*
X10793214Y-17193500D01*
X10821786Y-17179214D01*
X10893214Y-17179214D01*
X10921786Y-17193500D01*
X10936071Y-17207786D01*
X10950357Y-17236357D01*
X10950357Y-17264929D01*
X10936071Y-17307786D01*
X10764643Y-17479214D01*
X10950357Y-17479214D01*
X11307500Y-17479214D02*
X11307500Y-17179214D01*
X11436071Y-17479214D02*
X11436071Y-17322072D01*
X11421786Y-17293500D01*
X11393214Y-17279214D01*
X11350357Y-17279214D01*
X11321786Y-17293500D01*
X11307500Y-17307786D01*
X11621786Y-17479214D02*
X11593214Y-17464929D01*
X11578928Y-17450643D01*
X11564643Y-17422072D01*
X11564643Y-17336357D01*
X11578928Y-17307786D01*
X11593214Y-17293500D01*
X11621786Y-17279214D01*
X11664643Y-17279214D01*
X11693214Y-17293500D01*
X11707500Y-17307786D01*
X11721786Y-17336357D01*
X11721786Y-17422072D01*
X11707500Y-17450643D01*
X11693214Y-17464929D01*
X11664643Y-17479214D01*
X11621786Y-17479214D01*
X11893214Y-17479214D02*
X11864643Y-17464929D01*
X11850357Y-17436357D01*
X11850357Y-17179214D01*
X12121786Y-17464929D02*
X12093214Y-17479214D01*
X12036071Y-17479214D01*
X12007500Y-17464929D01*
X11993214Y-17436357D01*
X11993214Y-17322072D01*
X12007500Y-17293500D01*
X12036071Y-17279214D01*
X12093214Y-17279214D01*
X12121786Y-17293500D01*
X12136071Y-17322072D01*
X12136071Y-17350643D01*
X11993214Y-17379214D01*
X12250357Y-17464929D02*
X12278928Y-17479214D01*
X12336071Y-17479214D01*
X12364643Y-17464929D01*
X12378928Y-17436357D01*
X12378928Y-17422072D01*
X12364643Y-17393500D01*
X12336071Y-17379214D01*
X12293214Y-17379214D01*
X12264643Y-17364929D01*
X12250357Y-17336357D01*
X12250357Y-17322072D01*
X12264643Y-17293500D01*
X12293214Y-17279214D01*
X12336071Y-17279214D01*
X12364643Y-17293500D01*
X12478928Y-17593500D02*
X12493214Y-17579214D01*
X12521786Y-17536357D01*
X12536071Y-17507786D01*
X12550357Y-17464929D01*
X12564643Y-17393500D01*
X12564643Y-17336357D01*
X12550357Y-17264929D01*
X12536071Y-17222072D01*
X12521786Y-17193500D01*
X12493214Y-17150643D01*
X12478928Y-17136357D01*
X5832500Y-17659500D02*
X5992500Y-17819500D01*
X5992500Y-17659500D02*
X5832500Y-17819500D01*
X5969069Y-17796069D02*
X5969069Y-17682931D01*
X5855931Y-17682931D01*
X5855931Y-17796069D01*
X5969069Y-17796069D01*
X6436071Y-17875214D02*
X6264643Y-17875214D01*
X6350357Y-17875214D02*
X6350357Y-17575214D01*
X6321786Y-17618072D01*
X6293214Y-17646643D01*
X6264643Y-17660929D01*
X6564643Y-17846643D02*
X6578928Y-17860929D01*
X6564643Y-17875214D01*
X6550357Y-17860929D01*
X6564643Y-17846643D01*
X6564643Y-17875214D01*
X6836071Y-17575214D02*
X6778928Y-17575214D01*
X6750357Y-17589500D01*
X6736071Y-17603786D01*
X6707500Y-17646643D01*
X6693214Y-17703786D01*
X6693214Y-17818072D01*
X6707500Y-17846643D01*
X6721786Y-17860929D01*
X6750357Y-17875214D01*
X6807500Y-17875214D01*
X6836071Y-17860929D01*
X6850357Y-17846643D01*
X6864643Y-17818072D01*
X6864643Y-17746643D01*
X6850357Y-17718072D01*
X6836071Y-17703786D01*
X6807500Y-17689500D01*
X6750357Y-17689500D01*
X6721786Y-17703786D01*
X6707500Y-17718072D01*
X6693214Y-17746643D01*
X7050357Y-17575214D02*
X7078928Y-17575214D01*
X7107500Y-17589500D01*
X7121786Y-17603786D01*
X7136071Y-17632357D01*
X7150357Y-17689500D01*
X7150357Y-17760929D01*
X7136071Y-17818072D01*
X7121786Y-17846643D01*
X7107500Y-17860929D01*
X7078928Y-17875214D01*
X7050357Y-17875214D01*
X7021786Y-17860929D01*
X7007500Y-17846643D01*
X6993214Y-17818072D01*
X6978928Y-17760929D01*
X6978928Y-17689500D01*
X6993214Y-17632357D01*
X7007500Y-17603786D01*
X7021786Y-17589500D01*
X7050357Y-17575214D01*
X7278928Y-17875214D02*
X7278928Y-17675214D01*
X7278928Y-17703786D02*
X7293214Y-17689500D01*
X7321786Y-17675214D01*
X7364643Y-17675214D01*
X7393214Y-17689500D01*
X7407500Y-17718072D01*
X7407500Y-17875214D01*
X7407500Y-17718072D02*
X7421786Y-17689500D01*
X7450357Y-17675214D01*
X7493214Y-17675214D01*
X7521786Y-17689500D01*
X7536071Y-17718072D01*
X7536071Y-17875214D01*
X7678928Y-17875214D02*
X7678928Y-17675214D01*
X7678928Y-17703786D02*
X7693214Y-17689500D01*
X7721786Y-17675214D01*
X7764643Y-17675214D01*
X7793214Y-17689500D01*
X7807500Y-17718072D01*
X7807500Y-17875214D01*
X7807500Y-17718072D02*
X7821786Y-17689500D01*
X7850357Y-17675214D01*
X7893214Y-17675214D01*
X7921786Y-17689500D01*
X7936071Y-17718072D01*
X7936071Y-17875214D01*
X8521786Y-17560929D02*
X8264643Y-17946643D01*
X8907500Y-17575214D02*
X8936071Y-17575214D01*
X8964643Y-17589500D01*
X8978928Y-17603786D01*
X8993214Y-17632357D01*
X9007500Y-17689500D01*
X9007500Y-17760929D01*
X8993214Y-17818072D01*
X8978928Y-17846643D01*
X8964643Y-17860929D01*
X8936071Y-17875214D01*
X8907500Y-17875214D01*
X8878928Y-17860929D01*
X8864643Y-17846643D01*
X8850357Y-17818072D01*
X8836071Y-17760929D01*
X8836071Y-17689500D01*
X8850357Y-17632357D01*
X8864643Y-17603786D01*
X8878928Y-17589500D01*
X8907500Y-17575214D01*
X9136071Y-17846643D02*
X9150357Y-17860929D01*
X9136071Y-17875214D01*
X9121786Y-17860929D01*
X9136071Y-17846643D01*
X9136071Y-17875214D01*
X9336071Y-17575214D02*
X9364643Y-17575214D01*
X9393214Y-17589500D01*
X9407500Y-17603786D01*
X9421786Y-17632357D01*
X9436071Y-17689500D01*
X9436071Y-17760929D01*
X9421786Y-17818072D01*
X9407500Y-17846643D01*
X9393214Y-17860929D01*
X9364643Y-17875214D01*
X9336071Y-17875214D01*
X9307500Y-17860929D01*
X9293214Y-17846643D01*
X9278928Y-17818072D01*
X9264643Y-17760929D01*
X9264643Y-17689500D01*
X9278928Y-17632357D01*
X9293214Y-17603786D01*
X9307500Y-17589500D01*
X9336071Y-17575214D01*
X9693214Y-17575214D02*
X9636071Y-17575214D01*
X9607500Y-17589500D01*
X9593214Y-17603786D01*
X9564643Y-17646643D01*
X9550357Y-17703786D01*
X9550357Y-17818072D01*
X9564643Y-17846643D01*
X9578928Y-17860929D01*
X9607500Y-17875214D01*
X9664643Y-17875214D01*
X9693214Y-17860929D01*
X9707500Y-17846643D01*
X9721786Y-17818072D01*
X9721786Y-17746643D01*
X9707500Y-17718072D01*
X9693214Y-17703786D01*
X9664643Y-17689500D01*
X9607500Y-17689500D01*
X9578928Y-17703786D01*
X9564643Y-17718072D01*
X9550357Y-17746643D01*
X9821786Y-17575214D02*
X10007500Y-17575214D01*
X9907500Y-17689500D01*
X9950357Y-17689500D01*
X9978928Y-17703786D01*
X9993214Y-17718072D01*
X10007500Y-17746643D01*
X10007500Y-17818072D01*
X9993214Y-17846643D01*
X9978928Y-17860929D01*
X9950357Y-17875214D01*
X9864643Y-17875214D01*
X9836071Y-17860929D01*
X9821786Y-17846643D01*
X10121786Y-17575214D02*
X10121786Y-17632357D01*
X10236071Y-17575214D02*
X10236071Y-17632357D01*
X10678928Y-17989500D02*
X10664643Y-17975214D01*
X10636071Y-17932357D01*
X10621786Y-17903786D01*
X10607500Y-17860929D01*
X10593214Y-17789500D01*
X10593214Y-17732357D01*
X10607500Y-17660929D01*
X10621786Y-17618072D01*
X10636071Y-17589500D01*
X10664643Y-17546643D01*
X10678928Y-17532357D01*
X10778928Y-17603786D02*
X10793214Y-17589500D01*
X10821786Y-17575214D01*
X10893214Y-17575214D01*
X10921786Y-17589500D01*
X10936071Y-17603786D01*
X10950357Y-17632357D01*
X10950357Y-17660929D01*
X10936071Y-17703786D01*
X10764643Y-17875214D01*
X10950357Y-17875214D01*
X11307500Y-17875214D02*
X11307500Y-17575214D01*
X11436071Y-17875214D02*
X11436071Y-17718072D01*
X11421786Y-17689500D01*
X11393214Y-17675214D01*
X11350357Y-17675214D01*
X11321786Y-17689500D01*
X11307500Y-17703786D01*
X11621786Y-17875214D02*
X11593214Y-17860929D01*
X11578928Y-17846643D01*
X11564643Y-17818072D01*
X11564643Y-17732357D01*
X11578928Y-17703786D01*
X11593214Y-17689500D01*
X11621786Y-17675214D01*
X11664643Y-17675214D01*
X11693214Y-17689500D01*
X11707500Y-17703786D01*
X11721786Y-17732357D01*
X11721786Y-17818072D01*
X11707500Y-17846643D01*
X11693214Y-17860929D01*
X11664643Y-17875214D01*
X11621786Y-17875214D01*
X11893214Y-17875214D02*
X11864643Y-17860929D01*
X11850357Y-17832357D01*
X11850357Y-17575214D01*
X12121786Y-17860929D02*
X12093214Y-17875214D01*
X12036071Y-17875214D01*
X12007500Y-17860929D01*
X11993214Y-17832357D01*
X11993214Y-17718072D01*
X12007500Y-17689500D01*
X12036071Y-17675214D01*
X12093214Y-17675214D01*
X12121786Y-17689500D01*
X12136071Y-17718072D01*
X12136071Y-17746643D01*
X11993214Y-17775214D01*
X12250357Y-17860929D02*
X12278928Y-17875214D01*
X12336071Y-17875214D01*
X12364643Y-17860929D01*
X12378928Y-17832357D01*
X12378928Y-17818072D01*
X12364643Y-17789500D01*
X12336071Y-17775214D01*
X12293214Y-17775214D01*
X12264643Y-17760929D01*
X12250357Y-17732357D01*
X12250357Y-17718072D01*
X12264643Y-17689500D01*
X12293214Y-17675214D01*
X12336071Y-17675214D01*
X12364643Y-17689500D01*
X12478928Y-17989500D02*
X12493214Y-17975214D01*
X12521786Y-17932357D01*
X12536071Y-17903786D01*
X12550357Y-17860929D01*
X12564643Y-17789500D01*
X12564643Y-17732357D01*
X12550357Y-17660929D01*
X12536071Y-17618072D01*
X12521786Y-17589500D01*
X12493214Y-17546643D01*
X12478928Y-17532357D01*
X5692500Y-17985500D02*
X5992500Y-18285500D01*
X5992500Y-17985500D02*
X5692500Y-18285500D01*
X5842500Y-18285500D02*
X5992500Y-18135500D01*
X5842500Y-17985500D01*
X5692500Y-18135500D01*
X5842500Y-18285500D01*
X6250357Y-17971214D02*
X6436071Y-17971214D01*
X6336071Y-18085500D01*
X6378928Y-18085500D01*
X6407500Y-18099786D01*
X6421786Y-18114072D01*
X6436071Y-18142643D01*
X6436071Y-18214072D01*
X6421786Y-18242643D01*
X6407500Y-18256929D01*
X6378928Y-18271214D01*
X6293214Y-18271214D01*
X6264643Y-18256929D01*
X6250357Y-18242643D01*
X6564643Y-18242643D02*
X6578928Y-18256929D01*
X6564643Y-18271214D01*
X6550357Y-18256929D01*
X6564643Y-18242643D01*
X6564643Y-18271214D01*
X6764643Y-17971214D02*
X6793214Y-17971214D01*
X6821786Y-17985500D01*
X6836071Y-17999786D01*
X6850357Y-18028357D01*
X6864643Y-18085500D01*
X6864643Y-18156929D01*
X6850357Y-18214072D01*
X6836071Y-18242643D01*
X6821786Y-18256929D01*
X6793214Y-18271214D01*
X6764643Y-18271214D01*
X6736071Y-18256929D01*
X6721786Y-18242643D01*
X6707500Y-18214072D01*
X6693214Y-18156929D01*
X6693214Y-18085500D01*
X6707500Y-18028357D01*
X6721786Y-17999786D01*
X6736071Y-17985500D01*
X6764643Y-17971214D01*
X7050357Y-17971214D02*
X7078928Y-17971214D01*
X7107500Y-17985500D01*
X7121786Y-17999786D01*
X7136071Y-18028357D01*
X7150357Y-18085500D01*
X7150357Y-18156929D01*
X7136071Y-18214072D01*
X7121786Y-18242643D01*
X7107500Y-18256929D01*
X7078928Y-18271214D01*
X7050357Y-18271214D01*
X7021786Y-18256929D01*
X7007500Y-18242643D01*
X6993214Y-18214072D01*
X6978928Y-18156929D01*
X6978928Y-18085500D01*
X6993214Y-18028357D01*
X7007500Y-17999786D01*
X7021786Y-17985500D01*
X7050357Y-17971214D01*
X7278928Y-18271214D02*
X7278928Y-18071214D01*
X7278928Y-18099786D02*
X7293214Y-18085500D01*
X7321786Y-18071214D01*
X7364643Y-18071214D01*
X7393214Y-18085500D01*
X7407500Y-18114072D01*
X7407500Y-18271214D01*
X7407500Y-18114072D02*
X7421786Y-18085500D01*
X7450357Y-18071214D01*
X7493214Y-18071214D01*
X7521786Y-18085500D01*
X7536071Y-18114072D01*
X7536071Y-18271214D01*
X7678928Y-18271214D02*
X7678928Y-18071214D01*
X7678928Y-18099786D02*
X7693214Y-18085500D01*
X7721786Y-18071214D01*
X7764643Y-18071214D01*
X7793214Y-18085500D01*
X7807500Y-18114072D01*
X7807500Y-18271214D01*
X7807500Y-18114072D02*
X7821786Y-18085500D01*
X7850357Y-18071214D01*
X7893214Y-18071214D01*
X7921786Y-18085500D01*
X7936071Y-18114072D01*
X7936071Y-18271214D01*
X8521786Y-17956929D02*
X8264643Y-18342643D01*
X8907500Y-17971214D02*
X8936071Y-17971214D01*
X8964643Y-17985500D01*
X8978928Y-17999786D01*
X8993214Y-18028357D01*
X9007500Y-18085500D01*
X9007500Y-18156929D01*
X8993214Y-18214072D01*
X8978928Y-18242643D01*
X8964643Y-18256929D01*
X8936071Y-18271214D01*
X8907500Y-18271214D01*
X8878928Y-18256929D01*
X8864643Y-18242643D01*
X8850357Y-18214072D01*
X8836071Y-18156929D01*
X8836071Y-18085500D01*
X8850357Y-18028357D01*
X8864643Y-17999786D01*
X8878928Y-17985500D01*
X8907500Y-17971214D01*
X9136071Y-18242643D02*
X9150357Y-18256929D01*
X9136071Y-18271214D01*
X9121786Y-18256929D01*
X9136071Y-18242643D01*
X9136071Y-18271214D01*
X9436071Y-18271214D02*
X9264643Y-18271214D01*
X9350357Y-18271214D02*
X9350357Y-17971214D01*
X9321786Y-18014072D01*
X9293214Y-18042643D01*
X9264643Y-18056929D01*
X9721786Y-18271214D02*
X9550357Y-18271214D01*
X9636071Y-18271214D02*
X9636071Y-17971214D01*
X9607500Y-18014072D01*
X9578928Y-18042643D01*
X9550357Y-18056929D01*
X9893214Y-18099786D02*
X9864643Y-18085500D01*
X9850357Y-18071214D01*
X9836071Y-18042643D01*
X9836071Y-18028357D01*
X9850357Y-17999786D01*
X9864643Y-17985500D01*
X9893214Y-17971214D01*
X9950357Y-17971214D01*
X9978928Y-17985500D01*
X9993214Y-17999786D01*
X10007500Y-18028357D01*
X10007500Y-18042643D01*
X9993214Y-18071214D01*
X9978928Y-18085500D01*
X9950357Y-18099786D01*
X9893214Y-18099786D01*
X9864643Y-18114072D01*
X9850357Y-18128357D01*
X9836071Y-18156929D01*
X9836071Y-18214072D01*
X9850357Y-18242643D01*
X9864643Y-18256929D01*
X9893214Y-18271214D01*
X9950357Y-18271214D01*
X9978928Y-18256929D01*
X9993214Y-18242643D01*
X10007500Y-18214072D01*
X10007500Y-18156929D01*
X9993214Y-18128357D01*
X9978928Y-18114072D01*
X9950357Y-18099786D01*
X10121786Y-17971214D02*
X10121786Y-18028357D01*
X10236071Y-17971214D02*
X10236071Y-18028357D01*
X10678928Y-18385500D02*
X10664643Y-18371214D01*
X10636071Y-18328357D01*
X10621786Y-18299786D01*
X10607500Y-18256929D01*
X10593214Y-18185500D01*
X10593214Y-18128357D01*
X10607500Y-18056929D01*
X10621786Y-18014072D01*
X10636071Y-17985500D01*
X10664643Y-17942643D01*
X10678928Y-17928357D01*
X10950357Y-18271214D02*
X10778928Y-18271214D01*
X10864643Y-18271214D02*
X10864643Y-17971214D01*
X10836071Y-18014072D01*
X10807500Y-18042643D01*
X10778928Y-18056929D01*
X11307500Y-18271214D02*
X11307500Y-17971214D01*
X11436071Y-18271214D02*
X11436071Y-18114072D01*
X11421786Y-18085500D01*
X11393214Y-18071214D01*
X11350357Y-18071214D01*
X11321786Y-18085500D01*
X11307500Y-18099786D01*
X11621786Y-18271214D02*
X11593214Y-18256929D01*
X11578928Y-18242643D01*
X11564643Y-18214072D01*
X11564643Y-18128357D01*
X11578928Y-18099786D01*
X11593214Y-18085500D01*
X11621786Y-18071214D01*
X11664643Y-18071214D01*
X11693214Y-18085500D01*
X11707500Y-18099786D01*
X11721786Y-18128357D01*
X11721786Y-18214072D01*
X11707500Y-18242643D01*
X11693214Y-18256929D01*
X11664643Y-18271214D01*
X11621786Y-18271214D01*
X11893214Y-18271214D02*
X11864643Y-18256929D01*
X11850357Y-18228357D01*
X11850357Y-17971214D01*
X12121786Y-18256929D02*
X12093214Y-18271214D01*
X12036071Y-18271214D01*
X12007500Y-18256929D01*
X11993214Y-18228357D01*
X11993214Y-18114072D01*
X12007500Y-18085500D01*
X12036071Y-18071214D01*
X12093214Y-18071214D01*
X12121786Y-18085500D01*
X12136071Y-18114072D01*
X12136071Y-18142643D01*
X11993214Y-18171214D01*
X12236071Y-18385500D02*
X12250357Y-18371214D01*
X12278928Y-18328357D01*
X12293214Y-18299786D01*
X12307500Y-18256929D01*
X12321786Y-18185500D01*
X12321786Y-18128357D01*
X12307500Y-18056929D01*
X12293214Y-18014072D01*
X12278928Y-17985500D01*
X12250357Y-17942643D01*
X12236071Y-17928357D01*
X5832500Y-18405500D02*
X5832500Y-18725500D01*
X5672500Y-18565500D02*
X5992500Y-18565500D01*
X5992500Y-18565500D02*
G75*
G03*
X5992500Y-18565500I-160000J0D01*
G01*
X6250357Y-18401214D02*
X6436071Y-18401214D01*
X6336071Y-18515500D01*
X6378928Y-18515500D01*
X6407500Y-18529786D01*
X6421786Y-18544072D01*
X6436071Y-18572643D01*
X6436071Y-18644072D01*
X6421786Y-18672643D01*
X6407500Y-18686929D01*
X6378928Y-18701214D01*
X6293214Y-18701214D01*
X6264643Y-18686929D01*
X6250357Y-18672643D01*
X6564643Y-18672643D02*
X6578928Y-18686929D01*
X6564643Y-18701214D01*
X6550357Y-18686929D01*
X6564643Y-18672643D01*
X6564643Y-18701214D01*
X6693214Y-18429786D02*
X6707500Y-18415500D01*
X6736071Y-18401214D01*
X6807500Y-18401214D01*
X6836071Y-18415500D01*
X6850357Y-18429786D01*
X6864643Y-18458357D01*
X6864643Y-18486929D01*
X6850357Y-18529786D01*
X6678928Y-18701214D01*
X6864643Y-18701214D01*
X7050357Y-18401214D02*
X7078928Y-18401214D01*
X7107500Y-18415500D01*
X7121786Y-18429786D01*
X7136071Y-18458357D01*
X7150357Y-18515500D01*
X7150357Y-18586929D01*
X7136071Y-18644072D01*
X7121786Y-18672643D01*
X7107500Y-18686929D01*
X7078928Y-18701214D01*
X7050357Y-18701214D01*
X7021786Y-18686929D01*
X7007500Y-18672643D01*
X6993214Y-18644072D01*
X6978928Y-18586929D01*
X6978928Y-18515500D01*
X6993214Y-18458357D01*
X7007500Y-18429786D01*
X7021786Y-18415500D01*
X7050357Y-18401214D01*
X7278928Y-18701214D02*
X7278928Y-18501214D01*
X7278928Y-18529786D02*
X7293214Y-18515500D01*
X7321786Y-18501214D01*
X7364643Y-18501214D01*
X7393214Y-18515500D01*
X7407500Y-18544072D01*
X7407500Y-18701214D01*
X7407500Y-18544072D02*
X7421786Y-18515500D01*
X7450357Y-18501214D01*
X7493214Y-18501214D01*
X7521786Y-18515500D01*
X7536071Y-18544072D01*
X7536071Y-18701214D01*
X7678928Y-18701214D02*
X7678928Y-18501214D01*
X7678928Y-18529786D02*
X7693214Y-18515500D01*
X7721786Y-18501214D01*
X7764643Y-18501214D01*
X7793214Y-18515500D01*
X7807500Y-18544072D01*
X7807500Y-18701214D01*
X7807500Y-18544072D02*
X7821786Y-18515500D01*
X7850357Y-18501214D01*
X7893214Y-18501214D01*
X7921786Y-18515500D01*
X7936071Y-18544072D01*
X7936071Y-18701214D01*
X8521786Y-18386929D02*
X8264643Y-18772643D01*
X8907500Y-18401214D02*
X8936071Y-18401214D01*
X8964643Y-18415500D01*
X8978928Y-18429786D01*
X8993214Y-18458357D01*
X9007500Y-18515500D01*
X9007500Y-18586929D01*
X8993214Y-18644072D01*
X8978928Y-18672643D01*
X8964643Y-18686929D01*
X8936071Y-18701214D01*
X8907500Y-18701214D01*
X8878928Y-18686929D01*
X8864643Y-18672643D01*
X8850357Y-18644072D01*
X8836071Y-18586929D01*
X8836071Y-18515500D01*
X8850357Y-18458357D01*
X8864643Y-18429786D01*
X8878928Y-18415500D01*
X8907500Y-18401214D01*
X9136071Y-18672643D02*
X9150357Y-18686929D01*
X9136071Y-18701214D01*
X9121786Y-18686929D01*
X9136071Y-18672643D01*
X9136071Y-18701214D01*
X9436071Y-18701214D02*
X9264643Y-18701214D01*
X9350357Y-18701214D02*
X9350357Y-18401214D01*
X9321786Y-18444072D01*
X9293214Y-18472643D01*
X9264643Y-18486929D01*
X9550357Y-18429786D02*
X9564643Y-18415500D01*
X9593214Y-18401214D01*
X9664643Y-18401214D01*
X9693214Y-18415500D01*
X9707500Y-18429786D01*
X9721786Y-18458357D01*
X9721786Y-18486929D01*
X9707500Y-18529786D01*
X9536071Y-18701214D01*
X9721786Y-18701214D01*
X9978928Y-18401214D02*
X9921786Y-18401214D01*
X9893214Y-18415500D01*
X9878928Y-18429786D01*
X9850357Y-18472643D01*
X9836071Y-18529786D01*
X9836071Y-18644072D01*
X9850357Y-18672643D01*
X9864643Y-18686929D01*
X9893214Y-18701214D01*
X9950357Y-18701214D01*
X9978928Y-18686929D01*
X9993214Y-18672643D01*
X10007500Y-18644072D01*
X10007500Y-18572643D01*
X9993214Y-18544072D01*
X9978928Y-18529786D01*
X9950357Y-18515500D01*
X9893214Y-18515500D01*
X9864643Y-18529786D01*
X9850357Y-18544072D01*
X9836071Y-18572643D01*
X10121786Y-18401214D02*
X10121786Y-18458357D01*
X10236071Y-18401214D02*
X10236071Y-18458357D01*
X10678928Y-18815500D02*
X10664643Y-18801214D01*
X10636071Y-18758357D01*
X10621786Y-18729786D01*
X10607500Y-18686929D01*
X10593214Y-18615500D01*
X10593214Y-18558357D01*
X10607500Y-18486929D01*
X10621786Y-18444072D01*
X10636071Y-18415500D01*
X10664643Y-18372643D01*
X10678928Y-18358357D01*
X10764643Y-18401214D02*
X10950357Y-18401214D01*
X10850357Y-18515500D01*
X10893214Y-18515500D01*
X10921786Y-18529786D01*
X10936071Y-18544072D01*
X10950357Y-18572643D01*
X10950357Y-18644072D01*
X10936071Y-18672643D01*
X10921786Y-18686929D01*
X10893214Y-18701214D01*
X10807500Y-18701214D01*
X10778928Y-18686929D01*
X10764643Y-18672643D01*
X11307500Y-18701214D02*
X11307500Y-18401214D01*
X11436071Y-18701214D02*
X11436071Y-18544072D01*
X11421786Y-18515500D01*
X11393214Y-18501214D01*
X11350357Y-18501214D01*
X11321786Y-18515500D01*
X11307500Y-18529786D01*
X11621786Y-18701214D02*
X11593214Y-18686929D01*
X11578928Y-18672643D01*
X11564643Y-18644072D01*
X11564643Y-18558357D01*
X11578928Y-18529786D01*
X11593214Y-18515500D01*
X11621786Y-18501214D01*
X11664643Y-18501214D01*
X11693214Y-18515500D01*
X11707500Y-18529786D01*
X11721786Y-18558357D01*
X11721786Y-18644072D01*
X11707500Y-18672643D01*
X11693214Y-18686929D01*
X11664643Y-18701214D01*
X11621786Y-18701214D01*
X11893214Y-18701214D02*
X11864643Y-18686929D01*
X11850357Y-18658357D01*
X11850357Y-18401214D01*
X12121786Y-18686929D02*
X12093214Y-18701214D01*
X12036071Y-18701214D01*
X12007500Y-18686929D01*
X11993214Y-18658357D01*
X11993214Y-18544072D01*
X12007500Y-18515500D01*
X12036071Y-18501214D01*
X12093214Y-18501214D01*
X12121786Y-18515500D01*
X12136071Y-18544072D01*
X12136071Y-18572643D01*
X11993214Y-18601214D01*
X12250357Y-18686929D02*
X12278928Y-18701214D01*
X12336071Y-18701214D01*
X12364643Y-18686929D01*
X12378928Y-18658357D01*
X12378928Y-18644072D01*
X12364643Y-18615500D01*
X12336071Y-18601214D01*
X12293214Y-18601214D01*
X12264643Y-18586929D01*
X12250357Y-18558357D01*
X12250357Y-18544072D01*
X12264643Y-18515500D01*
X12293214Y-18501214D01*
X12336071Y-18501214D01*
X12364643Y-18515500D01*
X12478928Y-18815500D02*
X12493214Y-18801214D01*
X12521786Y-18758357D01*
X12536071Y-18729786D01*
X12550357Y-18686929D01*
X12564643Y-18615500D01*
X12564643Y-18558357D01*
X12550357Y-18486929D01*
X12536071Y-18444072D01*
X12521786Y-18415500D01*
X12493214Y-18372643D01*
X12478928Y-18358357D01*
M02*
